<svg version="1" xmlns="http://www.w3.org/2000/svg" viewBox="0 0 48 48">
    <path fill="#fff" d="M47.6 6.6C44.4 3.1 40.3 1 36.2 1c-4.5 0-8.8 2.5-11.8 6.7C21.4 3.5 17 1 12.5 1 8.4 1 4 3.1.8 6.6c-.4.3-.8.8-.8 1.3v36.2c0 .7 1.1 1.2 1.7.8 4.6-2.8 9.8-5.3 12.8-5.3 3.9 0 6.7 2.7 8.6 6.7.2.3.6.7.9.7h.7c.4 0 .7-.3.9-.7 1.9-4 4.7-6.7 8.5-6.7 3 0 8 2.4 12.5 5.2.6.4 1.3-.1 1.3-.8V7.9c.1-.5 0-1-.3-1.3zM22 40.3c-1-1.5-4.1-4.2-9.1-4.2-3.3 0-6.4 1.6-9.7 3.5L3.1 8.2c2.5-2.4 5-3.8 7.8-3.8C16.3 4.3 21 7.6 22 11v29.3zm22.6-.7c-3.3-1.9-6.6-3.5-10-3.5-5 0-7.7 2.7-8.7 4.2V11c1-3.4 5.2-6.7 10.6-6.7 2.7 0 5.8 1.4 8.3 3.8l-.2 31.5z"/>
</svg>
