<svg version="1" xmlns="http://www.w3.org/2000/svg" viewBox="0 0 48 48">
    <path fill="#fff" d="M23.1 8.6h2v30.8h-2zM10.248 17.14l1-1.73 26.673 15.4-1 1.73zM11.22 32.54l-1-1.73 26.672-15.4 1 1.73zM41.1 28.9c.3-.9.4-1.9.6-2.8 1.6-.3 3.3-.7 4.9-1.3 0-.9 0-1.8-.1-2.8-1.7-.6-3.3-1-5-1.3-.2-1-.4-1.9-.8-2.8-.4-.9-.7-1.8-1.2-2.6 1.2-1.2 2.3-2.5 3.2-3.9-.5-.8-1.1-1.5-1.7-2.2-1.7.5-3.3 1.1-4.8 1.9-.7-.7-1.5-1.3-2.3-1.8-.8-.5-1.6-1-2.5-1.4.2-1.7.3-3.3.3-5-.9-.4-1.8-.5-2.6-.8-1.1 1.4-2 2.9-2.7 4.4-1-.1-1.9-.2-2.9-.1-1 0-1.9.1-2.9.3-.7-1.5-1.6-3-2.6-4.3-.9.3-1.8.5-2.6.9 0 1.8.1 3.4.3 5.1-.9.4-1.6 1-2.4 1.6-.7.6-1.5 1.2-2.1 2-1.5-.7-3.1-1.4-4.7-1.9-.6.7-1.1 1.5-1.6 2.3 1 1.4 2.1 2.8 3.3 4-.4.9-.8 1.8-1 2.7-.4.9-.5 1.9-.7 2.8-1.6.3-3.3.7-4.9 1.3 0 .9 0 1.8.1 2.8 1.7.6 3.3 1 5 1.3.2 1 .4 1.9.8 2.8.4.9.7 1.8 1.2 2.6-1.2 1.2-2.3 2.5-3.2 3.9.5.8 1.1 1.5 1.7 2.2 1.7-.5 3.3-1.1 4.8-1.9.7.7 1.5 1.3 2.3 1.8.8.5 1.6 1 2.5 1.4-.2 1.7-.3 3.3-.3 5 .9.4 1.8.5 2.6.8 1.1-1.4 2-2.9 2.7-4.4 1 .1 1.9.2 2.9.1 1 0 1.9-.1 2.9-.3.8 1.5 1.7 2.9 2.7 4.3.9-.3 1.8-.5 2.6-.9 0-1.8-.1-3.4-.3-5.1.9-.4 1.6-1 2.4-1.6.7-.6 1.5-1.2 2.1-2 1.5.7 3.1 1.4 4.7 1.9.6-.7 1.1-1.5 1.6-2.3-1-1.4-2.1-2.8-3.3-4 .4-.8.8-1.7 1-2.7zm-16.9 9.7c-8 0-14.5-6.5-14.5-14.5S16.2 9.6 24.2 9.6s14.5 6.5 14.5 14.5-6.5 14.5-14.5 14.5z"/>
</svg>
