<svg version="1" xmlns="http://www.w3.org/2000/svg" viewBox="0 0 200 200" enable-background="new 0 0 200 200"><g><path opacity=".5" d="M147 18.5H53.8c-6.4 0-12.6 5-12.6 11.4v5.6H49c1.9 0 3.5 1.6 3.5 3.5s-1.6 3.5-3.5 3.5h-7.9v14H49c1.9 0 3.5 1.6 3.5 3.5s-1.6 3.5-3.5 3.5h-7.9v13H49c1.9 0 3.5 1.6 3.5 3.5s-1.6 3.5-3.5 3.5h-7.9v13H49c1.9 0 3.5 1.6 3.5 3.5s-1.6 3.5-3.5 3.5h-7.9v13H49c1.9 0 3.5 1.6 3.5 3.5s-1.6 3.5-3.5 3.5h-7.9v13H49c1.9 0 3.5 1.6 3.5 3.5s-1.6 3.5-3.5 3.5h-7.9v14H49c1.9 0 3.5 1.6 3.5 3.5s-1.6 3.5-3.5 3.5h-7.9v5.2c0 6.4 6.2 11.8 12.6 11.8H147c6.4 0 11.2-5.3 11.2-11.8V29.9c-.1-6.4-4.8-11.4-11.2-11.4zm-12.7 109H73.2s-.5-15.8 1.2-18.4c1.8-2.9 8-4.6 14.1-7.1s7.6-3.4 7.6-3.4l.1-5.8s-2.3-1.8-3-7.3c-1.4.4-2.9-2.1-3-3.5-.1-1.3.2-4.9 1.9-4.5-.4-2.7-.6-5.1-.5-6.4.1-.8.3-1.5.5-2.3.3-.7.6-1.3 1-2 .5-.8-1.4-2.3-.4-2.1 2.4.5 2.8-2.4 5.9-3 1.5-.3 3.4-.2 5.2-.2 1 0 1.4-.7 2.3-.5 1 .2 2.6 1.3 3.5 1.8.9.4 2.5.5 3.3 1.1 1.1.9 1.3 2.6 2 3.8.6 1.2 1 2.4 1.1 3.6v1.4c0 .6-.1 1.2-.1 1.9-.1 1-.2 2-.4 3.1 1.7-.4 2 3.2 1.9 4.5-.1 1.3-1.6 3.9-3 3.5-.7 5.5-3 7.3-3 7.3l.1 5.8s1.4.9 7.6 3.4c6.1 2.5 12.3 4.2 14.1 7.1 1.6 2.4 1.1 18.2 1.1 18.2z"/></g></svg>