<svg version="1" xmlns="http://www.w3.org/2000/svg" viewBox="0 0 200 200" enable-background="new 0 0 200 200"><g><path opacity=".6" d="M159.1 34.5H39.7c-8.5 0-14.6 5.9-14.6 14.3v101c0 8.5 6.1 16.7 14.6 16.7h61.2l30.2-31.2V91.5h-17v-8h1.1c2.1 0 4.3-.6 6.3-1 2-.3 3.8-1.2 5.3-2 1.6-.8 2.9-2.1 3.9-3.6 1.1-1.5 1.8-2.8 2.2-5.1l.1-.3h8v58h34V48.8c.1-8.4-7.5-14.3-15.9-14.3zM50.6 52c0-3.7 3-6.8 6.8-6.8 3.7 0 6.8 3 6.8 6.8 0 3.7-3 6.8-6.8 6.8s-6.8-3.1-6.8-6.8zm51.5 74.7c-1.2 2.6-3 4.8-5.1 6.5-2.1 1.7-4.6 3-7.5 3.9-2.8.9-5.8 1.3-9 1.3-3.4 0-6.5-.5-9.3-1.4-2.8-1-5.3-2.4-7.3-4.3s-3.5-4.3-4.6-7c-1.1-2.7-1.6-5.3-1.5-8.8v-.4h9.8v.4c.1 4 1.3 6.9 3.4 9.4 2.1 2.5 5.2 3.5 9.4 3.5 1.8 0 3.5-.3 5.1-.9 1.6-.5 3-1.4 4.2-2.3 1.2-1 2.1-2.2 2.8-3.6.7-1.4 1-3.1 1-4.8 0-1.9-.3-3.5-1-5-.7-1.4-1.6-2.7-2.7-3.6-1.1-1-2.5-1.7-4-2.2-1.6-.5-3.3-.7-5.2-.7-1.6 0-3.2.1-4.6.3l-1.1.1v-9l1.2.8c.2 0 .5.7.6.7h2.6c1.5 0 3-.8 4.4-1.2 1.4-.4 2.6-1.3 3.6-2.1s1.8-1.9 2.4-3.2c.6-1.2.9-2.7.9-4.2 0-3.2-1-5.5-2.9-7.1-2-1.6-4.6-2.4-7.6-2.4-1.9 0-3.6.3-5 1s-2.6 1.6-3.5 2.8c-.9 1.2-1.6 2.6-2.1 4.2s-.7 3.3-.7 5.1v2.2h-9.9v-1.6c.1-3.2.7-6.5 1.6-9.1.9-2.7 2.3-5.2 4-7.1 1.7-1.9 4-3.5 6.6-4.6 2.6-1.1 5.6-1.7 9-1.7 2.9 0 5.6.4 8.1 1.1 2.5.7 4.8 1.9 6.6 3.3 1.9 1.5 3.4 3.4 4.5 5.8 1.1 2.3 1.6 5.1 1.6 8.2 0 3.1-.9 6-2.8 8.4-1.3 1.8-2.9 3.2-4.8 4.4 3.1 1.1 5.6 2.9 7.2 5.4 2 3 3.1 6.6 3.1 10.8.4 3.1-.3 6.1-1.5 8.7zm42.7-67.9c-3.7 0-6.8-3-6.8-6.8 0-3.7 3-6.8 6.8-6.8 3.7 0 6.8 3 6.8 6.8 0 3.7-3 6.8-6.8 6.8z"/><path opacity=".85" d="M137.7 128.3v36.8h-36.8z"/><path opacity=".2" d="M80.6 138.4c-3.4 0-6.5-.5-9.3-1.4-2.8-1-5.3-2.4-7.3-4.3s-3.5-4.3-4.6-7c-1.1-2.7-1.6-5.3-1.5-8.8v-.4h9.8v.4c.1 4 1.3 6.9 3.4 9.4 2.1 2.5 5.2 3.5 9.4 3.5 1.8 0 3.5-.3 5.1-.9 1.6-.5 3-1.4 4.2-2.3 1.2-1 2.1-2.2 2.8-3.6.7-1.4 1-3.1 1-4.8 0-1.9-.3-3.5-1-5-.7-1.4-1.6-2.7-2.7-3.6-1.1-1-2.5-1.7-4-2.2-1.6-.5-3.3-.7-5.2-.7-1.6 0-3.2.1-4.6.3l-1.1.1v-9l1.2.8c.2 0 .5.7.6.7h2.6c1.5 0 3-.8 4.4-1.2 1.4-.4 2.6-1.3 3.6-2.1s1.8-1.9 2.4-3.2c.6-1.2.9-2.7.9-4.2 0-3.2-1-5.5-2.9-7.1-2-1.6-4.6-2.4-7.6-2.4-1.9 0-3.6.3-5 1s-2.6 1.6-3.5 2.8c-.9 1.2-1.6 2.6-2.1 4.2s-.7 3.3-.7 5.1v2.2H59v-1.6c.1-3.2.7-6.5 1.6-9.1.9-2.7 2.3-5.2 4-7.1 1.7-1.9 4-3.5 6.6-4.6 2.6-1.1 5.6-1.7 9-1.7 2.9 0 5.6.4 8.1 1.1 2.5.7 4.8 1.9 6.6 3.3 1.9 1.5 3.4 3.4 4.5 5.8 1.1 2.3 1.6 5.1 1.6 8.2 0 3.1-.9 6-2.8 8.4-1.3 1.8-2.9 3.2-4.8 4.4 3.1 1.1 5.6 2.9 7.2 5.4 2 3 3.1 6.6 3.1 10.8 0 3.4-.6 6.4-1.9 9-1.2 2.6-3 4.8-5.1 6.5-2.1 1.7-4.6 3-7.5 3.9-2.5.6-5.5 1-8.6 1zM138.1 138.5v-9h3v-58h-8l-.1.2c-.4 2.3-1.1 3.8-2.2 5.3s-2.4 2.5-3.9 3.3c-1.6.9-3.4 1.9-5.3 2.2-2 .3-4.1.9-6.3.9h-1.1v8h17v47h6.9z"/><path opacity=".35" d="M137.6 165.1v-36.8h36.8z"/></g></svg>