<svg version="1" xmlns="http://www.w3.org/2000/svg" viewBox="0 0 200 200" enable-background="new 0 0 200 200"><g><path opacity=".1" d="M60.4 60.2c-3.2 1-6.7 2.2-10.8 3-1.2 7.6-4.5 28.4-7.4 46.4l-4.1 25.6c5.5-.7 14.5-2.2 20.4-3.3 5.4-1 7.8-1.4 8.8-1.4 1.2-.1 2.5-.1 3.8-.1 7.9 0 15.9 1.8 23.3 3.5.5.1.7.2 1.7.3V59.4c-4-.8-11.5-1.9-14.5-2.2-1.6-.2-3.2-.3-4.7-.3-6.2 0-11.2 1.6-16.5 3.3zM71.1 136.4c-1.1 0-2.3-.1-3.4 0-.8.1-4.2.8-8.2 1.5-2.6.5-5.4.6-8.3 1.6H91c-6.5-2-13.2-3.1-19.9-3.1z"/><path opacity=".9" d="M159.4 57.2h-7.1c-4.2-.8-7.8-1.9-11.3-3-5.7-1.8-11.1-3.6-18.3-3.6-1.7 0-3.5.1-5.3.3-8.9 1-14.6 2-17.4 3.1-2.9-1.1-8.6-2.2-17.4-3.1-1.8-.2-3.6-.3-5.3-.3-7.2 0-12.6 1.7-18.2 3.6-3.6 1.1-7.2 2.3-11.4 3h-7.1L25 146.6h65c.7 1.6 2.3 2.8 4.2 2.8h11.6c1.9 0 3.5-1.2 4.2-2.8h65l-15.6-89.4zM58.7 54.7c5.7-1.8 11-3.6 18.2-3.6 1.6 0 3.4.1 5.2.3 11.2 1.2 15.9 2.4 17.9 3.3 2-.9 6.7-2.1 17.9-3.3 1.8-.2 3.6-.3 5.2-.3 7.1 0 12.5 1.7 18.2 3.6 4 1.3 8.1 2.6 13 3.4l1 .2.2 1s12.7 79.5 12.8 80l.1.7-.5.6c-.5.6-1.4.7-2.4.7-4.2 0-16.2-2.1-25-3.6-4-.7-7.4-1.3-8.2-1.4-1.1-.1-2.2-.1-3.4-.1-7.3 0-14.7 1.7-21.8 3.4-1.9.4-3.8.9-5.7 1.3v.6l-1.4-.3-1.4.3v-.6c-1.9-.4-3.7-.8-5.7-1.3-7.1-1.7-14.5-3.4-21.8-3.4-1.1 0-2.3 0-3.4.1-.8.1-4.2.7-8.2 1.4-8.8 1.5-20.8 3.6-25 3.6-1.1 0-1.9-.1-2.4-.7l-.4-.5.1-.8c0-.2 12.8-80 12.8-80l.2-1 1-.2c4.8-.8 8.9-2.1 12.9-3.4z"/><path opacity=".4" d="M82.1 51.4c-1.9-.2-3.6-.3-5.2-.3-7.1 0-12.5 1.7-18.2 3.6-4 1.3-8.1 2.6-13 3.4l-1 .2-.2 1s-12.8 79.8-12.8 80l-.1.8.4.5c.5.6 1.4.7 2.4.7 4.2 0 16.2-2.1 25-3.6 4-.7 7.4-1.3 8.2-1.4 1.1-.1 2.3-.1 3.4-.1 7.3 0 15 1.7 22.1 3.4 1.9.4 3.9.9 5.9 1.3v.6l1.5-.3 1.5.3V55.1l-1.6-.4c-.1 0-.3.1-.4.1-1.8-1-6.7-2.2-17.9-3.4zm14 82.9c-1-.1-1.2-.2-1.7-.3-7.4-1.7-15.3-3.5-23.2-3.5-1.3 0-2.6 0-3.9.1-1 .1-3.4.5-8.8 1.4-5.9 1-14.9 2.6-20.4 3.3l4.1-25.6c2.9-18 6.2-38.8 7.4-46.4 4.1-.8 7.6-2 10.8-3 5.2-1.7 10.2-3.3 16.5-3.3 1.4 0 3.2.1 4.8.3 3 .3 10.5 1.4 14.5 2.2v74.8z"/><path opacity=".1" d="M106.2 133.9c7.5-1.7 14.9-3.5 22.8-3.5 1.3 0 2.5 0 3.8.1 1 .1 3.2.4 8.7 1.4 5.9 1 14.8 2.6 20.3 3.3-2-12.4-7.2-45.2-10.1-63.1l-1.4-9c-4-.8-7.4-1.9-10.7-3-5.5-1.8-10.2-3.3-16.4-3.3-1.5 0-2.7.1-4.2.3-3 .3-10.8 1.4-13.8 2.2v74.9c-.1-.1.5-.2 1-.3zM140.5 137.9c-4-.7-7.4-1.4-8.2-1.5-1.1-.1-2.2 0-3.3 0-6.6 0-13.3 1.1-19.8 3.1h39.6c-2.8-1-5.7-1.2-8.3-1.6z"/><path opacity=".4" d="M99.1 141.4l1.5-.3 1.5.3v-.6c2-.4 3.4-.8 5.3-1.3 7.1-1.7 14.4-3.4 21.7-3.4 1.1 0 2.2 0 3.3.1.8.1 4.2.7 8.2 1.4 8.8 1.5 20.8 3.6 25 3.6 1.1 0 1.9-.1 2.4-.7l.5-.6-.1-.7c-.1-.5-12.8-80-12.8-80l-.2-1-1-.2c-.3-.1-.6-.1-1-.2h-.2c-4.4-.8-8.2-2-11.8-3.2-5.7-1.8-11.1-3.6-18.2-3.6-1.6 0-3.4.1-5.2.3-11.3 1.2-16 2.4-17.9 3.3-.2-.1-.1-.2-.2-.2l-.6.6v86.4zm6-82c3-.8 10.8-1.9 13.8-2.2 1.5-.2 2.9-.3 4.3-.3 6.3 0 10.9 1.5 16.4 3.3 3.3 1.1 6.7 2.2 10.7 3l1.4 9c2.9 17.8 8.1 50.6 10.1 63.1-5.5-.7-14.5-2.2-20.4-3.3-5.6-1-7.8-1.4-8.8-1.4-1.3-.1-2.5-.1-3.8-.1-7.9 0-15.2 1.8-22.7 3.5-.5.1-1.1.2-1.1.3V59.4z"/><path opacity=".5" d="M96.1 122.1v-4.5c-2-.3-3.7-.6-5.9-.9l.4-8.2c2.2.3 4.5.7 5.5.9v-4.5c-1-.3-3.4-.6-5.4-.9l.4-8.3c2 .3 4 .7 5 1v-4.5c-1-.3-3.1-.6-5-.9l.4-8.3c1.9.4 3.6.7 4.6 1v-4.6c-1-.3-2.8-.6-4.5-.9l.4-7.8c2.2.5 4.1 1 4.1 1.1v-4.6c-1-.3-2.5-.6-4.1-1l.2-7.5c-.7-.1-1.5-.2-2.2-.4l-.3 7.4c-1.4-.3-3-.5-4.6-.7l.5-7.4c-.8-.1-1.5-.2-2.2-.3l-.5 7.5c-1.2-.1-2.4-.1-3.6-.2L80 57c-.8-.1-1.5-.1-2.2-.1l-.8 7.8c-1.9 0-3.8.2-5.7.4l.9-7.9c-.8.1-1.5.2-2.3.4l-.9 7.8c-8.8 1.1-16.6 3.3-20.5 4.5-.2 1.5-.5 3.1-.8 4.9 1.3-.4 10.3-3.5 20.7-4.9l-1 8.2c-8.8 1.1-16.7 3-20.9 4.2-.3 1.6-.5 3.2-.8 4.8 2.9-.9 11.4-3.3 21.2-4.5l-1 8.1c-9.3 1.1-17.5 3.3-21.5 4.5-.3 1.6-.5 3.2-.8 4.9 1.7-.6 11-3.4 21.7-4.8l-.9 8c-9.2 1-17.6 3.1-22 4.4l-.3 2.1-.4 2.8c3-.9 12.1-3.5 22.2-4.7l-1 8.1c-9.4 1-17.8 3-22.5 4.3l-.8 4.8c3.5-1 12.6-3.5 22.7-4.6L61 131.8c.9-.1 1.6-.3 2.3-.4l1.3-11.1c2.1-.2 4.3-.3 6.4-.4l-1.1 10.8h2.2l1.1-10.8c1.9 0 3.9.1 5.9.3l-.7 11c.7.1 1.5.2 2.2.3l.7-11.1c2.1.2 4.2.4 6.1.7l-.4 11.6c.7.2 1.5.3 2.2.5l.6-11.7c2.7-.1 5.3.3 6.3.6zm-17.4-53c1.3 0 2.6.1 3.8.2l-.5 8.1c-1.3-.1-2.7-.1-4.2-.1l.9-8.2zm-7.9.5c1.9-.2 3.8-.4 5.7-.4l-.9 8.2c-2 .1-3.9.2-5.8.4l1-8.2zm-1.5 12.7c1.9-.2 3.9-.4 5.9-.5l-.9 8.2c-2 .1-4 .2-6 .4l1-8.1zm2.4 33.2c-.1 0-.3-.1-.4-.1-2 0-4 .1-5.9.3l1-7.9c2-.2 4.1-.1 6.1-.1h.1l-.9 7.8zm1.3-12.9h-.6c-1.9 0-3.7.1-5.5.3l1-8c2-.2 4-.4 6.1-.4l-1 8.1zm6.6 12.9l-5.7-.3.9-8.2c1.8 0 3.6.1 5.4.3l-.6 8.2zm.8-12.6c-1.7-.1-3.5-.2-5.2-.3l.9-8.2c1.6 0 3.3.1 4.9.2l-.6 8.3zm.8-12.8c-1.5-.1-3.1-.1-4.7-.1l.9-8.2c1.5 0 3 0 4.3.1l-.5 8.2zm6.6 26.2c-1.9-.2-3.9-.5-6-.7l.5-8.2c2 .2 4 .4 5.8.7l-.3 8.2zm.5-12.6c-1.8-.2-3.7-.5-5.7-.7l.5-8.4c1.9.2 3.8.4 5.4.7l-.2 8.4zm.4-12.8c-1.7-.2-3.4-.5-5.3-.6l.5-8.3c1.8.1 3.5.4 5.1.6l-.3 8.3zm.5-12.8c-1.5-.2-3.2-.4-5-.6l.5-8.1c1.7.2 3.3.5 4.7.7l-.2 8zM142.8 121l1.4 11.4c.7.1 1.5.3 2.3.4l-1.4-11.4c2 .4 3.9.7 5.6 1.1l1.3 11.3c.8.1 1.5.2 2.3.4L153 123c3.2.8 5.7 1.5 7.2 1.9-.2-1.5-.5-3.1-.8-4.8-1.8-.5-4.2-1.1-7-1.7l-.9-7.8c3.1.8 5.5 1.5 6.7 1.9-.3-1.6-.5-3.2-.8-4.8-1.6-.5-3.8-1.1-6.5-1.7l-.9-7.6c3.5.9 5.8 1.7 6.2 1.8-.3-1.6-.5-3.2-.8-4.9-1.4-.4-3.5-1-5.9-1.6l-.9-7.9c2.6.7 4.5 1.2 5.6 1.5-.3-1.6-.5-3.3-.8-4.8-1.4-.4-3.2-.9-5.4-1.4l-.9-7.7c3.1.9 5 1.5 5 1.6v-.1c-.1-.9-.3-1.7-.4-2.5l-.4-2.3c-1.2-.4-2.9-.9-4.9-1.4l-.8-6.4c-.8-.2-1.5-.4-2.3-.7l.8 6.5c-1.7-.4-3.6-.9-5.6-1.3l-.8-7c-.8-.2-1.5-.5-2.3-.7l.9 7.3c-1.8-.3-3.7-.6-5.6-.8l-.9-7.8c-.7-.1-1.5-.3-2.3-.3l.9 7.9c-1.9-.2-3.8-.3-5.7-.4l-.8-7.8c-.7 0-1.5.1-2.2.1l.8 7.7c-1.3 0-2.5.1-3.6.2l-.5-7.5c-.7.1-1.4.2-2.2.3l.5 7.4c-1.7.2-3.2.4-4.6.7l-.3-7.4c-.7.1-1.5.2-2.2.4l.7 7.4c-1.5.3-2.2.7-3.2.9V72c0-.2 1.5-.6 3.4-1.1l.5 7.8c-1.6.3-2.9.6-3.9.9v4.6c1-.3 2.1-.6 3.8-1l.5 8.3c-1.8.3-3.3.6-4.3.9v4.5c1-.3 2.4-.6 4.3-.9l.5 8.3c-1.9.3-3.8.6-4.8.8v4.5c1-.2 2.7-.6 4.8-.9l.5 8.2c-2.1.3-4.3.6-5.3.9v4.5c1-.3 2.9-.6 5.2-.9l.2 11.8c.7-.2 1.4-.3 2.1-.5l-.5-11.6c1.9-.3 4-.5 6.1-.7l.7 11.1c.7-.1 1.5-.2 2.2-.3l-.7-11c2-.1 4-.2 5.9-.3l1.1 10.8h2.2l-1.1-10.8c2.1 0 4.3.2 6.4.4l1.3 11.1c.6.1 1.4.2 2.3.4l-1.3-11.2c2-.1 3.8.1 5.6.4zm7.4-3.1c-1.8-.4-3.6-.7-5.6-1.1l-.9-8c2 .4 3.9.8 5.6 1.2l.9 7.9zm-1.5-12.5c-1.8-.4-3.6-.8-5.6-1.1l-.9-7.8c2 .4 3.9.8 5.6 1.2l.9 7.7zM147.2 93c-1.7-.4-3.6-.8-5.6-1.2l-.9-8c2 .4 3.9.8 5.6 1.2l.9 8zm-2.4-20.4l.9 7.8c-1.7-.4-3.6-.8-5.6-1.2l-1-8c2.1.5 4 1 5.7 1.4zm-5.5 18.8c-1.8-.3-3.7-.6-5.6-.8l-1-8.1c1.9.3 3.8.5 5.6.9l1 8zm-2.4-20.6l1 8.1c-1.8-.3-3.7-.6-5.6-.8l-1-8.2c1.9.2 3.8.5 5.6.9zm-5.4 19.6c-2-.2-4-.3-6-.4l-.9-8.2c2 .1 4 .3 5.9.5l1 8.1zM129 69.6l1 8.2c-1.9-.2-3.9-.3-5.8-.4l-.9-8.2c1.9 0 3.8.2 5.7.4zm-7.9-.5l.9 8.2c-1.4 0-2.8 0-4.2.1l-.5-8.2c1.2 0 2.4-.1 3.8-.1zm-10.8 1.1c1.4-.3 3-.5 4.7-.7l.5 8.1c-1.8.1-3.4.3-5 .6l-.2-8zm.5 12.4c1.5-.2 3.2-.4 5.1-.6l.5 8.3c-1.9.2-3.7.4-5.3.6l-.3-8.3zm.4 12.8c1.7-.3 3.5-.5 5.4-.7l.5 8.4c-2 .2-3.9.4-5.7.7l-.2-8.4zm.8 21l-.3-8.2c1.8-.3 3.8-.5 5.8-.7l.5 8.2c-2.1.2-4.1.4-6 .7zm6-34.6c1.4-.1 2.8-.1 4.3-.1l.9 8.2c-1.6 0-3.2.1-4.7.2l-.5-8.3zm.9 12.7c1.6-.1 3.2-.2 4.9-.2l.9 8.2c-1.7 0-3.5.1-5.2.3l-.6-8.3zm1.3 21l-.5-8.2 5.4-.3.9 8.2c-2 .1-3.9.2-5.8.3zm5.7-21.1c2 .1 4.1.2 6.1.4l1 8c-1.8-.2-3.7-.3-5.5-.3h-.6l-1-8.1zm2.7 20.8c-.1 0-.3.2-.4.2l-.9-8h.1c2.1 0 4.1-.1 6.1.1l1 8c-2 0-4-.2-5.9-.3zm5.7-20.1c1.9.3 3.8.5 5.6.9l.9 7.8c-1.8-.3-3.7-.5-5.6-.7l-.9-8zm1.4 12.5c1.9.2 3.8.5 5.6.8l1 8c-1.8-.3-3.7-.5-5.6-.7l-1-8.1z"/></g></svg>