<svg version="1" xmlns="http://www.w3.org/2000/svg" viewBox="0 0 200 200" enable-background="new 0 0 200 200"><g><path opacity=".75" d="M158 30.5H41.8c-6.6 0-11.7 4.9-11.7 11.5v23.5h140V42c0-6.6-5.5-11.5-12.1-11.5z"/><path opacity=".2" d="M30.1 158.2c0 6.6 5.1 12.3 11.7 12.3H158c6.6 0 12.1-5.7 12.1-12.3V73.5h-140v84.7z"/><path opacity=".9" d="M30.1 65.5h140v8h-140z"/><g opacity=".25"><path d="M36.1 89.5h59v13h-59zM36.1 109.5h59v13h-59zM36.1 129.5h59v13h-59zM104.1 89.5h60v53h-60z"/></g></g></svg>