<svg version="1" xmlns="http://www.w3.org/2000/svg" viewBox="0 0 200 200" enable-background="new 0 0 200 200"><g><path d="M84.6 80.7c-.8 0-1.6-.6-1.8-1.4-.3-1 .3-2 1.3-2.3l5.2-1.3c1-.3 2 .3 2.3 1.3.3 1-.3 2-1.3 2.3l-5.2 1.3c-.2.1-.3.1-.5.1zM87.4 91.5c-.8 0-1.6-.6-1.8-1.4-.3-1 .3-2 1.3-2.3l5.2-1.3c1-.3 2 .3 2.3 1.3.3 1-.3 2-1.3 2.3l-5.2 1.3c-.2.1-.4.1-.5.1zM90 101.8c-.8 0-1.6-.6-1.8-1.4-.3-1 .3-2 1.3-2.3l5.2-1.3c1-.3 2 .4 2.3 1.3.3 1-.3 2-1.3 2.3l-5.2 1.3c-.2.1-.3.1-.5.1zM92.6 112.2c-.8 0-1.6-.6-1.8-1.4-.3-1 .3-2 1.3-2.3l5.2-1.3c1-.3 2 .3 2.3 1.3.3 1-.3 2-1.3 2.3l-5.2 1.3c-.2 0-.3.1-.5.1zM95.2 122.5c-.8 0-1.6-.6-1.8-1.4-.3-1 .3-2 1.3-2.3l5.2-1.3c1-.3 2 .3 2.3 1.3.3 1-.3 2-1.3 2.3l-5.2 1.3c-.2 0-.3.1-.5.1zM97.9 132.8c-.8 0-1.6-.6-1.8-1.4-.3-1 .3-2 1.3-2.3l5.2-1.3c1-.3 2 .3 2.3 1.3.3 1-.3 2-1.3 2.3l-5.2 1.3c-.2.1-.4.1-.5.1zM100.6 143.6c-.8 0-1.6-.6-1.8-1.4-.3-1 .3-2 1.3-2.3l5.2-1.3c1-.3 2 .4 2.3 1.3.3 1-.3 2-1.3 2.3l-5.2 1.3c-.2.1-.3.1-.5.1zM167.1 61.1l2.3-2.5-11.1-10-2.3 2.5zM171 56.3l1.3-1.4c2.8-3 4.7-5.3-.5-10.5-5.2-5.3-7.8-2.6-10.5.5l-1.3 1.4 11 10zM154.6 52.9l11 10-30.1 33.5-14.2 4.6 3.1-14.6z"/><path opacity=".35" d="M103.6 145.8L85.3 73.7c-.8-3.3-3.9-4.3-7.5-4.5-3.6-.2-8.3-1.7-23.7 2.2-15.5 3.9-21 7.8-24.3 10-3.4 2.2-5.3 4.2-4.5 7.5L43.6 161c.8 3.3 2.7 7.7 7.5 4.5 4.1-2.7 7.5-5.7 23.1-9.7 17.7-4.6 21.8-2.9 24.9-2.5 5.6.7 5.4-4.2 4.5-7.5z"/><path fill="none" d="M45.4 120.6c.1.1.1.1.2.1-.1 0-.1 0-.2-.1z"/><path opacity=".75" d="M40.5 111.1c1.4 1.2 2.5.5 3.7-.9.6.6 1.3.7 2.2.6 1.6 1.2 3.1.2 4.5-1.1 1.6 1.1 4.3 0 5.9-.7 1.2-.5 2.3-1.3 3.3-2.2.2-.1 1.9-1.9 2.2-1.2.4.9.6 2 .9 3 .1.4.7.6 1 .4 1-.5 1.5-2 2.7-2 1 .1 1.6.1 2.5-.5.8-.5 1.7-.7 2.2-1.2.5.4 1 .7 1.7.4.6-.3 1-.8 1.2-1.4.6.5 1.3.9 2.1 1.2.4.2.9 0 1-.4.3-.6.4-1.1.5-1.7.6.5 1.3.8 1.9.6 1.4-.4 1.8-1.2 2.3-2.5.4-1-1.1-1.6-1.5-.6-.7 1.6-2.1.8-3.1.2-.6-.3-1.4 0-1.3.7.2.7.2 1.3 0 1.9-.7-.3-1.2-.8-1.7-1.4-.5-.5-1.3-.3-1.4.4-.1.9-.7 1.4-1.3.6-.5-.6-1.5-.2-1.4.6.1.7-4.1 1.5-4.2 1.5-1.3-.1-1.6.8-2.1 1.5-.5-1.8-1-3.8-3.3-2.8-1 .4-1.9 1.5-2.7 2.2-.8.7-5.8 3.5-6.6 2-.2-.4-.8-.7-1.2-.3-.7.6-2.2 2.6-3.2 1.5-.3-.3-.6-.4-.9-.2-.8.2-1.3-.1-1.5-.8-.3-.5-1-.4-1.3 0-.5.7-1.4 2.4-2.6.8-.3-.5-1.2-.4-1.4.2-.6.4-1.1.9-1.7 1.3-1 .2-.8 1.8.2 1.6 1.1-.3 1.9-.6 2.4-1.3zM41.4 124.6c1.6.2 1.7-1.4 1.9-2.7.5.2 1 .2 1.6-.2.3-.1.5-.3.7-.5.3-.3.3-.4.2-.5.3.1.6 0 1 0 1.4-.2 2.1.6 3.5-.2 1.7-1.1 2.6-3 4.3-4.1 1 .9 2.3 1.7 3.7 1.4 1.2-.3 2.4-.3 3.6-.3.9 0 1.4.8 2.1.8 1.5.1 3.4-.7 4.6-1.6.6-.5 1.1-.9 1.4-1.6.5-.9 2.3-.8 3.7-.8.1 1.7 2.7 1.6 4.1.3.3-.3.8-1 1.1-1.7.2.1.4.2.7.2.3.1.8 0 1.1-.1.4-.1.9-.3 1.3-.4 1.5 1.9 3.9-.4 5.3-.9 1-.3.3-1.8-.6-1.5-1.2.4-2.7 1.8-3.9.8-1.2-.9-2.1 1.2-3.5.3 0-.7-.4-1.1-1.5-.9-.6.1-.9.8-.5 1.3l.4.4c-.1.1-.2.2-.2.4-.1.2-.3.4-.4.6-.4.6-.9.8-1.6.7.2-.6-.2-1.1-.9-1.1-1.2.1-3.8-.6-4.9.4-.4.3-.6.6-.8 1-.6 1.2-1.8 1.8-3 2.3-1.6.7-2.1-.8-3.5-.6-2.1.3-5.5.6-7-.9-.2-.2-.6-.4-.9-.2-2.4 1.3-3.5 4.8-6.4 4.4-.7-.1-1.7-.1-2.4-.1-.7.1-1.6 1.7-2.2 1-.4-.4-1.2-.5-1.4.2-.3 1-.4 3.4-.9 1-.2-1-1.8-.8-1.6.2.1 1.2.4 3.1 1.8 3.2zm4.2-3.9c-.1 0-.1-.1-.2-.1.1.1.1.1.2.1zM50.1 129c.9.7 1.8.5 2.6-.4.3.6.6 1.2 1.5 1.3 1 .1 2.7-.4 3.6-.8.8-.3 1.6-1.4 1.1-2.3-.2-.3 2.1-1.3 2.4-1.5.3-.1 2.1.9 1.8 1.4-.3.4-.2 1 .3 1.2 2.5 1.2 4.1-1 5.5-2.8 1-1.4 2.3.6 3.5.9 1 .2 2 .2 2.9-.5 1.3-1 2.5-3.5 4.6-2 .8.5 1 1.2 2 1.4 2 .5 4.5-2.5 5.7-3.7.7-.7-.6-1.7-1.3-1-.7.8-1.5 1.5-2.4 2.1-1.3 1-1.9.8-3.1-.2-1.5-1.3-3.1-1.1-4.6.1-.8.7-1.3 1.5-2.3 2.1-1.4.7-3-1.4-4.3-1.6-2.2-.3-2.8 4.1-5 3.8.1-1.2-.9-2.5-2.1-3-1.7-.7-4.3 1.3-5.3 2.5-.2.2-.2.6-.1.8.6 1-2 1.2-2.5 1.2-.9.1-.8-.7-1-1.5-.2-.5-1.1-.7-1.4-.2-.2.3-.8 1.8-1.5.9-.2-.3-.8-.4-1.1-.1-.6.5-3.8 1.2-3.9 2.2v-.3c0-.9-1.4-.8-1.6 0v.3c-.3.5-2.5.1-2.8 0-1-.4-1.6 1.1-.6 1.5 1.2.4 3.1.6 4.1-.1 1.5.5 4.1-.9 5.3-1.7zM47.3 143.1c1.3.5 3.5-.7 4.9-1.7.9.8 2.2.4 3.1-.7 2.5 1.5 4.7-1.6 6.6-3.4.1-.1 8.1-2.1 7.8-2.6.7 1.2 2.3 3.4 4 3.2 1.9-.2 2.4-2 3.1-3.5 1.5-3.3 2.3.4 3.1 1.3 1 1.1 2-.2 2.6-.9.7-.8 2.2-.4 3.2-.7 1.1-.3 2.1-1.3 2.8-2 .7-.7-.2-2-1-1.3s-1.5 1.3-2.5 1.8c-.5.3-2.1 0-2.8.3-.5.2-1 1-1.4 1.4.2-.2-.2-1.2-.4-1.3-.6-.7-1.1-1.5-2.1-1.5-1.4 0-2.4 1.2-3 2.3-.5.8-.9 3.4-2.8 1.9-.8-.6-1-1.7-1.7-2.3-1-.8-2.4.1-3.3.6-2 1.2-4.6.5-6.4 2-1.1.9-3.5 4.7-5.2 3-.4-.5-1.1-.4-1.4.2-.4.2-.9.4-1.3.5-.2-.6-1-.6-1.4-.2-.4.4-3.2 2.2-3.6 1.8 0-.2-.1-.4-.1-.6-.2-.8-1.5-.5-1.5.3v.7c-.2.2-.7.1-1.1-.2 0-.6-.1-.9-.5-1.3-.5-.4-1.2 0-1.3.5-.4 2.4 2.2 3.2 3.6 2.4zM89.6 139.7c-1.2 0-2.3 0-3.5.2-1.5.3-1.5 1.7-3.5 1.5-.6 0-2.1-.7-2.7-.2-.2.2-.5.4-.6.6-.3.5-1.9 4.4-3.1 1.3-.1-.3-.5-.6-.8-.5-1.3.3-2.5.1-3.9.5-1.8.6-3.3-.3-5.1.1-2 .4-3.7 2.5-5 4.1-2-1.4-3.2-1.1-4 1.2-1.1-.5-1.8-.9-2.9-2-.4-.4-.6-.6-1.2-.6-1-.1-3.5 2.4-4.1 1.8-.4-.4-1.1-.4-1.4.2-.3.3-.7.5-1 .8-1-.2-1.2 1.3-.2 1.6 1.1.3 1.8-.2 2.3-1 .8.3 1.6 0 2.4-.5.9-.6 1.7-1.5 2.5-.3.7 1.1 2.7 1.5 3.8 1.9.4.1.9 0 1-.4.5-1.8.9-2 2.4-.8.4.3.8.2 1.1-.1.9-.9 1.7-1.9 2.7-2.8 1.3-1.2 2.3-1.3 4-.9.9.2 1.7 0 2.6-.2 1.2-.4 2.5-.3 3.7-.6 1.2 1.7 3.6 1.7 4.9-.1.4-.5.3-1.9 1.5-1.5 1 .3 1.9.3 2.9.1.4-.1.9-.3 1.1-.6 1.2-1.4 2.8-1 4.4-1 1-.2.7-1.8-.3-1.8zM38.7 100.9c1.1.5 2.6-.1 3.9-.5 2.3-.7 3.1-3.3 4.8-4.8.7 1.1 1.1 2.3 1.8 3.4.3.5 1.2.4 1.4-.2 0-.1.1-.3.1-.4 2.1-.1 4.4-1.7 5.6-3.4.8.2 1.7.5 2.4.4 1.7-.2 1.8-.4 2.6-2s3.5 1.2 4.7 1c1.2-.1 4.3-2.4 4.9-.6.2.5.8.6 1.2.3.9-.6 1.4-1.4 1.7-2.4 1.5 1 3.8 2 4.8.5.5-.7.5-1.7.6-2.6 0-.6-.2-3.3.6-2.6.8.7 1.8-.6 1-1.3-1.3-1.1-2.6-.9-3 .8-.2 1-.1 2.2-.2 3.3 0 .2 0 1.5-.4 1.5-1.1-.1-2.5-.9-3.2-1.6-.4-.3-1.1-.1-1.2.3-.2.7-.4 1.5-.8 2.1-.4-.6-1-1.1-1.9-1-.7.2-1.3.4-2 .8-1.8.9-2.9.5-4.5-.7-1.2-1-2.6-.3-3.4.8-.3.5-.5 1.5-1.1 1.6-.3 0-3.1-.5-3-.5-.4-.1-.7.2-.8.5-.8 1.5-3.2 3.3-5 3.1-.1 0-.3 0-.4.1-.5-1-.9-2.1-1.7-3-.3-.4-.7-.4-1.1-.1-1.3.8-2 2.1-2.8 3.3-.6.8-1.3 1.4-2.2 1.8-.2.1-2.6.8-2.9.4-.4-.5-1.1-.4-1.4.2-.4-.1-.7-.3-1.1-.4v-.2c-.2-.9-1.5-.9-1.6 0v1c-.1.6-.5 1.1-1.2 1.4-1 .3-.3 1.8.6 1.5.7-.2 1.3-.7 1.6-1.3.8.3 1.9.3 2.6-.5zM38.1 92.8c1.6.3 1.5-2.1 2.2-2.1 2.7.1 6.6-.5 8.2-3h.8c.9-.1 1.2.9 1.7 1.5.4.4.9.4 1.3 0 1-1.2 1.4-2.5 1.7-4 .9.5 1.4 1.1 2.7 1.1.3 0 .7-.3.8-.5.1-.1 1.3 1 1.8 1.3 2.1 1.2 2.9-1.5 3.1-3.5 1.8 1 4 .7 5.4-.9.9.1 1.6-.1 2.5-.5 1.8-.8 2.2-2.1 4.3-1 1.3.6 1.9.3 2.2-.4.1.3.3.6.4.9.5.9 1.9.3 1.5-.6-.6-1.2-1-2.4-1.9-3.4-.5-.6-1.5-.2-1.4.6.3 2.2-1.6.3-2.7.6-1.7.4-3 2.7-4.9 2.2-.4-.1-.7-.1-.9.3-1.3 1.7-3.4 1.4-4.8.1-.5-.5-1.3.1-1.3.7.1 1.4 0 4.3-2.2 2.5-.4-.3-1.2-.6-1.7-.5-.3 0-.7.3-.8.6 0-.1-2.1-1.4-2.5-1.5-.5-.2-1 .1-1.1.6-.3 1.2-.5 2.3-1.1 3.4-.2-.4-.5-.8-.9-1.1-.7-.5-1.6.1-2.3-.2-.4-.2-.9 0-1 .4-.9 2.2-3.9 2.4-6 2.7-1.2.1-2-.2-2.7 1-.4.8-.2 1.3-1.2.9s-1.8-1.1-2.7-1.6c-1.1-.7-2 0-2.8.8-.7.7.6 1.7 1.3 1 .9-.8 3.9 1.3 5 1.6z"/><path opacity=".35" d="M165.5 130l-18.3-72c-.8-3.3-3.5-4.2-7.5-4.5-4-.3-10.7-1.1-26.2 2.8s-18.8 7.5-21.9 9.4c-3.1 1.9-5.3 4.2-4.5 7.5l18.3 72.1c.8 3.3 3 7.8 7.5 4.5 2.6-1.9 5.5-4.9 23.1-9.7 13.8-3.8 20.1-2.9 24.9-2.5 5.9.5 5.4-4.2 4.6-7.6z"/><path opacity=".75" d="M139.3 62.3c-.8.2-2.1-.6-3-.8-.8-.2-1.9.4-2.7.6-1 .3-2 .6-2.9 1.2-1.1.8-2.1 2.6-3.4 1.5-.2-.2-.6-.2-.8-.1-2.6 1.2-5.6 0-7.9 1.9-1.6 1.3-2 2.4-4.4 2.4-1.1 0-4.1.5-4.8-.4-.2-.3-.6-.4-1-.3-.9.4-1.6 1.1-2.3 1.8-.8.8-1.7 2.3-3.2 1.7-.4-.2-.9-.4-1.3-.4-1.8.1-2.6 3.5-4.1 2.9-1-.4-1.6 1.1-.6 1.5 2.4 1 3-.6 4.1-2.4.5-.8 2.7.4 3.6 0 1.6-.8 2.5-2.5 3.9-3.4.5.4 1 .7 1.8.7 1.9-.1 3.7-.1 5.6-.2 1-.1 1.9-.8 2.6-1.5 1.6-1.8 3.1-2.1 5.4-2.1 1.4 0 2.3-.6 3.5 0 .6.3 1.2.3 1.7-.1 1.4-1.2 2.6-2.3 4.4-2.9 1.6-.5 2.4-.6 4.3 0 .8.2.9.2 1.7.1 1.1-.3.9-1.9-.2-1.7zM118.9 100.8c-.3-.3-.8-.4-1.1-.1.2-.2.3 0-.1-.6-.2-.3-.5-.6-.8-.7-1.3-.7-2.4 1.2-3.9.2-.4-.3-.9-.4-1.4 0-1.2.9-.7 2.4-2.6 1.3-.6-.3-1.2.1-1.2.7 0-.7-1.6-1.3-2.2-1.1-1.2.5-.9 2.1-.8 3.2.1 1 1.6 1 1.6 0 0-.7-.5-2 .3-1.1.4.4.8.6 1.3.8.6.2.9-.1 1.1-.6.7.4 1.5.7 2 .4.4-.3.7-.6.9-1.1.5-1.2-.3-1 1-.6 1.5.5 2.9-1 3.8.3.4.6.9.6 1.4.4 1 .5 2-.4 3-.9l.4-1.6c-.3-.2-2.7 1.1-2.7 1.1zM119.2 86.4c-2.4.3-3.8 5-6.3 2.2-.4-.4-1-.3-1.3.1-.8 1-1.5 2.2-2.4 3.2-1.2 1.4-1.9-1.2-2.5-1.9-.2-.3-.7-.4-1-.2-.2.1-.7.4-.8.6-.1.2-1.4 2.6-1.5 1.9-.3-1-1.9-.7-1.6.4.2.9.8 1.7 1.8 1.5.7-.1 1.2-.4 1.7-.8.4-.3.5-.9.7-1.4.6 1.3.8 2.9 2.8 2.3 1.6-.5 2.7-2.4 3.6-3.8 1.2 1 2.4 1.1 4.2 0 1.1-.6 1.7-2.1 3-2.4 1.7-.4 2.4.1 3.7.9.2.1.4.2.6.1l.6-2.6c-.3.2-.6.5-.9.8-1.5-1-2.4-1.2-4.4-.9zM137.1 69.7c-.3.8-.5 2.2-2 1.7-.3-.1-.8 0-1 .3-.1.2-.3.5-.4.7-.5 1.3-.8.4-1.5.4-1.1.1-2 .3-3.1.7-1.7.5-3.7-.3-5.6.2-.7.2-1 .6-1.4 1.1-1.5 1.8-2.3.8-3.9.4-1.1-.2-2.2.1-2.7 1.2-.2.3-.2.7-.3 1-.2-.1-.3-.1-.9-.1-1.9 0-3.3 2.5-4.5 3.7-.3.3-2.5-.1-3-.1-1.1-.1-2.2.1-3.2.5s-1.3 1.5-2.5.8c-1-.6-1.9-1-3.1-1-1.1 0-1.2 1.6-.1 1.7 1.4 0 2.5.9 3.8 1.5.3.1.6 0 .8-.2.9-.6 1.7-1.3 2.9-1.6 1.3-.3 2.9.1 4.2.1 1.1 0 1.6-.7 2.4-1.5.8-1 1.8-2.6 3.4-1.9.3.1.6.1.9-.1 1.1-.7-.1-2.7 2.1-2.2 1.3.3 2.6 1.5 3.9.5.8-.6 1.3-2 2.3-2.3 1.1-.3 2 0 3 .4.3.1.8 0 1.2-.1 1.4-.5 2.8-1.1 4.3-.6 1.2.4 1.8-.7 2.3-1.7.4.1.8.1 1.2 0l2.9-3.2c-.2-.1-.5-.4-.9-.7-.7-.3-1.4-.2-1.5.4z"/></g></svg>