<svg xmlns="http://www.w3.org/2000/svg" viewBox="0 44 64 55">
    <g opacity=".05">
        <path fill="#999" d="M46.1 60.6v.9h-2.5v19.6h-1.1V60.6h3.6z"/>
        <path fill="#fff" d="M38.5 59.5h7.6v.9h-7.6v-.9zm3.8 21.6h-1.2V61.5h-2.6v-.9h3.7l.1 20.5z"/>
        <path fill="#fff" d="M54 80.3v.9h-5.8V59.5H54v.9h-4.8v19.9H54z"/>
        <path fill="#999" d="M54 79.1v.9h-4.6v-9.9h4v.9h-3v8.1H54zm0-18.5v.9h-3.5v7.4h3v1h-4v-9.3H54z"/>
        <path fill="#999" d="M20 80V59.5h1.1v19.6h3.3v.9H20z"/>
        <path fill="#fff" d="M24.4 81.1h-5.7V59.5h1.1v20.7h4.6v.9z"/>
        <path fill="#999" d="M16.8 78.6c0 1.5-1.3 2.6-3.5 2.6-2.3 0-3.3-1.3-3.3-2.8v-3.5h1.1v3.9c.1.3.2.6.5.9.3.3.9.5 1.7.5 1.1 0 1.7-.4 2-.8.3-.4.4-.9.4-1V78v-3-.7c0-.5 0-1.1-.5-1.9-.2-.4-1.1-1.7-1.8-3-.4-.6-.7-1.2-1-1.6-.3-.4-.4-.7-.4-.7l-.1-.1c-.1-.2-.3-.7-.4-1v-.4-.5-.2-.7-1.3-.8-.3c0-.2.1-.5.4-.7s.7-.4 1.4-.4c.9 0 1.3.3 1.5.7s.3.7.3.9v3.2h-1v-2.8s0-.9-.8-.9c-.7 0-.6 1-.6 1V65s0 .5.2 1.1c.2.5.6 1.2.7 1.3 0 .1 2.2 4 2.7 4.8.5.9.4 1.5.4 2.1.1.2.1 1.9.1 4.3z"/>
        <path fill="#fff" d="M39 73.6c.1 0 .2.2.2.4s-.1.4-.2.4-.2-.2-.2-.4.1-.4.2-.4zm-.2.8h-.7s-.1-.1-.1-.4c0-.3.1-.4.1-.4h.7s-.1.1-.1.4c0 .3.1.4.1.4zm-.1 7.1c0 .1-.1.2-.2.2v-.2h.2zm0 0H38.4v-.2c.2 0 .3.1.3.2zm-.1.8c0 .1-.1.2-.2.2s-.2-.1-.2-.2l-.2-1.5c0-.1.1-.2.2-.2s.2.1.2.2l.2 1.5zm-.8-.5l.5 3.4-.4 1.8-.2.9h-.5s-.1-.5-.3-1.3c.6-.1 1.1-.6 1.1-1.2 0-.4-.2-.8-.6-1l-4.2-22.5c.1-.1.1-.3.1-.4 0-.6-.4-1.1-1-1.2l.3-1.9h.9l2.8 15.4H38s-.1.1-.1.4c0 .3.1.4.1.4h-1.5l1.3 7.1h.2l.1.3-.3-.2zm-.2 6.1v.3h-.3v-.3h.3zm-.1.4l-.2.4v-.4h.2zm-.8-3.9c.5 0 1 .4 1 1 0 .5-.4 1-1 1-.5 0-1-.4-1-1 .1-.6.5-1 1-1z"/>
        <path fill="#999" d="M33.1 62.1l4.1 22.1c-.1-.1-.3-.1-.5-.1-.1 0-.2 0-.4.1-.8-3.7-1.9-9-1.9-9.3 0 0 0-.2-.1-.3 0-.1-.2-.1-.2-.1h-1.6v-.8h1.7l-1.9-11c.3-.2.6-.4.8-.6z"/>
        <path fill="#fff" d="M32.9 57.7l.1.3h-.5l-.3 1.9h-.1l-.3-1.9h-.6l.1-.3h1.6zm0 3c.3.4.3 1-.1 1.3-.4.4-1 .4-1.3.1l1.4-1.4zm-.1-.1L31.3 62c-.3-.4-.3-1 0-1.4.5-.3 1.1-.4 1.5 0zm-1.3-3.2h1.2v.2h-1.2v-.2zm1.2-2.9l-.1 1s-.1-.2-.5-.2-.5.2-.5.2l-.1-1s.2-.2.6-.2c.5-.1.6.2.6.2zm-.2 1v1.8h-.8v-1.8s.1-.1.4-.1c.4 0 .4.1.4.1zm-.1 15.8v5.1c0 .1-.1.2-.2.2s-.2-.1-.2-.2v-5.1c0-.1.1-.2.2-.2s.2.1.2.2zm-.7-13.1l.3 1.9c-.6.1-1.1.6-1.1 1.2 0 .2 0 .4.1.5l-4.2 22.4c-.4.2-.6.6-.6 1.1 0 .7.5 1.2 1.2 1.2-.2.8-.3 1.3-.3 1.3h-.5l-.3-.9-.5-1.7 2-10.8H26s-.1-.1-.1-.4c0-.3.2-.4.2-.4h2l2.8-15.4h.8z"/>
        <path fill="#999" d="M31.9 62.6l-1.8 11h1.7v.8h-1.6s-.1 0-.2.1c0 .1-.1.3-.1.4v-.1s-1.2 5.5-2 9.4c-.1-.1-.3-.1-.4-.1-.1 0-.3 0-.4.1l4.1-22c.1.2.4.3.7.4z"/>
        <path fill="#fff" d="M29.8 74.9zm-2.4 9.4c.5 0 1 .4 1 1s-.4 1-1 1c-.5 0-1-.4-1-1s.4-1 1-1zm-.4 4.2v.3l-.4-.8h.4v.5zm-2-14.9h.7s-.1.1-.1.4c0 .3.1.4.1.4H25s-.1-.1-.1-.4l.1-.4z"/>
        <path fill="#fff" d="M14 73c.3.5.4 1.2.5 1.5V78c0 .3-.2 1-1.1 1-1 0-1-.8-1-1v-3.1h-1v3.7c0 .1 0 .2.1.4.1.3.3.6.7.8.3.1.7.2 1.2.2 1.1 0 1.6-.4 1.9-.8s.3-.8.3-.9v-.4-.8V75v-.7c0-.5 0-1.1-.4-1.8-.5-.8-3.3-5.3-3.3-5.3s-.4-.7-.5-1.2v-.5-.5-.2-1.9-.8-.2c0-.1 0-.2.1-.4.1-.3.3-.6.7-.8.3-.1.7-.2 1.2-.2.9 0 1.4.3 1.7.8.3.4.3.8.3 1v3.2h1v-3.7c0-.8-1-2.3-3-2.3-2.1 0-3.1 1.3-3.1 2.2v3.6c0 1.1.4 1.7.9 2.8.2.5 2.7 4.7 2.8 4.9z"/>
    </g>
</svg>
