<?xml version="1.0" encoding="utf-8"?>
<!-- Generator: Adobe Illustrator 17.1.0, SVG Export Plug-In . SVG Version: 6.00 Build 0)  -->
<!DOCTYPE svg PUBLIC "-//W3C//DTD SVG 1.1//EN" "http://www.w3.org/Graphics/SVG/1.1/DTD/svg11.dtd">
<svg version="1.1" id="Layer_1" xmlns="http://www.w3.org/2000/svg" xmlns:xlink="http://www.w3.org/1999/xlink" x="0px" y="0px"
	 viewBox="0 44 64 55" enable-background="new 0 44 64 55" xml:space="preserve">
<g opacity="0.1">
	<path fill="#454545" d="M46.1,60.6v0.9h-2.5v19.6h-1.1V60.6H46.1z"/>
	<path fill="#676767" d="M38.5,59.5h7.6v0.9h-7.6V59.5z M42.3,81.1h-1.2V61.5h-2.6v-0.9h3.7L42.3,81.1L42.3,81.1z"/>
</g>
<g opacity="0.1">
	<path fill="#676767" d="M54,80.3v0.9h-5.8V59.5H54v0.9h-4.8v19.9H54z"/>
	<path fill="#454545" d="M54,79.1V80h-4.6v-9.9h4V71h-3v8.1H54z M54,60.6v0.9h-3.5v7.4h3v1h-4v-9.3H54z"/>
</g>
<g opacity="0.1">
	<path fill="#454545" d="M20,80V59.5h1.1v19.6h3.3V80H20z"/>
	<path fill="#676767" d="M24.4,81.1h-5.7V59.5h1.1v20.7h4.6V81.1z"/>
</g>
<path opacity="0.1" fill="#454545" enable-background="new    " d="M16.8,78.6c0,1.5-1.3,2.6-3.5,2.6c-2.3,0-3.3-1.3-3.3-2.8
	c0-1.2,0-3.5,0-3.5h1.1c0,0.3,0,1.6,0,2.5c0,0.5,0,1,0,1c0,0,0,0.2,0,0.4c0.1,0.3,0.2,0.6,0.5,0.9c0.3,0.3,0.9,0.5,1.7,0.5h0
	c1.1,0,1.7-0.4,2-0.8c0.3-0.4,0.4-0.9,0.4-1c0-0.1,0-0.2,0-0.4c0-0.7,0-1.9,0-2.6V75c0,0,0-0.4,0-0.7c0-0.5,0-1.1-0.5-1.9
	c-0.2-0.4-1.1-1.7-1.8-3c-0.4-0.6-0.7-1.2-1-1.6c-0.3-0.4-0.4-0.7-0.4-0.7c0,0,0,0-0.1-0.1c-0.1-0.2-0.3-0.7-0.4-1
	c0-0.1,0-0.3,0-0.4c0-0.2,0-0.4,0-0.5c0-0.1,0-0.2,0-0.2v0c0,0,0-0.3,0-0.7c0-0.4,0-0.9,0-1.3c0-0.4,0-0.7,0-0.8c0-0.1,0-0.2,0-0.3
	c0-0.2,0.1-0.5,0.4-0.7s0.7-0.4,1.4-0.4c0.9,0,1.3,0.3,1.5,0.7s0.3,0.7,0.3,0.9v0c0,0.1,0,0.5,0,1c0,0.9,0,2,0,2.2h-1v-2.8
	c0,0,0-0.9-0.8-0.9c-0.7,0-0.6,1-0.6,1V65c0,0,0,0.5,0.2,1.1c0.2,0.5,0.6,1.2,0.7,1.3c0,0.1,2.2,4,2.7,4.8c0.5,0.9,0.4,1.5,0.4,2.1
	C16.8,74.5,16.8,76.2,16.8,78.6z"/>
<g opacity="0.1">
	<path fill="#676767" d="M39,73.6c0.1,0,0.2,0.2,0.2,0.4c0,0.2-0.1,0.4-0.2,0.4s-0.2-0.2-0.2-0.4S38.9,73.6,39,73.6z M38.8,74.4
		h-0.7c0,0-0.1-0.1-0.1-0.4c0-0.3,0.1-0.4,0.1-0.4h0.7c0,0-0.1,0.1-0.1,0.4C38.7,74.3,38.8,74.4,38.8,74.4z M38.7,81.5
		c0,0.1-0.1,0.2-0.2,0.2c0,0,0-0.1,0-0.2l0.1,0l0,0L38.7,81.5z M38.7,81.5l-0.2,0v0l-0.1,0c0-0.1,0-0.2,0-0.2
		C38.6,81.3,38.7,81.4,38.7,81.5z M38.6,82.3c0,0.1-0.1,0.2-0.2,0.2c-0.1,0-0.2-0.1-0.2-0.2l-0.2-1.5c0-0.1,0.1-0.2,0.2-0.2
		c0.1,0,0.2,0.1,0.2,0.2L38.6,82.3z M37.8,81.8l0.5,3.4l-0.4,1.8l-0.2,0.9l-0.5,0c0,0-0.1-0.5-0.3-1.3c0.6-0.1,1.1-0.6,1.1-1.2
		c0-0.4-0.2-0.8-0.6-1l0,0l-4.2-22.5c0.1-0.1,0.1-0.3,0.1-0.4c0-0.6-0.4-1.1-1-1.2l0.3-1.9h0.9l2.8,15.4H38c0,0-0.1,0.1-0.1,0.4
		c0,0.3,0.1,0.4,0.1,0.4h-1.5l1.3,7.1l0.2,0l0.1,0.3L37.8,81.8z M37.6,87.9l0,0.3l-0.3,0l0-0.3L37.6,87.9z M37.5,88.3l-0.2,0.4v-0.4
		L37.5,88.3z M36.7,84.4c0.5,0,1,0.4,1,1c0,0.5-0.4,1-1,1c-0.5,0-1-0.4-1-1C35.8,84.8,36.2,84.4,36.7,84.4z"/>
	<path fill="#454545" d="M33.1,62.1l4.1,22.1c-0.1-0.1-0.3-0.1-0.5-0.1c-0.1,0-0.2,0-0.4,0.1c-0.8-3.7-1.9-9-1.9-9.3
		c0,0,0-0.2-0.1-0.3c0-0.1-0.2-0.1-0.2-0.1h-1.6v-0.8h1.7l-1.9-11C32.6,62.5,32.9,62.3,33.1,62.1z"/>
	<path fill="#676767" d="M32.9,57.7L33,58h-0.5l-0.3,1.9h-0.1L31.8,58h-0.6l0.1-0.3H32.9z M32.9,60.7c0.3,0.4,0.3,1-0.1,1.3
		c-0.4,0.4-1,0.4-1.3,0.1L32.9,60.7z M32.8,60.6L31.3,62c-0.3-0.4-0.3-1,0-1.4C31.8,60.3,32.4,60.2,32.8,60.6z M31.5,57.4h1.2v0.2
		h-1.2V57.4z M32.7,54.5l-0.1,1c0,0-0.1-0.2-0.5-0.2c-0.4,0-0.5,0.2-0.5,0.2l-0.1-1c0,0,0.2-0.2,0.6-0.2
		C32.6,54.2,32.7,54.5,32.7,54.5z M32.5,55.5v1.8h-0.8v-1.8c0,0,0.1-0.1,0.4-0.1C32.5,55.4,32.5,55.5,32.5,55.5z M32.4,71.3v5.1
		c0,0.1-0.1,0.2-0.2,0.2s-0.2-0.1-0.2-0.2v-5.1c0-0.1,0.1-0.2,0.2-0.2S32.4,71.2,32.4,71.3z M31.7,58.2l0.3,1.9
		c-0.6,0.1-1.1,0.6-1.1,1.2c0,0.2,0,0.4,0.1,0.5l-4.2,22.4c-0.4,0.2-0.6,0.6-0.6,1.1c0,0.7,0.5,1.2,1.2,1.2
		c-0.2,0.8-0.3,1.3-0.3,1.3l-0.5,0l-0.3-0.9l-0.5-1.7l2-10.8h-1.8c0,0-0.1-0.1-0.1-0.4c0-0.3,0.2-0.4,0.2-0.4h2l2.8-15.4L31.7,58.2
		L31.7,58.2z"/>
	<path fill="#454545" d="M31.9,62.6l-1.8,11h1.7v0.8h-1.6c0,0-0.1,0-0.2,0.1c0,0.1-0.1,0.3-0.1,0.4c0,0,0,0,0-0.1l0,0
		c0,0-1.2,5.5-2,9.4c-0.1-0.1-0.3-0.1-0.4-0.1c-0.1,0-0.3,0-0.4,0.1l4.1-22C31.3,62.4,31.6,62.5,31.9,62.6z"/>
	<path fill="#676767" d="M29.8,74.9C29.8,74.9,29.8,74.9,29.8,74.9C29.8,74.9,29.8,74.9,29.8,74.9z M27.4,84.3c0.5,0,1,0.4,1,1
		s-0.4,1-1,1c-0.5,0-1-0.4-1-1S26.8,84.3,27.4,84.3z M27,88.5v0.3l-0.4-0.8l0.4,0L27,88.5z M25,73.6h0.7c0,0-0.1,0.1-0.1,0.4
		c0,0.3,0.1,0.4,0.1,0.4H25c0,0-0.1-0.1-0.1-0.4L25,73.6z"/>
</g>
<path opacity="0.1" fill="#676767" enable-background="new    " d="M14,73c0.3,0.5,0.4,1.2,0.5,1.5c0,0.3,0,0.4,0,0.4v0.8
	c0,0,0,2,0,2.3c0,0.3-0.2,1-1.1,1c-1,0-1-0.8-1-1c0-0.2,0-3.1,0-3.1h-1c0,0.1,0,0.4,0,0.8c0,0.5,0,1.2,0,1.7s0,1,0,1
	c0,0,0,0.1,0,0.2c0,0.1,0,0.2,0.1,0.4c0.1,0.3,0.3,0.6,0.7,0.8c0.3,0.1,0.7,0.2,1.2,0.2c1.1,0,1.6-0.4,1.9-0.8s0.3-0.8,0.3-0.9
	c0,0,0-0.2,0-0.4c0-0.2,0-0.5,0-0.8c0-0.6,0-1.3,0-1.8V75c0,0,0-0.4,0-0.7c0-0.5,0-1.1-0.4-1.8c-0.5-0.8-3.3-5.3-3.3-5.3l0,0l0,0
	c0,0-0.4-0.7-0.5-1.2c0-0.1,0-0.3,0-0.5c0-0.2,0-0.4,0-0.5c0-0.1,0-0.2,0-0.2c0,0,0-1.1,0-1.9c0-0.4,0-0.7,0-0.8c0,0,0-0.1,0-0.2
	c0-0.1,0-0.2,0.1-0.4c0.1-0.3,0.3-0.6,0.7-0.8c0.3-0.1,0.7-0.2,1.2-0.2c0.9,0,1.4,0.3,1.7,0.8c0.3,0.4,0.3,0.8,0.3,1v0
	c0,0.1,0,0.5,0,1s0,1,0,1.5c0,0.4,0,0.7,0,0.7h1l0-3.7c0-0.8-1-2.3-3-2.3c-2.1,0-3.1,1.3-3.1,2.2c0,0.4,0,2.4,0,3.6
	c0,1.1,0.4,1.7,0.9,2.8C11.4,68.6,13.9,72.8,14,73z"/>
</svg>
