<svg hidden="true" id="slate-icons" xmlns="http://www.w3.org/2000/svg">
    <symbol viewBox="0 0 200 200" id="icon-area-chart">
        <title>area-chart</title>
        <path opacity=".75" d="M163.4 90.6l-31.3 23.2-39.1-7.6L74.3 122l-16.4-5.4-23.8 14.7v15.2H163" />
        <path opacity=".5" d="M34.1 123.4l23.7-14.7 16.3 5.4 18.8-15.9 39.6 7.6 31.6-23.2V67l-31.6 23.2L93 82.6 74.2 98.5l-16.3-5.4-23.8 14.7" />
        <path d="M184.1 158l-13-7.5v5h-146v-98h5.8l-7.5-13-7.5 13h5.2v102h150v6" />
    </symbol>
    <symbol viewBox="0 0 200 200" id="icon-arithmetic">
        <title>arithmetic</title>
        <path opacity=".5" d="M81.9 95H39.1c-7.4 0-13.4-6-13.4-13.4V38.7c0-7.4 6-13.4 13.4-13.4H82c7.4 0 13.4 6 13.4 13.4v42.9C95.3 89 89.3 95 81.9 95z" />
        <path d="M81 54.5H67.1V40.4c0-1.8-1.7-2.9-3.5-2.9h-5.4c-1.8 0-3.1 1-3.1 2.9v14.1H40.9c-1.8 0-3.7 1.5-3.7 3.3v5.4c0 1.8 1.9 3.3 3.7 3.3h14.3v14.1c0 1.8 1.3 2.9 3.1 2.9h5.4c1.8 0 3.5-1.1 3.5-2.9V66.5H81c1.8 0 3.1-1.5 3.1-3.3v-5.4c0-1.8-1.2-3.3-3.1-3.3z"
        />
        <path opacity=".5" d="M81.9 174.6H39.1c-7.4 0-13.4-6-13.4-13.4v-42.9c0-7.4 6-13.4 13.4-13.4H82c7.4 0 13.4 6 13.4 13.4v42.9c-.1 7.4-6.1 13.4-13.5 13.4z" />
        <path d="M69.5 140.2l9.9-9.9c1.3-1.3 1.3-3.4 0-4.7l-3.8-3.8c-1.3-1.3-3.4-1.3-4.7 0l-9.9 9.9-9.9-9.9c-1.3-1.3-3.4-1.3-4.7 0l-3.8 3.8c-1.3 1.3-1.3 3.4 0 4.7l9.9 9.9-9.9 9.9c-1.3 1.3-1.3 3.4 0 4.7l3.8 3.8c1.3 1.3 3.4 1.3 4.7 0l9.9-9.9 9.9 9.9c1.3 1.3 3.4 1.3 4.7 0l3.8-3.8c1.3-1.3 1.3-3.4 0-4.7l-9.9-9.9z"
        />
        <g>
            <path opacity=".5" d="M160.9 95H118c-7.4 0-13.4-6-13.4-13.4V38.7c0-7.4 6-13.4 13.4-13.4h42.9c7.4 0 13.4 6 13.4 13.4v42.9c0 7.4-6 13.4-13.4 13.4z" />
            <path d="M162.9 57.5v5.4c0 1.8-1.5 3.3-3.3 3.3h-40.2c-1.8 0-3.3-1.5-3.3-3.3v-5.4c0-1.8 1.5-3.3 3.3-3.3h40.2c1.8 0 3.3 1.5 3.3 3.3z" />
        </g>
        <g>
            <path opacity=".5" d="M160.9 174.6H118c-7.4 0-13.4-6-13.4-13.4v-42.9c0-7.4 6-13.4 13.4-13.4h42.9c7.4 0 13.4 6 13.4 13.4v42.9c0 7.4-6 13.4-13.4 13.4z" />
            <path d="M163.1 125.8c0-1.8-1.5-3.3-3.3-3.3h-40.3c-1.8 0-3.3 1.5-3.3 3.3v5.3c0 1.8 1.5 3.3 3.3 3.3h40.3c1.8 0 3.3-1.5 3.3-3.3v-5.3zM163.1 148.8c0-1.8-1.5-3.3-3.3-3.3h-40.3c-1.8 0-3.3 1.5-3.3 3.3v5.3c0 1.8 1.5 3.3 3.3 3.3h40.3c1.8 0 3.3-1.5 3.3-3.3v-5.3z"
            />
        </g>
    </symbol>
    <symbol viewBox="0 0 200 200" id="icon-bar-chart">
        <title>bar-chart</title>
        <path d="M184.1 158l-13-7.5v5h-146v-98h5.8l-7.5-13-7.5 13h5.2v102h150v6" />
        <path opacity=".5" d="M48.5 117h-11c-1.5 0-2.8 1.2-2.8 2.8v24.4c0 1.5 1.2 2.8 2.8 2.8h11.1c1.5 0 2.8-1.2 2.8-2.8v-24.4c-.1-1.5-1.3-2.8-2.9-2.8z" />
        <path opacity=".4" d="M70.7 125.3H59.6c-1.5 0-2.8 1.2-2.8 2.8v16.1c0 1.5 1.2 2.8 2.8 2.8h11.1c1.5 0 2.8-1.2 2.8-2.8v-16.1c-.1-1.5-1.3-2.8-2.8-2.8z" />
        <path opacity=".54" d="M92.8 109.5H81.7c-1.5 0-2.8 1.1-2.8 2.6v32.2c0 1.4 1.2 2.6 2.8 2.6h11.1c1.5 0 2.8-1.1 2.8-2.6v-32.2c0-1.4-1.3-2.6-2.8-2.6z" />
        <path opacity=".7" d="M114.9 91h-11.1c-1.5 0-2.8 1.2-2.8 2.8v50.4c0 1.5 1.2 2.8 2.8 2.8h11.1c1.5 0 2.8-1.2 2.8-2.8V93.8c0-1.6-1.2-2.8-2.8-2.8z" />
        <path opacity=".84" d="M137.1 78.3H126c-1.5 0-2.8 1.1-2.8 2.5v63.6c0 1.4 1.2 2.5 2.8 2.5h11.1c1.5 0 2.8-1.1 2.8-2.5V80.8c0-1.4-1.3-2.5-2.8-2.5z" />
        <path d="M159.2 86.9c.6 0 1.1.4 1.1.9v56.6c0 .5-.5.9-1.1.9h-11.1c-.6 0-1.1-.4-1.1-.9V87.8c0-.5.5-.9 1.1-.9h11.1m0-1.6h-11.1c-1.5 0-2.8 1.1-2.8 2.5v56.6c0 1.4 1.2 2.5 2.8 2.5h11.1c1.5 0 2.8-1.1 2.8-2.5V87.8c0-1.4-1.2-2.5-2.8-2.5z" />
    </symbol>
    <symbol viewBox="0 0 200 200" id="icon-binoculars">
        <title>binoculars</title>
        <path d="M49.3 92.2c-13.4 0-24.3 10.9-24.3 24.3s10.9 24.3 24.3 24.3 24.3-10.9 24.3-24.3-10.9-24.3-24.3-24.3zm0 44.7c-11.3 0-20.4-9.1-20.4-20.4S38 96.1 49.3 96.1s20.4 9.1 20.4 20.4-9.1 20.4-20.4 20.4z" />
        <path opacity=".4" d="M49.3 96.1c-11.3 0-20.4 9.1-20.4 20.4s9.1 20.4 20.4 20.4 20.4-9.1 20.4-20.4-9.1-20.4-20.4-20.4zm0 38.6c-10 0-18.2-8.1-18.2-18.2 0-7.2 4.2-13.4 10.3-16.4-5.1 3.2-8.5 8.9-8.5 15.4 0 10 8.1 18.2 18.2 18.2 2.8 0 5.5-.7 7.9-1.8-2.8 1.8-6.2 2.8-9.7 2.8z"
        />
        <path d="M126.4 116.5c0 13.4 10.9 24.3 24.3 24.3s24.3-10.9 24.3-24.3-10.9-24.3-24.3-24.3-24.3 10.9-24.3 24.3zm3.9 0c0-11.3 9.1-20.4 20.4-20.4s20.4 9.1 20.4 20.4-9.1 20.4-20.4 20.4-20.4-9.1-20.4-20.4z" />
        <path opacity=".4" d="M150.7 96.1c-11.3 0-20.4 9.1-20.4 20.4s9.1 20.4 20.4 20.4 20.4-9.1 20.4-20.4-9.1-20.4-20.4-20.4zm0 38.6c-3.6 0-6.9-1-9.7-2.8 2.4 1.2 5.1 1.8 7.9 1.8 10 0 18.2-8.1 18.2-18.2 0-6.5-3.4-12.2-8.5-15.4 6.1 2.9 10.3 9.2 10.3 16.4 0 10.1-8.1 18.2-18.2 18.2z"
        />
        <path opacity=".7" d="M72.5 92.1l4.1-17.3c-.7-1.3-3-4.5-8.1-5.5-6.5-1.4-11 2.8-11 2.8L36.7 95.8c3.7-2.2 8-3.5 12.6-3.5 12.5 0 22.7 9.4 24.1 21.5l1.1-12.2c-1.4-1.9-2.3-4.3-2.3-6.9 0-1 .1-1.8.3-2.6zm-21.3-2.4c-2.9-.5-5.3.4-5.3.4l11.7-14.9s2.5-2.1 4.4-2c.1.1-10.8 16.5-10.8 16.5z"
        />
        <path opacity=".85" d="M91.9 61.3c-.9-1.2-3.2-2.1-5.2-2.1-1.6 0-3.1.3-4.3 1.2-.9.7-1.5 4.3-1.5 4.3 1.5-1.1 3.4-1.7 5.3-1.7 2.2 0 4.3.8 5.9 2.1 0 .1.2-3.1-.2-3.8zM108.1 61.3c.9-1.2 3.2-2.1 5.2-2.1 1.6 0 3.1.3 4.3 1.2.9.7 1.5 4.3 1.5 4.3-1.5-1.1-3.4-1.7-5.3-1.7-2.2 0-4.3.8-5.9 2.1 0 .1-.2-3.1.2-3.8z"
        />
        <path opacity=".85" d="M127.5 92.1l-4.7-20c-.9-4.2-4.6-7.3-9-7.3-3.3 0-6.2 1.7-7.8 4.3v.4c-.1-.7-.6-1-1.3-1h-9.1c-.7 0-1.3.3-1.3 1v-.3c-1.6-2.6-4.5-4.4-7.8-4.4-4.4 0-8.1 3.1-9 7.2l-4.7 20c-.2.8-.3 1.7-.3 2.6 0 6.4 5.2 11.4 11.6 11.4 5.3 0 9.8-3.6 11.2-8.6h10c1.4 5 5.9 8.6 11.2 8.6 6.4 0 11.6-5.1 11.6-11.5-.3-.9-.4-1.6-.6-2.4zm-48.8-8.9c-.8.4-1.6.9-2.2 1.5l3-14.3c1.1-1.6 1.7-1.4 1.7-1.4l-2.5 14.2z"
        />
        <path d="M51 133.7c-10 0-18.2-8.1-18.2-18.2 0-6.5 3.4-12.2 8.5-15.4-6.1 2.9-10.3 9.2-10.3 16.4 0 10 8.1 18.2 18.2 18.2 3.6 0 6.9-1 9.7-2.8-2.3 1.2-5 1.8-7.9 1.8z" />
        <path opacity=".7" d="M126.6 113.7c1.4-12.1 11.7-21.5 24.1-21.5 4.6 0 8.9 1.3 12.6 3.5L142.5 72s-4.5-4.2-11-2.8c-5.1 1.1-7.4 4.2-8.1 5.5l4.1 17.3c.2.8.3 1.7.3 2.6 0 2.6-.8 5-2.3 6.9l1.1 12.2z" />
        <path d="M149 133.7c10 0 18.2-8.1 18.2-18.2 0-6.5-3.4-12.2-8.5-15.4 6.1 2.9 10.3 9.2 10.3 16.4 0 10-8.1 18.2-18.2 18.2-3.6 0-6.9-1-9.7-2.8 2.3 1.2 5 1.8 7.9 1.8zM51.2 89.7c-2.9-.5-5.3.4-5.3.4l11.7-14.9s2.5-2.1 4.4-2c.1.1-10.8 16.5-10.8 16.5zM76.5 84.7c.7-.6 1.4-1.1 2.2-1.5L81.2 69s-.7-.2-1.7 1.4l-3 14.3z"
        />
    </symbol>
    <symbol viewBox="0 0 200 200" id="icon-books">
        <title>books</title>
        <path d="M166 137.1v-.3c0-.9-.1-2.2-.1-3.3l-.4-14.6c0-.6 0-2-.3-2.6L108 138.6c-.2.1-.3.2-.5.3-1.1.7-2 2.1-2 3.4v1.9l-.1 16.6c0 1.4 1.1 2.2 2.5 1.6l53.8-21.6 2.1-.9c1.4-.5 2.5-1.6 2.4-2.3v-.3c-.2-.1-.2-.1-.2-.2zM172.4 103.3c-.1-.8-.2-2.7-.3-4.2l-.2-3.9c0-.4-.3-2.1-.5-2.7l-1.9.7c-.1.1-.2.1-.4.2l-58.3 22c-.7.2-1.2.7-1.7 1.3-.6.7-.9 1.6-.9 2.4l-.1 7.8c0 1.5 1.1 2.3 2.6 1.8l55.7-21.7 3.5-1.4c1.4-.4 2.5-1.5 2.5-2.3zM157 87.9v-.1-.7c-.1-.9-.1-2.1-.2-3.2l-.3-7.4c-.1-1.2-.3-2-.7-2.5L97.2 96.1h-.1c-.7.3-1.3.8-1.8 1.5s-.8 1.4-.8 2.2v1l-.1 10.5c.1 1.4 1.2 2 2.5 1.5l56.6-22.1 1.1-.5c1.4-.5 2.5-1.5 2.4-2.3z"
        />
        <path opacity=".67" d="M157 87.9c0-.2-.1-.9-.1-.9l.5.3s.7.3 1.4.9c1.1.9.8 2.1-.5 2.7l-60.7 25.2c-1.4.6-3.5.4-4.8-.4L27.8 76c-1.3-.8-2.4-2.6-2.4-4.1L25 60.4c-.1-1.5 1.1-3.1 2.5-3.6l3.8-1.3c1.4-.5 3.7-1.2 5.1-1.7l49.4-15.7c1.4-.5 3.7-.3 5 .3l67.6 32.3c1.3.6 1.3 1.6-.1 2.1L97.1 96.1c-1.4.5-2.5 2.2-2.6 3.7l-.1 11.2c0 1.5 1.1 2.3 2.5 1.7l57.7-22.5c1.4-.5 2.5-1.5 2.4-2.3z"
        />
        <path opacity=".75" d="M174.3 103.7c-.7-.6-2-1.1-2-1.1s0 .5.1.8c.1.8-1.1 1.9-2.5 2.4l-59.3 23.1c-1.4.6-2.6-.2-2.6-1.8l.1-7.8c0-1.5 1.2-3.2 2.6-3.8l62.9-23.8c1.4-.5 1.5-1.5.1-2.2l-17.2-8.6.1 3.1c0 .6.1 1.2.1 1.8.3.1.7.3 1.1.6l2.6 2.2c1.1 1 .9 2.2-.4 2.8l-62.5 25.9c-1.4.6-3.5.4-4.8-.4l-53-32.6.2 4.4c.1 1.5 1.2 3.4 2.5 4.2l64.1 39c1.3.8 3.5 1 4.9.4l62.4-25.8c1.4-.7 1.6-1.9.5-2.8z"
        />
        <path d="M166.1 137.6c.1.8-1 1.8-2.4 2.4l-55.9 22.5c-1.4.6-2.5-.2-2.5-1.7l.1-18.5c0-1.5 1.2-3.1 2.5-3.7l59.5-23.2c1.4-.5 1.5-1.7.3-2.5l-2.7-1.8-53.7 22.2c-1.4.6-3.6.4-4.9-.4L45.8 96l-8.4 3.1c-1.4.5-2.5 2.2-2.5 3.7l.5 18.7c0 1.5 1.1 3.3 2.4 4.1l64.1 39.7c1.3.8 3.4 1 4.8.4l60.7-25.2c1.4-.6 1.6-1.8.5-2.7-.7-.6-1.9-1-1.9-1s0 .5.1.8z"
        opacity=".5" />
    </symbol>
    <symbol viewBox="0 0 200 200" id="icon-cbl">
        <title>cbl</title>
        <path opacity=".4" d="M15 65.2h54v11.7H15z" />
        <path opacity=".7" d="M15 79.4h11.8v11.8H15zM29.2 79.4H41v11.8H29.2z" />
        <path opacity=".4" d="M43.3 79.4h11.8v11.8H43.3zM57.5 79.4h11.8v11.8H57.5z" />
        <path opacity=".7" d="M15 93.6h11.8v11.8H15z" />
        <path opacity=".4" d="M29.2 93.6H41v11.8H29.2zM43.3 93.6h11.8v11.8H43.3zM57.5 93.6h11.8v11.8H57.5zM15 121.6h54v11.7H15z" />
        <path d="M116.5 58.4c-2.7-1.1-5.8-1.9-8.2.5-1 1-2.3 1.8-3.4 1.4-2.2-.7-4.3-1.7-6.4-2.5-1.2-.5-1.5-2.8-1.2-2.5-2.3.7-3.9 3.8-6.2 4.5-1.2.4-3.3-3-4.1-1.8-1.8 2.8-3 5.3-5.5 2.2-1-1.3.2-3.8 1.2-2.5 1.5 1.9 3.5-3.9 5.5-3.3.6.2 1 .9 1.4 1.4 1.5 1.8 3.1-.4 4.2-1.5 1-1 2-1.8 3.2-2.2.4-.1.9.3 1 1 .6 2.2 4.1 2.6 5.4 3.3 2.7 1.3 3.3-1 5.8-2.1 5-2.3 11.5 1.5 9.6.5l-2.3 3.6zM61.2 58.7c-.4.1-1 .1-1.4-.3-1-1.2-1.9-2.2-3.3-2.2-1.2 0-2.2 2.2-3.3 2.8-1.9 1.1-2.9-1.7-4.3-2.8-2.4-1.9-1.6 2.1-3.1 2.8-.3.2-.7 0-1-.3-1.6-2-3.1.3-4.4 1.6-1.1 1.1-1.9 2.1-3.2 1.5-1.5-.7-3.2-2.1-4.7-2.2-1.4-.1-2.5.7-3.8 1.4-.3.2-.7.3-1-.1-1.2-1.6-2.2-3.7-3.8-4.4-1.2-.5-.6-3.3.7-2.8 1.3.6 2.3 1.7 3.2 3.2 1.1 1.8 1.8.1 3.1-.2 1.3-.2 2.6 0 3.8.6.5.3 2.8 2.1 3.3 1.7 1.6-1.4 4.1-5 6.3-4.2.7.3.7.4 1 .7.2-.6.4-1.1.7-1.6.9-1.6 2.3-1.6 3.5-.7 1.7 1.4 2.3 3.6 4.6 1.2.6-.7 1.2-1.2 2-1.2 2.3 0 2.1 1.9 4.2 1.8l.9 3.7zM137.8 55.8c.4-.1 1-.1 1.4.3 1 1.2 1.9 2.2 3.3 2.2 1.2 0 2.2-2.2 3.3-2.8 1.9-1.1 2.9 1.7 4.3 2.8 2.4 1.9 1.6-2.1 3.1-2.8.3-.2.7 0 1 .3 1.6 2 3.1-.3 4.4-1.6 1.1-1.1 1.9-2.1 3.2-1.5 1.5.7 3.2 2.1 4.7 2.2 1.4.1 2.5-.7 3.8-1.4.3-.2.7-.3 1 .1 1.2 1.6 2.2 3.7 3.8 4.4 1.2.5.6 3.3-.7 2.8-1.3-.6-2.3-1.7-3.2-3.2-1.1-1.8-1.8-.1-3.1.2-1.3.2-2.6 0-3.8-.6-.5-.3-2.8-2.1-3.3-1.7-1.6 1.4-4.1 5-6.3 4.2-.7-.3-.7-.4-1-.7-.2.6-.4 1.1-.7 1.6-.9 1.6-2.3 1.6-3.5.7-1.7-1.4-2.3-3.6-4.6-1.2-.6.7-1.2 1.2-2 1.2-2.3 0-2.1-1.9-4.2-1.8l-.9-3.7z"
        />
        <path opacity=".4" d="M15 135.7h54v11.7H15z" />
        <path opacity=".7" d="M15 107.7h11.8v11.8H15zM29.2 107.7H41v11.8H29.2zM43.3 107.7h11.8v11.8H43.3z" />
        <path opacity=".4" d="M57.5 107.7h11.8v11.8H57.5zM72.8 65.2h54.3V77H72.8z" />
        <path opacity=".7" d="M72.8 79.4h11.8v11.8H72.8zM87 79.4h11.8v11.8H87zM101.2 79.4H113v11.8h-11.8zM115.3 79.4h11.8v11.8h-11.8zM72.8 93.6h11.8v11.8H72.8zM87 93.6h11.8v11.8H87zM101.2 93.6H113v11.8h-11.8z" />
        <path opacity=".4" d="M115.3 93.6h11.8v11.8h-11.8zM72.8 121.6h54.3v11.8H72.8zM72.8 135.7h54.3v11.8H72.8z" />
        <path opacity=".7" d="M72.8 107.7h11.8v11.8H72.8zM87 107.7h11.8v11.8H87z" />
        <path opacity=".4" d="M101.2 107.7H113v11.8h-11.8zM115.3 107.7h11.8v11.8h-11.8zM130.7 65.2H185V77h-54.3z" />
        <path d="M15 65.2h28.3v11.7H15zM72.8 65.2h42.5V77H72.8z" />
        <path opacity=".7" d="M130.7 79.4h11.8v11.8h-11.8zM144.9 79.4h11.8v11.8h-11.8zM159 79.4h11.8v11.8H159z" />
        <path opacity=".4" d="M173.2 79.4H185v11.8h-11.8z" />
        <path opacity=".7" d="M130.7 93.6h11.8v11.8h-11.8zM144.9 93.6h11.8v11.8h-11.8z" />
        <path opacity=".4" d="M159 93.6h11.8v11.8H159zM173.2 93.6H185v11.8h-11.8zM130.7 121.6H185v11.8h-54.3zM130.7 135.7H185v11.8h-54.3z" />
        <path opacity=".7" d="M130.7 107.7h11.8v11.8h-11.8zM144.9 107.7h11.8v11.8h-11.8z" />
        <path opacity=".4" d="M159 107.7h11.8v11.8H159zM173.2 107.7H185v11.8h-11.8z" />
        <path d="M15 121.6h17.1v11.8H15zM15 135.7h34.2v11.7H15zM72.8 121.6h36.8v11.8H72.8zM72.8 135.7H97v11.8H72.8zM130.7 121.6h26v11.8h-26zM130.7 135.7h40.1v11.8h-40.1zM130.7 65.2h34.2V77h-34.2z" />
    </symbol>
    <symbol viewBox="0 0 200 200" id="icon-chat">
        <title>chat</title>
        <path d="M161.9 76.5h-75c-7.9 0-14.8 5.2-14.8 13.1v40.7c0 7.9 6.9 15.2 14.8 15.2h53.6l20.6 17.2v-17.2h.8c7.9 0 13.2-7.3 13.2-15.2V89.6c0-7.9-5.3-13.1-13.2-13.1z" />
        <path opacity=".5" d="M115.5 47.5h-75c-7.9 0-15.4 5.6-15.4 13.5v40.7c0 7.9 7 15 16 15v17.4l20.8-16.6h53.6c7.9 0 13.6-7.9 13.6-15.8V61c0-7.9-5.7-13.5-13.6-13.5z" />
    </symbol>
    <symbol viewBox="0 0 200 200" id="icon-chemistry">
        <title>chemistry</title>
        <circle opacity=".85" cx="101.1" cy="59.5" r="5.1" />
        <path opacity=".85" d="M99.6 43.4c0 4-3.2 7.2-7.2 7.2s-7.2-3.2-7.2-7.2 3.2-7.2 7.2-7.2c3.9 0 7.2 3.2 7.2 7.2zM108.2 28.6c0 2-1.6 3.6-3.6 3.6s-3.6-1.6-3.6-3.6 1.6-3.6 3.6-3.6 3.6 1.6 3.6 3.6z" />
        <path opacity=".5" d="M137.4 170.5l-27.3-51.3V78.5h4.5c1.8 0 3.5-1.2 3.5-3v-1c0-1.8-1.7-4-3.5-4H84.7c-1.8 0-3.6 2.1-3.6 4v.1c0 2.4 2.2 4 4.5 4h3.5v40.7l-26.8 51.3c-1 1.9.4 4 2.5 4h70c2.3-.1 3.7-2.1 2.6-4.1zm-67.8-2l11.7-22.1c16.7 3.8 18.9-7.7 34.7-4.5l14.2 26.6H69.6z"
        />
        <path d="M116 142.1l14.2 26.4H69.6l11.7-22.3c16.7 3.7 18.9-7.4 34.7-4.1z" />
    </symbol>
    <symbol viewBox="0 0 200 200" id="icon-clipboard">
        <title>clipboard</title>
        <path opacity=".35" d="M156.3 46.4c0-3.5-2.9-6.4-6.4-6.4h-37.6c1.3 1 2.9 1.7 4.4 2 8.4 1.3 12 2.1 13 2.3 3.1.7 4 2.3 4.6 4.7l.4 2h10.6c1.4 0 2.5 1.1 2.5 2.5l.5 107.1c0 1.4-1.1 2.4-2.5 2.4H54.2c-1.4 0-2.5-1-2.5-2.4l-.6-107.2c0-1.4 1.1-2.4 2.5-2.4h10.7l.4-2.1c.5-2.4 1.5-3.9 4.6-4.6 1-.2 4.6-1 13-2.3 1.5-.2 3-1 4.2-2H48.8c-3.5 0-6.3 2.9-6.3 6.4l.6 121.9c0 3.5 2.9 6.8 6.4 6.8h101.2c3.5 0 6.3-3.3 6.3-6.8l-.7-121.9z"
        />
        <path d="M65.2 104.4c-.5 0-.9-.3-1.1-.6l-1.4-2.5c-.3-.6-.1-1.3.5-1.7.6-.3 1.3-.1 1.7.5l.4 1 1.8-2.1H62v7h7v-5.5l-2.7 3.4c-.2.3-.7.5-1.1.5zM65.2 88.7c-.5 0-.9-.3-1.1-.6l-1.4-2.5c-.3-.6-.1-1.3.5-1.7.6-.3 1.3-.1 1.7.5l.4.8L67 83h-5v7h7v-5.1l-2.7 3.4c-.2.3-.7.4-1.1.4zM65.2 72.3c-.5 0-.9-.3-1.1-.6l-1.4-2.5c-.3-.6-.1-1.3.5-1.7.6-.3 1.3-.1 1.7.5l.4 1.1 1.8-2.1H62v7h7v-5.6l-2.7 3.4c-.2.3-.7.5-1.1.5zM65.2 120c-.5 0-.9-.3-1.1-.6l-1.4-2.5c-.3-.6-.1-1.3.5-1.7.6-.3 1.3-.1 1.7.5l.4.8 1.9-2.5H62v7h7v-4.9l-2.7 3.4c-.2.3-.7.5-1.1.5zM62 145h7v7h-7zM62 130h7v6h-7z"
        />
        <path d="M147.8 53.5c0-1.4-1.2-2.5-2.5-2.5H134.7l1.3 6H63l1.3-6H53.7c-1.4 0-2.5 1.1-2.5 2.5l.5 107.2c0 1.4 1.2 2.3 2.5 2.3h91.6c1.4 0 2.5-1 2.5-2.4l-.5-107.1zM71 152c0 1.1-.9 2-2 2h-7c-1.1 0-2-.9-2-2v-7c0-1.1.9-2 2-2h7c1.1 0 2 .9 2 2v7zm0-16c0 1.1-.9 2-2 2h-7c-1.1 0-2-.9-2-2v-6c0-1.1.9-2 2-2h7c1.1 0 2 .9 2 2v6zm1.9-25l-1.9 2.9v7.1c0 1.1-.9 2-2 2h-7c-1.1 0-2-.9-2-2v-7c0-1.1.9-2 2-2h6.5l2.2-2.7c.4-.5 1.3-.6 1.9-.2.5.5.7 1.3.3 1.9zm0-15.6L71 98.3v7.7c0 1.1-.9 2-2 2h-7c-1.1 0-2-.9-2-2v-7c0-1.1.9-2 2-2h6.4l2.3-3.1c.4-.5 1.3-.7 1.9-.3.5.5.7 1.2.3 1.8zm0-15.6L71 82.7V90c0 1.1-.9 2-2 2h-7c-1.1 0-2-.9-2-2v-7c0-1.1.9-2 2-2h7.3l1.4-2.4c.4-.5 1.3-.8 1.9-.4.5.4.7 1 .3 1.6zm0-16.5l-1.9 3V74c0 1.1-.9 2-2 2h-7c-1.1 0-2-.9-2-2v-7c0-1.1.9-2 2-2h6.4l2.2-3c.4-.5 1.3-.7 1.9-.3.6.4.8 1.1.4 1.6zm63.2 86.7H80.6c-1.1 0-2.1-.9-2.1-2s.9-2 2.1-2h55.5c1.1 0 2.1.9 2.1 2s-1 2-2.1 2zm0-15H80.6c-1.1 0-2.1-.9-2.1-2s.9-2 2.1-2h55.5c1.1 0 2.1.9 2.1 2s-1 2-2.1 2zm0-16H80.6c-1.1 0-2.1-.9-2.1-2s.9-2 2.1-2h55.5c1.1 0 2.1.9 2.1 2-.1 1.1-1 2-2.1 2zm0-15H80.6c-1.1 0-2.1-.9-2.1-2s.9-2 2.1-2h55.5c1.1 0 2.1.9 2.1 2s-1 2-2.1 2zm0-16H80.6c-1.1 0-2.1-.9-2.1-2s.9-2 2.1-2h55.5c1.1 0 2.1.9 2.1 2s-1 2-2.1 2zm0-15H80.6c-1.1 0-2.1-.9-2.1-2s.9-2 2.1-2h55.5c1.1 0 2.1.9 2.1 2-.1 1.1-1 2-2.1 2z"
        />
        <path opacity=".6" d="M134.3 48.8c-.5-2.4-1.5-3.8-4.6-4.5-1-.2-4.6-1-13-2.4-3.5-.6-7.2-4-7.4-6.9v-.4c0-5.4-4.4-9.7-9.7-9.7-5.2 0-9.4 4-9.7 9.1 0 3-3.6 7.4-7.6 8-8.4 1.3-12 2.1-13 2.4-3.1.7-4 2.2-4.6 4.5l-1.7 8h73l-1.7-8.1zm-34.7-9.1c-2.2 0-4.1-1.4-4.8-3.4-.1-.2-.1-.3-.1-.5v-.1c0-.1-.1-.3-.1-.5v-.1-.6c0-2.9 2.3-5.2 5.2-5.2 2.9 0 5.2 2.3 5.2 5.2v.7c0 .2 0 .3-.1.5 0 .2-.1.3-.1.5-1 2-2.9 3.5-5.2 3.5z"
        />
    </symbol>
    <symbol viewBox="0 0 200 200" id="icon-contacts">
        <title>contacts</title>
        <path opacity=".5" stroke="#000" stroke-miterlimit="10" d="M148.1 181.5H54.9c-6.4 0-11.6-5.2-11.6-11.6V30.1c0-6.4 5.2-11.6 11.6-11.6h93.2c6.4 0 11.6 5.2 11.6 11.6v139.8c0 6.4-5.2 11.6-11.6 11.6z" />
        <path d="M40.1 39.5h10M50.1 42.5h-10c-1.9 0-3.5-1.6-3.5-3.5s1.6-3.5 3.5-3.5h10c1.9 0 3.5 1.6 3.5 3.5s-1.5 3.5-3.5 3.5zM40.1 60.5h10M50.1 63.5h-10c-1.9 0-3.5-1.6-3.5-3.5s1.6-3.5 3.5-3.5h10c1.9 0 3.5 1.6 3.5 3.5s-1.5 3.5-3.5 3.5zM40.1 80.5h10M50.1 83.5h-10c-1.9 0-3.5-1.6-3.5-3.5s1.6-3.5 3.5-3.5h10c1.9 0 3.5 1.6 3.5 3.5s-1.5 3.5-3.5 3.5zM40.1 100.5h10M50.1 103.5h-10c-1.9 0-3.5-1.6-3.5-3.5s1.6-3.5 3.5-3.5h10c1.9 0 3.5 1.6 3.5 3.5s-1.5 3.5-3.5 3.5z"
        />
        <g>
            <path d="M40.1 120.5h10M50.1 123.5h-10c-1.9 0-3.5-1.6-3.5-3.5s1.6-3.5 3.5-3.5h10c1.9 0 3.5 1.6 3.5 3.5s-1.5 3.5-3.5 3.5z" />
        </g>
        <g>
            <path d="M40.1 140.5h10M50.1 143.5h-10c-1.9 0-3.5-1.6-3.5-3.5s1.6-3.5 3.5-3.5h10c1.9 0 3.5 1.6 3.5 3.5s-1.5 3.5-3.5 3.5z" />
        </g>
        <g>
            <path d="M40.1 161.5h10M50.1 164.5h-10c-1.9 0-3.5-1.6-3.5-3.5s1.6-3.5 3.5-3.5h10c1.9 0 3.5 1.6 3.5 3.5s-1.5 3.5-3.5 3.5z" />
        </g>
        <g>
            <path d="M134.3 114.9c-1.8-2.9-8-4.6-14.1-7.2-6.1-2.5-7.6-3.4-7.6-3.4l-.1-5.8s2.3-1.8 3-7.3c1.4.4 2.9-2.1 3-3.5.1-1.3-.2-4.9-1.9-4.5.1-1.1.3-2.2.4-3.1.1-.7.1-1.3.1-1.9v-1.4c-.1-1.2-.5-2.4-1.1-3.6-.7-1.2-.8-2.8-2-3.8-.8-.6-2.3-.6-3.3-1.1-.9-.4-2.5-1.5-3.5-1.8-.9-.2-1.3.5-2.3.5-1.8 0-3.7-.1-5.2.2-3 .6-3.4 3.6-5.9 3-.9-.2.9 1.4.4 2.1-.4.6-.8 1.3-1 2-.3.8-.5 1.5-.5 2.3-.1 1.3.1 3.7.5 6.4-1.7-.4-2 3.2-1.9 4.5.1 1.3 1.6 3.9 3 3.5.7 5.5 3 7.3 3 7.3l-.1 5.8s-1.5.9-7.6 3.4-12.3 4.3-14.1 7.2c-1.6 2.6-1.2 18.5-1.2 18.5h61c.2.2.7-15.7-1-18.3z"
            />
        </g>
        <path fill="none" d="M53.1 32.5h106.6v127.2H53.1z" />
    </symbol>
    <symbol viewBox="0 0 200 200" id="icon-diploma">
        <title>diploma</title>
        <g fill-rule="evenodd" clip-rule="evenodd">
            <path d="M75.3 91.1c.2-5.5 2.8-8.5 5.4-11.5 0 0 2-2.1 5.1-2.8h.1c-14.2-9.5-26.2-18.7-40.1-28.5-15.5 4.1-24.8 23-19.3 42.2 18.3-2.2 38.2 2.7 48.7 6.6.1-.4-.1-3.8.1-6zM155.7 109.2c3.6-2.3 11.4-2.5 16.9-.9-6.9-7.4-70.1-22.4-70.1-22.4s-.1 0-.1-.1v.1c.2 3.2-2 4.7-2 4.7-2.8 1.9-4.9 7.1-4.5 10.7 0 .3.4 7.2.4 8.2l.1.1 29.3 28c3.9 3.5 8.5 8.2 16.7 10.7 16.9 5.2 32.5-8 32.6-19.9.1-11.7-10.2-18.3-19.3-19.2zm8.1 8.6c-9.7-1.4-18.9 4.5-17.7 12.2-3.9-2.2-5.7-7.3-5.7-7.3 1.4-6.4 14.3-13.8 23.4-4.9zm-10.3 6.2l5.4 5.5c-2.2 3.8-6.3 4.2-8.1 2.3-3.3-3.4.8-7 2.7-7.8zm-1 20.2c-7.8.3-18.3-5.8-14.1-16.8 7.3 11 19.3 12.2 24.4 2.1l-6.4-7c7.1-3.4 12.5.9 13.2 5 1.4 9.5-8.3 16.4-17.1 16.7z"
            />
            <path opacity=".4" d="M169.5 127.6c-.7-4.2-6.1-8.4-13.2-5l6.4 7c-5.1 10.1-17.1 8.9-24.4-2.1-4.1 11.1 6.3 17.2 14.1 16.8 8.9-.4 18.6-7.3 17.1-16.7z" />
            <path opacity=".4" d="M150.8 131.9c1.8 1.9 5.8 1.5 8.1-2.3l-5.4-5.5c-1.9.7-6 4.3-2.7 7.8z" />
            <path opacity=".4" d="M140.4 122.8s1.9 5.1 5.7 7.3c-1.2-7.8 8-13.6 17.7-12.2-9.1-9-22-1.6-23.4 4.9z" />
            <path opacity=".6" d="M85.9 76.8c9.4-1.5 16.1 4.7 16.5 9.1.2 3.2-2 4.7-2 4.7-2.8 1.9-4.9 7.1-4.5 10.7 0 .3.5 8.3.5 8.3 2.6 19.9 3.5 42.4-9.5 52-.2-5.5-.8-11.7-2.4-14.5-3.6 3.1-7.3 5-13.9 4.2 9.8-6.6 14.2-22.3 10.3-37.4-10 6-21.9 13.9-38 10.3 3.4-2.3 7.8-3.1 9.6-7.2-3.6-1.3-9.9-3-12.1-7.2 14.8 1.2 27.1-5 35-12.7 0 0-.2-3.7 0-6 .2-5.5 2.8-8.5 5.4-11.5 0 .1 1.9-2 5.1-2.8z"
            />
        </g>
    </symbol>
    <symbol viewBox="0 0 200 200" id="icon-documents">
        <title>documents</title>
        <path d="M59.4 61.4h15.2V77H59.4z" />
        <path opacity=".4" d="M142.1 49.6c0-4.5-3.6-8.1-8.1-8.1H51.2c-4.5 0-8.1 3.6-8.1 8.1v117.9c0 4.5 3.6 8.1 8.1 8.1h82.9c4.5 0 8.1-3.6 8.1-8.1V49.6z" />
        <path opacity=".6" d="M149.3 25.5H66.5c-4.4 0-8.3 3.2-8.3 7.6v8.4h75.4c4.4 0 8.6 2.9 8.6 7.4v110.6h7.1c4.4 0 7.9-3.7 7.9-8.1V33.1c-.1-4.4-3.5-7.6-7.9-7.6z" />
        <path d="M142.1 49.6c0-4.5-3.6-8.1-8.1-8.1H51.2c-4.5 0-8.1 3.6-8.1 8.1v117.9c0 4.5 3.6 8.1 8.1 8.1h82.9c4.5 0 8.1-3.6 8.1-8.1V49.6zM89 57.5h38.3c1.3 0 2.4.7 2.4 2s-1.1 2-2.4 2H89c-1.3 0-2.4-.7-2.4-2s1.1-2 2.4-2zm0 15h38.3c1.3 0 2.4 1.2 2.4 2.5s-1.1 2.5-2.4 2.5H89c-1.3 0-2.4-1.2-2.4-2.5s1.1-2.5 2.4-2.5zm-8.9 7.7c0 1.3-1 2.3-2.3 2.3H57.4c-1.3 0-2.3-1-2.3-2.3V59.8c0-1.3 1-2.3 2.3-2.3h20.4c1.3 0 2.3 1 2.3 2.3v20.4zm47.2 79.3H56.8c-1.3 0-2.4-1.2-2.4-2.5s1.1-2.5 2.4-2.5h70.6c1.3 0 2.4 1.2 2.4 2.5-.1 1.3-1.1 2.5-2.5 2.5zm0-17H56.8c-1.3 0-2.4-.7-2.4-2s1.1-2 2.4-2h70.6c1.3 0 2.4.7 2.4 2-.1 1.3-1.1 2-2.5 2zm0-16H56.8c-1.3 0-2.4-1.2-2.4-2.5s1.1-2.5 2.4-2.5h70.6c1.3 0 2.4 1.2 2.4 2.5-.1 1.3-1.1 2.5-2.5 2.5zm0-16H56.8c-1.3 0-2.4-.7-2.4-2s1.1-2 2.4-2h70.6c1.3 0 2.4.7 2.4 2-.1 1.3-1.1 2-2.5 2zm0-16H56.8c-1.3 0-2.4-1.2-2.4-2.5s1.1-2.5 2.4-2.5h70.6c1.3 0 2.4 1.2 2.4 2.5-.1 1.3-1.1 2.5-2.5 2.5z"
        />
        <path opacity=".84" d="M59.4 61.4h15.2V77H59.4z" />
    </symbol>
    <symbol viewBox="0 0 200 200" id="icon-export">
        <title>export</title>
        <path opacity=".7" d="M25.1 101.5h15v15h-15zM25.1 119.5h15v15h-15z" />
        <path opacity=".31" d="M43.1 119.5h15v15h-15z" />
        <path opacity=".53" d="M61.1 83.5h15v15h-15zM61.1 101.5h15v15h-15zM61.1 119.5h15v15h-15z" />
        <path opacity=".76" d="M79.1 101.5h15v15h-15z" />
        <path opacity=".4" d="M97.1 65.5h15v15h-15zM97.1 47.5h15v15h-15z" />
        <path opacity=".6" d="M115.1 65.5h15v15h-15z" />
        <path opacity=".4" d="M97.1 83.5h15v15h-15z" />
        <path d="M159.1 84.1v-.6h-.7l-6.3-10.3v10.3h-37v18h-18v18h-18v15h73v10.6l6.5-10.6h.5v-.3l16.1-25.1" />
        <path opacity=".7" d="M25.1 137.5h15v15h-15z" />
        <path opacity=".31" d="M43.1 137.5h15v15h-15z" />
        <path opacity=".53" d="M61.1 137.5h15v15h-15z" />
        <path opacity=".76" d="M79.1 137.5h15v15h-15z" />
        <path opacity=".4" d="M97.1 137.5h15v15h-15z" />
        <path opacity=".6" d="M115.1 137.5h15v15h-15z" />
    </symbol>
    <symbol viewBox="0 0 200 200" id="icon-gapps">
        <title>gapps</title>
        <path opacity=".65" d="M146.1 65.9c1.5 1.2 4.7 3.8 4.7 8.8 0 4.8-2.7 7.1-5.5 9.2-.9.8-1.8 1.8-1.8 3.2 0 1.4 1 2.2 1.7 2.8l2.4 1.8c2.9 2.4 5.5 4.6 5.5 9.1 0 6.1-6 12.3-17.3 12.3-9.5 0-14.1-4.5-14.1-9.3 0-2.3 1.2-5.6 5.1-7.9 4.1-2.5 9.6-2.8 12.6-3-.9-1.2-2-2.4-2-4.4 0-1.1.3-1.8.7-2.5l-2.1.1c-7 0-10.9-5.1-10.9-10.2 0-3 1.4-6.3 4.2-8.7 3.8-3.1 8.2-3.6 11.8-3.6h13.5l-4.2 2.3h-4.3zm-4.6 28.9l-1.5-.1c-.6 0-4.1.1-6.9 1-1.5.5-5.7 2.1-5.7 6.7s4.5 7.9 11.6 7.9c6.3 0 9.7-3 9.7-7 0-3.2-2.2-5-7.2-8.5zm1.9-12.4c1.5-1.5 1.6-3.6 1.6-4.8 0-4.7-2.8-12-8.3-12-1.7 0-3.6.8-4.6 2.1-1.1 1.4-1.5 3.1-1.5 4.8 0 4.4 2.6 11.6 8.2 11.6 1.8.2 3.5-.6 4.6-1.7z"
        />
        <path d="M104.7 93.8c-10.4 0-16-8.1-16-15.3 0-8.5 7-15.8 17-15.8 9.6 0 15.7 7.5 15.7 15.3 0 7.6-6 15.8-16.7 15.8zm8.3-5.3c1.6-2.1 2-4.7 2-7.2 0-5.7-2.8-16.6-10.9-16.6-2.2 0-4.3.8-5.9 2.2-2.6 2.3-3 5.1-3 7.9 0 6.4 3.2 17 11.2 17 2.4 0 5.1-1.2 6.6-3.3z"
        />
        <path opacity=".5" d="M69.1 93.8c-10.4 0-16-8.1-16-15.3 0-8.5 7.1-15.8 17-15.8 9.6 0 15.7 7.5 15.7 15.3 0 7.6-5.9 15.8-16.7 15.8zm8.3-5.3c1.6-2.1 2-4.7 2-7.2 0-5.7-2.8-16.6-10.9-16.6-2.2 0-4.3.8-5.9 2.2-2.5 2.3-3 5.1-3 7.9 0 6.4 3.2 17 11.2 17 2.4 0 5-1.2 6.6-3.3z"
        />
        <path opacity=".65" d="M48.1 92.7l-9.4 2.2c-3.8.6-7.3 1.1-10.9 1.1C9.5 96 2.6 82.7 2.6 72.4 2.6 59.7 12.4 48 29.3 48c3.6 0 7 .5 10.1 1.4 5 1.4 7.3 3.1 8.7 4.1l-5.5 5.2-2.3.3 1.6-2.6c-2.2-2.2-6.3-6.1-14.1-6.1-10.4 0-18.3 7.8-18.3 19.3 0 12.3 9 23.8 23.4 23.8 4.2 0 6.4-.8 8.4-1.6V81.2l-10 .5 5.3-2.8h14l-1.7 1.6-.7 1.1-.1 3.1v8z"
        />
        <path opacity=".75" d="M167 90.9c-2.2-.2-2.6-.6-2.6-3.1V50.4c.3-2.3.9-2.7 3-3.9h-9.5l-4.9 2.3h5V89.2c0 1.3-.2 1.5-1.8 3.5H168l2.4-1.4c-1.1-.2-2.2-.3-3.4-.4z" />
        <path opacity=".5" d="M193.9 91.5l-2.2 1.2c-2.2 1-4.4 1.2-6.4 1.2-2.1 0-5.4-.1-8.7-2.5-4.6-3.2-6.7-8.8-6.7-13.7 0-10.1 8.3-15 15-15 2.3 0 4.8.6 6.8 1.8 3.3 2.1 4.1 4.9 4.6 6.4l-15.4 6.2-5.1.4c1.7 8.2 7.3 13 13.5 13 3.3 0 5.8-1.2 8-2.3l-3.4 3.3zm-6.2-19.4c1.2-.5 1.9-.8 1.9-1.7 0-2.6-2.9-5.6-6.5-5.6-2.6 0-7.6 2-7.6 9 0 1.1.1 2.3.2 3.5l12-5.2z"
        />
        <path d="M9.6 128.2l6.9-21.8H19l7.3 21.8h-2.7l-2.1-6.6H14l-1.9 6.6H9.6zm5.2-9h6.1l-1.9-6c-.6-1.9-1-3.4-1.3-4.5-.2 1.4-.6 2.8-1 4.2l-1.9 6.3zM28.8 134.2v-21.9h2v2.1c.5-.9 1-1.5 1.6-1.8.6-.4 1.3-.6 2.1-.6 1 0 1.9.3 2.8.9.8.6 1.5 1.5 2 2.8.5 1.2.8 2.7.8 4.5 0 2.7-.6 4.8-1.7 6.2-1.1 1.5-2.4 2.2-4 2.2-.7 0-1.3-.2-1.9-.5-.6-.3-1.1-.8-1.5-1.5v7.7h-2.2zm2-13.9c0 2 .3 3.5 1 4.5s1.5 1.5 2.5 1.5c.9 0 1.7-.5 2.4-1.5s1.1-2.5 1.1-4.6c0-2.1-.3-3.6-1-4.6-.7-1-1.5-1.5-2.5-1.5-.9 0-1.7.5-2.4 1.6s-1.1 2.6-1.1 4.6zM43.6 134.2v-21.9h2v2.1c.5-.9 1-1.5 1.6-1.8.6-.4 1.3-.6 2.1-.6 1 0 1.9.3 2.8.9.8.6 1.5 1.5 2 2.8.5 1.2.8 2.7.8 4.5 0 2.7-.6 4.8-1.7 6.2-1.1 1.5-2.4 2.2-4 2.2-.7 0-1.3-.2-1.9-.5-.6-.3-1.1-.8-1.5-1.5v7.7h-2.2zm2-13.9c0 2 .3 3.5 1 4.5s1.5 1.5 2.5 1.5c.9 0 1.7-.5 2.4-1.5s1.1-2.5 1.1-4.6c0-2.1-.3-3.6-1-4.6-.7-1-1.5-1.5-2.5-1.5-.9 0-1.7.5-2.4 1.6s-1.1 2.6-1.1 4.6zM57.6 123.4l2.2-.4c.1 1.1.5 1.9 1.1 2.5.6.5 1.3.8 2.3.8.9 0 1.7-.2 2.2-.7.5-.5.8-1.1.8-1.8 0-.6-.2-1.1-.7-1.5-.3-.2-1.1-.5-2.2-.9-1.7-.5-2.8-1-3.4-1.3-.6-.4-1-.9-1.3-1.5-.3-.6-.5-1.3-.5-2.1 0-1.3.4-2.4 1.3-3.3.9-.8 2.1-1.3 3.6-1.3 1 0 1.8.2 2.5.5s1.3.8 1.7 1.4c.4.6.7 1.4.8 2.5l-2.1.4c-.2-1.7-1.1-2.6-2.8-2.6-1 0-1.7.2-2.1.6-.5.4-.7.9-.7 1.5s.2 1 .7 1.4c.3.2 1.1.5 2.4.9 1.8.6 3 1 3.5 1.4.5.3.9.8 1.2 1.4.3.6.4 1.3.4 2.1 0 1.5-.5 2.7-1.4 3.7-1 .9-2.3 1.4-3.9 1.4-3.3 0-5.1-1.7-5.6-5.1zM80.2 128.2v-13.7h-1.9v-2.1h1.9v-1.7c0-1.2.1-2.2.4-2.8.3-.6.7-1.1 1.2-1.4.5-.3 1.2-.5 2-.5.6 0 1.3.1 2.1.3l-.3 2.3c-.5-.1-.9-.1-1.3-.1-.7 0-1.1.2-1.4.5-.3.3-.4 1-.4 2v1.5H85v2.1h-2.5v13.7h-2.3zM86.6 120.3c0-2.7.6-4.8 1.7-6.2 1.1-1.4 2.6-2.1 4.4-2.1 1.7 0 3.2.7 4.3 2.1 1.2 1.4 1.7 3.4 1.7 6 0 2.8-.6 5-1.7 6.3-1.1 1.4-2.6 2.1-4.4 2.1-1.7 0-3.2-.7-4.3-2.1-1.1-1.4-1.7-3.4-1.7-6.1zm2.3 0c0 2 .4 3.6 1.1 4.6.7 1 1.7 1.5 2.8 1.5 1 0 1.9-.5 2.7-1.5.7-1 1.1-2.5 1.1-4.6 0-2-.4-3.6-1.1-4.6-.7-1-1.7-1.5-2.8-1.5-1 0-1.9.5-2.7 1.5-.8 1-1.1 2.5-1.1 4.6zM102.2 128.2v-15.8h2v2.4c.5-1.1 1-1.8 1.4-2.2.4-.4.9-.5 1.4-.5.7 0 1.5.3 2.2.9l-.7 2.5c-.5-.4-1.1-.6-1.6-.6s-.9.2-1.3.5-.7.8-.8 1.4c-.3 1-.4 2.1-.4 3.3v8.3h-2.2zM9.1 163.1v-21.8H22v2.6H11.5v6.7h9.9v2.6h-9.9v7.4h11v2.6H9.1zM34.7 163.1v-2c-.4.8-.9 1.3-1.5 1.7-.6.4-1.3.6-2 .6-1.5 0-2.8-.7-4-2.2-1.1-1.4-1.7-3.5-1.7-6.1 0-1.8.2-3.3.7-4.6.5-1.2 1.2-2.2 2-2.8.8-.6 1.7-.9 2.8-.9.7 0 1.4.2 2 .6.6.4 1.1.9 1.5 1.6v-7.8h2.2V163h-2zm-6.9-7.9c0 2 .4 3.6 1.1 4.6.7 1 1.5 1.5 2.5 1.5.9 0 1.7-.5 2.4-1.4.7-1 1-2.4 1-4.3 0-2.2-.3-3.8-1-4.8s-1.5-1.5-2.6-1.5c-.9 0-1.7.5-2.4 1.5-.7.8-1 2.3-1 4.4zM49.6 163.1v-2.3c-.5.9-1.1 1.6-1.8 2-.7.4-1.5.7-2.3.7-1 0-1.9-.3-2.6-.8-.7-.6-1.2-1.2-1.5-2.1-.2-.8-.4-2-.4-3.5v-9.8h2.2v8.8c0 1.6.1 2.7.2 3.3.2.6.5 1 .9 1.3.4.3.9.5 1.5.5 1.1 0 1.9-.4 2.6-1.3.6-.7.9-2.1.9-4.1v-8.5h2.2v15.8h-1.9zM64.4 157.3l2.2.3c-.2 1.9-.9 3.3-1.9 4.3-1 1-2.2 1.5-3.6 1.5-1.7 0-3.1-.7-4.2-2.1-1.1-1.4-1.6-3.5-1.6-6.2s.6-4.8 1.7-6.2c1.1-1.4 2.5-2.1 4.3-2.1 1.3 0 2.5.4 3.4 1.2.9.8 1.5 2.1 1.8 3.8l-2.1.4c-.2-1.1-.6-1.9-1.1-2.4-.5-.5-1.1-.8-1.9-.8-1.1 0-2 .5-2.7 1.4-.7 1-1.1 2.5-1.1 4.6 0 2.2.3 3.7 1 4.7s1.5 1.4 2.6 1.4c.8 0 1.5-.3 2.1-1 .5-.4.9-1.4 1.1-2.8zM77.7 161.2c-.7.8-1.5 1.3-2.3 1.7-.8.4-1.6.6-2.5.6-1.3 0-2.4-.4-3.2-1.2-.8-.8-1.2-1.9-1.2-3.3 0-.9.2-1.7.6-2.4.4-.7.9-1.3 1.5-1.7.7-.4 1.6-.7 3-.9 1.8-.3 3.1-.6 3.9-.9v-.7c0-1.1-.2-1.8-.6-2.3-.5-.6-1.4-1-2.5-1-1 0-1.8.2-2.3.6-.5.4-.9 1.2-1.1 2.4l-2.2-.4c.3-1.7.9-2.9 1.9-3.7.9-.8 2.3-1.2 4-1.2 1.4 0 2.4.3 3.2.8.8.5 1.3 1.1 1.5 1.9.2.8.3 1.9.3 3.3v3.6c0 2.5 0 4.1.1 4.7.1.6.3 1.3.6 1.9h-2.3c-.2-.4-.3-1.1-.4-1.8zm-.2-6c-.8.4-2 .7-3.6 1-.9.2-1.6.3-1.9.5-.4.2-.7.5-.9.9-.2.4-.3.8-.3 1.3 0 .8.2 1.4.7 1.8.5.5 1.1.7 1.9.7.8 0 1.5-.2 2.1-.6.6-.4 1.1-.9 1.4-1.6.3-.7.5-1.7.5-3v-1zM88.9 160.7l.3 2.4c-.6.2-1.2.2-1.6.2-.8 0-1.4-.2-1.8-.5-.5-.3-.8-.7-1-1.2-.2-.5-.3-1.6-.3-3.1v-9.1h-1.6v-2.1h1.6v-3.9l2.2-1.6v5.5h2.2v2.1h-2.2v9.2c0 .9.1 1.4.2 1.7.2.4.5.5 1.1.5.2 0 .5 0 .9-.1zM91.9 144.4v-3.1h2.2v3.1h-2.2zm0 18.7v-15.8h2.2v15.8h-2.2zM97.5 155.2c0-2.7.6-4.8 1.7-6.2 1.1-1.4 2.6-2.1 4.4-2.1 1.7 0 3.2.7 4.3 2.1 1.2 1.4 1.7 3.4 1.7 6 0 2.8-.6 5-1.7 6.3-1.1 1.4-2.6 2.1-4.4 2.1-1.7 0-3.2-.7-4.3-2.1-1.1-1.3-1.7-3.4-1.7-6.1zm2.2 0c0 2 .4 3.6 1.1 4.6.7 1 1.7 1.5 2.8 1.5 1 0 1.9-.5 2.7-1.5.7-1 1.1-2.5 1.1-4.6 0-2-.4-3.6-1.1-4.6-.7-1-1.7-1.5-2.8-1.5-1 0-1.9.5-2.7 1.5-.7 1.1-1.1 2.6-1.1 4.6zM113.1 163.1v-15.8h2v2.2c.5-.9 1.1-1.5 1.7-1.9.7-.4 1.5-.6 2.4-.6.7 0 1.3.1 1.9.4.6.3 1.1.6 1.4 1.1.4.4.6 1 .8 1.7.2.7.3 1.8.3 3.2v9.7h-2.2v-9.6c0-1.2-.1-2-.3-2.5-.2-.5-.5-1-.9-1.2-.4-.3-.9-.4-1.5-.4-1.1 0-1.9.4-2.5 1.2-.6.8-.9 2.1-.9 4v8.6h-2.2z"
        />
    </symbol>
    <symbol viewBox="0 0 200 200" id="icon-gcal">
        <title>gcal</title>
        <path opacity=".5" d="M161.1 34.5h-122c-7.7 0-14 6.3-14 14v104c0 7.7 6.3 14 14 14h56l40-40h40v-78c0-7.7-6.2-14-14-14zM56.3 58.8c-3.7 0-6.8-3-6.8-6.8 0-3.7 3-6.8 6.8-6.8s6.8 3 6.8 6.8c-.1 3.7-3.1 6.8-6.8 6.8zm87.5 0c-3.7 0-6.8-3-6.8-6.8 0-3.7 3-6.8 6.8-6.8s6.8 3 6.8 6.8c-.1 3.7-3.1 6.8-6.8 6.8z"
        />
        <path d="M77.3 99.3c1.8.1 3.5-.1 5.3-.4 1.8-.3 3.3-.9 4.7-1.7 1.4-.8 2.5-1.9 3.4-3.3.9-1.4 1.3-3.1 1.3-5.1 0-2.8-1-5.1-2.9-6.8-1.9-1.7-4.4-2.6-7.4-2.6-1.9 0-3.5.4-4.9 1.1-1.4.8-2.5 1.8-3.5 3.1-.9 1.3-1.6 2.7-2 4.3-.4 1.6-.6 3.3-.6 5H59.9c.1-3.2.7-6.2 1.8-8.9s2.5-5.1 4.4-7.1c1.9-2 4.1-3.6 6.8-4.7 2.6-1.1 5.6-1.7 9-1.7 2.6 0 5.1.4 7.6 1.1 2.5.8 4.7 1.9 6.7 3.3 2 1.5 3.6 3.3 4.8 5.5 1.2 2.2 1.8 4.8 1.8 7.7 0 3.3-.8 6.3-2.3 8.7-1.5 2.5-3.9 4.3-7.1 5.4v.2c3.8.8 6.7 2.6 8.8 5.6 2.1 3 3.2 6.6 3.2 10.9 0 3.2-.6 6-1.9 8.5-1.3 2.5-3 4.6-5.1 6.3-2.1 1.7-4.6 3.1-7.5 4s-5.8 1.4-9 1.4c-3.8 0-7.2-.6-10.1-1.7-2.9-1.1-5.3-2.7-7.2-4.7-1.9-2-3.4-4.4-4.4-7.3-1-2.8-1.5-6-1.6-9.5h10.8c-.1 4 .9 7.4 3 10.1 2.1 2.7 5.3 4 9.5 4 3.6 0 6.6-1 9-3.1 2.4-2 3.6-5 3.6-8.7 0-2.6-.5-4.6-1.5-6.1s-2.3-2.7-4-3.5c-1.6-.8-3.5-1.3-5.5-1.5-2-.2-4.1-.3-6.3-.2v-7.6zM132.6 71.5c-.4 2-1.2 3.9-2.4 5.3s-2.7 2.6-4.4 3.5c-1.7.9-3.7 1.6-5.9 1.9-2.2.4-4.7.6-6.7.6v8.6h16v41l6-6h6v-55h-8.6z"
        />
        <g>
            <path opacity=".35" d="M95.1 166.5l40-40v40" />
            <path opacity=".7" d="M175.1 126.5l-40 40v-40" />
        </g>
    </symbol>
    <symbol viewBox="0 0 200 200" id="icon-gdrive">
        <title>gdrive</title>
        <path d="M175 121.9h-49.4L75.5 35.1h49.4" />
        <path opacity=".5" d="M50.1 164.9l25.4-43H175l-25.4 43" />
        <path opacity=".75" d="M50.1 164.9l50.8-85.8-25.4-44L25 121.7" />
    </symbol>
    <symbol viewBox="0 0 200 200" id="icon-gearhead">
        <title>gearhead</title>
        <path opacity=".5" d="M164.2 135.6c-4-6.2-17.5-10.2-30.8-15.7-13.3-5.6-16.5-7.5-16.5-7.5l-.1-12.8s5-3.9 6.6-15.9c3.1.9 6.4-4.7 6.6-7.6.2-2.8 5.2-11.5 1.4-10.7.3-2.4-1.6-4.4-1.4-6.5.2-1.5-3.2-2.3-3.1-3.5.1-1.2.1-2.3 0-3.1-.3-2.6-1.1-5.3-2.5-7.8-1.4-2.6-3.8-5.2-6.3-7.2-1.6-1.4-3.1-2.4-5.2-3.3-1.9-.9-5.4-.3-7.6-.8-2-.4-2.8-.9-5.1-.9-4 0-7 1.8-10.4 2.5-6.6 1.4-8.5 4.8-13.8 3.6-2-.5 2 3 .9 4.7-.9 1.4-1.7 2.9-2.2 4.3-.6 1.6-1 3.3-1.2 5-.3 2.8-3.5 7.3-2.7 13.2-3.8-.8-.6 7.9-.4 10.7.2 2.9 3.5 8.5 6.6 7.6 1.6 12 6.6 15.9 6.6 15.9l-.1 12.8s-3.2 1.9-16.5 7.5c-13.4 5.6-26.8 9.5-30.9 15.7-3.6 5.6-2.5 40.4-2.5 40.4H166.7c0-.3 1.1-35-2.5-40.6z"
        />
        <path d="M63.4 71.2c.1.9.2 1.9.4 2.8-2.1 1.1-4.2 2.3-6.2 3.7.3 1.2.7 2.5 1.1 3.7 2.5.2 4.9.3 7.3.2.3.9.8 1.7 1.2 2.6.5.8.9 1.7 1.4 2.5-1.6 1.8-3 3.7-4.4 5.7.7 1 1.5 2.1 2.3 3 2.4-.7 4.7-1.5 6.9-2.5l2 2c.7.6 1.4 1.2 2.2 1.8-.8 2.2-1.5 4.5-2.1 6.9 1.1.7 2.1 1.4 3.3 2 2-1.5 3.8-3.1 5.5-4.8.8.4 1.7.8 2.6 1.1l2.7.9c0 2.4.2 4.8.6 7.2 1.2.3 2.5.5 3.7.7 1.3-2.1 2.4-4.3 3.4-6.5.9.1 1.9.1 2.8.1.9 0 1.9-.1 2.8-.1.9 2.2 1.9 4.4 3.1 6.5 1.3-.2 2.5-.4 3.7-.7.4-2.4.7-4.9.8-7.3l2.7-.9c.9-.4 1.7-.7 2.6-1.2 1.7 1.7 3.4 3.3 5.2 4.9 1.1-.6 2.2-1.3 3.2-2-.5-2.4-1.1-4.8-1.8-7.1.7-.6 1.5-1.2 2.1-1.8.7-.6 1.3-1.3 2-2 2.1 1 4.4 1.9 6.7 2.7.8-1 1.6-2 2.3-3.1-1.3-2.1-2.7-4.1-4.3-5.9.5-.8.9-1.6 1.3-2.5.4-.9.8-1.7 1.1-2.6 2.4.2 4.8.2 7.2.1.4-1.2.7-2.4 1-3.7-2-1.5-4-2.8-6.1-4 .2-.9.3-1.9.3-2.8.1-.9.1-1.9.1-2.8 2.3-.7 4.5-1.5 6.7-2.5-.1-1.3-.2-2.5-.4-3.8-2.4-.7-4.8-1.2-7.2-1.5-.2-.9-.4-1.8-.7-2.7l-.9-2.7c1.9-1.5 3.6-3.1 5.4-4.8-.5-1.2-1.1-2.3-1.7-3.4-2.5.2-4.9.6-7.2 1.2-.5-.8-1.1-1.6-1.6-2.3-.6-.8-1.2-1.5-1.8-2.2 1.2-2 2.3-4.2 3.3-6.4-.9-.9-1.9-1.7-2.8-2.6-2.2 1.1-4.3 2.4-6.3 3.7-.8-.6-1.6-1.1-2.4-1.6-.8-.5-1.6-.9-2.5-1.4.4-2.4.6-4.7.8-7.2-1.2-.5-2.4-1-3.6-1.4-1.7 1.9-3.2 3.8-4.5 5.8-.9-.2-1.8-.4-2.8-.6-.9-.1-1.9-.3-2.8-.4-.5-2.3-1.1-4.6-1.9-6.9-1.3 0-2.5-.1-3.8 0-.9 2.3-1.6 4.7-2.2 7-.9.1-1.9.2-2.8.4l-2.7.6c-1.3-2-2.7-3.9-4.3-5.8-1.2.4-2.4.9-3.5 1.4 0 2.5.2 4.9.5 7.3-.8.4-1.6.9-2.4 1.4-.8.5-1.6 1-2.3 1.6-1.9-1.4-4-2.7-6.1-3.9-1 .8-1.9 1.7-2.8 2.6.9 2.3 1.9 4.5 3.1 6.6-.6.7-1.2 1.4-1.8 2.2-.6.8-1.1 1.5-1.6 2.3-2.3-.6-4.6-1.1-7-1.4-.6 1.1-1.2 2.3-1.7 3.4 1.7 1.8 3.4 3.5 5.3 5.1l-.9 2.7c-.2.9-.5 1.8-.6 2.7-2.4.3-4.7.7-7.1 1.2-.2 1.3-.3 2.5-.3 3.8 2.2 1.1 4.5 2 6.8 2.8.3 1 .3 1.9.4 2.9zm10.9 9.2c-1.6-3.2-2.6-6.6-3-10.1-.3-2.6-.2-5.2.3-7.8l13.4 4c-.1 1.4 0 2.9.4 4.4.3 1.4.9 2.7 1.6 3.9l-10.1 9.6c-1-1.2-1.9-2.6-2.6-4zm21.4-18.8l.6-.3s.1 0 .1-.1c.2-.1.4-.2.5-.2.1 0 .2-.1.3-.1.2-.1.4-.1.6-.2h.1c1.1-.3 2-.2 3.1 0 .3.1.6.1.8.2.2.1.3.1.5.2.1 0 .1.1.2.1.2.1.5.2.7.4.2.1.4.3.7.5.1 0 .1.1.2.1.1.1.3.2.4.4l.2.2.4.4.2.2c.2.2.3.4.4.6.1.2.3.5.4.7 0 .1.1.1.1.2.1.2.1.4.2.6.1.2.1.3.1.5 0 .1.3.2.4.3 0 .2.4.4.4.6v.2c0 .2-.3.5-.3.7 0 .1-.1.1-.2.2 0 .6-.2 1.1-.3 1.6 0 0-.1.1-.1.2-.1.2-.2.4-.2.6 0 .1-.1.1-.1.2l-.3.6c0 .1-.1.1-.1.2-.3.5-.6.9-1 1.3l-.7.7c-1 .7-1.8 1.1-2.8 1.4h-.1c-.2 0-.4.1-.7.1H99.5 98.7c-.6-.1-1.1-.2-1.6-.4-.3-.1-.5-.2-.8-.3-.2-.1-.4-.2-.7-.4-.1 0-.1-.1-.2-.1-.2-.1-.3-.2-.5-.4-.1 0-.1-.1-.2-.1-.2-.1-.3-.3-.5-.5l-.1-.1c-.2-.2-.4-.4-.5-.6-.2-.2-.3-.4-.4-.7 0-.1-.1-.1-.1-.2l-.3-.6c0-.1-.1-.1-.1-.2-.1-.2-.2-.4-.2-.7 0-.1-.1-.2-.1-.2 0-.2-.1-.3-.1-.5s-.1-.4-.1-.6c0-.1-.2-.2-.2-.2 0-.3-.2-.5-.2-.8 0-.3.3-.5.3-.8 0-.1.1-.1.2-.2 0-.2.1-.4.2-.6 0-.1.1-.2.1-.3.1-.2.1-.4.2-.5 0-.1.1-.1.1-.2.1-.2.2-.5.4-.7.1-.2.3-.4.5-.7 0-.1.1-.1.1-.2.1-.1.2-.3.4-.4.6-.5 1-.9 1.4-1.1zm26.9-11.4c2 2.7 3.6 5.8 4.6 9.1 1 3.4 1.4 6.9 1.1 10.4-.1.9-.2 1.7-.3 2.6l-13.5-4c.1-1.4 0-2.8-.4-4.2-.4-1.5-.9-2.9-1.7-4.1l10.2-9.8zM100.1 96c-3.5 0-7.1-.6-10.4-1.8-3-1.1-5.8-2.8-8.3-4.8l10.1-9.5c2.4 1.6 5.2 2.5 8.2 2.5l3.2 13.5c-.9 0-1.9.1-2.8.1zm19.2-7.7c-2.6 2.4-5.6 4.3-8.9 5.6-.3.1-.5.2-.8.3l-3.2-13.5c2.7-1.3 4.8-3.4 6.2-6l13.4 4c-.2.4-.3.8-.5 1.2-1.5 3.1-3.7 6-6.2 8.4zm-14.6-49.1c3.5.6 6.8 1.9 9.9 3.7 1.2.7 2.4 1.6 3.4 2.5l-10.3 9.7c-2.4-1.5-5.2-2.4-8.1-2.4L96.3 39c2.8-.3 5.6-.3 8.4.2zM76.8 50.4c2.1-2.8 4.7-5.3 7.7-7.2 1.6-1.1 3.4-1.9 5.2-2.6L93 54.4c-2.6 1.3-4.7 3.3-6.1 5.8l-13.4-4c.8-2.1 1.9-4 3.3-5.8z"
        />
    </symbol>
    <symbol viewBox="0 0 200 200" id="icon-gears">
        <title>gears</title>
        <path d="M163 121c.7-1.4 1.1-2.9 1.5-4.4.3-1.5.5-3 .5-4.6 3.5-1.2 6.8-2.9 10-5.2-.5-2.6-1.2-5.1-2.3-7.5-4-.5-7.9-.2-11.6.7-.9-1.3-1.9-2.4-3-3.5s-2.4-1.9-3.7-2.7c.7-3.6.9-7.4.4-11.2-2.5-.9-5-1.5-7.6-1.8-2.4 3.2-4.2 6.8-5.2 10.3-1.5.2-3.1.4-4.5.9-1.5.5-2.9 1.1-4.2 1.9-2.8-2.5-6-4.5-9.5-6-2 1.7-3.8 3.6-5.4 5.7 1.6 3.7 3.8 7 6.3 9.7-.7 1.4-1.1 2.9-1.5 4.4-.3 1.5-.5 3-.5 4.6-3.5 1.2-6.8 2.9-10 5.2.5 2.6 1.2 5.1 2.3 7.5 4 .5 7.9.2 11.5-.7.9 1.3 1.9 2.4 3 3.5s2.4 1.9 3.7 2.7c-.7 3.6-.9 7.4-.4 11.2 2.5.9 5 1.5 7.6 1.8 2.4-3.2 4.2-6.8 5.2-10.3 1.5-.2 3.1-.4 4.5-.9 1.5-.5 2.9-1.1 4.2-1.9 2.8 2.5 6 4.5 9.5 6 2-1.7 3.8-3.6 5.4-5.7-1.4-3.7-3.6-7-6.2-9.7zm-10.3-7c-.7 3.1-3 5.7-6.1 6.6-3 1-6.5.2-8.8-1.9-2.4-2.1-3.4-5.5-2.7-8.6.7-3.1 3-5.7 6.1-6.6 2.9-1 6.5-.2 8.7 1.9 2.4 2.2 3.4 5.6 2.8 8.6z"
        />
        <g opacity=".5">
            <path d="M50.5 107.2c1.2.1 2.4.3 3.5.3.3 1.1.7 2.2 1.1 3.3.4 1.1.9 2.2 1.4 3.2-2.2 2-4.3 4.1-6.3 6.4.8 1.4 1.6 2.8 2.4 4.1 3-.5 6-1.2 8.9-2.1.7.9 1.4 1.8 2.2 2.7.8.9 1.6 1.7 2.4 2.5-1.3 2.6-2.5 5.4-3.5 8.2 1.2 1 2.5 2 3.8 2.9 2.7-1.6 5.1-3.3 7.5-5.2 1 .6 2 1.2 3.1 1.7.1 0 .1.1.2.1 1.7-3 2.6-6.4 2.6-9.8-2.9-1.7-5.6-3.8-8-6.3l5.3-4c-.5-.8-1-1.6-1.5-2.3-1.2-1.5-2.5-2.9-4-4l-4.8 3.6c-1-1.7-1.9-3.5-2.6-5.4l-.6-1.8c-4.3-.7-9-.2-13.1 1.9z"
            />
            <path d="M143 100c2.9-.6 5.8-1.3 8.7-2.2.1-1.6.1-3.2.1-4.8-2.8-1.2-5.8-2.1-8.7-2.9-.1-1.2-.3-2.3-.5-3.5-.2-1.2-.5-2.3-.7-3.4 2.5-1.6 4.9-3.3 7.3-5.2-.5-1.5-1-3-1.7-4.4-3.1 0-6.1.1-9.1.5-.5-1-1.1-2.1-1.7-3.1-.6-1-1.3-2-1.9-2.9 1.8-2.4 3.5-4.9 5-7.5-1-1.2-2.1-2.4-3.2-3.6-2.9 1.1-5.7 2.3-8.4 3.7-.9-.8-1.8-1.5-2.7-2.3-.9-.7-1.9-1.4-2.9-2 .8-2.9 1.4-5.8 1.9-8.8-1.4-.8-2.8-1.5-4.2-2.2-2.3 2.1-4.5 4.2-6.4 6.5-1.1-.4-2.2-.8-3.3-1.1-1.1-.3-2.3-.6-3.4-.9-.3-3-.7-5.9-1.3-8.9-1.6-.2-3.1-.4-4.7-.5-1.4 2.7-2.6 5.6-3.7 8.4-1.2 0-2.3 0-3.5.2-1.2.1-2.3.3-3.5.4-1.3-2.6-2.8-5.3-4.5-7.8-1.5.3-3.1.8-4.6 1.2C81.1 46 81 49 81 52c-1.1.4-2.2.9-3.2 1.4-1 .5-2.1 1.1-3.1 1.7-2.2-2-4.5-3.9-7-5.6-1.3.9-2.6 1.8-3.8 2.8.8 3 1.8 5.9 2.9 8.7-.9.8-1.7 1.6-2.5 2.5-.8.9-1.6 1.8-2.3 2.7-2.8-1.1-5.6-2-8.5-2.7-.9 1.3-1.8 2.6-2.6 4 1.9 2.5 3.8 4.8 5.9 7-.5 1-1 2.1-1.4 3.2L54.2 81c-3 0-5.9.2-9 .5-.4 1.5-.7 3.1-.9 4.7 2.6 1.7 5.3 3.1 8 4.4-.1 1.2-.2 2.3-.2 3.5v2.4c.2-.1.5-.1.8-.2 1-.2 2.1-.5 3.2-.5.4-1.8.9-3.6 1.5-5.4 1.5-.1 3.1 0 4.6.1.2-2 .6-3.9 1.2-5.8l16 6.8c-.3 1.7-.4 3.5-.2 5.3 1.2.9 2.4 1.8 3.5 2.8-.7 1.8-1.4 3.5-2.3 5.1l2.1 2.4c.6.9 1.2 1.7 1.8 2.6h.1l1.2-.9c.2.2.5.4.7.6 1.1-.2 2.3-.4 3.5-.5.5 1 1 2.1 1.4 3.2 1.3.5 2.7.8 4.1 1l2.1 17.2c-1.2 0-2.4-.1-3.5-.2-.2 0-.4-.1-.7-.1-.3 1.9-.8 3.7-1.3 5.6-1.9.1-3.8.1-5.6.1-.4 1-.9 2-1.3 2.9-.5 1-1.1 1.8-1.7 2.7.9 1.2 1.7 2.4 2.5 3.7 1.3-1.8 2.5-3.7 3.6-5.6 1.2.2 2.3.4 3.5.5 1.2.1 2.3.2 3.5.2.8 2.8 1.8 5.7 3 8.5 1.6 0 3.2-.2 4.7-.4.9-3 1.6-5.9 2-8.9 1.2-.2 2.3-.5 3.4-.8 1.1-.3 2.3-.7 3.4-1.1 1.8 2.4 3.7 4.6 5.8 6.8 1.4-.6 2.9-1.3 4.3-2.1-.2-3.1-.7-6.1-1.3-9 1-.6 2-1.3 2.9-2 1-.7 1.8-1.4 2.7-2.2 2.5 1.5 5.2 3 7.9 4.3 1.1-1.1 2.2-2.3 3.3-3.5-1.4-2.8-2.8-5.4-4.5-8 .7-.9 1.4-1.9 2-2.9l1.8-3c2.9.5 5.9.9 8.9 1.1.6-1.4 1.2-2.9 1.8-4.4-2.3-2.1-4.6-4-7.1-5.8.3-1.1.6-2.3.8-3.4.4-.9.7-2.1.8-3.3zm-35.2-39.5c4.2 1.2 8.2 3.3 11.7 6 1.4 1.1 2.7 2.3 3.9 3.5l-14.1 10.7c-2.7-2.2-6.1-3.7-9.7-4.1l-2.2-17.5c3.5-.1 7 .4 10.4 1.4zM82.8 84l-16.1-6.8c1.4-2.4 3-4.7 4.9-6.7 3-3.2 6.6-5.9 10.5-7.8 2.2-1.1 4.5-1.9 6.8-2.5l2.2 17.5c-3.4 1.2-6.2 3.5-8.3 6.3zm19.6 18.4c-1.3.7-2.4 1.2-3.7 1.3h-.2c-.3 0-.6 0-.8.1h-.4c-.2 0-.5 0-.7-.1h-.2c-.3 0-.5-.1-.8-.1-.7-.2-1.3-.4-1.9-.7-.3-.2-.6-.3-.9-.5-.3-.2-.5-.4-.8-.6l-.2-.2c-.2-.2-.4-.3-.6-.5l-.2-.2c-.2-.2-.4-.4-.5-.6l-.1-.1-.6-.9c-.2-.3-.3-.6-.4-.9 0-.1-.1-.2-.1-.2-.1-.2-.2-.5-.3-.8 0-.1-.1-.2-.1-.3-.1-.3-.1-.6-.2-.9 0-.1 0-.2-.1-.3v-.6-.7-.3c0-.3.1-.7.1-1 .1-.3.1-.7.2-1 0-.1.1-.2.1-.3.1-.2.2-.5.3-.7 0-.1.1-.2.1-.3l.3-.6c0-.1.1-.2.1-.3.2-.3.3-.5.5-.8.2-.3.4-.5.7-.7l.2-.2.5-.5c.5-.4 1-.8 1.6-1 .3-.1.5-.2.8-.3.1 0 .1 0 .2-.1.2-.1.5-.2.7-.2.1 0 .2-.1.3-.1.3-.1.5-.1.8-.2h.2c1.3-.2 2.5 0 3.9.4.3.1.7.2 1 .4l.6.3c.1 0 .2.1.3.1.3.2.5.3.8.5.3.2.5.4.7.6l.2.2.5.5c.1.1.1.2.2.3.1.2.3.4.4.6.1.1.1.2.2.3.2.3.3.6.5.9.1.3.3.6.4 1 0 .1.1.2.1.3.1.2.1.5.2.7 0 .2.1.4.1.6v1.6c0 .3 0 .5-.1.8v.2c-.1.7-.3 1.3-.6 2 0 .1-.1.1-.1.2-.1.2-.2.5-.4.7 0 .1-.1.2-.1.2-.1.2-.3.4-.4.7 0 .1-.1.1-.1.2-.4.5-.9 1-1.4 1.5-.1.2-.4.4-.8.6zm25.5 11.4c-2.3 3.7-5.4 7-8.9 9.6-3.5 2.6-7.5 4.6-11.8 5.7-.3.1-.7.2-1 .3l-2.1-17.2c3.5-1.3 6.5-3.6 8.6-6.5l16.1 6.8c-.4.4-.6.9-.9 1.3zm4.8-12.2c-.2 1.1-.5 2.1-.8 3.2L115.7 98c.3-1.7.3-3.5.1-5.3-.2-1.9-.8-3.7-1.5-5.4l14-10.6c2.1 3.6 3.7 7.7 4.4 11.9.9 4.2.9 8.7 0 13z"
            />
        </g>
        <path opacity=".75" d="M71.9 141.7c-9 6.8-21.8 5.1-28.6-3.8s-5.1-21.8 3.8-28.6c9-6.8 21.8-5.1 28.6 3.8 6.8 8.9 5.1 21.7-3.8 28.6zm10.7-34.4l-2.1-2.4c.8-1.6 1.6-3.3 2.3-5.1-1.9-1.8-4-3.3-6.3-4.6-1.5 1.2-2.9 2.4-4.2 3.7-.9-.5-2-.9-2.9-1.3-1-.4-2-.6-3.1-.9-.2-1.9-.5-3.7-.9-5.5-2.6-.5-5.2-.6-7.8-.5-.6 1.8-1.1 3.6-1.5 5.4-1.1 0-2.1.2-3.1.4-1.1.2-2.1.6-3.1.9-1.2-1.5-2.4-2.8-3.7-4.2-2.4 1-4.7 2.3-6.8 3.8.4 1.8 1 3.6 1.6 5.4-.8.7-1.6 1.4-2.4 2.2-.8.8-1.5 1.5-2.1 2.4-1.7-.6-3.6-1.1-5.4-1.5-1.5 2.2-2.7 4.5-3.7 6.9 1.4 1.3 2.8 2.5 4.3 3.6-.3 1-.6 2-.8 3.1-.2 1-.4 2.1-.5 3.2-1.8.4-3.6 1-5.4 1.6 0 2.6.1 5.2.6 7.8 1.9.4 3.7.6 5.5.8.3 1 .6 2.1 1 3 .4 1 .8 2 1.3 2.9-1.3 1.3-2.5 2.8-3.6 4.3 1.3 2.2 2.9 4.3 4.7 6.2 1.8-.7 3.5-1.5 5.1-2.4.7.8 1.6 1.4 2.5 2l2.7 1.8c-.3 1.8-.6 3.7-.7 5.5 2.3 1.2 4.8 2 7.3 2.7 1.1-1.5 2.1-3.2 3-4.8 1 .2 2.1.3 3.2.4 1.1.1 2.1 0 3.2 0 .7 1.7 1.5 3.4 2.4 5.1 2.6-.2 5.1-.9 7.6-1.7.1-1.9.1-3.8 0-5.6 1-.4 1.9-.9 2.9-1.4 1-.5 1.8-1.1 2.7-1.7 1.5 1.1 3.1 2.1 4.8 3 2-1.6 3.9-3.5 5.5-5.6-.9-1.7-1.9-3.2-3.1-4.7.6-.9 1.2-1.8 1.7-2.7.5-1 1-1.9 1.3-2.9 1.8.1 3.8.1 5.6-.1.8-2.5 1.4-5 1.6-7.6-1.7-.9-3.4-1.6-5.1-2.3 0-1.1 0-2.1-.1-3.2s-.2-2.1-.4-3.2c1.6-.9 3.2-2 4.7-3.1-.7-2.5-1.6-5-2.8-7.3-1.9.2-3.7.5-5.5.8-.8-.9-1.4-1.8-2-2.6z"
        />
    </symbol>
    <symbol viewBox="0 0 200 200" id="icon-globe">
        <title>globe</title>
        <path opacity=".75" d="M163.3 87.2c-16.2 4-32.5 5.8-35.2-1.8-6.8-17.1-20.6-8.9-18.8 13.2 1.8 22.1 14.4 19.9 14 34.6-.1 4.4.3 10.2.9 16.1 23-11.2 38.9-34.8 39.1-62.1z" />
        <path d="M136.6 18.4h.7c4.3 0 7.8-3.5 7.8-7.8s-3.5-7.8-7.8-7.8-7.8 3.5-7.8 7.8c0 1.8.6 3.5 1.7 4.9l-5.7 9.8c1.8.9 3.6 2 5.4 3.1l2.6-4.6c16.8 10.5 28.4 26.1 33 44.2 4.7 18.6 1.7 38.5-8.4 56.1-13.7 23.8-37.5 37.9-63.5 37.9-12.2 0-24.2-3.1-35.6-9.2l2.8-4.8c-1.8-1-3.6-1.9-5.3-3.1l-5.5 9.5c-4.3 0-7.8 3.4-7.8 7.7 0 4.3 3.5 7.7 7.8 7.7s7.8-3.5 7.8-7.8c0-.9-.1-1.7-.4-2.5 9.9 5 20.2 7.9 30.8 8.6v14c-6.2.8-13.2 3.2-21.2 8.1-4.9 4.4-1.7 7.1 2.5 7.1h45.2c4.7 0 8.4-3 2.9-7.2-5.5-3.2-12-7.1-20.5-8.1v-13.8c26.9-1.2 51.2-16.4 65.4-41.1 22.6-38.8 10.9-85.2-26.9-108.7z"
        />
        <path d="M94.1 50.8c-1.6-7.4-17.5 2.7-28.3 0-6.5-1.6-5.2-15-3.1-25.5C40.3 36.8 25 60.1 25 86.9c0 4.7.5 9.4 1.4 13.9 15.5 1.5 11.3 3.3 21.5 18.4 10.9 15.9 20.2-2.7 16.7-23.3-2-11.5-3.1-16.7 17.1-24.1 20.2-7.4 14-13.6 12.4-21z" opacity=".75" />
        <path d="M123.3 133.1c.4-14.6-12.2-12.4-14-34.6-1.8-22.1 12-30.3 18.8-13.2 2.7 7.7 19 5.8 35.2 1.8 0 .8 0 1.6-.1 2.4 0-.9.1-1.8.1-2.7 0-17.5-6.5-33.4-17.2-45.6-11.4 34-17.6 17-25.5 15.7-20.4-1.9-16.3-28.5-14.2-38.1-4-.7-8.1-1.1-12.3-1.1-11.3 0-22 2.7-31.5 7.6-2.1 10.4-3.4 23.8 3.1 25.5 10.9 2.7 26.8-7.4 28.3 0 1.6 7.4 7.8 13.6-12.4 21s-19 12.6-17.1 24.1c3.5 20.6-5.8 39.2-16.7 23.3-10.3-15-6-16.9-21.5-18.4 6.4 31.5 34.3 55.3 67.7 55.3 10.7 0 20.9-2.5 30-6.8-.5-6-.9-11.8-.7-16.2z"
        opacity=".4" />
        <path d="M106.4 18.9c-2.2 9.6-6.3 36.2 14.2 38.1 7.9 1.4 14.1 18.3 25.5-15.7-10.1-11.5-24-19.6-39.7-22.4z" opacity=".75" />
    </symbol>
    <symbol viewBox="0 0 200 200" id="icon-gmail">
        <title>gmail</title>
        <path d="M153.2 154.4L101 116.3l-52.2 38.1M164.7 45.6H36.3l5.8 4.2 58.4 42.7 57.4-41.9.5-.4M43.6 154.4l54.8-40-13.9-10.2-42.4-31v81.2" />
        <path opacity=".5" d="M165.2 45.6h-.4l-6.3 4.6-.5.3-57.4 41.9-58.5-42.6-5.8-4.2h-1.5c-5.4 0-9.8 4.4-9.8 9.8v89.1c0 1 .1 1.9.4 2.8 1.2 4.1 5 7.1 9.4 7.1h7.3V73.2l42.4 31 13.9 10.2 2.6 1.9 16-11.7 40.9-29.9.5-.3L175 62.2v-6.8c0-5.4-4.4-9.8-9.8-9.8z"
        />
        <g opacity=".8">
            <path d="M167.3 154.2c-.1 0-.2 0-.3.1.1-.1.2-.1.3-.1zM117 104.6l-16 11.7 52.2 38.1h4.7V74.7M166.4 154.3h-.3c.1.1.2 0 .3 0z" />
        </g>
        <path opacity=".35" d="M157.9 74.7v79.7h7.3c4.5 0 8.2-3 9.4-7.1.3-.9.4-1.8.4-2.8V62.2l-16.6 12.1-.5.4z" />
    </symbol>
    <symbol viewBox="0 0 200 200" id="icon-gradebook">
        <title>gradebook</title>
        <path opacity=".1" d="M60.4 60.2c-3.2 1-6.7 2.2-10.8 3-1.2 7.6-4.5 28.4-7.4 46.4l-4.1 25.6c5.5-.7 14.5-2.2 20.4-3.3 5.4-1 7.8-1.4 8.8-1.4 1.2-.1 2.5-.1 3.8-.1 7.9 0 15.9 1.8 23.3 3.5.5.1.7.2 1.7.3V59.4c-4-.8-11.5-1.9-14.5-2.2-1.6-.2-3.2-.3-4.7-.3-6.2 0-11.2 1.6-16.5 3.3z"
        />
        <path d="M89 132.7c-.2-.1-.8-.2-1.5-.3l1.5.3zm-8.2-1.5c-.2 0-.4-.1-.7-.1.2 0 .5 0 .7.1zm-8.7-.8h.2-.2zm-2 0h.5-.5zM47.8 74.7c.1-.3.1-.6.2-1 0 .2-.1.5-.1.7 0 .1 0 .2-.1.3zm-1.9 12.4c0-.2.1-.4.1-.6 0-.3.1-.5.1-.8-.1.5-.2.9-.2 1.4zm-1.4 8.8c0-.1.1-.3.1-.4-.1.1-.1.3-.1.4zm-.1.5v.2c0-.1 0-.3.1-.4-.1.1-.1.1-.1.2zm-.6 3.1c0-.1.1-.3.1-.4 0 .1-.1.3-.1.4zm-3.6 22.9l-.1.3.4-2.2-.3 1.9z"
        />
        <path d="M160.1 57.5h-6.8c-4.2-1-7.8-2.4-11.3-3.5-5.7-1.8-11.1-3.8-18.3-3.8-1.7 0-3.5 0-5.3.2-8.9 1-14.6 1.9-17.4 3.1-2.9-1.1-8.6-2.2-17.4-3.2-1.8-.2-3.6-.3-5.3-.3-7.2 0-12.6 2.2-18.2 4-3.6 1.1-7.2 2.5-11.4 3.5h-7.1l-15.6 89h65c.7 2 2.3 3 4.2 3h11.6c1.9 0 3.5-1 4.2-3h65.1m-25.7-83.3l1.4 9c2.9 17.9 8.1 50.6 10.1 63.1-2.1-.2-4.8-.6-7.5-1.1L153 123c3.2.8 5.7 1.5 7.2 1.9-.2-1.5-.5-3.1-.8-4.8-1.8-.5-4.2-1.1-7-1.8l-.9-7.8c3.1.8 5.5 1.5 6.7 1.9-.2-1.6-.5-3.2-.8-4.8-1.6-.5-3.8-1.1-6.5-1.7l-.9-7.6c3.5.9 5.8 1.7 6.1 1.8-.3-1.6-.5-3.2-.8-4.9-1.4-.4-3.4-1-5.9-1.6l-1-7.9c2.6.7 4.5 1.2 5.6 1.5-.3-1.6-.5-3.3-.8-4.8-1.4-.4-3.2-.9-5.4-1.4l-.9-7.7c3.1.9 5 1.5 5 1.6v-.1c-.1-.9-.3-1.7-.4-2.5l-.4-2.3c-1.2-.4-2.9-.9-4.9-1.4l-.8-6.4c-.8-.2-1.5-.4-2.3-.7l.8 6.5c-1.7-.4-3.6-.9-5.6-1.3l-.8-7c-.8-.2-1.5-.5-2.3-.7l.9 7.3c-1.8-.3-3.7-.6-5.6-.9l-.9-7.8c-.7-.1-1.5-.3-2.3-.4l.9 7.9c-1.9-.2-3.8-.3-5.6-.4l-.8-7.8h1.3c6.3 0 10.9 1.5 16.4 3.3 3.5 1.1 6.9 2.2 10.9 3zm-3.9 69.6l-1.4-11.4c2 .4 3.9.7 5.6 1.1l1.3 11.3c-1.8-.3-3.7-.6-5.5-1zm-13.8-2.3c-1-.1-2-.1-3-.1l-1.1-10.8c2.1 0 4.3.2 6.4.4l1.3 11.1c.3 0 .5.1.8.2-.3-.1-1-.1-1-.1-2-.5-2.8-.6-3.4-.7zm-11.7.4l-.6-11c2-.1 4-.2 5.9-.3l1.2 10.8h1.2-1.6c-2 .1-4 .3-6.1.5zm-2-73.8c.3 0 .2-.1 1.2-.1 0 0 .7-.1 1.1-.1-.4 0-.9.1-1.4.1l.8 7.7c-1.3 0-2.5.1-3.7.2l-.5-7.4c-.7.1-1.4.2-2.2.3l.5 7.3c-1.7.2-3.2.4-4.6.7l-.3-7.3c-.8.1-1.5.2-2.2.4l.7 7.4c-1.5.3-2.2.7-3.2.9v-7.8c.7-.2 1.5-.4 2.6-.6l.1-.1c.7-.1 1.3-.2 2.3-.4v.1c1-.2 3-.5 4-.7v-.1c1-.1 2-.2 2-.3.9 0 2.1-.1 2.8-.2zm24.1 47.1l-.9-7.8c2 .4 3.9.8 5.6 1.2l.9 7.7c-1.8-.3-3.7-.7-5.6-1.1zm6.1 5.8l.9 7.9c-1.8-.4-3.6-.7-5.6-1.1l-1-8c2.1.4 4 .8 5.7 1.2zm-21.9-2.5c2.1 0 4.1-.1 6.2.1l1 8c-1.9-.2-3.9-.4-5.9-.4-.1 0-.3.2-.4.2l-.9-7.9zm-.5-4.9l-.9-8.2c2 .1 4.1.2 6.1.5l1 8c-1.8-.1-3.7-.3-5.5-.3h-.7zm7.5-7.5c1.9.2 3.8.5 5.6.9l.9 7.8c-1.8-.3-3.7-.5-5.6-.7l-.9-8zm7 13.3l1 8c-1.8-.3-3.7-.5-5.6-.7l-1-8.1c2 .2 3.8.5 5.6.8zm.3-16.6l-1-8c2 .4 3.9.8 5.6 1.2l.9 7.9c-1.6-.3-3.5-.7-5.5-1.1zm-1.5-12.6l-1-8c2.1.4 4 .9 5.7 1.4l.9 7.8c-1.7-.4-3.6-.8-5.6-1.2zm-.8 12.2c-1.8-.3-3.7-.6-5.6-.8l-1-8.1c1.9.2 3.8.5 5.6.9l1 8zm-7.1-13.3l-1-8.2c1.9.3 3.8.6 5.6.9l1 8.1c-1.8-.3-3.6-.6-5.6-.8zm-.7 12.3c-2-.2-4-.3-6-.4l-.9-8.2c2 .1 4 .2 5.9.5l1 8.1zm-5.6 24.8c-1.9 0-3.8.1-5.7.3l-.5-8.2 5.4-.3.8 8.2zm-1.7-37.8l-.9-8.2c1.9.1 3.8.2 5.7.4l1 8.2c-1.9-.2-3.9-.3-5.8-.4zm-.5 17l.9 8.2c-1.7 0-3.5.1-5.2.2l-.5-8.3c1.5-.1 3.2-.1 4.8-.1zm-5.1-4.3l-.5-8.3c1.4-.1 2.8-.1 4.3-.1l.9 8.2c-1.6.1-3.2.1-4.7.2zm-.8-12.7l-.5-8.2c1.2-.1 2.5-.1 3.8-.1l.9 8.2c-1.5 0-2.9.1-4.2.1zM109 83l.5 8.3c-1.8.3-3.3.6-4.3.9V84c.9-.4 2-.7 3.8-1zm-3.9-3.7v-7.6c0-.2 1.5-.6 3.4-1.1l.5 7.8c-1.6.4-2.9.7-3.9.9zm4.3 16.4l.5 8.3c-1.9.3-3.8.6-4.8.8v-8.2c1-.2 2.4-.6 4.3-.9zm.5 12.8l.5 8.2c-2.1.3-4.2.6-5.2.9v-8.2c.9-.3 2.6-.6 4.7-.9zm.4-38.3c1.4-.3 3-.5 4.7-.7l.5 8.1c-1.8.1-3.4.3-5 .6l-.2-8zm5.5 11.8l.5 8.3c-1.9.2-3.7.4-5.3.6l-.3-8.3c1.6-.3 3.3-.5 5.1-.6zm.9 12.7l.5 8.4c-2 .2-3.9.4-5.7.7l-.3-8.4c1.7-.3 3.5-.5 5.5-.7zm.8 12.8l.5 8.2c-2.1.2-4.1.4-6 .7l-.3-8.2c1.8-.3 3.7-.5 5.8-.7zM105.1 122c1-.2 2.9-.6 5.2-.9l.2 11.8c.7-.2 1.4-.3 2.1-.5l-.5-11.6c1.9-.3 4-.5 6.1-.7l.7 11.1c.4-.1.8-.1 1.2-.2-4.7.7-9.3 1.8-14.1 2.9-.5.1-1 .2-1 .3V122zm32.2-1.8c1.9.2 3.8.5 5.6.8l1.4 11.4c-1-.2-1.9-.3-2.7-.5-1.1-.2-2.1-.4-2.9-.5l-1.4-11.2zm-65-63c1.5-.2 3-.3 4.6-.3 1.4 0 3.2.1 4.8.3 3 .3 10.5 1.4 14.5 2.2v7.8c-1-.3-2.5-.6-4.1-1l.2-7.5c-.7-.1-1.5-.2-2.2-.4l-.3 7.4c-1.4-.2-3-.5-4.6-.7l.5-7.4c-.8-.1-1.5-.2-2.2-.3l-.5 7.5c-1.2-.1-2.4-.1-3.6-.2L80 57c-.8-.1-1.5-.1-2.2-.1l-.8 7.8c-1.9.1-3.8.2-5.6.4l.9-7.9zM90.7 104l.4-8.3c2 .4 4 .7 5 1v8.2c-1-.2-3.4-.5-5.4-.9zm5.4 5.4v8.2c-2-.3-3.7-.6-5.9-.9l.4-8.2c2.2.3 4.5.7 5.5.9zm-4.9-18.1l.4-8.3c1.9.4 3.6.7 4.6 1v8.2c-1.1-.3-3.2-.6-5-.9zm.4-12.8l.4-7.8c2.2.5 4.1 1 4.1 1.1v7.6c-1-.3-2.8-.6-4.5-.9zM68.3 90.4l1-8.1c1.9-.2 3.9-.4 5.9-.5l-.9 8.2c-2 .1-4 .2-6 .4zm5.5 4l-.9 8.2h-.6c-1.8 0-3.7.1-5.5.3l1-8c2-.2 4-.4 6-.5zm1 12.6c1.8 0 3.6.1 5.4.3l-.5 8.2-5.7-.3.8-8.2zm.4-4.4l.9-8.2c1.6 0 3.3.1 4.9.2l-.5 8.3c-1.8-.2-3.6-.2-5.3-.3zM76.5 90l.9-8.2c1.5 0 2.9 0 4.3.1l-.5 8.3c-1.5-.2-3.1-.2-4.7-.2zm1.4-12.6l.9-8.2c1.3 0 2.6.1 3.8.2l-.6 8c-1.3 0-2.7-.1-4.1 0zm4.4 30.1c2 .2 4 .4 5.8.7l-.3 8.2c-1.9-.2-3.9-.5-6-.7l.5-8.2zm.3-4.4l.5-8.4c1.9.2 3.8.4 5.4.7l-.3 8.3c-1.7-.2-3.6-.4-5.6-.6zm.8-12.8l.5-8.3c1.8.2 3.5.4 5.1.6l-.3 8.3c-1.6-.2-3.4-.4-5.3-.6zm.8-12.7l.5-8.1c1.8.2 3.3.4 4.7.7l-.3 7.9c-1.4-.2-3.1-.4-4.9-.5zm-7.7-8.4l-.9 8.2c-2 .1-3.9.2-5.8.4l1-8.2c1.9-.2 3.8-.4 5.7-.4zm-26.8-6c4.1-.8 7.6-2 10.8-3 3.2-1 6.2-2 9.6-2.6l-.9 7.8c-8.8 1.1-16.6 3.3-20.4 4.5.3-2.8.6-5 .9-6.7zm-1.8 11.5c1.3-.5 10.2-3.4 20.6-4.8l-1 8.2c-8.8 1-16.7 2.9-20.9 4.1m-.7 5c3-.9 11.4-3.3 21.1-4.6l-1 8c-9.2 1.1-17.3 3.3-21.3 4.5M43.8 100c1.8-.6 11-3.4 21.7-4.8l-.9 8c-9.2 1-17.6 3.1-22 4.4m-2.8 17.3c3.5-1 12.6-3.5 22.7-4.6l-1.3 11.3c-.8.1-1.7.2-2.7.4-5.9 1-14.9 2.5-20.4 3.2m2.6-15.1l1.1-7.6c3-1 12-3.6 22.2-4.8l-1 8.1c-9.2.9-17.7 3-22.3 4.3m29.4 10.4c-1 0-1.9 0-2.8.1-.6 0-1.8.2-3.9.5l1.3-11.1c2.1-.2 4.3-.2 6.4-.3M72.6 107.1l-.9 8.1s-3.4.1-6.4.3l.9-8.1m14.6 23.7l.7-11c2.1.2 4.2.4 6.1.7l-.4 11.5c.1 0 .2 0 .3.1v-.1c.7.1 1.2.2 1.5.2.1 0 .3.2.4.2l.7-11.6c2.4.4 5 .7 6 1v12.2c-1-.1-1.4-.2-1.9-.3-1.6-.4-3.1-.8-5.1-1.1 0-.2-1-.3-2-.5v-.1c-2-.4-4-.8-6-1.1-.1 0-.2 0-.3-.1 0 .1 0 .1 0 0m-8.5-.8l1.1-10.7c1.9 0 3.9.1 5.9.3l-.7 11"
        />
        <path d="M40.6 120.5l-.4 1.9-.4 2.1.3-1.8.5-2.2zm4-25c0 .1-.1.3-.1.4 0-.1.1-.3.1-.4zm-.2.9v.1c0-.1 0-.3.1-.4-.1.2-.1.2-.1.3zm-.6 3.1c0-.1.1-.3.1-.4 0 .1-.1.3-.1.4zm4.1-25.1V74.7c.1-.3.1-.6.2-1-.1.2-.2.5-.2.7zm22.2 56h.5-.5zm2 0h-.8 1-.2zm8.7.7c-.2 0-.5 0-.7-.1-.7-.1-1.3-.1-2-.2.9.2 1.8.3 2.7.3 0 .1 0 .1 0 0 .1 0 .2.1.3.1-.1 0-.2-.1-.3-.1zm8.2 1.6c-.2-.1-.8-.2-1.5-.3-.1 0-.2 0-.4-.1v.1c1 .2 2 .3 2 .5l-.1-.2c.1.1.1 0 0 0z"
        />
        <path opacity=".1" d="M106.2 133.9c7.5-1.7 14.9-3.5 22.8-3.5 1.3 0 2.5 0 3.8.1 1 .1 3.2.4 8.7 1.4 5.9 1 14.8 2.6 20.3 3.3-2-12.4-7.2-45.2-10.1-63.1l-1.4-9c-4-.8-7.4-1.9-10.7-3-5.5-1.8-10.2-3.3-16.4-3.3-1.5 0-2.7.1-4.2.3-3 .3-10.8 1.4-13.8 2.2v74.9c-.1-.1.5-.2 1-.3z"
        />
        <path d="M136.3 131.1c.3.1.6.1.9.1-.3 0-.6-.1-.9-.1zm-8.8-.7h1.4-1.4zM119.8 57c.4 0 .9-.1 1.3-.1-.4.1-.9.1-1.3.1zm-3.7.4c0 .1-1 .2-2 .3v.1c1-.2 2-.3 2-.4zm-6 1c-1 .1-1.6.2-2.3.3l.1.1c.7-.1 1.2-.3 2.2-.4zM40.6 120.5l-.4 1.9-.4 2.1.3-1.8.5-2.2zm4-25c0 .1-.1.3-.1.4 0-.1.1-.3.1-.4zm-.2.9v.1c0-.1 0-.3.1-.4-.1.2-.1.2-.1.3zm-.6 3.1c0-.1.1-.3.1-.4 0 .1-.1.3-.1.4zm4.1-25.1V74.7c.1-.3.1-.6.2-1-.1.2-.2.5-.2.7zm22.2 56h.5-.5zm2 0h-.8 1-.2zm8.7.7c-.2 0-.5 0-.7-.1-.7-.1-1.3-.1-2-.2.9.2 1.8.3 2.7.3 0 .1 0 .1 0 0 .1 0 .2.1.3.1-.1 0-.2-.1-.3-.1zm8.2 1.6c-.2-.1-.8-.2-1.5-.3-.1 0-.2 0-.4-.1v.1c1 .2 2 .3 2 .5l-.1-.2c.1.1.1 0 0 0z"
        />
        <path d="M136.3 131.1c.3.1.6.1.9.2-.3-.1-.6-.2-.9-.2zm-8.8-.7h1.4-1.4zm-7.7-73.3c.4-.1.9-.1 1.3-.1-.4 0-.9 0-1.3.1zm-5.7.6c1-.1 2-.2 2-.3 0 .1-1 .2-2 .3zm-6.3 1.1c.7-.1 1.3-.3 2.3-.4v-.1c-1 .2-1.5.3-2.3.5z" />
    </symbol>
    <symbol viewBox="0 0 200 200" id="icon-graduate">
        <title>graduate</title>
        <path opacity=".6" d="M162.3 135.7c-3.9-6.1-17-9.9-29.9-15.3-13-5.4-16-7.3-16-7.3l-.1-12.4s4.8-3.7 6.4-15.4c3 .9 6.2-4.5 6.4-7.4.2-2.7-.4-10.3-4.1-9.6.3-2.3.6-4.6.8-6.6.1-1.5.2-2.8.3-4 .1-1.2.1-2.2 0-3-.2-1.7-.6-3.4-1.2-5.1l-25 10.6-24.6-10.4c-.6 1.6-1 3.2-1.2 4.9-.3 2.7.3 7.9 1.1 13.6-3.7-.8-4.3 6.9-4.1 9.6.2 2.9 3.4 8.2 6.4 7.4 1.5 11.7 6.4 15.4 6.4 15.4l-.1 12.4s-3.1 1.9-16 7.3c-13 5.4-26 9.3-29.9 15.3-3.5 5.4-2.4 39.3-2.4 39.3h129.2s1.1-33.8-2.4-39.3z"
        />
        <path opacity=".84" d="M99 25.1L52.8 40.6l4.2 1.8V61h6V44.7l36.9 15.5 47-20M57 64h6v7h-6z" />
    </symbol>
    <symbol viewBox="0 0 200 200" id="icon-gsites">
        <title>gsites</title>
        <path d="M30.1 73.5v84.7c0 6.6 5.1 12.3 11.7 12.3H158c6.6 0 12.1-5.7 12.1-12.3V73.5h-140zm65 69h-59v-13h59v13zm0-20h-59v-13h59v13zm0-20h-59v-13h59v13zm69 40h-60v-53h60v53z" />
        <path opacity=".6" d="M158 30.5H41.8c-6.6 0-11.7 4.9-11.7 11.5v23.5h140V42c0-6.6-5.5-11.5-12.1-11.5z" />
        <path opacity=".5" d="M30.1 65.5h140v8h-140z" />
        <g opacity=".7">
            <path d="M36.1 89.5h59v13h-59zM36.1 109.5h59v13h-59zM36.1 129.5h59v13h-59zM104.1 89.5h60v53h-60z" />
        </g>
    </symbol>
    <symbol viewBox="0 0 200 200" id="icon-heartbeat">
        <title>heartbeat</title>
        <path opacity=".65" d="M134.3 46.1l.3-.2c-2-.2-3.7-.4-5.4-.4v-.3c-3 0-4.8.5-6.9.8-.1 0-.3.2-.4.2v.1c-7.1 1.3-12 4.7-16.7 9.4-1.6 1.6-3.2 3.5-4.9 5.4-1.7-2-3.4-3.9-5.1-5.6-4.6-4.6-9.5-7.9-16.5-9.2-.1 0-.4-.2-.6-.2-2.1-.4-5-.9-7-.9v.3h.3c-1.8 0-3.7.2-5.7.4l-.6.2c-18.6 2.6-29 18.1-29 37.7v.5c0 21.3 18.2 49.2 63.4 81.2h.1c45.7-32 62.4-59.9 62.4-81.2v-.5c.1-19.6-9-35.1-27.7-37.7z"
        />
        <path d="M100.2 136.3c-1 0-2-.6-2.4-1.5l-21-40.9-10.3 16.2c-.5.8-1.4 1.4-2.3 1.4H27.7c-1.5 0-2.7-1-2.7-2.5s1.2-2.5 2.7-2.5h34.9l12.1-19.2c.5-.8 1.5-1.5 2.4-1.4 1 0 1.9.5 2.3 1.4L99.8 127l20.5-52.8c.4-1.1 1.4-1.6 2.6-1.6 1.1 0 2.2.9 2.6 1.9l11.8 32.1h35c1.5 0 2.7 1 2.7 2.5s-1.2 2.5-2.7 2.5h-36.9c-1.1 0-2.2-.8-2.6-1.9l-9.9-27-20.1 51.9c-.4 1-1.3 1.7-2.4 1.7h-.2z"
        />
    </symbol>
    <symbol viewBox="0 0 200 200" id="icon-home">
        <title>home</title>
        <path opacity=".75" d="M149.5 90.9l-26.4-19.3-21.4-15.5c-1.1-.8-2.4-.9-3.7 0L41.1 97.3v56.2c0 6.6 5.8 12 12.4 12h52.6v-55h33v55h7.4c6.6 0 11.6-5.4 11.6-12V97.3l-8.6-6.4zm-75.4 45.6h-13v-12h13v12zm0-16h-13v-12h13v12zm16 16h-13v-12h13v12zm0-16h-13v-12h13v12z"
        />
        <path d="M173.2 88.9l-14.7-10.7-8.8-6.3c-2.4-2.1-3.5-4.6-3.5-8.1V41.5c0-3.9-3.1-7-7-7h-4.7c-3.9 0-7.3 3.2-7.3 7V49c0 3.2-1.7 4.9-4.1 3.9l-6.3-4.4-14.9-11.1v-.1c-1-.8-2.2-.9-3.4-.1 0 0 0 .2-.1.3l-15 11.1-41.9 29.7-14.7 10.6c-.6.4-.9 1.2-.9 2.2 0 1.7.9 4 2.5 6.1 1.4 1.9 3.1 3.4 4.6 4 .1.1.3.1.4.2h.1c.1 0 .2.1.3.1H35.1c.1 0 .1 0 .2-.1h.1c.1 0 .1-.1.2-.1h.2l5.6-4.1 56.8-41.1c1.3-.9 2.5-.8 3.5 0l21.4 15.5 26.6 19.3 8.8 6.4.3.2 5.3 3.9h.2c.1 0 .1.1.2.1h.1c.1 0 .1 0 .2.1h.8c.1 0 .2 0 .3-.1h.1c.1 0 .2-.1.4-.1h.1c.2-.1.3-.1.5-.2 1.5-.7 3.1-2.1 4.6-4 1.6-2.2 2.4-4.4 2.4-6.1.1-.9-.2-1.7-.8-2.2z"
        />
        <path opacity=".3" d="M106.1 110.5h33v55h-33z" />
        <path opacity=".2" d="M61.1 124.5h13v12h-13zM77.1 124.5h13v12h-13zM61.1 108.5h13v12h-13zM77.1 108.5h13v12h-13z" />
    </symbol>
    <symbol viewBox="0 0 200 200" id="icon-id">
        <title>id</title>
        <path opacity=".75" d="M168.8 53.1H31.2c-3.5 0-6.2 2.8-6.2 6.2v10h150v-10c0-3.4-2.8-6.2-6.2-6.2z" />
        <path d="M25 69.4v71.2c0 3.5 2.8 6.2 6.2 6.2h137.5c3.5 0 6.2-2.8 6.2-6.2V69.4H25zm59.1 68.1h-50v-59h50v59zm54 0h-44v-7h44v7zm28 0h-19v-7h19v7zm0-27h-72v-4h72v4zm0-9h-72v-4h72v4zm0-9h-72v-5h72v5zm0-10h-72v-4h72v4z" />
        <path opacity=".35" d="M94.1 78.5h72v4h-72zM94.1 87.5h72v5h-72zM94.1 97.5h72v4h-72zM94.1 106.5h72v4h-72zM94.1 130.5h44v7h-44zM147.1 130.5h19v7h-19z" />
        <path opacity=".5" d="M34.1 78.5v59h.8s-.4-12.4.9-14.4c1.4-2.3 6.3-3.6 11.1-5.6 4.8-2 6-2.7 6-2.7v-4.6s-1.8-1.4-2.4-5.7c-1.1.3-2.3-1.7-2.4-2.7-.1-1 .2-3.8 1.5-3.6-.3-2.1-.5-4.1-.4-5.1.1-.6.2-1.2.4-1.8.2-.5.5-1.1.8-1.6.4-.6-1.1-1.8-.3-1.7 1.9.4 2.2-1.9 4.6-2.4 1.2-.3 2.7-.2 4.1-.2.8 0 1.1-.5 1.8-.4.8.2 2.1 1.1 2.8 1.4.7.4 2 .4 2.6.8.9.7 1 2 1.6 3 .5.9.8 1.9.9 2.8v1.1c0 .4-.1.9-.1 1.5-.1.8-.2 1.6-.3 2.5 1.4-.3 1.6 2.6 1.5 3.6-.1 1.1-1.2 3.1-2.4 2.7-.6 4.4-2.4 5.7-2.4 5.7v4.6s1.1.7 6 2.7c4.8 2 9.7 3.2 11.1 5.5 1.3 2 .9 14.4.9 14.4h1v-59H34.1z"
        />
        <path d="M82.2 123.3c-1.4-2.3-6.3-3.7-11.1-5.7s-6-2.7-6-2.7v-4.6s1.8-1.4 2.4-5.7c1.1.3 2.3-1.7 2.4-2.7.1-1-.2-3.9-1.5-3.6.1-.9.2-1.7.3-2.5.1-.5.1-1 .1-1.5v-1.1c-.1-1-.4-1.9-.9-2.8-.5-.9-.7-2.2-1.6-3-.6-.5-1.9-.5-2.6-.8-.7-.3-2-1.2-2.8-1.4-.7-.2-1 .4-1.8.4-1.4 0-2.9-.1-4.1.2-2.4.5-2.7 2.8-4.6 2.4-.7-.2.7 1.1.3 1.7-.3.5-.6 1-.8 1.6-.2.6-.4 1.2-.4 1.8-.1 1 .1 2.9.4 5.1-1.4-.3-1.6 2.6-1.5 3.6.1 1.1 1.3 3.1 2.4 2.7.6 4.4 2.4 5.7 2.4 5.7v4.6s-1.1.7-6 2.7c-4.8 2-9.7 3.4-11.1 5.7-1.3 2-.9 14.6-.9 14.6H83.1c0-.1.4-12.7-.9-14.7z"
        opacity=".74" />
    </symbol>
    <symbol viewBox="0 0 200 200" id="icon-interims">
        <title>interims</title>
        <circle opacity=".45" cx="100" cy="131.7" r="45.2" />
        <circle opacity=".63" cx="100" cy="68.3" r="45.2" />
        <circle opacity=".57" cx="50.2" cy="100" r="45.2" />
        <circle opacity=".75" cx="149.8" cy="100" r="45.2" />
    </symbol>
    <symbol viewBox="0 0 200 200" id="icon-intl">
        <title>intl</title>
        <path opacity=".75" d="M151.1 70.4c-6.5-2-10.9-5.2-15.2-11.7l-23.7 43s-.2 3 10.4 9c2.3 1.3 4.8 2.2 7.3 3l21.2-43.3z" />
        <path opacity=".5" d="M176.5 74.4c-.4 0-.7-.1-1.1-.1l-20.6 43.9c8.3 1.6 15.6 4.4 20 11.8L195 85.7s-4.9-9.2-18.5-11.3z" />
        <path d="M80.3 157.6c-.3 0-.7-.1-1-.2-1-.5-1.3-1.7-.8-2.7l56.2-101.2c.5-1 1.7-1.3 2.7-.8 1 .5 1.3 1.7.8 2.7L82.1 156.6c-.4.6-1.1 1-1.8 1z" />
        <path opacity=".75" d="M48.9 70.4c6.5-2 10.9-5.2 15.2-11.7l23.7 43s.2 3-10.4 9c-2.3 1.3-4.8 2.2-7.3 3L48.9 70.4z" />
        <path opacity=".5" d="M23.5 74.4c.4 0 .7-.1 1.1-.1l20.6 43.9c-8.3 1.6-15.6 4.4-20 11.8L5 85.7s4.9-9.2 18.5-11.3z" />
        <path d="M48.9 70.4l21.2 43.3c-8.1 2.5-16.9 3-24.9 4.5L24.5 74.3c10.8-1.3 18.4-2 24.4-3.9zM151.1 70.4l-21.2 43.3c8.1 2.5 16.9 3 24.9 4.5l20.6-43.9c-10.7-1.3-18.3-2-24.3-3.9zm2.6 31.8c-4.9 0-8.9-4-8.9-8.9s4-8.9 8.9-8.9 8.9 4 8.9 8.9-4 8.9-8.9 8.9zM119.7 157.6c-.7 0-1.4-.4-1.7-1L61.8 55.4c-.5-1-.2-2.2.8-2.7s2.2-.2 2.7.8l56.2 101.2c.5 1 .2 2.2-.8 2.7-.4.1-.7.2-1 .2z"
        />
        <path opacity=".2" d="M153.7 84.5c-4.9 0-8.9 4-8.9 8.9s4 8.9 8.9 8.9 8.9-4 8.9-8.9-4-8.9-8.9-8.9zm0 15.7c-3.8 0-6.9-3.1-6.9-6.9 0-3.8 3.1-6.9 6.9-6.9s6.9 3.1 6.9 6.9c0 3.8-3.1 6.9-6.9 6.9z" />
        <circle opacity=".5" cx="153.7" cy="93.3" r="6.9" />
    </symbol>
    <symbol viewBox="0 0 200 200" id="icon-link">
        <title>link</title>
        <path opacity=".5" d="M166.6 40.2l-7.9-7.9c-10.9-10.9-27.9-10.4-38.7.5L96.4 56.4c-9.5 9.5-10.9 24-4 34.6l12.5-12.5c-.8-3.6-.5-8.3 2.4-11.2L131 43.7c4.3-4.3 11.4-3.7 15.8.6l7.9 7.9c4.3 4.3 4.8 11.2.4 15.6l-23.6 23.6c-2.9 2.9-7.6 3.2-11.2 2.4l-12.5 12.5c10.6 6.9 26.2 6.6 35.7-2.9l23.6-23.6c10.8-10.8 10.4-28.7-.5-39.6zM107.1 106.9l-12 12.1c2.2 4.4 1.5 9.5-1.9 12.9l-23.6 23.6c-4.3 4.3-11 4.1-15.3-.2l-9.2-9.2c-4.3-4.3-5-11.4-.6-15.8l23.6-23.6c2.9-2.9 7.6-3.2 11.2-2.4l12.5-12.5c-10.6-6.9-25.1-5.5-34.6 4l-23.6 23.6c-10.9 10.9-11.3 27.9-.5 38.7l9.2 9.2c10.9 10.9 28.6 11.1 39.4.2l23.6-23.6c9.8-9.9 10.4-25.8 1.8-37z"
        />
        <path d="M127.3 71.6c4.3 4.3 4.3 11.4 0 15.8L88 126.7c-4.3 4.3-11.4 4.3-15.8 0-4.3-4.3-4.3-11.4 0-15.8l39.4-39.4c4.3-4.2 11.4-4.2 15.7.1z" />
    </symbol>
    <symbol viewBox="0 0 200 200" id="icon-logout">
        <title>logout</title>
        <path d="M174.1 100l-21-20.1v14.6h-32v14h32v11.6" />
        <path opacity=".7" d="M45.1 23.8v152.4l66 13.8V10l-66 13.8zm55.5 79.9c-2 0-3.7-1.6-3.7-3.7 0-2 1.6-3.7 3.7-3.7 2 0 3.7 1.6 3.7 3.7 0 2-1.6 3.7-3.7 3.7z" />
        <path opacity=".4" d="M111.1 24.5h26v151h-26z" />
    </symbol>
    <symbol viewBox="0 0 200 200" id="icon-network">
        <title>network</title>
        <circle opacity=".5" cx="99.3" cy="100.5" r="72.2" />
        <g opacity=".5">
            <path d="M103.6 33.7c13 .8 25 5.4 34.9 12.6.2-1.9 1.3-3.6 3-4.3-11.1-8.1-24.6-13-39.3-13.6.9 1.3 1.4 2.8 1.4 4.4.1.2.1.5 0 .9zM141.7 78.2c.7-.2 1.5-.4 2.4-.4 1 0 2 .2 2.9.6.7-9.1.4-17.6-.3-25.2 12 12 19.4 28.5 19.6 46.8.7-.3 1.5-.5 2.4-.5 1 0 2 .3 2.9.7-.1-20.6-8.8-39.1-22.7-52.3-.6 2.3-2.6 4-5.1 4-.9 0-1.8-.2-2.6-.7.9 8.3 1.3 17.4.5 27z"
            />
            <path d="M148.9 91.5c4.6 3.8 9.1 8.2 13.5 13.2.3-1.9 1.5-3.5 3.2-4.4-4.5-5.1-9.1-9.5-13.9-13.4-.4 1.9-1.4 3.5-2.8 4.6zM46 60.1c5.7-7.5 12.9-13.8 21.3-18.4-3.3 6-6.8 14.1-8.4 23.5-3.6-.7-7.3-1.2-11-1.6.1.4.1.7.1 1.1 0 1.6-.6 3-1.5 4.1 4 .4 7.9.9 11.7 1.6-.2 2.6-.3 5.3-.2 8.1.9-.5 1.9-.7 3-.7.8 0 1.6.2 2.3.4-.1-2.3-.1-4.5.1-6.7 4.1 1 8.2 2.3 12 3.8-3.2 1.2-6.5 2.6-9.9 4.3 1.1 1.2 1.9 2.7 1.9 4.5v.5c5.4-2.7 10.5-4.7 15.3-6.2 6.5 3.1 12.5 7 18 11.6.7-1.7 1.9-3.1 3.5-3.9-4.4-3.6-9-6.8-13.9-9.6 6.8-1.4 12.8-1.8 17.9-1.5-.1 3.4-.5 6.8-1 10.3h.6c1.7 0 3.2.5 4.5 1.4.7-3.8 1.1-7.6 1.2-11.3 8.1 1.1 15.9 3.7 23.4 7.8.6-1.8 1.7-3.3 3.3-4.2-8.5-4.8-17.4-7.8-26.7-8.9-.5-12.5-4.1-24-10.7-33.4-.9 1.5-2.4 2.7-4.1 3.3 4.1 5.9 6.9 12.6 8.4 20.2.6 3.1 1 6.3 1.1 9.5-7-.3-15.4.4-25 3.2-6-2.7-12.3-4.9-19-6.5 2.2-12.9 8.1-23.2 11.8-28.6 4.1-1.5 8.3-2.7 12.7-3.4-.1-.5-.2-1.1-.2-1.7 0-1.4.4-2.7 1-3.8-20 2.8-37.4 13.8-48.7 29.4.3 0 .5-.1.8-.1 1.6.1 3.2.8 4.4 1.9zM54.7 85.7c-7 4.3-14.4 9.8-22 16.5 1.6.9 2.8 2.6 2.8 4.6 7.9-7 15.4-12.6 22.5-17-1.6-.8-2.8-2.3-3.3-4.1zM32.4 102.1v-1.7c0-10.6 2.5-20.7 6.9-29.6-1.8-.6-3.3-2.1-3.9-3.9-5.3 10-8.3 21.4-8.3 33.5v2.2c.9-.6 1.9-1 3.1-1 .8 0 1.6.2 2.2.5zM30.2 112.1c-.8 0-1.6-.2-2.3-.5 2.1 13.7 8.1 26.1 16.8 36.2 1-1.5 2.5-2.6 4.3-3.1-8.2-9.3-13.8-20.8-15.9-33.5-.7.5-1.7.9-2.9.9zM58.7 153.5c-.4 1.8-1.4 3.4-2.8 4.5 8.8 6.6 19.1 11.3 30.2 13.4-.3-.7-.5-1.5-.5-2.3 0-1.1.3-2.1.9-3-10.3-2-19.8-6.4-27.8-12.6zM141.7 104.5c1.3-3.8 2.3-7.6 3.1-11.3h-.7c-1.6 0-3.1-.5-4.4-1.4-.8 3.6-1.7 7.3-3 11-1.8 5.4-4.1 10.8-6.8 16-4.4-8.4-9.5-15.9-15.4-22.5-.8 1.6-2.1 2.9-3.8 3.7 6.2 7 11.6 15.2 16.1 24.5-3.5 6-7.7 11.9-12.6 17.7-8.1-4.3-15.2-8.9-21.4-13.7 6.6-8.1 12-17.5 15.6-27.9h-.8c-1.6 0-3.1-.5-4.3-1.3-3.4 9.6-8.4 18.4-14.5 25.8C77 115 69.2 103.9 65.6 91.8c-.3-.9-.5-1.7-.7-2.6-1.1.8-2.4 1.4-3.9 1.4-.4 0-.8 0-1.2-.1.2.9.5 1.9.8 2.9 3.9 13 12.3 25 24.9 35.8-7.9 8.5-17.5 15-27.9 18.6.8 1.2 1.3 2.7 1.3 4.3v.8c11.5-4 22-11.1 30.7-20.5 6.2 4.8 13.3 9.4 21.3 13.8-5.2 5.9-11.2 11.6-17.8 17.3 1.8.5 3.3 1.8 3.9 3.6 7-6 13.2-12.2 18.6-18.4 5.7 2.9 11.7 5.6 18.2 8.3v-.4c0-1.8.8-3.4 2-4.5-5.9-2.4-11.5-4.9-16.7-7.5 3.9-4.7 7.3-9.5 10.4-14.4 2.8 6.6 5.2 13.6 7.2 21.2 1-.6 2.1-1 3.3-1 .7 0 1.3.1 1.9.3-2.4-9.4-5.5-18.1-9.1-26.1 3.7-6.5 6.7-13.3 8.9-20.1zM165.4 111.3c-2.6 15.8-10.8 29.8-22.4 39.9 1.6.9 2.8 2.4 3.2 4.2 12.8-10.9 21.7-26.2 24.5-43.5-.6.2-1.3.3-2 .3-1.3 0-2.4-.3-3.3-.9zM133.9 157.7c-10.1 6.1-21.9 9.6-34.5 9.6h-2.3c.2.6.3 1.2.3 1.8 0 1.3-.4 2.5-1.1 3.4 1 0 2.1.1 3.2.1 13.8 0 26.6-3.9 37.6-10.6-1.8-.9-2.9-2.4-3.2-4.3z"
            />
        </g>
        <circle cx="96" cy="32.7" r="7.7" />
        <circle cx="143.8" cy="46.6" r="5.2" />
        <circle cx="168.6" cy="105.8" r="6.4" />
        <circle cx="107.7" cy="92.9" r="7.7" />
        <circle cx="144.1" cy="85.5" r="7.7" />
        <circle cx="41.5" cy="64.7" r="6.4" />
        <circle cx="60.9" cy="84.2" r="6.4" />
        <circle cx="30.2" cy="106.8" r="5.2" />
        <circle cx="51.2" cy="152" r="7.7" />
        <circle cx="91.5" cy="169.1" r="5.8" />
        <circle cx="140" cy="156.7" r="6.2" />
    </symbol>
    <symbol viewBox="0 0 200 200" id="icon-notes">
        <title>notes</title>
        <path opacity=".5" d="M168.4 146.6s-36.2 14.5-65.3 22.9c18.3-3.7 72-21.9 72-21.9v-7.4c0 5.2-1.7 4.9-6.7 6.4z" />
        <path d="M76.3 174.4c-.8.1-1.6.1-2.2.1h1.6c.2 0 .4-.1.6-.1zM79.6 174.5H165c5.5 0 10.1-4.2 10.1-9.7v-17.3s-53.7 18-72 21.8c-8.9 2.6-17.2 4.2-23.5 5.2z" />
        <path d="M25 34.8v130c0 5.5 4.5 10 10 10h40.7c4.2-.7 13.5-2.6 23.7-6.4 9-3.1 30.3-20.5 43.3-31.5-1.5 1.2-3 2.6-4.7 4h-33v-4h37.8c6.2-5.3 10.5-9.1 10.5-9.1s10.2 20.5 19.2 17c2.4-.9 2.6-4.5 2.6-4.5V34.8c0-5.5-4.5-10-10-10H35c-5.5 0-10 4.5-10 10zm15.1 11.7h56v4h-56v-4zm120 79h-120v-4h120v4zm0-15h-120v-4h120v4zm0-15h-120v-4h120v4zm0-15h-120v-4h120v4zm0-15h-120v-4h120v4zm0-23h-28v-4h28v4z"
        />
        <path opacity=".7" d="M175 140.1c0 5.2-1.7 4.9-6.6 6.4 0 0-73.5 29.5-95.1 28.6 0 0 12.2-1.5 26.2-6.8 13.3-4.5 53.8-40.6 53.8-40.6s10.2 20.5 19.2 17c2.3-1 2.5-4.6 2.5-4.6z" />
        <path opacity=".3" d="M40.1 46.5h56v4h-56zM40.1 61.5h120v4h-120zM40.1 76.5h120v4h-120zM40.1 91.5h120v4h-120zM40.1 106.5h120v4h-120zM40.1 121.5h120v4h-120zM132.1 38.5h28v4h-28zM142.8 136.5h-37.6v4H138c1.7-1 3.3-2 4.8-4z" />
    </symbol>
    <symbol viewBox="0 0 200 200" id="icon-palette">
        <title>palette</title>
        <path d="M102.7 94.9c-4.3.8-9.8.4-12.3 2.8-7.3 6.6 4 18.6-8.5 22.6 14.8 9.2 30.3-4.1 28.6-18.5l-.1-2.8s7.2-.4 12-5.4c3.1-3.3 29.2-33.9 29.2-33.9l20-23.1c2.7-3.2 3.4-7.1 1.5-8.8-1.9-1.7-5.9-.7-8.9 2.2l-21.8 21.4s-29.9 29.2-32.2 31.2c-5 4.3-4.4 11.9-4.4 11.9l-3.1.4z"
        />
        <path opacity=".6" d="M173.2 112.5s-3.6-6.4-14.7-7.8c-11.1-1.4-26.5-2.8-27.2-10.1-.7-7.7 12.6-10.5 12.6-10.5s9.1-3.9 5.6-12.9c-3.5-9.1-22.7-11.9-22.7-11.9s-18.8-3.1-43.9 2.5c-25.1 5.6-39.6 20.1-39.6 20.1S25.5 97.2 25 119.6c-.5 22.3 15 35.5 15 35.5s12.1 16.1 45.5 17.9 55.1-13.3 55.1-13.3 25.2-16.1 31.3-29.6c6.1-13.1 1.3-17.6 1.3-17.6zM46.6 128c-2.6.1-8.3 3.5-10.2.4C32 121 38 115 38 115c3.1-2.2-.4-6 4.3-4.9 2 .5 2.9 2.6 4.5 3.3 1.4.6 3.2.1 4.8.6.3 2.1-2.3 2.4-2.7 4.3-.6 2.7 1.7 3.3 3.1 4.6 1.6 1.5 2.5 2.9-.3 4.7-1.4.9-3.4.3-5.1.4zm23.8 25.4c-1.4 1.2-3 8.1-6 8.9-5.5 1.6-5.1-3.6-7.5-6.2-4.2-4.6-7.4-.8-7.5-6.6 0-1.6.1-9.5 3.3-10.5.6-.2 3.7-1.1 4.2-1 3.3.8 6.1-1.9 8.3.9.7 1 5.4 2.4 5.5 4.6.1 1.9 1.1 8.7-.3 9.9zm1.3-58.9c-2.9 1.9-5.6 6.1-9.3 5.6-1.6-.2-3.1-1.1-4.7-1.2-1.1-.1-2.3.2-3.3-.1-3.2-.8-2.7-3.7-2.4-6.3l-.2-2.4c.7-2.3 2.6-.6 3.1-3 .5-2.9 2.6-6.3 6.1-7 2.2-.4 6.2 1.7 7 3.4.5 1.1-.2 2.4.8 3.5s3.1.9 4.5 1.6c4.3 2.1.9 4.3-1.6 5.9zm12-19.5c.3-3 6.3-4.6 6.3-4.6 1-1.3 1.8-2 3.6-2.4 2.4-.5 3.1 1.5 4.3 3 .9 1.1 2.1 2.2 3.5 2.5.9.2 3.2-.6 4 .2 1.5 1.4-1 5-2.2 5.9-2 1.6-5.8 3.2-8.3 3.3-2.6.2-4.4-2.1-6.5-3.2-2-1-4.9-1.9-4.7-4.7zm25.1 81.8c-.3.5-2.1.8-2.5 1-3 1.7-4.7 6.8-8.2 6.3-1.2-.2-4.7-2-6.3-3.5-1.2-1.2-2.1-3.4-1.9-5.2.2-1.9-3.8-3-3.8-3-2.1-.7-3.4-1.7-1.9-4.4 2.9-4.9 6.2-.9 9.7-.7 6.2.4 5.9-4.5 10-.4 1.2 1.2 6.5 7 4.9 9.9zm31.1-27c-5.4 2.8-11.3 2.3-13.1-1.1-1.8-3.5 1.1-8.6 6.5-11.4 5.4-2.8 11.3-2.3 13.1 1.1 1.8 3.5-1.1 8.6-6.5 11.4z"
        />
        <path d="M103.9 146.9c-4.1-4.1-3.8.8-10 .4-3.5-.2-6.7-4.3-9.7.7-1.5 2.6-.2 3.7 1.9 4.4 0 0 3.9 1.1 3.8 3-.2 1.9.6 4 1.9 5.2 1.6 1.5 5.1 3.3 6.3 3.5 3.5.6 5.3-4.5 8.2-6.3.4-.3 2.2-.5 2.5-1 1.6-2.9-3.7-8.7-4.9-9.9z" />
        <path d="M70.7 143.6c-.1-2.2-4.7-3.6-5.5-4.6-2.1-2.8-4.9-.1-8.3-.9-.5-.1-3.6.8-4.2 1-3.1 1-3.3 8.9-3.3 10.5.1 5.8 3.3 2 7.5 6.6 2.3 2.6 1.9 7.7 7.5 6.2 2.9-.8 4.6-7.7 6-8.9 1.4-1.3.4-8.1.3-9.9z" opacity=".2" />
        <path d="M38.1 115c3.1-2.2-.4-6 4.3-4.9 2 .5 2.9 2.6 4.5 3.3 1.4.6 3.2.1 4.8.6.3 2.1-2.3 2.4-2.7 4.3-.6 2.7 1.7 3.3 3.1 4.6 1.6 1.5 2.5 2.9-.3 4.7-1.5 1-3.5.4-5.2.5-2.6.1-8.3 3.5-10.2.4-4.3-7.5 1.7-13.5 1.7-13.5z" opacity=".9" />
        <path d="M52 92.5c-.3 2.6-.8 5.5 2.4 6.3 1 .2 2.2 0 3.3.1 1.7.2 3.1 1 4.7 1.2 3.7.5 6.4-3.6 9.3-5.6 2.4-1.6 5.9-3.9 1.4-6-1.4-.6-3.4-.5-4.5-1.6-1-1.1-.4-2.4-.8-3.5-.8-1.8-4.8-3.8-7-3.4-3.5.6-5.5 4-6.1 7-.4 2.4-2.4.7-3.1 3l.4 2.5z" opacity=".4"
        />
        <path d="M90 70.4c1-1.3 1.8-2 3.6-2.4 2.4-.5 3.1 1.5 4.3 3 .9 1.1 2.1 2.2 3.5 2.5.9.2 3.2-.6 4 .2 1.5 1.4-1 5-2.2 5.9-2 1.6-5.8 3.2-8.3 3.3-2.6.2-4.4-2.1-6.5-3.2-1.9-1-4.7-1.9-4.5-4.7.1-3 6.1-4.6 6.1-4.6z" opacity=".85" />
    </symbol>
    <symbol viewBox="0 0 200 200" id="icon-payment">
        <title>payment</title>
        <path opacity=".5" d="M185.1 74.1l-81.2-21.8c-3.4-.9-6.8 1.1-7.7 4.5l93.6 25.1c.9-3.4-1.3-6.9-4.7-7.8zM83.7 103.5c-.9 3.4 1 6.8 4.4 7.7l81.2 21.8c3.4.9 7-1 7.9-4.4l10-37.5-93.4-25-10.1 37.4z" />
        <path opacity=".15" d="M187.36 91.19L93.766 66.11l2.485-9.272 93.596 25.078z" />
        <g>
            <path fill="none" d="M74.5 136.1c-.3 0-.5.4-.5.7l.4 3.2c0 .3.3.6.6.5l1.6-.2c.3 0 .4-.3.4-.7l-.4-3.2c0-.3-.3-.6-.6-.6l-1.5.3zm2.2 3.7l-1.8.2-.5-3.5 1.8-.2.5 3.5zM58.1 128.9c-.5.1-.8.5-.8 1l.6 4c.1.5.5.8 1 .8l1.8-.2c.5-.1.8-.5.8-1l-.6-4c-.1-.5-.5-.8-1-.8l-1.8.2zm2.4 4.6l-1.8.2-.6-4 1.8-.2.6 4zM63 128.2c-.5.1-.8.5-.8 1l.6 4c.1.5.5.8 1 .8l1.8-.2c.5-.1.8-.5.8-1l-.6-4c-.1-.5-.5-.8-1-.8l-1.8.2zm2.4 4.6l-1.8.2-.6-4 1.8-.2.6 4zM78.5 135.5c-.3 0-.5.4-.5.7l.4 3.2c0 .3.3.6.6.5l1.6-.2c.3 0 .4-.3.4-.7l-.4-3.2c0-.3-.3-.6-.6-.6l-1.5.3zm2.2 3.7l-1.8.2-.5-3.5 1.8-.2.5 3.5zM84.1 135l-1.6 3.8c0 .1-.1.2-.1.3 0 .1.2.2.3.2.1 0 .2-.1.2-.2l1.6-3.9v-.2c0-.1-.2-.2-.3-.2 0 0 0 .1-.1.2zM76.8 127.2c-.1-.5-.5-.8-1-.8l-1.8.2c-.5.1-.8.5-.8 1l.6 4c.1.5.5.8 1 .8l1.8-.2c.5-.1.8-.5.8-1l-.6-4zm-.4 4.1l-1.8.2-.6-4 1.8-.2.6 4zM53.2 129.6c-.5.1-.8.5-.8 1l.6 4c.1.5.5.8 1 .8l1.8-.2c.5-.1.8-.5.8-1l-.6-4c-.1-.5-.5-.8-1-.8l-1.8.2zm2.5 4.6l-1.8.2-.6-4 1.8-.2.6 4zM27.6 133.2c-.5.1-.8.5-.8 1l.6 4c.1.5.5.8 1 .8l1.8-.2c.5-.1.8-.5.8-1l-.6-4c-.1-.5-.5-.8-1-.8l-1.8.2zm2.5 4.6l-1.8.2-.6-4 1.8-.2.6 4zM48.4 130.3c-.5.1-.8.5-.8 1l.6 4c.1.5.5.8 1 .8l1.8-.2c.5-.1.8-.5.8-1l-.6-4c-.1-.5-.5-.8-1-.8l-1.8.2zm2.4 4.6l-1.8.2-.6-4 1.8-.2.6 4zM22.8 133.9c-.5.1-.8.5-.8 1l.6 4c.1.5.5.8 1 .8l1.8-.2c.5-.1.8-.5.8-1l-.6-4c-.1-.5-.5-.8-1-.8l-1.8.2zm2.4 4.6l-1.8.2-.6-4 1.8-.2.6 4zM81.4 131.5c.5-.1.8-.5.8-1l-.6-4c-.1-.5-.5-.8-1-.8l-1.8.2c-.5.1-.8.5-.8 1l.6 4c.1.5.5.8 1 .8l1.8-.2zm-2.4-4.6l1.8-.2.6 4-1.8.2-.6-4zM37.3 131.8c-.5.1-.8.5-.8 1l.6 4c.1.5.5.8 1 .8l1.8-.2c.5-.1.8-.5.8-1l-.6-4c-.1-.5-.5-.8-1-.8l-1.8.2zm2.5 4.6l-1.8.2-.6-4 1.8-.2.6 4zM87 129.8l-.6-4c-.1-.5-.5-.8-1-.8l-1.8.2c-.5.1-.8.5-.8 1l.6 4c.1.5.5.8 1 .8l1.8-.2c.6-.1.9-.5.8-1zm-3.2-3.6l1.8-.2.6 4-1.8.2-.6-4zM32.5 132.5c-.5.1-.8.5-.8 1l.6 4c.1.5.5.8 1 .8l1.8-.2c.5-.1.8-.5.8-1l-.6-4c-.1-.5-.5-.8-1-.8l-1.8.2zm2.4 4.6l-1.8.2-.6-4 1.8-.2.6 4zM114.2 121c-.5.1-.8.5-.8 1l.6 4c.1.5.5.8 1 .8l1.8-.2c.5-.1.8-.5.8-1l-.6-4c-.1-.5-.5-.8-1-.8l-1.8.2zm2.4 4.6l-1.8.2-.6-4 1.8-.2.6 4zM88.6 124.6c-.5.1-.8.5-.8 1l.6 4c.1.5.5.8 1 .8l1.8-.2c.5-.1.8-.5.8-1l-.6-4c-.1-.5-.5-.8-1-.8l-1.8.2zm2.4 4.6l-1.8.2-.6-4 1.8-.2.6 4zM90.4 133.8c-.3 0-.5.4-.4.7l.4 3.2c0 .3.3.6.6.5l1.6-.2c.3 0 .5-.3.4-.7l-.4-3.2c0-.3-.3-.6-.6-.6l-1.6.3zm2.2 3.8l-1.8.2-.5-3.5 1.8-.2.5 3.5zM104.5 122.4c-.5.1-.8.5-.8 1l.6 4c.1.5.5.8 1 .8l1.8-.2c.5-.1.8-.5.8-1l-.6-4c-.1-.5-.5-.8-1-.8l-1.8.2zm2.4 4.6l-1.8.2-.6-4 1.8-.2.6 4zM109.3 121.7c-.5.1-.8.5-.8 1l.6 4c.1.5.5.8 1 .8l1.8-.2c.5-.1.8-.5.8-1l-.6-4c-.1-.5-.5-.8-1-.8l-1.8.2zm2.5 4.6l-1.8.2-.6-4 1.8-.2.6 4zM99.6 123.1c-.5.1-.8.5-.8 1l.6 4c.1.5.5.8 1 .8l1.8-.2c.5-.1.8-.5.8-1l-.6-4c-.1-.5-.5-.8-1-.8l-1.8.2zm2.4 4.6l-1.8.2-.6-4 1.8-.2.6 4zM86.4 134.4c-.3 0-.5.4-.4.7l.4 3.2c0 .3.3.6.6.5l1.6-.2c.3 0 .5-.3.4-.7l-.4-3.2c0-.3-.3-.6-.6-.6l-1.6.3zm2.3 3.7l-1.8.2-.5-3.5 1.8-.2.5 3.5z"
            />
            <path d="M80.688 139.267l-1.783.25-.5-3.565 1.78-.25zM88.677 138.127l-1.782.25-.502-3.564 1.783-.25zM76.735 139.78l-1.782.25-.5-3.565 1.78-.25zM92.63 137.614l-1.783.25-.5-3.565 1.78-.25zM83.84 126.244l1.784-.25.557 3.96-1.782.252zM39.83 136.407l-1.783.25-.556-3.96 1.783-.25zM34.916 137.08l-1.782.25-.557-3.96 1.782-.252zM60.525 133.482l-1.783.25-.557-3.96 1.783-.25zM55.724 134.24l-1.783.25-.555-3.96 1.782-.25zM50.81 134.913l-1.782.25-.557-3.96 1.783-.25zM76.42 131.317l-1.784.25-.557-3.96 1.782-.252zM65.44 132.81l-1.783.25-.557-3.96 1.783-.25zM116.558 125.63l-1.782.25-.557-3.96 1.78-.25zM111.742 126.29l-1.782.25-.557-3.962 1.783-.25zM78.93 126.85l1.783-.25.556 3.962-1.783.25zM25.2 138.51l-1.782.25-.556-3.96 1.782-.25zM90.95 129.227l-1.784.25-.557-3.96 1.782-.25z"
            />
            <path d="M117.3 79.6c-.6-3.9-4.3-6.6-8.2-6L16 86.7c-3.9.5-6.9 4.1-5.9 8l7.3 52.1c.7 4.7 4.2 8 8.1 7.4l93.1-13.1c3.9-.5 6.7-4.7 6-9.4l-7.3-52.1zM78.1 127c-.1-.5.3-.9.8-1l1.8-.2c.5-.1.9.3 1 .8l.6 4c.1.5-.3.9-.8 1l-1.8.2c-.5.1-.9-.3-1-.8l-.6-4zm-52 11.4c.1.5-.3.9-.8 1l-1.8.2c-.5.1-.9-.3-1-.8l-.6-4c-.1-.5.3-.9.8-1l1.8-.2c.5-.1.9.3 1 .8l.6 4zm4.9-.7c.1.5-.3.9-.8 1l-1.8.2c-.5.1-.9-.3-1-.8l-.6-4c-.1-.5.3-.9.8-1l1.8-.2c.5-.1.9.3 1 .8l.6 4zm4.8-.7c.1.5-.3.9-.8 1l-1.8.2c-.5.1-.9-.3-1-.8l-.6-4c-.1-.5.3-.9.8-1l1.8-.2c.5-.1.9.3 1 .8l.6 4zm4.9-.7c.1.5-.3.9-.8 1l-1.8.2c-.5.1-.9-.3-1-.8l-.6-4c-.1-.5.3-.9.8-1l1.8-.2c.5-.1.9.3 1 .8l.6 4zm11-1.5c.1.5-.3.9-.8 1l-1.8.2c-.5.1-.9-.3-1-.8l-.6-4c-.1-.5.3-.9.8-1l1.8-.2c.5-.1.9.3 1 .8l.6 4zm4.9-.7c.1.5-.3.9-.8 1l-1.8.2c-.5.1-.9-.3-1-.8l-.6-4c-.1-.5.3-.9.8-1l1.8-.2c.5-.1.9.3 1 .8l.6 4zm4.8-.7c.1.5-.3.9-.8 1l-1.8.2c-.5.1-.9-.3-1-.8l-.6-4c-.1-.5.3-.9.8-1l1.8-.2c.5-.1.9.3 1 .8l.6 4zm4.9-.7c.1.5-.3.9-.8 1l-1.8.2c-.5.1-.9-.3-1-.8l-.6-4c-.1-.5.3-.9.8-1l1.8-.2c.5-.1.9.3 1 .8l.6 4zm10.9 6.9c0 .3-.1.6-.4.7l-1.6.2c-.3 0-.6-.2-.6-.5l-.4-3.2c0-.3.2-.7.5-.7l1.6-.2c.3 0 .5.3.6.6l.3 3.1zm-2.4-7.2c-.5.1-.9-.3-1-.8l-.6-4c-.1-.5.3-.9.8-1l1.8-.2c.5-.1.9.3 1 .8l.6 4c.1.5-.3.9-.8 1l-1.8.2zm6.3 6.6c0 .3-.1.6-.4.7l-1.6.2c-.3 0-.6-.2-.6-.5l-.4-3.2c0-.3.2-.7.5-.7l1.6-.2c.3 0 .5.3.6.6l.3 3.1zm3.5-3.8l-1.6 3.9c-.1.1-.1.2-.2.2s-.3-.1-.3-.2 0-.2.1-.3l1.6-3.8c.1-.1.1-.2.2-.2s.3.1.3.2 0 .2-.1.2zm-1.1-4.9l-.6-4c-.1-.5.3-.9.8-1l1.8-.2c.5-.1.9.3 1 .8l.6 4c.1.5-.3.9-.8 1l-1.8.2c-.5 0-.9-.3-1-.8zm5.6 7.6c0 .3-.1.6-.4.7l-1.6.2c-.3 0-.6-.2-.6-.5l-.4-3.2c0-.3.1-.7.4-.7l1.6-.2c.3 0 .6.3.6.6l.4 3.1zm3.9-.5c0 .3-.1.6-.4.7l-1.6.2c-.3 0-.6-.2-.6-.5l-.4-3.2c0-.3.1-.7.4-.7l1.6-.2c.3 0 .6.3.6.6l.4 3.1zm-1.1-8.3c.1.5-.3.9-.8 1l-1.8.2c-.5.1-.9-.3-1-.8l-.6-4c-.1-.5.3-.9.8-1l1.8-.2c.5-.1.9.3 1 .8l.6 4zm11-1.5c.1.5-.3.9-.8 1l-1.8.2c-.5.1-.9-.3-1-.8l-.6-4c-.1-.5.3-.9.8-1l1.8-.2c.5-.1.9.3 1 .8l.6 4zm4.9-.7c.1.5-.3.9-.8 1l-1.8.2c-.5.1-.9-.3-1-.8l-.6-4c-.1-.5.3-.9.8-1l1.8-.2c.5-.1.9.3 1 .8l.6 4zm4.8-.7c.1.5-.3.9-.8 1l-1.8.2c-.5.1-.9-.3-1-.8l-.6-4c-.1-.5.3-.9.8-1l1.8-.2c.5-.1.9.3 1 .8l.6 4zm4.9-.7c.1.5-.3.9-.8 1l-1.8.2c-.5.1-.9-.3-1-.8l-.6-4c-.1-.5.3-.9.8-1l1.8-.2c.5-.1.9.3 1 .8l.6 4zm-34-31.2l-62.4 8.8c-1.9.3-3.7-1.1-3.9-3l-.4-2.8c-.3-1.9 1.1-3.7 3-3.9l62.4-8.8c1.9-.3 3.7 1.1 3.9 3l.4 2.8c.2 1.9-1.1 3.6-3 3.9z"
            />
            <path d="M106.942 127.047l-1.783.25-.557-3.96 1.782-.25zM30.116 137.837l-1.783.25-.557-3.96 1.783-.25zM102.028 127.72l-1.782.25-.557-3.96 1.78-.252z" />
            <path opacity=".75" d="M83.5 94.3l-62.4 8.8c-1.9.3-3.7-1.1-3.9-3l-.4-2.8c-.3-1.9 1.1-3.7 3-3.9l62.4-8.8c1.9-.3 3.7 1.1 3.9 3l.4 2.8c.2 1.9-1.1 3.6-3 3.9z" />
        </g>
    </symbol>
    <symbol viewBox="0 0 200 200" id="icon-records">
        <title>records</title>
        <path d="M135.6 84.2c-.3-.3-.7-.5-1.2-.8-2.8-1.7-3.5-2.2-3.5-2.2l.4-2.9s1.3-.7 2-3.3c.7.3 1.6-.8 1.7-1.5.1-.6.3-2.4-.6-2.4.4-1.3.7-2.5.7-3.1v-.9c0-.3.2-.9.1-1.2-.2-.4-.7-.5-.9-.9-.3-.4-.5-1.1-.9-1.4-.2-.2-.7-.1-1-.3-.2-.1-.6-.5-.8-.6-.6-.3-1-.1-1.7-.2-.5-.1-1-.5-1.5-.5-.3 0-.7.5-1 .5-.5.1-1 .3-1.4.5-.2.1-.6.8-.8.9-.2.1.2-.8 0-.7-.4.3-1.2.6-1.4.9-.4.5-.5 1.6-.6 2.1-.1.3-.1.8-.2 1.3 0 .4 0 .8-.1 1.2v.7c-.8-.3-1.2 1.4-1.3 2.1-.1.7.5 2 1.2 1.9-.1 2.7.9 3.8.9 3.8l-.3 2.6.3-2.6-.5 2.9s-.8.3-4 1.1-3.3 1.7-4.4 3c0 .1-.1.1-.1.2l20.9-.2z"
        />
        <path opacity=".2" d="M114.9 84.3c0-.1.1-.1.1-.2 1.1-1.3 1.2-2.1 4.4-3 3.2-.8 4-1.1 4-1.1l.5-2.9-.3 2.6.3-2.6s-1-1-.9-3.8c-.7.1-1.3-1.3-1.2-1.9.1-.6.5-2.4 1.3-2.1v-.7c0-.4 0-.8.1-1.2 0-.6.1-1 .2-1.3.1-.6.2-1.6.6-2.1.3-.4 1.1-.6 1.4-.9.2-.1-.2.8 0 .7.2-.1.6-.8.8-.9.4-.2.9-.4 1.4-.5.3-.1.7-.5 1-.5.5 0 .9.4 1.5.5.7.1 1.1 0 1.7.2.2.1.6.5.8.6.3.2.8.1 1 .3.4.3.6 1 .9 1.4.3.4.8.5.9.9.1.3-.1.9-.1 1.2 0 .3.1.6 0 .9 0 .6-.3 1.8-.7 3.1.9 0 .8 1.7.6 2.4-.1.7-1.1 1.8-1.7 1.5-.8 2.6-2 3.3-2 3.3l-.4 2.9s.6.5 3.5 2.2c.5.3.9.6 1.2.8h8.2l3.6-24-33.8-5-4.3 29.2h5.4z"
        />
        <path d="M167.6 84.1l.8-11.4-22.7-1.8-1.9 13.3M109.2 84.4l2.4-16.1-50.5-3.8-1.6 20.1" />
        <path opacity=".74" d="M55 84.6h4.5L61 64.5l50.5 3.9 2-13.2 33.8 5-1.6 10.7 12.8 1-.1-17.7-107.6.7L51 86c1.1-.9 2.6-1.4 4-1.4z" />
        <path opacity=".85" d="M48.6 89.3c.3-1.4 1.1-2.5 2.3-3.3l-.1-18-13.1.6 2.8 59.2 8.1-38.5z" />
        <path opacity=".35" d="M40 155.6c-3 0-4.9-2.2-4.3-4.9l4.8-22.9-2.8-59.2 13.1-.5v-5.7H35.7c-3 0-5.6 1.9-5.6 4.8v79.5c0 5.2 4 9 8.3 9" />
        <path opacity=".45" d="M179.9 88.6c.6-2.7-1.4-4.6-4.3-4.6L55 84.6c-3 0-5.8 1.9-6.4 4.6l-13 61.5c-.6 2.7 1.4 4.9 4.3 4.9l112.6-2.4c3 0 5.8-2.2 6.4-4.9l21-59.7z" />
    </symbol>
    <symbol viewBox="0 0 200 200" id="icon-rss">
        <title>rss</title>
        <path d="M53.6 164.7c-10.3 0-18.8-8.4-18.8-18.8 0-10.3 8.4-18.8 18.8-18.8s18.8 8.4 18.8 18.8c0 10.3-8.4 18.8-18.8 18.8z" />
        <path opacity=".75" d="M44.3 80.9c-2.9 0-6.2.2-8.2.5v25c2-.5 5.2-.8 8.2-.8 28 0 50.4 22.8 50.4 50.7 0 2.7-.5 6.1-.9 8.1h25c.3-2 .7-5.4.7-8.1.1-41.5-33.5-75.4-75.2-75.4z" />
        <path opacity=".5" d="M44.3 35.3c-2.9 0-6.2.1-8.2.3v24.9c2-.3 5.3-.4 8.2-.4 53.1 0 96 43.2 96 96.3 0 2.7-.4 6.1-.6 8.1h24.9c.2-2 .5-5.4.5-8.1 0-66.8-53.9-121.1-120.8-121.1z" />
    </symbol>
    <symbol viewBox="0 0 200 200" id="icon-slate">
        <title>slate</title>
        <path opacity=".85" d="M28.3 114.1v-1.6c0-1.5-.5-4-1.8-6.3-.5-.8-10.7-18-11.7-20-2.4-4.6-3.9-7-3.8-11.6.1-4.6 0-13.1 0-14.6 0-4 3.9-9.1 12.6-9.2C32 50.8 36 56.9 36 60l-.1 15.1h-4v-3-6-3.9-.2c0-.8-.1-2.6-1.2-4.3-1.1-1.7-3.2-3.1-6.9-3.1-2.1 0-3.7.4-4.8.9-1.8.8-2.6 2.2-3 3.4-.2.6-.3 1.2-.3 1.6v14.9c0 .7.1 1.5.2 2 .4 2.1 1.9 4.8 1.9 4.9 0 0 11.3 18.6 13.3 21.8 1.9 3.1 1.7 5.3 1.8 7.5 0 1.1.1 2.7.1 2.7v14c0 .5-.2 2.2-1.4 3.8-1.2 1.6-3.4 3.1-7.7 3.1-2.2 0-3.7-.4-4.9-.9-1.7-.8-2.6-2.1-3-3.2-.2-.6-.3-1.1-.4-1.5-.1-.4-.1-.8-.1-.9v-4.2-6.9-3.4h4.3s-.1 11.9 0 12.8c.1.9-.1 4.2 4.2 4.2 3.9 0 4.5-3.1 4.5-4.2v-12.9zM190 135.8v3.6h-23.8V51h23.7v3.5h-19.6v81.3"
        />
        <path opacity=".6" d="M190 131.1v3.8h-18.9V94.3h16.5v3.6h-12.1v33.2M189.9 55.4v3.7h-14.4v30.3h12.1v4h-16.5v-38M157.7 55.4V59h-10.4v80.4h-4.5v-84" />
        <path opacity=".85" d="M126.7 51h31v3.5h-31zM142.3 139.4h-5.1V59h-10.5v-3.6h15.2v83.9M68.9 135.5v3.9H45.7V51h4.4v84.5" />
        <path opacity=".6" d="M68.9 131.1v3.5H51V51h4.5v80.1M14.6 130.1c.2 1.1.8 2.6 2.2 3.8 1.4 1.2 3.6 2.1 7 2.1 4.5 0 7-1.6 8.4-3.4 1.3-1.8 1.5-3.7 1.6-4.2v-1.8-10.5-1.8s0-1.6-.1-2.7c-.1-2.1.1-4.7-1.9-8-1-1.6-4.3-7-7.4-12.1-1.5-2.5-3-4.9-4.1-6.7-1-1.7-1.7-2.8-1.8-2.9l-.2-.4c-.4-.9-1.3-2.8-1.6-4.2-.1-.4-.1-1.1-.2-1.8v-2-.8V70v-5.1-3.3c0-.3 0-.8.1-1.4.1-.9.5-2.1 1.5-3 1-.9 2.7-1.7 5.7-1.7 3.5 0 5.2 1.3 6.2 2.7.9 1.4 1 3.1 1 3.8v13.2h-4.2V63.8s0-3.8-3.2-3.8c-2.9 0-2.6 4.1-2.6 4.1v9.2s-.1 2 .8 4.4c.7 2 2.6 4.8 2.9 5.3.2.4 9.2 16.2 11.2 19.8 2 3.6 1.8 6 1.8 8.4v17.9c0 6.1-5.3 10.6-14.2 10.6-9.4 0-13.6-5.2-13.5-11.4v-14.2h4.4v14.5c0 .2.1.8.2 1.5z"
        />
        <path opacity=".85" d="M126.9 141v.1l.6-.1c0 .4-.3.8-.7.9 0 0-.1-.5-.2-.9h.3z" />
        <ellipse opacity=".85" cx="128.5" cy="110.2" rx=".7" ry="1.7" />
        <path opacity=".85" d="M127.4 110.3c0 1.1.5 1.6.5 1.6h-2.8s-.6-.4-.6-1.7c0-1.2.6-1.7.6-1.7h2.7c.1 0-.4.5-.4 1.8zM126.6 140.2c.5-.1.9.2 1 .7l-.6.1h-.2c-.2-.4-.2-.8-.2-.8zM124.9 137.2c.5-.1.9.3 1 .7l1 6.3c.1.5-.3.9-.7 1-.5.1-.9-.3-1-.7l-1-6.3c-.1-.5.2-.9.7-1z"
        />
        <path opacity=".85" d="M123.7 110.1c0 1.3.6 1.7.6 1.7h-6.1l5.4 29 .6-.1.2 1.3-.6.1 2.1 13.7-1.8 7.2-.8 3.7h-2.2s-.4-2-1.1-5.1c2.5-.3 4.5-2.5 4.5-5.1 0-1.8-.9-3.4-2.3-4.3h.1l-17.2-92c.2-.6.3-1.2.3-1.8 0-2.5-1.8-4.5-4.1-5l1.2-7.9h3.5l11.7 62.9h6.6c0 .1-.6.6-.6 1.7zM122.8 167.2l-.2 1.2h-1.2l-.2-1.2M122.3 168.7l-.9 1.8v-1.8"
        />
        <circle opacity=".85" cx="119.4" cy="156.6" r="4" />
        <path opacity=".6" d="M118 151.7c-3.2-15.2-7.6-36.6-7.9-38.1 0 0-.1-.8-.3-1.3-.1-.6-.9-.5-.9-.5h-6.7v-3.4h6.9l-7.9-45c1.3-.2 2.5-1 3.2-2l16.9 90.4c-.6-.2-1.2-.4-1.9-.4-.5.1-1 .2-1.4.3z" />
        <path opacity=".85" d="M103.6 43.7l.5 1.1h-2l-1.3 7.8h-.6l-.9-7.7h-2.4l.4-1.2M103.5 55.8c1.3 1.6 1.2 4-.3 5.5s-3.9 1.6-5.5.3l5.8-5.8zM98.1 42.3h4.8v1h-4.8zM100.4 29.4c1.8 0 2.5.9 2.5.9l-.3 4.1s-.5-.9-2.2-.9c-1.8 0-2.2.7-2.2.7l-.3-4c.1 0 .7-.8 2.5-.8z"
        />
        <path opacity=".85" d="M102.1 34.6v7.2h-3.4v-7.2s.3-.5 1.7-.5c1.5 0 1.7.5 1.7.5zM100.6 121.3c-.5 0-.9-.4-.9-.9V99.3c0-.5.4-.9.9-.9s.9.4.9.9v21.1c-.1.5-.4.9-.9.9zM103.1 55.3l-5.8 5.8c-1.4-1.6-1.3-4.1.2-5.6s4-1.6 5.6-.2z" />
        <path opacity=".6" d="M91.3 112.3c-.2.2-.4 1.1-.5 1.5v-.2-.1c-.1.1-4.8 22.5-8.1 38.3-.6-.2-1.1-.3-1.8-.3-.5 0-1 .1-1.5.2l16.9-90c.8.9 1.9 1.6 3.1 1.8l-7.5 45h6.9v3.3h-6.6s-.5.1-.9.5z" />
        <path opacity=".85" d="M90.8 114z" />
        <circle opacity=".85" cx="81.1" cy="156.6" r="4" />
        <path opacity=".85" d="M75.9 156.6c0 2.7 2.1 4.9 4.8 5.1-.7 3.2-1.1 5.2-1.1 5.2h-2l-1.1-3.8-2.2-7.1 8.2-44.1H75s-.5-.3-.6-1.7c0-1.4.8-1.6.8-1.6h8.2l11.4-63h3.8l1.2 7.8c-2.5.3-4.5 2.5-4.5 5.1 0 .8.2 1.5.5 2.1l-17.2 91.6c-1.6.8-2.7 2.5-2.7 4.4zM79.5 169.6v1l-1.7-3.3 1.7.1M71.4 108.6h2.8s-.6.4-.6 1.6c0 1.2.5 1.8.5 1.8h-2.7s-.6-.4-.6-1.7c0-1.3.6-1.7.6-1.7zM90.8 114"
        />
    </symbol>
    <symbol viewBox="-304 -304 608 608" id="icon-squircle">
        <title>squircle</title>
        <path d="M0 288c126.2 0 196.356 0 242.178-45.822S288 126.2 288 0s0-196.356-45.822-242.178S126.2-288 0-288s-196.356 0-242.178 45.822S-288-126.2-288 0s0 196.356 45.822 242.178S-126.2 288 0 288z" />
    </symbol>
    <symbol viewBox="0 0 200 200" id="icon-suit">
        <title>suit</title>
        <g opacity=".7">
            <path d="M96.3 122.1l-4.3-5.2-7.7 15.1-.1.2c1.7 3.8 3.8 7.7 6.2 11.6l5.9-21.7zM108.1 116.5l-4.9 5.6 6 22.1c2.6-4.2 4.8-8.6 6.7-12.9l-7.8-14.8z" />
        </g>
        <path d="M74.8 98.2s1 15.4 9.2 33.5c.1.1.2.2.3.2l15.8-30.7 15.8 30c7.4-17.2 9.2-33 9.2-33.1v-7.6s-11.2 9.8-25.3 9.8c-12.8 0-23.1-8-25-9.5v7.4z" />
        <path opacity=".45" d="M175 175.4H25l5.9-52.6c.3-2 1.6-3.8 3.4-4.7l40.5-19.9s2 32.4 25.1 58.3c21.3-22.4 25.3-58.3 25.3-58.3l39.7 19.9c1.8.9 3 2.6 3.3 4.5l6.8 52.8z" />
        <path opacity=".3" d="M90.4 143.8c2.7 4.3 5.8 8.6 9.5 12.7 3.6-3.8 6.7-8 9.4-12.3l-6-22.1 4.9-5.6-8-15.2-8 15.5 4.3 5.2-6.1 21.8z" />
    </symbol>
    <symbol viewBox="0 0 200 200" id="icon-telescope">
        <title>telescope</title>
        <path d="M172.1 78s-9-5.5-17.8-3.4c0-3.5-1-5.9-3.1-6.7 0 0-7.6-4-15.1-4.7-.3-2.9-1.3-4.9-3.3-5.6 0 0-11.4-5.8-19.7-5.6-.3-3.2-1.5-5.4-3.7-6.2 0 0-26.6-10.5-35.2-12.3.1-3.8-.5-6.2-1.9-6.8 0 0-13.7-7.2-19.9-7.6C48 18.8 39.2 31.6 32 50.5c-7.2 18.9-8.1 33.4-5.6 37 3.5 5.3 19.9 7.6 19.9 7.6 1.3.5 3-.5 5-2.7 8.1 5.9 35.4 13.2 35.4 13.2 2.2.8 4.5 0 6.8-2.1 5.9 5.8 18.5 8.8 18.5 8.8 1.9.7 3.9 0 6-1.8 4.2 3.6 14.6 6.3 14.6 6.3 2 .8 4.1-.2 6.2-2.3 4.6 5.8 16.2 8.7 16.2 8.7 5 1.9 10.7-7.5 15.5-20 4.6-12.4 6.6-23.3 1.6-25.2zM44.4 55.2c-6.3 16.5-14.3 28.8-16.5 28-2.2-.8 0-15.4 6.3-31.9s14.3-28.8 16.5-28c2.2.9 0 15.4-6.3 31.9z"
        />
        <path opacity=".7" d="M144.1 180.5h6.7l-7.7-35.6v-7.4h-27v5.8-.4l-6.8 37.6h6.7l6.6-33h4.5v33h6v-33h4.4" />
        <path opacity=".5" d="M50.7 23.3c2.2.8 0 15.4-6.3 31.9S30.1 84 27.9 83.2c-2.2-.8 0-15.4 6.3-31.9 6.2-16.5 14.3-28.8 16.5-28z" />
        <path opacity=".7" d="M138.5 114.6c-2.1 2.1-4.1 3-6.1 2.3 0 0-10.7-2.7-14.8-6.3-.4.4-.5.7-1.5 1v23h27v-15.9c-2-1.3-3.3-2.6-4.6-4.1z" />
    </symbol>
    <symbol viewBox="0 0 200 200" id="icon-tools">
        <title>tools</title>
        <path opacity=".5" d="M38.7 101.2l2.1-2.4c2.3-2.6 2.1-6.4-.3-8.8.1-1.6.8-3.6 3.1-6.1 8.9-10 14.4-4.3 14.4-4.3l27.7 25.9 5.1-4.9 9.4-9.1-30.4-25.3c-8.3-6.2-3-29.6 29.4-26.7.7.1 1.4-.5 1.4-1.2s.1-1.5.1-2.1c0-.6-.3-1.1-.9-1.3C86 30.3 62.5 32.2 48.4 48c.1-.2-10.7 12-10.7 12s-3.3 3.5-2.9 7.7c.1 4.7 1.5 5.9-2.2 10.1-1.2 1.3-2.2 2.1-3 2.5-2.6-2.1-6.5-1.8-8.8.7l-2.1 2.4c-2.4 2.6-2.1 6.7.5 9.1l10.5 9.4c2.6 2.2 6.7 2 9-.7zM115.7 104.3l-2.5 2.4-12.9 12.4 45.1 42.1c1.3 1.2 3.4 1.1 4.6-.2l12.3-13.7c1.2-1.4 1.1-3.5-.4-4.6l-46.2-38.4z"
        />
        <path d="M57.6 135.4L69 142c2.3 1.4 3.2 4.4 1.8 6.7L60 167.3c7.9 0 15.6-4.1 19.9-11.4 3.3-5.7 3.9-12.2 2.1-18.1.5-1.2 1.2-2.3 2.2-3.2l29-27.9L133.6 87c1.1-1 2.3-1.8 3.6-2.2 10 3.1 21.2-1 26.6-10.4 4.3-7.3 4-16.1 0-22.9L153 70.1c-1.4 2.3-4.4 3.2-6.7 1.8l-11.4-6.6c-2.3-1.4-3.2-4.4-1.8-6.7L143.9 40c-7.9 0-15.6 4.1-19.9 11.4-3.3 5.7-3.9 12.2-2.1 18.1-.5 1.2-1.2 2.3-2.2 3.2l-29 27.9-20.5 19.7c-1.1 1-2.3 1.8-3.6 2.2-10-3.1-21.2 1-26.6 10.4-4.3 7.4-4 16.1 0 22.9l10.8-18.6c1.4-2.4 4.5-3.2 6.8-1.8z"
        />
    </symbol>
    <symbol viewBox="0 0 200 200" id="icon-user">
        <title>user</title>
        <path d="M164.2 134.6c-4-6.2-17.5-10.2-30.8-15.7-13.3-5.6-16.5-7.5-16.5-7.5l-.1-12.8s5-3.9 6.6-15.9c3.1.9 6.4-4.7 6.6-7.6.2-2.8-.4-10.7-4.2-9.9.3-2.4.6-4.7.8-6.8.2-1.5.3-2.9.3-4.1.1-1.2.1-2.3 0-3.1-.3-2.6-1.1-5.3-2.5-7.8-1.4-2.6-1.8-6.2-4.3-8.2-1.6-1.4-5.1-1.4-7.2-2.3-1.9-.9-5.4-3.3-7.6-3.8-2-.4-2.8 1.1-5.1 1.1-4 0-8-.2-11.4.5-6.6 1.4-7.5 7.8-12.8 6.6-2-.5 2 3 .9 4.7-.9 1.4-1.7 2.9-2.2 4.3-.6 1.6-1 3.3-1.2 5-.3 2.8.3 8.1 1.1 14-3.8-.8-4.4 7.1-4.3 9.9.2 2.9 3.5 8.5 6.6 7.6 1.6 12 6.6 15.9 6.6 15.9l-.1 12.8s-3.2 1.9-16.5 7.5c-13.4 5.6-26.8 9.5-30.9 15.7-3.6 5.6-2.5 40.4-2.5 40.4h133.2c0-.1 1.1-34.9-2.5-40.5z"
        opacity=".5" />
        <path fill-rule="evenodd" clip-rule="evenodd" d="M127.4 65.6c-.2-.7.6-4.7.6-5.4v-1.5c0-1.2.2-2.5.4-3.7 0-.1.1-.6.1-.8.1-1.1 0-2.1-.4-3.2-.1-.4-.2-.8-.3-1.3-.1-.1-.1-2.1.1-3-.5-2.2-.7-3.2-1.6-4.2-.8-2-1.2-4.6-2.3-6.1-1.2-1.5-2.6-3.1-3.8-4-1.3-.9-1.8-.9-2.7-1.5-2.1-1.3-4.8-3.1-7.4-3.7-1-.6-1-.7-3-1.5s-2.9-1-4.4-.8c-1.5.2-2 .2-3 .2-1.1 0-2.3-.6-3.4 0-.5.1-.9-.1-1.6.3-1.2.1-3.1 1-4.3 1.8-.3.2-.6.4-.9.7-.4.4-.8.7-1.4.8-1.6.1-3.1.9-4.5 1.7-.4.1-.4-.1-1.2.3-.8.5-1.4 1.2-2.1 1.7-.1-.1-.3-.2-.4-.3-1.7.6-3.2 2.2-4.2 3.4v1.1h.5c-.7 0-1 .6-1.4 1.2-1.6 2.6-2.2 5.3-3.4 8 0 0-.1-.1-.1.1-.2.2-.3.4-.3.7-.2.6-.5 1.3-.6 1.8-.3 1-.3 1.8 0 2.5-.2 2.7.5 4.5.5 6.6 0 .3.1.5.1.8-.1.6.8 1.2.8 1.8.7.2.7 5.1 1.7 5.7 1.3.8.7.4.9.4 0 0 .1-.6.2-.5 1.7 3.1 1.9 10.1 2.3 9.6 1.6-2.8-.8-11.3-.8-12.6.3-.7-.4-2.6-.6-3.3-.4-2.1-.4-4.2.5-6.2h.1c.4-.7.8-1.4 1.5-2.1.7-.7 1.1-1.7 1.1-2.8-.1-.2-.2-.3-.3-.5 0-.8 0-1.6.4-2.1.3 0 .9-.4 1.2-.5h.2c.8.3 1.6.7 2.4 1 1.1.6 1.6-.9 2.6-.7 1.1.2 2.4 2 2.3 1.8 1.4 1 3.1.2 4.6.5.8.5 1.7.7 2.7.8.1.1.3.2.4.2 1.6 0 3.2.3 4.6 1.3.6.4 1.2.6 1.9.4.5.2.8.1 2.3.2h.2c.9-.2 1.7-.4 2.3-.2.9.3 1.3.5 1.6.5 2.7.1 3.3 2.6 5.3 3.9 1.9 1.2 2.2 1.5 3 .7v.1c1.1 1.4 3.4 1.3 4.9 1.1l.3.3c1.5 1.9 1.3 4.1 1.1 6.2l-.1 1.2c0 .9.1 3.8.7 7.1.2 1.1.3 1.8.5 2.1.6.9.7-1.5.6-3.3-.1-1.8-.8-1.1.2-3.1.5-.9.6-2.3 1.3-2.3.4.2 1.7.9 1.5.6zm-25.9-15.2c0 .1 0 0 0 0z"
        />
    </symbol>
    <symbol viewBox="0 0 200 200" id="icon-users">
        <title>users</title>
        <path opacity=".4" d="M63.6 117c-.7-.4-1.5-.7-2.3-1.1-7.9-3.3-11.4-4.5-11.4-4.5l.5-7.6s3-2.3 3.9-9.5c1.9.5 3.8-2.8 3.9-4.5.1-1.7-.3-6.4-2.5-5.9.2-1.4.4-2.8.5-4 .2-1.8.3-4.4.2-5.4-.1-1.4-.6-1.8-1.2-3.1-.5-1-1.3-3.3-2.1-4.2-1.2-1.4-2.4-1.8-4.2-2.8-.7-.4-1.3-.1-2.1-.4-.7-.3-1.2-1.2-1.9-1.3-1.3-.3-1.9-1.6-3.5-1.6-2.1 0-5 2.1-6.7 2.7-.7.2-2.7-.5-3.3-.3-1.3.6-1.1 2.4-2.1 3.3-.6.5-2.4 1-2.9 1.6-.5.6.3 1.3 0 1.9-.3.5-1.6 1-1.9 1.5-.3.6.6 1.2.4 1.8-.2.6-.9 1.6-.9 2.2-.1.8.6 1.5.7 2.8.1 1.5.3 3.3.6 5.2-2.3-.5-2.6 4.2-2.5 5.9.1 1.8 2.1 5.1 3.9 4.5.9 7.2 3.9 9.5 3.9 9.5l-.1 7.6s-2.2.5-9.8 4.5c-8.8 4.6-9.4 7.3-10.3 9.5-1.3 3.3-1.5 24.1-1.5 24.1h33.6c.1-9 .5-19.3 2.2-21.9 2.5-4.1 10.2-7.1 18.9-10.5z"
        />
        <path opacity=".6" d="M189.4 121.9c-2.7-4.3-2.7-7-11.8-10.8-9.1-3.8-11.3-5.1-11.3-5.1l-.1-8.7s3.4-2.6 4.5-10.8c2.1.6 4.4-3.2 4.5-5.2.1-1.9-.3-7.3-2.9-6.7.5-4 .9-7.6.7-9.6-.1-.9-.3-1.8-.5-2.6-.3-.9.1-2.8-.4-3.7-.6-1.2-2.2-1.3-3.2-2.3-1-1.1-1.8-3-3.2-3.9-.8-.5-2.1 0-3.1-.4-.6-.2-2-1.3-2.6-1.5-1.8-.6-3 0-5.2 0-1.6 0-3.1-1-4.6-.7-.9.2-1.8 1.6-2.7 2-1.4.5-2.7 1.2-3.9 2-.6.4-1.6 2.7-2.1 3.1-.5.4.1-2.5-.3-2-1 1-3.2 2.2-3.8 3.4-.9 1.7-.7 4.9-.8 6.6-.1 1 0 2.3.1 4 .1 1.1.2 2.3.4 3.6.1.7.2 1.3.3 2-2.6-.5-3 4.8-2.9 6.7.1 2 2.4 5.8 4.5 5.2 1.1 8.2 4.5 10.8 4.5 10.8l.2 7.7-.3-7.7-.1 8.7s-2.2 1.3-11.3 5.1c-2.6 1.1-4.4 2.1-5.8 3 .1 0 .2.1.3.1 11.2 4.7 22.6 8 26 13.3 1.7 2.7 2.2 12.9 2.2 21.9H191c.2.1.9-23.7-1.6-27.5z"
        />
        <path d="M126.6 114.3c-.1 0-.2-.1-.3-.1-11-4.6-13.6-6.2-13.6-6.2l-.1-10.8s4.2-3.2 5.5-13.4c2.6.8 5.4-3.9 5.5-6.4.1-2.4-.4-9-3.6-8.3.3-2 .5-4 .7-5.7.1-1.3.2-2.4.3-3.5v-2.6c-.2-2.2-.9-4.5-2.1-6.6-1.2-2.2-1.5-5.2-3.6-6.9-1.4-1.1-4.3-1.2-6.1-2-1.6-.7-4.6-2.8-6.4-3.2-1.7-.4-2.3.9-4.3.9-3.4 0-6.7-.2-9.6.4-5.6 1.1-6.3 6.5-10.8 5.6-1.7-.4 1.7 2.5.8 3.9-.8 1.2-1.4 2.4-1.9 3.7-.5 1.4-.9 2.8-1 4.2-.2 2.4.2 6.8.9 11.8-3.2-.7-3.7 6-3.6 8.3.1 2.5 2.9 7.2 5.5 6.4 1.3 10.1 5.5 13.4 5.5 13.4l-.1 10.8s-2.7 1.6-13.9 6.3c-2.3 1-4.6 1.9-6.9 2.7-8.7 3.4-16.4 6.3-19.1 10.5-1.7 2.7-2.2 13.2-2.2 21.9-.1 6.6.1 12.1.1 12.1h112.4s.2-5.5.1-12.1c-.1-8.6-.5-19.2-2.2-21.9-3.3-5.3-14.6-8.6-25.9-13.2z"
        />
    </symbol>
    <symbol viewBox="0 0 200 200" id="icon-writing">
        <title>writing</title>
        <path d="M167.1 61.1l2.3-2.5-11.1-10-2.3 2.5M171 56.3l1.3-1.4c2.8-3 4.7-5.3-.5-10.5-5.2-5.3-7.8-2.6-10.5.5l-1.3 1.4 11 10z" />
        <path opacity=".75" d="M121.7 99.5l-.4 1.5.4-1.5z" />
        <path d="M121.7 99.5l-.4 1.5.4-1.5z" />
        <path stroke="#000" stroke-width="0" stroke-linecap="round" stroke-linejoin="round" d="M45.6 120.7c-.1 0-.1-.1-.2-.1" />
        <path opacity=".6" d="M165.5 130l-13.3-52.2-16.7 18.6-14.2 4.6v.2c-1 .6-2 1.5-3 .9-.5.2-1 .2-1.4-.4-.9-1.3-2.3.2-3.9-.3-1.2-.4-.4-.6-1 .6-.2.5-.5.8-1 1.1-.6.4-1.4 0-2-.4-.2.5-.5.8-1.1.6-.5-.2-.9-.4-1.2-.8-.9-.9-.4.4-.3 1.1 0 1-1.5 1-1.6 0 0-1.1-.4-2.7.8-3.2.6-.2 2.2.3 2.2 1 .1-.6.7-1 1.2-.7 1.9 1.1 1.5-.4 2.6-1.2.5-.3.9-.3 1.4.1 1.5 1 2.6-.9 3.9-.2.3.2.6.4.8.7.3.5.3.5.2.6.3-.2.7-.1 1 .2l.4-.2c.1 0 .1-.1.2-.1.4-.2 1-.5 1.5-.8.1-.1.2-.1.3-.1.1 0 .2-.1.2-.1h.1l2.2-10.5c-.2 0-.4 0-.6-.1-1.3-.8-2.1-1.3-3.7-.9-1.3.3-1.9 1.8-3 2.4-1.8 1.1-3 1-4.2 0-1 1.5-2.1 3.3-3.7 3.8-2 .6-2.2-1-2.8-2.3-.2.5-.3 1.1-.7 1.4-.6.4-1 .7-1.7.8-1 .2-1.6-.6-1.8-1.5-.3-1 1.4-1.4 1.6-.4.2.6 1.4-1.7 1.5-1.9.1-.2.6-.5.8-.6.3-.2.8-.1 1 .2.6.7 1.3 3.3 2.5 1.9.9-1 1.6-2.1 2.4-3.2.3-.4.9-.5 1.3-.1 2.5 2.8 3.9-1.9 6.3-2.2 2-.3 2.9-.1 4.4.7.3-.3.6-.5.9-.8L136.2 73c-.3.1-.7.1-1.1 0-.4.9-1.1 2-2.2 1.7-1.5-.5-2.9.1-4.3.6-.3.1-.8.3-1.2.1-1-.4-1.9-.7-3-.4-.9.2-1.5 1.7-2.3 2.3-1.4 1-2.6-.2-3.9-.5-2.2-.5-1 1.5-2.1 2.2-.3.2-.6.2-.9.1-1.6-.7-2.5.9-3.4 1.9-.7.8-1.2 1.6-2.4 1.5-1.3 0-2.9-.4-4.2-.1-1.1.3-1.9.9-2.9 1.6-.2.2-.5.3-.8.2-1.2-.6-2.3-1.5-3.8-1.5-1.1 0-1-1.7.1-1.7 1.2 0 2.1.4 3.1 1 1.2.7 1.5-.4 2.5-.8s2.1-.6 3.2-.5c.5 0 2.6.5 3 .1 1.1-1.1 2.6-3.6 4.5-3.7.6 0 .7 0 .9.1.1-.4.2-.7.3-1.1.5-1 1.7-1.4 2.7-1.2 1.6.4 2.4 1.4 3.9-.4.4-.5.8-.9 1.4-1.1 1.9-.5 3.9.4 5.6-.2 1-.3 2-.6 3.1-.7.7 0 1 .9 1.5-.4.1-.2.2-.5.4-.7.2-.3.6-.4 1-.3 1.5.5 1.7-.9 2-1.7.2-.5.8-.7 1.2-.4.5.3.7.5.9.7l8.5-9.5-.6-2.5c-.8-3.3-3.5-4.1-7.5-4.5-4-.3-10.7-1.1-26.2 2.8s-18.8 7.5-21.9 9.4c-3.1 1.9-5.3 4.2-4.5 7.5l.7 2.9 1.5-.4c1-.2 2 .4 2.3 1.4.2 1-.4 2-1.4 2.3l-1.5.4 1.8 7.2 1.5-.4c1-.3 2 .3 2.3 1.3.2 1-.4 2-1.4 2.3l-1.5.4 1.7 6.7 1.5-.4c1-.3 2 .3 2.3 1.3.2 1-.4 2-1.4 2.3l-1.5.4 1.7 6.7 1.5-.4c1-.3 2 .4 2.3 1.3.2 1-.4 2-1.3 2.3l-1.5.4 1.7 6.7 1.5-.4c1-.3 2 .3 2.3 1.3.3 1-.4 2-1.3 2.3l-1.5.4 1.7 6.7 1.5-.4c1-.2 2 .3 2.3 1.3.3 1-.4 2-1.3 2.3l-1.5.4 1.8 7.2 1.5-.4c1-.2 2 .4 2.3 1.3.3 1-.4 2-1.3 2.3l-1.5.4.7 2.7c.8 3.3 3 7.8 7.5 4.5 2.6-1.9 5.5-4.9 23.1-9.7 13.8-3.8 20.1-2.9 24.9-2.5 6 .8 5.5-3.9 4.7-7.3zM96.9 75.9c-1-.4-.4-1.9.6-1.5 1.5.6 2.3-2.8 4-2.9.5 0 .9.2 1.3.4 1.5.6 2.4-.9 3.2-1.7.7-.8 1.4-1.4 2.3-1.8.3-.2.8 0 1 .2.8 1 3.7.4 4.9.4 2.4.1 2.8-1.1 4.4-2.4 2.3-1.9 5.3-.8 7.9-2 .3-.1.6-.1.8.1 1.3 1.1 2.3-.7 3.4-1.5.9-.6 1.9-.8 2.9-1.2.7-.2 1.9-.8 2.7-.6.8.2 2.1 1 3 .8 1-.2 1.3 1.4.2 1.6-.8.2-.9.2-1.7-.1-1.9-.6-2.7-.6-4.3 0-1.9.6-3 1.7-4.4 2.9-.5.4-1.1.4-1.7.1-1.3-.6-2.1 0-3.5 0-2.3.1-3.8.3-5.4 2.1-.6.7-1.6 1.4-2.6 1.5-1.9.1-3.7.1-5.6.2-.8 0-1.3-.2-1.8-.7-1.4.9-2.3 2.6-3.9 3.4-.9.4-3.1-.8-3.6 0-1.1 2.1-1.7 3.7-4.1 2.7z"
        />
        <path d="M165.6 62.9l-13.4 14.9-16.7 18.6-14.2 4.6.4-1.5h-.1l2.2-10.5.6-2.6 11.9-13.3 2.9-3.2 8.5-9.5 6.8-7.6 11.1 10.1z" />
        <path opacity=".6" d="M103.6 145.8l-.7-2.7-1.9.5c-.1 0-.3.1-.5.1-.8 0-1.6-.6-1.8-1.4-.2-1 .4-2 1.4-2.3l1.9-.5-1.8-7.2-1.9.5c-.1 0-.3.1-.5.1-.8 0-1.6-.6-1.8-1.4-.3-1 .4-2 1.3-2.3l1.9-.5-1.7-6.7-1.9.5c-.1 0-.3.1-.5.1-.8 0-1.6-.6-1.8-1.4-.3-1 .4-2 1.3-2.3l1.9-.5-1.7-6.7-1.9.5c-.2 0-.3.1-.5.1-.8 0-1.6-.6-1.8-1.4-.3-1 .4-2 1.3-2.3l2.1-.6-1.7-6.7-1.9.5h-.5c-.8 0-1.6-.6-1.8-1.4-.3-1 .4-2 1.3-2.3l1.9-.5-1.6-6.6-1.9.5c-.2 0-.3.1-.5.1-.8 0-1.6-.6-1.8-1.4-.3-1 .3-2 1.3-2.3l1.9-.5-1.7-7.2-1.9.5c-.2 0-.3.1-.5.1-.8 0-1.6-.6-1.8-1.4-.2-1 .4-2 1.4-2.3l1.9-.5-.7-2.9c-.9-3.3-3.9-4.3-7.5-4.5-3.6-.2-8.3-1.8-23.7 2.2-15.5 3.9-21 7.8-24.3 10-3.3 2.2-5.3 4.2-4.5 7.5L43.6 161c.8 3.3 2.7 7.7 7.5 4.5 4.1-2.7 7.5-5.7 23.1-9.7 17.7-4.6 21.8-2.9 24.9-2.5 5.6.7 5.4-4.2 4.5-7.5zM32 90.2c.8-.8 1.6-1.5 2.8-.8.9.5 1.7 1.2 2.7 1.6 1 .4.8-.2 1.2-.9.7-1.2 1.5-.8 2.7-1 2-.2 5.1-.5 6-2.7.2-.4.6-.6 1-.4.7.3 1.7-.3 2.3.2.4.3.6.7.9 1.1.6-1 .8-2.1 1.1-3.4.1-.5.6-.8 1.1-.6.3.1 2.5 1.4 2.5 1.5.1-.3.5-.6.8-.6.5-.1 1.3.2 1.7.5 2.2 1.8 2.3-1.1 2.2-2.5-.1-.6.7-1.3 1.3-.8 1.4 1.3 3.5 1.7 4.8-.1.2-.3.6-.4.9-.2 1.9.5 3.2-1.8 4.9-2.2 1.1-.3 2.9 1.6 2.7-.6-.1-.8.9-1.2 1.4-.6.9 1 1.3 2.2 1.9 3.4.4.9-1 1.5-1.5.6-.1-.3-.3-.6-.4-.9-.3.7-.9 1-2.2.4-2.1-1.1-2.5.2-4.3 1-.9.4-1.6.6-2.5.5-1.5 1.6-3.6 1.8-5.4.9-.2 2-1 4.7-3.1 3.6-.5-.3-1.8-1.3-1.8-1.3-.2.2-.6.5-.8.5-1.3 0-1.8-.6-2.7-1.1-.3 1.4-.8 2.7-1.7 4-.4.4-.9.4-1.3 0-.5-.5-.8-1.5-1.7-1.5h-.8c-1.6 2.5-5.5 3.1-8.1 3-.7 0-.6 2.4-2.2 2.1-1.1-.2-4-2.4-4.8-1.6-1 .6-2.3-.3-1.6-1.1zm4.2 11.1c-.4.6-.9 1-1.6 1.3-1 .3-1.6-1.2-.6-1.5.7-.3 1.1-.8 1.2-1.4-.1-.3-.1-.6 0-1 .1-.9 1.4-.9 1.6 0v.2c.4.1.7.3 1.1.5.2-.6 1-.7 1.4-.2.3.4 2.6-.3 2.9-.4.9-.4 1.6-1 2.2-1.8.9-1.2 1.6-2.4 2.9-3.3.4-.2.8-.2 1.1.1.8.9 1.1 2 1.7 3 .1-.1.3-.1.4-.1 1.8.2 4.2-1.5 5-3.1.2-.3.5-.6.8-.5-.1 0 2.8.5 3 .5.6-.1.8-1.1 1.1-1.6.8-1.1 2.1-1.8 3.4-.8 1.6 1.2 2.7 1.6 4.4.7.7-.3 1.3-.6 2-.8.9-.2 1.5.3 1.9.9.4-.6.6-1.3.8-2.1.1-.5.9-.7 1.2-.3.8.7 2.1 1.6 3.2 1.6.4 0 .4-1.3.4-1.5.1-1.1-.1-2.2.2-3.2.4-1.8 1.7-2 3-.8.8.7-.2 1.9-1 1.3-.8-.7-.5 2-.6 2.6 0 .8-.1 1.8-.6 2.6-1 1.5-3.3.6-4.8-.5-.3.9-.8 1.8-1.7 2.4-.4.3-1 .2-1.2-.3-.6-1.8-3.8.4-4.9.6-1.2.1-3.9-2.7-4.7-1-.8 1.6-.9 1.8-2.6 2-.7.1-1.6-.2-2.4-.4-1.2 1.8-3.5 3.4-5.6 3.5 0 .1-.1.3-.1.4-.2.6-1 .7-1.4.2-.7-1.1-1.1-2.3-1.8-3.4-1.6 1.5-2.4 4.1-4.8 4.8-1.3.4-2.8 1.1-3.9.5-.8.7-1.9.7-2.6.3zm1.7 9.5c.6-.4 1.1-.9 1.7-1.3.2-.6 1-.6 1.4-.2 1.2 1.6 2.1-.2 2.6-.8.3-.4 1-.4 1.3 0 .2.7.7.9 1.5.8.4-.1.7 0 .9.2 1 1.1 2.5-.9 3.2-1.5.4-.4 1-.1 1.2.3.8 1.5 5.8-1.3 6.6-2 .8-.7 1.7-1.8 2.7-2.2 2.3-.9 2.8 1 3.3 2.8.5-.7.8-1.5 2.1-1.5 0 0 4.2-.8 4.2-1.5-.1-.8.9-1.2 1.4-.6.7.8 1.2.2 1.3-.6.1-.7.9-.9 1.4-.4.5.6 1.1 1.1 1.7 1.4.2-.6.2-1.2 0-1.9-.1-.8.7-1.1 1.3-.8 1 .6 2.5 1.5 3.1-.2.4-.9 1.9-.3 1.5.6-.5 1.3-.9 2.1-2.3 2.5-.7.2-1.3-.2-1.9-.7-.1.6-.2 1.1-.5 1.7-.2.4-.6.6-1 .4-.8-.3-1.5-.7-2.1-1.2-.2.6-.6 1.2-1.2 1.4-.7.3-1.3.1-1.7-.4-.5.5-1.4.7-2.2 1.2-.8.6-1.5.5-2.5.5-1.2-.1-1.7 1.5-2.7 1.9-.4.2-.9 0-1-.4-.3-1-.5-2-.9-3-.3-.7-2 1.1-2.1 1.2-1 .9-2.1 1.6-3.3 2.2-1.6.7-4.3 1.8-5.9.7-1.4 1.3-2.9 2.3-4.5 1.1-.9.2-1.6 0-2.2-.6-1.2 1.4-2.3 2.1-3.7.9-.6.7-1.4 1-2.4 1.2-1 .6-1.3-1-.3-1.2zm3.2 10.5c.5 2.4.6 0 .9-1 .2-.6 1-.6 1.4-.2.6.6 1.5-1 2.2-1.1.7-.1 1.7 0 2.4.1 2.9.4 4-3.1 6.4-4.4.3-.2.7 0 1 .2 1.5 1.5 4.9 1.2 7 .9 1.4-.2 1.9 1.3 3.5.6 1.2-.5 2.4-1.1 3-2.3.2-.4.5-.7.8-1 1.1-.9 3.6-.3 4.9-.4.6-.1 1.1.5.9 1.1.7.1 1.3-.1 1.6-.7.1-.2.3-.4.4-.6 0-.2.1-.3.2-.4-.1-.1-.2-.2-.3-.4-.4-.5 0-1.2.5-1.3 1-.2 1.4.2 1.5.9 1.5.9 2.3-1.2 3.5-.3 1.3 1 2.7-.4 3.9-.8 1-.3 1.6 1.1.6 1.5-1.5.5-3.9 2.7-5.4.9-.4.2-.8.3-1.3.4-.3.1-.8.2-1.1.1-.3-.1-.5-.1-.7-.2-.3.7-.8 1.4-1.1 1.7-1.4 1.2-3.9 1.4-4.1-.3-1.4-.1-3.2-.2-3.7.8-.4.7-.8 1.1-1.4 1.6-1.2.9-3.1 1.7-4.6 1.6-.8-.1-1.3-.8-2.2-.8-1.3 0-2.4 0-3.6.3-1.4.3-2.7-.5-3.7-1.4-1.6 1.1-2.6 3.1-4.3 4.1-1.4.8-2.1 0-3.5.2-.3.1-.7.1-1 0 .1.1 0 .2-.2.5-.2.2-.4.4-.7.5-.6.4-1.1.4-1.6.1-.1 1.3-.3 2.9-1.9 2.7-1.4-.2-1.7-2-1.9-3.1-.1-.9 1.5-1.1 1.7-.1zm-.2 9.7c-1-.3-.4-1.8.6-1.5.3.1 2.5.5 2.8 0v-.3c.2-.8 1.6-1 1.6 0v.3c.1-1 3.3-1.7 3.9-2.2.3-.3.9-.2 1.1.1.7.9 1.3-.6 1.5-.9.3-.5 1.2-.4 1.4.2.3.8.1 1.6 1 1.5.5 0 3-.2 2.5-1.2-.1-.2-.1-.6.1-.8 1-1.2 3.6-3.2 5.3-2.5 1.2.5 2.2 1.8 2.1 3 2.2.3 2.8-4.1 5-3.8 1.3.2 3 2.3 4.3 1.6 1-.5 1.5-1.4 2.3-2.1 1.4-1.2 3.1-1.4 4.6-.1 1.1 1 1.7 1.2 3.1.2.9-.7 1.6-1.4 2.4-2.1.7-.7 2 .2 1.3 1-1.2 1.2-3.7 4.1-5.7 3.7-1-.2-1.2-.9-2-1.4-2.1-1.4-3.3 1-4.6 2-.9.6-1.9.7-2.9.5-1.2-.3-2.5-2.2-3.5-.9-1.3 1.8-3 4-5.5 2.8-.5-.2-.6-.8-.3-1.2.3-.5-1.4-1.6-1.8-1.4-.3.1-2.6 1.2-2.4 1.5.5.9-.3 2-1.1 2.3-.9.4-2.6.9-3.6.8-.8-.1-1.2-.6-1.5-1.3-.8.8-1.7 1.1-2.6.4-1.2.8-3.8 2.1-5.1 1.9-1.3.5-3.2.3-4.3-.1zm2.7 9.8c.1-.6.7-1 1.2-.5.5.4.4.7.4 1.3 1 .3 1 .4 1.2.2v-.7c.1-.8 1.3-1.1 1.6-.3.1.2.1.4.1.6.4.3 3.2-1.4 3.6-1.8.4-.4 1.2-.4 1.4.2.4-.2.8-.4 1.3-.5.3-.6.9-.6 1.4-.2 1.7 1.7 4.1-2.1 5.2-3 1.8-1.5 4.4-.8 6.4-2 .9-.5 2.4-1.4 3.3-.6.7.6.9 1.7 1.7 2.3 1.9 1.5 2.3-1.1 2.8-1.9.6-1.1 1.6-2.4 3-2.3 1 0 1.5.8 2.1 1.5.1.2.5 1.1.4 1.3.3-.4.8-1.2 1.4-1.4.8-.2 2.3 0 2.8-.3.9-.5 1.7-1.1 2.5-1.8s1.7.6 1 1.3c-.8.7-1.8 1.7-2.8 2-.9.3-2.5-.1-3.2.7-.6.7-1.7 2-2.6.9-.8-.8-1.6-4.6-3.1-1.3-.7 1.5-1.2 3.3-3.1 3.5-1.7.2-3.2-2-4-3.2 0 .6-7.6 2.5-7.8 2.6-1.8 1.7-4.1 4.9-6.6 3.4-.9 1.1-2.2 1.6-3.1.7-1.3 1-3.6 2.2-4.9 1.7-1.3.7-3.9-.1-3.6-2.4zm46.3.5c-1.6 0-3.2-.3-4.4 1-.3.3-.7.6-1.1.7-1 .2-1.9.2-2.9-.1-1.1-.3-1 1-1.5 1.5-1.3 1.7-3.7 1.7-4.9.1-1.2.2-2.5.2-3.7.6-.9.3-1.6.4-2.6.2-1.6-.4-2.7-.3-3.9.9-.9.9-1.8 1.9-2.7 2.8-.3.3-.8.4-1.1.1-1.5-1.2-1.9-1-2.4.8-.1.4-.7.6-1.1.4-1.1-.4-3.1-.9-3.8-1.9-.8-1.2-1.6-.2-2.5.3-.9.5-1.7.8-2.4.5-.5.8-1.2 1.2-2.3.9-1-.2-.8-1.8.2-1.6.4-.3.7-.5 1-.8.3-.6 1-.6 1.4-.2.6.6 3.1-1.9 4.1-1.8.6 0 .8.2 1.2.6 1 1.1 1.8 1.5 2.9 2 .8-2.2 2-2.6 4-1.2 1.4-1.6 3-3.7 5-4.1 1.7-.3 3.3.5 5-.1 1.3-.4 2.5-.2 3.9-.5.3-.1.7.2.8.5 1.3 3.1 2.9-.9 3.2-1.3.1-.3.4-.4.6-.6.6-.6 2.1.1 2.7.2 1.9.2 2-1.2 3.5-1.5 1.2-.2 2.3-.2 3.5-.2 1 .2 1.3 1.8.3 1.8z"
        />
        <path d="M90.2 79.3l-1.5.4-1.7.5-1.9.5c-.2 0-.3.1-.5.1-.8 0-1.6-.6-1.8-1.4-.2-1 .4-2 1.4-2.3l1.9-.5 1.8-.5 1.5-.4c1-.2 2 .4 2.3 1.4.1 1-.5 2-1.5 2.2zM93 90.2l-1.5.4-1.8.4-1.9.5c-.2 0-.3.1-.5.1-.8 0-1.6-.6-1.8-1.4-.3-1 .3-2 1.3-2.3l1.9-.5 1.8-.5 1.5-.4c1-.3 2 .3 2.3 1.3.3 1.1-.3 2.1-1.3 2.4zM95.6 100.5l-1.5.4-1.8.5-1.9.5h-.5c-.8 0-1.6-.6-1.8-1.4-.3-1 .4-2 1.3-2.3l1.9-.5 1.8-.5 1.5-.4c1-.3 2 .3 2.3 1.3.3 1.1-.3 2.1-1.3 2.4zM98.2 110.8l-1.5.4-1.8.5-1.9.5c-.2 0-.3.1-.5.1-.8 0-1.6-.6-1.8-1.4-.3-1 .4-2 1.3-2.3l2-.6 1.8-.5 1.5-.4c1-.3 2 .4 2.3 1.3.2 1.1-.4 2.1-1.4 2.4zM100.9 121.1l-1.5.4-1.8.5-1.9.5c-.1 0-.3.1-.5.1-.8 0-1.6-.6-1.8-1.4-.3-1 .4-2 1.3-2.3l1.9-.5 1.8-.5 1.5-.4c1-.3 2 .3 2.3 1.3.3 1-.4 2-1.3 2.3zM103.5 131.4l-1.5.4-1.8.5-1.9.5c-.1 0-.3.1-.5.1-.8 0-1.6-.6-1.8-1.4-.3-1 .4-2 1.3-2.3l1.9-.5 1.8-.5 1.5-.4c1-.2 2 .3 2.3 1.3.3 1-.3 2.1-1.3 2.3zM106.2 142.2l-1.5.4-1.8.5-1.9.5c-.1 0-.3.1-.5.1-.8 0-1.6-.6-1.8-1.4-.2-1 .4-2 1.4-2.3l1.9-.5 1.8-.5 1.5-.4c1-.2 2 .4 2.3 1.3.2 1.1-.4 2.1-1.4 2.3z"
        />
    </symbol>
</svg>