<?xml version="1.0" encoding="utf-8"?>
<!-- Generator: Adobe Illustrator 18.1.1, SVG Export Plug-In . SVG Version: 6.00 Build 0)  -->
<svg version="1.0" xmlns="http://www.w3.org/2000/svg" xmlns:xlink="http://www.w3.org/1999/xlink" x="0px" y="0px"
	 viewBox="0 0 200 200" enable-background="new 0 0 200 200" xml:space="preserve">
<g id="Layer_1">
</g>
<g id="Layer_2">
	<g id="Add_Favorite">
	</g>
	<g id="New_Symbol_17">
	</g>
	<g>
		<polygon opacity="0.75" points="163.4,90.6 132.1,113.8 93,106.2 74.3,122 57.9,116.6 34.1,131.3 34.1,146.5 163,146.5 		"/>
		<polygon opacity="0.5" points="34.1,123.4 57.8,108.7 74.1,114.1 92.9,98.2 132.5,105.8 164.1,82.6 164.1,67 132.5,90.2 93,82.6 
			74.2,98.5 57.9,93.1 34.1,107.8 		"/>
		<polygon points="184.1,158 171.1,150.5 171.1,155.5 25.1,155.5 25.1,57.5 30.9,57.5 23.4,44.5 15.9,57.5 21.1,57.5 21.1,159.5 
			171.1,159.5 171.1,165.5 		"/>
	</g>
</g>
</svg>
