<?xml version="1.0" encoding="utf-8"?>
<!-- Generator: Adobe Illustrator 18.1.1, SVG Export Plug-In . SVG Version: 6.00 Build 0)  -->
<svg version="1.0" xmlns="http://www.w3.org/2000/svg" xmlns:xlink="http://www.w3.org/1999/xlink" x="0px" y="0px"
	 viewBox="0 0 200 200" enable-background="new 0 0 200 200" xml:space="preserve">
<g id="Layer_1">
</g>
<g id="Layer_2">
	<g id="Add_Favorite">
	</g>
	<g id="New_Symbol_17">
	</g>
	<g>
		<g>
			<g>
				<path opacity="0.5" d="M81.9,95H39.1c-7.4,0-13.4-6-13.4-13.4V38.7c0-7.4,6-13.4,13.4-13.4h42.9c7.4,0,13.4,6,13.4,13.4v42.9
					C95.3,89,89.3,95,81.9,95z"/>
			</g>
			<path d="M81,54.5H67.1V40.4c0-1.8-1.7-2.9-3.5-2.9h-5.4c-1.8,0-3.1,1-3.1,2.9v14.1H40.9c-1.8,0-3.7,1.5-3.7,3.3v5.4
				c0,1.8,1.9,3.3,3.7,3.3h14.3v14.1c0,1.8,1.3,2.9,3.1,2.9h5.4c1.8,0,3.5-1.1,3.5-2.9V66.5H81c1.8,0,3.1-1.5,3.1-3.3v-5.4
				C84.1,56,82.9,54.5,81,54.5z"/>
		</g>
		<g>
			<path opacity="0.5" d="M81.9,174.6H39.1c-7.4,0-13.4-6-13.4-13.4v-42.9c0-7.4,6-13.4,13.4-13.4h42.9c7.4,0,13.4,6,13.4,13.4v42.9
				C95.3,168.6,89.3,174.6,81.9,174.6z"/>
			<path d="M69.5,140.2l9.9-9.9c1.3-1.3,1.3-3.4,0-4.7l-3.8-3.8c-1.3-1.3-3.4-1.3-4.7,0l-9.9,9.9l-9.9-9.9c-1.3-1.3-3.4-1.3-4.7,0
				l-3.8,3.8c-1.3,1.3-1.3,3.4,0,4.7l9.9,9.9l-9.9,9.9c-1.3,1.3-1.3,3.4,0,4.7l3.8,3.8c1.3,1.3,3.4,1.3,4.7,0l9.9-9.9l9.9,9.9
				c1.3,1.3,3.4,1.3,4.7,0l3.8-3.8c1.3-1.3,1.3-3.4,0-4.7L69.5,140.2z"/>
		</g>
		<g>
			<path opacity="0.5" d="M160.9,95h-42.9c-7.4,0-13.4-6-13.4-13.4V38.7c0-7.4,6-13.4,13.4-13.4h42.9c7.4,0,13.4,6,13.4,13.4v42.9
				C174.3,89,168.3,95,160.9,95z"/>
			<path d="M162.9,57.5v5.4c0,1.8-1.5,3.3-3.3,3.3h-40.2c-1.8,0-3.3-1.5-3.3-3.3v-5.4c0-1.8,1.5-3.3,3.3-3.3h40.2
				C161.4,54.2,162.9,55.7,162.9,57.5z"/>
		</g>
		<g>
			<path opacity="0.5" d="M160.9,174.6h-42.9c-7.4,0-13.4-6-13.4-13.4v-42.9c0-7.4,6-13.4,13.4-13.4h42.9c7.4,0,13.4,6,13.4,13.4
				v42.9C174.3,168.6,168.3,174.6,160.9,174.6z"/>
			<g>
				<path d="M163.1,125.8c0-1.8-1.5-3.3-3.3-3.3h-40.3c-1.8,0-3.3,1.5-3.3,3.3v5.3c0,1.8,1.5,3.3,3.3,3.3h40.3
					c1.8,0,3.3-1.5,3.3-3.3V125.8z"/>
				<path d="M163.1,148.8c0-1.8-1.5-3.3-3.3-3.3h-40.3c-1.8,0-3.3,1.5-3.3,3.3v5.3c0,1.8,1.5,3.3,3.3,3.3h40.3
					c1.8,0,3.3-1.5,3.3-3.3V148.8z"/>
			</g>
		</g>
	</g>
</g>
</svg>
