<svg version="1" xmlns="http://www.w3.org/2000/svg" viewBox="0 0 200 200"><path opacity=".5" d="M81.9 95H39.1c-7.4 0-13.4-6-13.4-13.4V38.7c0-7.4 6-13.4 13.4-13.4H82c7.4 0 13.4 6 13.4 13.4v42.9C95.3 89 89.3 95 81.9 95z"/><path d="M81 54.5H67.1V40.4c0-1.8-1.7-2.9-3.5-2.9h-5.4c-1.8 0-3.1 1-3.1 2.9v14.1H40.9c-1.8 0-3.7 1.5-3.7 3.3v5.4c0 1.8 1.9 3.3 3.7 3.3h14.3v14.1c0 1.8 1.3 2.9 3.1 2.9h5.4c1.8 0 3.5-1.1 3.5-2.9V66.5H81c1.8 0 3.1-1.5 3.1-3.3v-5.4c0-1.8-1.2-3.3-3.1-3.3z"/><path opacity=".5" d="M81.9 174.6H39.1c-7.4 0-13.4-6-13.4-13.4v-42.9c0-7.4 6-13.4 13.4-13.4H82c7.4 0 13.4 6 13.4 13.4v42.9c-.1 7.4-6.1 13.4-13.5 13.4z"/><path d="M69.5 140.2l9.9-9.9c1.3-1.3 1.3-3.4 0-4.7l-3.8-3.8c-1.3-1.3-3.4-1.3-4.7 0l-9.9 9.9-9.9-9.9c-1.3-1.3-3.4-1.3-4.7 0l-3.8 3.8c-1.3 1.3-1.3 3.4 0 4.7l9.9 9.9-9.9 9.9c-1.3 1.3-1.3 3.4 0 4.7l3.8 3.8c1.3 1.3 3.4 1.3 4.7 0l9.9-9.9 9.9 9.9c1.3 1.3 3.4 1.3 4.7 0l3.8-3.8c1.3-1.3 1.3-3.4 0-4.7l-9.9-9.9z"/><g><path opacity=".5" d="M160.9 95H118c-7.4 0-13.4-6-13.4-13.4V38.7c0-7.4 6-13.4 13.4-13.4h42.9c7.4 0 13.4 6 13.4 13.4v42.9c0 7.4-6 13.4-13.4 13.4z"/><path d="M162.9 57.5v5.4c0 1.8-1.5 3.3-3.3 3.3h-40.2c-1.8 0-3.3-1.5-3.3-3.3v-5.4c0-1.8 1.5-3.3 3.3-3.3h40.2c1.8 0 3.3 1.5 3.3 3.3z"/></g><g><path opacity=".5" d="M160.9 174.6H118c-7.4 0-13.4-6-13.4-13.4v-42.9c0-7.4 6-13.4 13.4-13.4h42.9c7.4 0 13.4 6 13.4 13.4v42.9c0 7.4-6 13.4-13.4 13.4z"/><path d="M163.1 125.8c0-1.8-1.5-3.3-3.3-3.3h-40.3c-1.8 0-3.3 1.5-3.3 3.3v5.3c0 1.8 1.5 3.3 3.3 3.3h40.3c1.8 0 3.3-1.5 3.3-3.3v-5.3zM163.1 148.8c0-1.8-1.5-3.3-3.3-3.3h-40.3c-1.8 0-3.3 1.5-3.3 3.3v5.3c0 1.8 1.5 3.3 3.3 3.3h40.3c1.8 0 3.3-1.5 3.3-3.3v-5.3z"/></g></svg>