<svg version="1" xmlns="http://www.w3.org/2000/svg" viewBox="0 0 200 200"><path d="M184.1 158l-13-7.5v5h-146v-98h5.8l-7.5-13-7.5 13h5.2v102h150v6"/><path opacity=".5" d="M48.5 117h-11c-1.5 0-2.8 1.2-2.8 2.8v24.4c0 1.5 1.2 2.8 2.8 2.8h11.1c1.5 0 2.8-1.2 2.8-2.8v-24.4c-.1-1.5-1.3-2.8-2.9-2.8z"/><path opacity=".4" d="M70.7 125.3H59.6c-1.5 0-2.8 1.2-2.8 2.8v16.1c0 1.5 1.2 2.8 2.8 2.8h11.1c1.5 0 2.8-1.2 2.8-2.8v-16.1c-.1-1.5-1.3-2.8-2.8-2.8z"/><path opacity=".54" d="M92.8 109.5H81.7c-1.5 0-2.8 1.1-2.8 2.6v32.2c0 1.4 1.2 2.6 2.8 2.6h11.1c1.5 0 2.8-1.1 2.8-2.6v-32.2c0-1.4-1.3-2.6-2.8-2.6z"/><path opacity=".7" d="M114.9 91h-11.1c-1.5 0-2.8 1.2-2.8 2.8v50.4c0 1.5 1.2 2.8 2.8 2.8h11.1c1.5 0 2.8-1.2 2.8-2.8V93.8c0-1.6-1.2-2.8-2.8-2.8z"/><path opacity=".84" d="M137.1 78.3H126c-1.5 0-2.8 1.1-2.8 2.5v63.6c0 1.4 1.2 2.5 2.8 2.5h11.1c1.5 0 2.8-1.1 2.8-2.5V80.8c0-1.4-1.3-2.5-2.8-2.5z"/><path d="M159.2 86.9c.6 0 1.1.4 1.1.9v56.6c0 .5-.5.9-1.1.9h-11.1c-.6 0-1.1-.4-1.1-.9V87.8c0-.5.5-.9 1.1-.9h11.1m0-1.6h-11.1c-1.5 0-2.8 1.1-2.8 2.5v56.6c0 1.4 1.2 2.5 2.8 2.5h11.1c1.5 0 2.8-1.1 2.8-2.5V87.8c0-1.4-1.2-2.5-2.8-2.5z"/></svg>