<?xml version="1.0" encoding="utf-8"?>
<!-- Generator: Adobe Illustrator 18.1.1, SVG Export Plug-In . SVG Version: 6.00 Build 0)  -->
<svg version="1.0" xmlns="http://www.w3.org/2000/svg" xmlns:xlink="http://www.w3.org/1999/xlink" x="0px" y="0px"
	 viewBox="0 0 200 200" enable-background="new 0 0 200 200" xml:space="preserve">
<g id="Layer_1">
</g>
<g id="Layer_2">
	<g id="Add_Favorite">
	</g>
	<g id="New_Symbol_17">
	</g>
	<g>
		<polygon points="184.1,158 171.1,150.5 171.1,155.5 25.1,155.5 25.1,57.5 30.9,57.5 23.4,44.5 15.9,57.5 21.1,57.5 21.1,159.5 
			171.1,159.5 171.1,165.5 		"/>
		<path opacity="0.5" d="M48.5,117H37.5c-1.5,0-2.8,1.2-2.8,2.8v24.4c0,1.5,1.2,2.8,2.8,2.8h11.1c1.5,0,2.8-1.2,2.8-2.8v-24.4
			C51.3,118.3,50.1,117,48.5,117z"/>
		<path opacity="0.4" d="M70.7,125.3H59.6c-1.5,0-2.8,1.2-2.8,2.8v16.1c0,1.5,1.2,2.8,2.8,2.8h11.1c1.5,0,2.8-1.2,2.8-2.8v-16.1
			C73.4,126.6,72.2,125.3,70.7,125.3z"/>
		<path opacity="0.54" d="M92.8,109.5H81.7c-1.5,0-2.8,1.1-2.8,2.6v32.2c0,1.4,1.2,2.6,2.8,2.6h11.1c1.5,0,2.8-1.1,2.8-2.6v-32.2
			C95.6,110.7,94.3,109.5,92.8,109.5z"/>
		<path opacity="0.7" d="M114.9,91h-11.1c-1.5,0-2.8,1.2-2.8,2.8v50.4c0,1.5,1.2,2.8,2.8,2.8h11.1c1.5,0,2.8-1.2,2.8-2.8V93.8
			C117.7,92.2,116.5,91,114.9,91z"/>
		<path opacity="0.84" d="M137.1,78.3H126c-1.5,0-2.8,1.1-2.8,2.5v63.6c0,1.4,1.2,2.5,2.8,2.5h11.1c1.5,0,2.8-1.1,2.8-2.5V80.8
			C139.9,79.4,138.6,78.3,137.1,78.3z"/>
		<path d="M159.2,86.9c0.6,0,1.1,0.4,1.1,0.9v56.6c0,0.5-0.5,0.9-1.1,0.9h-11.1c-0.6,0-1.1-0.4-1.1-0.9V87.8c0-0.5,0.5-0.9,1.1-0.9
			H159.2 M159.2,85.3h-11.1c-1.5,0-2.8,1.1-2.8,2.5v56.6c0,1.4,1.2,2.5,2.8,2.5h11.1c1.5,0,2.8-1.1,2.8-2.5V87.8
			C162,86.4,160.8,85.3,159.2,85.3L159.2,85.3z"/>
	</g>
</g>
</svg>
