<svg version="1" xmlns="http://www.w3.org/2000/svg" viewBox="0 0 200 200"><path d="M49.3 92.2c-13.4 0-24.3 10.9-24.3 24.3s10.9 24.3 24.3 24.3 24.3-10.9 24.3-24.3-10.9-24.3-24.3-24.3zm0 44.7c-11.3 0-20.4-9.1-20.4-20.4S38 96.1 49.3 96.1s20.4 9.1 20.4 20.4-9.1 20.4-20.4 20.4z"/><path opacity=".4" d="M49.3 96.1c-11.3 0-20.4 9.1-20.4 20.4s9.1 20.4 20.4 20.4 20.4-9.1 20.4-20.4-9.1-20.4-20.4-20.4zm0 38.6c-10 0-18.2-8.1-18.2-18.2 0-7.2 4.2-13.4 10.3-16.4-5.1 3.2-8.5 8.9-8.5 15.4 0 10 8.1 18.2 18.2 18.2 2.8 0 5.5-.7 7.9-1.8-2.8 1.8-6.2 2.8-9.7 2.8z"/><path d="M126.4 116.5c0 13.4 10.9 24.3 24.3 24.3s24.3-10.9 24.3-24.3-10.9-24.3-24.3-24.3-24.3 10.9-24.3 24.3zm3.9 0c0-11.3 9.1-20.4 20.4-20.4s20.4 9.1 20.4 20.4-9.1 20.4-20.4 20.4-20.4-9.1-20.4-20.4z"/><path opacity=".4" d="M150.7 96.1c-11.3 0-20.4 9.1-20.4 20.4s9.1 20.4 20.4 20.4 20.4-9.1 20.4-20.4-9.1-20.4-20.4-20.4zm0 38.6c-3.6 0-6.9-1-9.7-2.8 2.4 1.2 5.1 1.8 7.9 1.8 10 0 18.2-8.1 18.2-18.2 0-6.5-3.4-12.2-8.5-15.4 6.1 2.9 10.3 9.2 10.3 16.4 0 10.1-8.1 18.2-18.2 18.2z"/><path opacity=".7" d="M72.5 92.1l4.1-17.3c-.7-1.3-3-4.5-8.1-5.5-6.5-1.4-11 2.8-11 2.8L36.7 95.8c3.7-2.2 8-3.5 12.6-3.5 12.5 0 22.7 9.4 24.1 21.5l1.1-12.2c-1.4-1.9-2.3-4.3-2.3-6.9 0-1 .1-1.8.3-2.6zm-21.3-2.4c-2.9-.5-5.3.4-5.3.4l11.7-14.9s2.5-2.1 4.4-2c.1.1-10.8 16.5-10.8 16.5z"/><path opacity=".85" d="M91.9 61.3c-.9-1.2-3.2-2.1-5.2-2.1-1.6 0-3.1.3-4.3 1.2-.9.7-1.5 4.3-1.5 4.3 1.5-1.1 3.4-1.7 5.3-1.7 2.2 0 4.3.8 5.9 2.1 0 .1.2-3.1-.2-3.8zM108.1 61.3c.9-1.2 3.2-2.1 5.2-2.1 1.6 0 3.1.3 4.3 1.2.9.7 1.5 4.3 1.5 4.3-1.5-1.1-3.4-1.7-5.3-1.7-2.2 0-4.3.8-5.9 2.1 0 .1-.2-3.1.2-3.8z"/><path opacity=".85" d="M127.5 92.1l-4.7-20c-.9-4.2-4.6-7.3-9-7.3-3.3 0-6.2 1.7-7.8 4.3v.4c-.1-.7-.6-1-1.3-1h-9.1c-.7 0-1.3.3-1.3 1v-.3c-1.6-2.6-4.5-4.4-7.8-4.4-4.4 0-8.1 3.1-9 7.2l-4.7 20c-.2.8-.3 1.7-.3 2.6 0 6.4 5.2 11.4 11.6 11.4 5.3 0 9.8-3.6 11.2-8.6h10c1.4 5 5.9 8.6 11.2 8.6 6.4 0 11.6-5.1 11.6-11.5-.3-.9-.4-1.6-.6-2.4zm-48.8-8.9c-.8.4-1.6.9-2.2 1.5l3-14.3c1.1-1.6 1.7-1.4 1.7-1.4l-2.5 14.2z"/><path d="M51 133.7c-10 0-18.2-8.1-18.2-18.2 0-6.5 3.4-12.2 8.5-15.4-6.1 2.9-10.3 9.2-10.3 16.4 0 10 8.1 18.2 18.2 18.2 3.6 0 6.9-1 9.7-2.8-2.3 1.2-5 1.8-7.9 1.8z"/><path opacity=".7" d="M126.6 113.7c1.4-12.1 11.7-21.5 24.1-21.5 4.6 0 8.9 1.3 12.6 3.5L142.5 72s-4.5-4.2-11-2.8c-5.1 1.1-7.4 4.2-8.1 5.5l4.1 17.3c.2.8.3 1.7.3 2.6 0 2.6-.8 5-2.3 6.9l1.1 12.2z"/><path d="M149 133.7c10 0 18.2-8.1 18.2-18.2 0-6.5-3.4-12.2-8.5-15.4 6.1 2.9 10.3 9.2 10.3 16.4 0 10-8.1 18.2-18.2 18.2-3.6 0-6.9-1-9.7-2.8 2.3 1.2 5 1.8 7.9 1.8zM51.2 89.7c-2.9-.5-5.3.4-5.3.4l11.7-14.9s2.5-2.1 4.4-2c.1.1-10.8 16.5-10.8 16.5zM76.5 84.7c.7-.6 1.4-1.1 2.2-1.5L81.2 69s-.7-.2-1.7 1.4l-3 14.3z"/></svg>