<?xml version="1.0" encoding="utf-8"?>
<!-- Generator: Adobe Illustrator 18.1.1, SVG Export Plug-In . SVG Version: 6.00 Build 0)  -->
<svg version="1.0" xmlns="http://www.w3.org/2000/svg" xmlns:xlink="http://www.w3.org/1999/xlink" x="0px" y="0px"
	 viewBox="0 0 200 200" enable-background="new 0 0 200 200" xml:space="preserve">
<g id="Layer_1">
</g>
<g id="Layer_2">
	<g id="Add_Favorite">
	</g>
	<g id="New_Symbol_17">
	</g>
	<g>
		<path d="M49.3,92.2c-13.4,0-24.3,10.9-24.3,24.3s10.9,24.3,24.3,24.3c13.4,0,24.3-10.9,24.3-24.3S62.7,92.2,49.3,92.2z
			 M49.3,136.9c-11.3,0-20.4-9.1-20.4-20.4S38,96.1,49.3,96.1s20.4,9.1,20.4,20.4S60.6,136.9,49.3,136.9z"/>
		<path opacity="0.4" d="M49.3,96.1c-11.3,0-20.4,9.1-20.4,20.4s9.1,20.4,20.4,20.4s20.4-9.1,20.4-20.4S60.6,96.1,49.3,96.1z
			 M49.3,134.7c-10,0-18.2-8.1-18.2-18.2c0-7.2,4.2-13.4,10.3-16.4c-5.1,3.2-8.5,8.9-8.5,15.4c0,10,8.1,18.2,18.2,18.2
			c2.8,0,5.5-0.7,7.9-1.8C56.2,133.7,52.8,134.7,49.3,134.7z"/>
		<path d="M126.4,116.5c0,13.4,10.9,24.3,24.3,24.3c13.4,0,24.3-10.9,24.3-24.3s-10.9-24.3-24.3-24.3
			C137.3,92.2,126.4,103.1,126.4,116.5z M130.3,116.5c0-11.3,9.1-20.4,20.4-20.4s20.4,9.1,20.4,20.4s-9.1,20.4-20.4,20.4
			S130.3,127.8,130.3,116.5z"/>
		<path opacity="0.4" d="M150.7,96.1c-11.3,0-20.4,9.1-20.4,20.4s9.1,20.4,20.4,20.4s20.4-9.1,20.4-20.4S162,96.1,150.7,96.1z
			 M150.7,134.7c-3.6,0-6.9-1-9.7-2.8c2.4,1.2,5.1,1.8,7.9,1.8c10,0,18.2-8.1,18.2-18.2c0-6.5-3.4-12.2-8.5-15.4
			c6.1,2.9,10.3,9.2,10.3,16.4C168.9,126.6,160.8,134.7,150.7,134.7z"/>
		<path opacity="0.7" d="M72.5,92.1l4.1-17.3c-0.7-1.3-3-4.5-8.1-5.5c-6.5-1.4-11,2.8-11,2.8L36.7,95.8c3.7-2.2,8-3.5,12.6-3.5
			c12.5,0,22.7,9.4,24.1,21.5l1.1-12.2c-1.4-1.9-2.3-4.3-2.3-6.9C72.2,93.7,72.3,92.9,72.5,92.1z M51.2,89.7
			c-2.9-0.5-5.3,0.4-5.3,0.4l11.7-14.9c0,0,2.5-2.1,4.4-2C62.1,73.3,51.2,89.7,51.2,89.7z"/>
		<path opacity="0.85" d="M91.9,61.3c-0.9-1.2-3.2-2.1-5.2-2.1c-1.6,0-3.1,0.3-4.3,1.2c-0.9,0.7-1.5,4.3-1.5,4.3
			c1.5-1.1,3.4-1.7,5.3-1.7c2.2,0,4.3,0.8,5.9,2.1C92.1,65.2,92.3,62,91.9,61.3z"/>
		<path opacity="0.85" d="M108.1,61.3c0.9-1.2,3.2-2.1,5.2-2.1c1.6,0,3.1,0.3,4.3,1.2c0.9,0.7,1.5,4.3,1.5,4.3
			c-1.5-1.1-3.4-1.7-5.3-1.7c-2.2,0-4.3,0.8-5.9,2.1C107.9,65.2,107.7,62,108.1,61.3z"/>
		<path opacity="0.85" d="M127.5,92.1l-4.7-20c-0.9-4.2-4.6-7.3-9-7.3c-3.3,0-6.2,1.7-7.8,4.3l0,0.4c-0.1-0.7-0.6-1-1.3-1h-9.1
			c-0.7,0-1.3,0.3-1.3,1l0-0.3c-1.6-2.6-4.5-4.4-7.8-4.4c-4.4,0-8.1,3.1-9,7.2l-4.7,20c-0.2,0.8-0.3,1.7-0.3,2.6
			c0,6.4,5.2,11.4,11.6,11.4c5.3,0,9.8-3.6,11.2-8.6h10c1.4,5,5.9,8.6,11.2,8.6c6.4,0,11.6-5.1,11.6-11.5
			C127.8,93.6,127.7,92.9,127.5,92.1z M78.7,83.2c-0.8,0.4-1.6,0.9-2.2,1.5l3-14.3c1.1-1.6,1.7-1.4,1.7-1.4L78.7,83.2z"/>
		<path d="M51,133.7c-10,0-18.2-8.1-18.2-18.2c0-6.5,3.4-12.2,8.5-15.4c-6.1,2.9-10.3,9.2-10.3,16.4c0,10,8.1,18.2,18.2,18.2
			c3.6,0,6.9-1,9.7-2.8C56.6,133.1,53.9,133.7,51,133.7z"/>
		<path opacity="0.7" d="M126.6,113.7c1.4-12.1,11.7-21.5,24.1-21.5c4.6,0,8.9,1.3,12.6,3.5L142.5,72c0,0-4.5-4.2-11-2.8
			c-5.1,1.1-7.4,4.2-8.1,5.5l4.1,17.3c0.2,0.8,0.3,1.7,0.3,2.6c0,2.6-0.8,5-2.3,6.9L126.6,113.7z"/>
		<path d="M149,133.7c10,0,18.2-8.1,18.2-18.2c0-6.5-3.4-12.2-8.5-15.4c6.1,2.9,10.3,9.2,10.3,16.4c0,10-8.1,18.2-18.2,18.2
			c-3.6,0-6.9-1-9.7-2.8C143.4,133.1,146.1,133.7,149,133.7z"/>
		<path d="M51.2,89.7c-2.9-0.5-5.3,0.4-5.3,0.4l11.7-14.9c0,0,2.5-2.1,4.4-2C62.1,73.3,51.2,89.7,51.2,89.7z"/>
		<path d="M76.5,84.7c0.7-0.6,1.4-1.1,2.2-1.5L81.2,69c0,0-0.7-0.2-1.7,1.4L76.5,84.7z"/>
	</g>
</g>
</svg>
