<svg version="1" xmlns="http://www.w3.org/2000/svg" viewBox="0 0 200 200"><path d="M166 137.1v-.3c0-.9-.1-2.2-.1-3.3l-.4-14.6c0-.6 0-2-.3-2.6L108 138.6c-.2.1-.3.2-.5.3-1.1.7-2 2.1-2 3.4v1.9l-.1 16.6c0 1.4 1.1 2.2 2.5 1.6l53.8-21.6 2.1-.9c1.4-.5 2.5-1.6 2.4-2.3v-.3c-.2-.1-.2-.1-.2-.2zM172.4 103.3c-.1-.8-.2-2.7-.3-4.2l-.2-3.9c0-.4-.3-2.1-.5-2.7l-1.9.7c-.1.1-.2.1-.4.2l-58.3 22c-.7.2-1.2.7-1.7 1.3-.6.7-.9 1.6-.9 2.4l-.1 7.8c0 1.5 1.1 2.3 2.6 1.8l55.7-21.7 3.5-1.4c1.4-.4 2.5-1.5 2.5-2.3zM157 87.9v-.1-.7c-.1-.9-.1-2.1-.2-3.2l-.3-7.4c-.1-1.2-.3-2-.7-2.5L97.2 96.1h-.1c-.7.3-1.3.8-1.8 1.5s-.8 1.4-.8 2.2v1l-.1 10.5c.1 1.4 1.2 2 2.5 1.5l56.6-22.1 1.1-.5c1.4-.5 2.5-1.5 2.4-2.3z"/><path opacity=".67" d="M157 87.9c0-.2-.1-.9-.1-.9l.5.3s.7.3 1.4.9c1.1.9.8 2.1-.5 2.7l-60.7 25.2c-1.4.6-3.5.4-4.8-.4L27.8 76c-1.3-.8-2.4-2.6-2.4-4.1L25 60.4c-.1-1.5 1.1-3.1 2.5-3.6l3.8-1.3c1.4-.5 3.7-1.2 5.1-1.7l49.4-15.7c1.4-.5 3.7-.3 5 .3l67.6 32.3c1.3.6 1.3 1.6-.1 2.1L97.1 96.1c-1.4.5-2.5 2.2-2.6 3.7l-.1 11.2c0 1.5 1.1 2.3 2.5 1.7l57.7-22.5c1.4-.5 2.5-1.5 2.4-2.3z"/><path opacity=".75" d="M174.3 103.7c-.7-.6-2-1.1-2-1.1s0 .5.1.8c.1.8-1.1 1.9-2.5 2.4l-59.3 23.1c-1.4.6-2.6-.2-2.6-1.8l.1-7.8c0-1.5 1.2-3.2 2.6-3.8l62.9-23.8c1.4-.5 1.5-1.5.1-2.2l-17.2-8.6.1 3.1c0 .6.1 1.2.1 1.8.3.1.7.3 1.1.6l2.6 2.2c1.1 1 .9 2.2-.4 2.8l-62.5 25.9c-1.4.6-3.5.4-4.8-.4l-53-32.6.2 4.4c.1 1.5 1.2 3.4 2.5 4.2l64.1 39c1.3.8 3.5 1 4.9.4l62.4-25.8c1.4-.7 1.6-1.9.5-2.8z"/><path d="M166.1 137.6c.1.8-1 1.8-2.4 2.4l-55.9 22.5c-1.4.6-2.5-.2-2.5-1.7l.1-18.5c0-1.5 1.2-3.1 2.5-3.7l59.5-23.2c1.4-.5 1.5-1.7.3-2.5l-2.7-1.8-53.7 22.2c-1.4.6-3.6.4-4.9-.4L45.8 96l-8.4 3.1c-1.4.5-2.5 2.2-2.5 3.7l.5 18.7c0 1.5 1.1 3.3 2.4 4.1l64.1 39.7c1.3.8 3.4 1 4.8.4l60.7-25.2c1.4-.6 1.6-1.8.5-2.7-.7-.6-1.9-1-1.9-1s0 .5.1.8z" opacity=".5"/></svg>