<?xml version="1.0" encoding="utf-8"?>
<!-- Generator: Adobe Illustrator 18.1.1, SVG Export Plug-In . SVG Version: 6.00 Build 0)  -->
<svg version="1.0" xmlns="http://www.w3.org/2000/svg" xmlns:xlink="http://www.w3.org/1999/xlink" x="0px" y="0px"
	 viewBox="0 0 200 200" enable-background="new 0 0 200 200" xml:space="preserve">
<g id="Layer_1">
</g>
<g id="Layer_2">
	<g id="Add_Favorite">
	</g>
	<g id="New_Symbol_17">
	</g>
	<g>
		<path d="M166,137.1c0-0.2,0-0.3,0-0.3c0-0.9-0.1-2.2-0.1-3.3l-0.4-14.6c0-0.6,0-2-0.3-2.6l-57.2,22.3c-0.2,0.1-0.3,0.2-0.5,0.3
			c-1.1,0.7-2,2.1-2,3.4l0,1.9l-0.1,16.6c0,1.4,1.1,2.2,2.5,1.6l53.8-21.6l2.1-0.9c1.4-0.5,2.5-1.6,2.4-2.3c0-0.1,0-0.2,0-0.3
			C166,137.2,166,137.2,166,137.1z"/>
		<path d="M172.4,103.3c-0.1-0.8-0.2-2.7-0.3-4.2l-0.2-3.9c0-0.4-0.3-2.1-0.5-2.7l-1.9,0.7c-0.1,0.1-0.2,0.1-0.4,0.2l-58.3,22
			c-0.7,0.2-1.2,0.7-1.7,1.3c-0.6,0.7-0.9,1.6-0.9,2.4l-0.1,7.8c0,1.5,1.1,2.3,2.6,1.8l55.7-21.7l3.5-1.4
			C171.3,105.2,172.4,104.1,172.4,103.3z"/>
		<path d="M157,87.9c0,0,0-0.1,0-0.1c0-0.2,0-0.4,0-0.7c0,0,0,0,0,0v0c-0.1-0.9-0.1-2.1-0.2-3.2l-0.3-7.4c-0.1-1.2-0.3-2-0.7-2.5
			L97.2,96.1l-0.1,0c-0.7,0.3-1.3,0.8-1.8,1.5c-0.5,0.7-0.8,1.4-0.8,2.2l0,1l-0.1,10.5c0.1,1.4,1.2,2,2.5,1.5l56.6-22.1l1.1-0.5
			C156,89.7,157.1,88.7,157,87.9z"/>
		<path opacity="0.67" d="M157,87.9c0-0.2-0.1-0.9-0.1-0.9l0.5,0.3c0,0,0.7,0.3,1.4,0.9c1.1,0.9,0.8,2.1-0.5,2.7l-60.7,25.2
			c-1.4,0.6-3.5,0.4-4.8-0.4L27.8,76c-1.3-0.8-2.4-2.6-2.4-4.1L25,60.4c-0.1-1.5,1.1-3.1,2.5-3.6l3.8-1.3c1.4-0.5,3.7-1.2,5.1-1.7
			l49.4-15.7c1.4-0.5,3.7-0.3,5,0.3l67.6,32.3c1.3,0.6,1.3,1.6-0.1,2.1L97.1,96.1c-1.4,0.5-2.5,2.2-2.6,3.7l-0.1,11.2
			c0,1.5,1.1,2.3,2.5,1.7l57.7-22.5C156,89.7,157.1,88.7,157,87.9z"/>
		<path opacity="0.75" d="M174.3,103.7c-0.7-0.6-2-1.1-2-1.1s0,0.5,0.1,0.8c0.1,0.8-1.1,1.9-2.5,2.4l-59.3,23.1
			c-1.4,0.6-2.6-0.2-2.6-1.8l0.1-7.8c0-1.5,1.2-3.2,2.6-3.8l62.9-23.8c1.4-0.5,1.5-1.5,0.1-2.2l-17.2-8.6l0.1,3.1
			c0,0.6,0.1,1.2,0.1,1.8c0.3,0.1,0.7,0.3,1.1,0.6l2.6,2.2c1.1,1,0.9,2.2-0.4,2.8l-62.5,25.9c-1.4,0.6-3.5,0.4-4.8-0.4L39.7,84.3
			l0.2,4.4c0.1,1.5,1.2,3.4,2.5,4.2l64.1,39c1.3,0.8,3.5,1,4.9,0.4l62.4-25.8C175.2,105.8,175.4,104.6,174.3,103.7z"/>
		<g opacity="0.5">
			<path d="M166.1,137.6c0.1,0.8-1,1.8-2.4,2.4l-55.9,22.5c-1.4,0.6-2.5-0.2-2.5-1.7l0.1-18.5c0-1.5,1.2-3.1,2.5-3.7l59.5-23.2
				c1.4-0.5,1.5-1.7,0.3-2.5l-2.7-1.8l-53.7,22.2c-1.4,0.6-3.6,0.4-4.9-0.4L45.8,96l-8.4,3.1c-1.4,0.5-2.5,2.2-2.5,3.7l0.5,18.7
				c0,1.5,1.1,3.3,2.4,4.1l64.1,39.7c1.3,0.8,3.4,1,4.8,0.4l60.7-25.2c1.4-0.6,1.6-1.8,0.5-2.7c-0.7-0.6-1.9-1-1.9-1
				S166,137.3,166.1,137.6z"/>
		</g>
	</g>
</g>
</svg>
