<?xml version="1.0" encoding="utf-8"?>
<!-- Generator: Adobe Illustrator 18.1.1, SVG Export Plug-In . SVG Version: 6.00 Build 0)  -->
<!DOCTYPE svg PUBLIC "-//W3C//DTD SVG 1.0//EN" "http://www.w3.org/TR/2001/REC-SVG-20010904/DTD/svg10.dtd">
<svg version="1.0" id="Layer_1" xmlns="http://www.w3.org/2000/svg" xmlns:xlink="http://www.w3.org/1999/xlink" x="0px" y="0px"
	 viewBox="0 0 200 200" enable-background="new 0 0 200 200" xml:space="preserve">
<g>
	<rect x="15" y="65.2" opacity="0.4" width="54" height="11.7"/>
	<rect x="15" y="79.4" opacity="0.7" width="11.8" height="11.8"/>
	<rect x="29.2" y="79.4" opacity="0.7" width="11.8" height="11.8"/>
	<rect x="43.3" y="79.4" opacity="0.4" width="11.8" height="11.8"/>
	<rect x="57.5" y="79.4" opacity="0.4" width="11.8" height="11.8"/>
	<rect x="15" y="93.6" opacity="0.7" width="11.8" height="11.8"/>
	<rect x="29.2" y="93.6" opacity="0.4" width="11.8" height="11.8"/>
	<rect x="43.3" y="93.6" opacity="0.4" width="11.8" height="11.8"/>
	<rect x="57.5" y="93.6" opacity="0.4" width="11.8" height="11.8"/>
	<rect x="15" y="121.6" opacity="0.4" width="54" height="11.7"/>
	<path d="M116.5,58.4c-2.7-1.1-5.8-1.9-8.2,0.5c-1,1-2.3,1.8-3.4,1.4c-2.2-0.7-4.3-1.7-6.4-2.5c-1.2-0.5-1.5-2.8-1.2-2.5
		c-2.3,0.7-3.9,3.8-6.2,4.5c-1.2,0.4-3.3-3-4.1-1.8c-1.8,2.8-3,5.3-5.5,2.2l0,0c-1-1.3,0.2-3.8,1.2-2.5c1.5,1.9,3.5-3.9,5.5-3.3
		c0.6,0.2,1,0.9,1.4,1.4c1.5,1.8,3.1-0.4,4.2-1.5c1-1,2-1.8,3.2-2.2c0.4-0.1,0.9,0.3,1,1c0.6,2.2,4.1,2.6,5.4,3.3
		c2.7,1.3,3.3-1,5.8-2.1c5-2.3,11.5,1.5,9.6,0.5L116.5,58.4z"/>
	<path d="M61.2,58.7c-0.4,0.1-1,0.1-1.4-0.3c-1-1.2-1.9-2.2-3.3-2.2c-1.2,0-2.2,2.2-3.3,2.8c-1.9,1.1-2.9-1.7-4.3-2.8
		c-2.4-1.9-1.6,2.1-3.1,2.8c-0.3,0.2-0.7,0-1-0.3c-1.6-2-3.1,0.3-4.4,1.6c-1.1,1.1-1.9,2.1-3.2,1.5c-1.5-0.7-3.2-2.1-4.7-2.2
		c-1.4-0.1-2.5,0.7-3.8,1.4c-0.3,0.2-0.7,0.3-1-0.1c-1.2-1.6-2.2-3.7-3.8-4.4c-1.2-0.5-0.6-3.3,0.7-2.8c1.3,0.6,2.3,1.7,3.2,3.2
		c1.1,1.8,1.8,0.1,3.1-0.2c1.3-0.2,2.6,0,3.8,0.6c0.5,0.3,2.8,2.1,3.3,1.7c1.6-1.4,4.1-5,6.3-4.2c0.7,0.3,0.7,0.4,1,0.7
		c0.2-0.6,0.4-1.1,0.7-1.6c0.9-1.6,2.3-1.6,3.5-0.7c1.7,1.4,2.3,3.6,4.6,1.2c0.6-0.7,1.2-1.2,2-1.2c2.3,0,2.1,1.9,4.2,1.8L61.2,58.7
		z"/>
	<path d="M137.8,55.8c0.4-0.1,1-0.1,1.4,0.3c1,1.2,1.9,2.2,3.3,2.2c1.2,0,2.2-2.2,3.3-2.8c1.9-1.1,2.9,1.7,4.3,2.8
		c2.4,1.9,1.6-2.1,3.1-2.8c0.3-0.2,0.7,0,1,0.3c1.6,2,3.1-0.3,4.4-1.6c1.1-1.1,1.9-2.1,3.2-1.5c1.5,0.7,3.2,2.1,4.7,2.2
		c1.4,0.1,2.5-0.7,3.8-1.4c0.3-0.2,0.7-0.3,1,0.1c1.2,1.6,2.2,3.7,3.8,4.4c1.2,0.5,0.6,3.3-0.7,2.8c-1.3-0.6-2.3-1.7-3.2-3.2
		c-1.1-1.8-1.8-0.1-3.1,0.2c-1.3,0.2-2.6,0-3.8-0.6c-0.5-0.3-2.8-2.1-3.3-1.7c-1.6,1.4-4.1,5-6.3,4.2c-0.7-0.3-0.7-0.4-1-0.7
		c-0.2,0.6-0.4,1.1-0.7,1.6c-0.9,1.6-2.3,1.6-3.5,0.7c-1.7-1.4-2.3-3.6-4.6-1.2c-0.6,0.7-1.2,1.2-2,1.2c-2.3,0-2.1-1.9-4.2-1.8
		L137.8,55.8z"/>
	<rect x="15" y="135.7" opacity="0.4" width="54" height="11.7"/>
	<rect x="15" y="107.7" opacity="0.7" width="11.8" height="11.8"/>
	<rect x="29.2" y="107.7" opacity="0.7" width="11.8" height="11.8"/>
	<rect x="43.3" y="107.7" opacity="0.7" width="11.8" height="11.8"/>
	<rect x="57.5" y="107.7" opacity="0.4" width="11.8" height="11.8"/>
	<rect x="72.8" y="65.2" opacity="0.4" width="54.3" height="11.8"/>
	<rect x="72.8" y="79.4" opacity="0.7" width="11.8" height="11.8"/>
	<rect x="87" y="79.4" opacity="0.7" width="11.8" height="11.8"/>
	<rect x="101.2" y="79.4" opacity="0.7" width="11.8" height="11.8"/>
	<rect x="115.3" y="79.4" opacity="0.7" width="11.8" height="11.8"/>
	<rect x="72.8" y="93.6" opacity="0.7" width="11.8" height="11.8"/>
	<rect x="87" y="93.6" opacity="0.7" width="11.8" height="11.8"/>
	<rect x="101.2" y="93.6" opacity="0.7" width="11.8" height="11.8"/>
	<rect x="115.3" y="93.6" opacity="0.4" width="11.8" height="11.8"/>
	<rect x="72.8" y="121.6" opacity="0.4" width="54.3" height="11.8"/>
	<rect x="72.8" y="135.7" opacity="0.4" width="54.3" height="11.8"/>
	<rect x="72.8" y="107.7" opacity="0.7" width="11.8" height="11.8"/>
	<rect x="87" y="107.7" opacity="0.7" width="11.8" height="11.8"/>
	<rect x="101.2" y="107.7" opacity="0.4" width="11.8" height="11.8"/>
	<rect x="115.3" y="107.7" opacity="0.4" width="11.8" height="11.8"/>
	<rect x="130.7" y="65.2" opacity="0.4" width="54.3" height="11.8"/>
	<rect x="15" y="65.2" width="28.3" height="11.7"/>
	<rect x="72.8" y="65.2" width="42.5" height="11.8"/>
	<rect x="130.7" y="79.4" opacity="0.7" width="11.8" height="11.8"/>
	<rect x="144.9" y="79.4" opacity="0.7" width="11.8" height="11.8"/>
	<rect x="159" y="79.4" opacity="0.7" width="11.8" height="11.8"/>
	<rect x="173.2" y="79.4" opacity="0.4" width="11.8" height="11.8"/>
	<rect x="130.7" y="93.6" opacity="0.7" width="11.8" height="11.8"/>
	<rect x="144.9" y="93.6" opacity="0.7" width="11.8" height="11.8"/>
	<rect x="159" y="93.6" opacity="0.4" width="11.8" height="11.8"/>
	<rect x="173.2" y="93.6" opacity="0.4" width="11.8" height="11.8"/>
	<rect x="130.7" y="121.6" opacity="0.4" width="54.3" height="11.8"/>
	<rect x="130.7" y="135.7" opacity="0.4" width="54.3" height="11.8"/>
	<rect x="130.7" y="107.7" opacity="0.7" width="11.8" height="11.8"/>
	<rect x="144.9" y="107.7" opacity="0.7" width="11.8" height="11.8"/>
	<rect x="159" y="107.7" opacity="0.4" width="11.8" height="11.8"/>
	<rect x="173.2" y="107.7" opacity="0.4" width="11.8" height="11.8"/>
	<rect x="15" y="121.6" width="17.1" height="11.8"/>
	<rect x="15" y="135.7" width="34.2" height="11.7"/>
	<rect x="72.8" y="121.6" width="36.8" height="11.8"/>
	<rect x="72.8" y="135.7" width="24.2" height="11.8"/>
	<rect x="130.7" y="121.6" width="26" height="11.8"/>
	<rect x="130.7" y="135.7" width="40.1" height="11.8"/>
	<rect x="130.7" y="65.2" width="34.2" height="11.8"/>
</g>
</svg>
