<svg version="1" xmlns="http://www.w3.org/2000/svg" viewBox="0 0 200 200"><path opacity=".4" d="M15 65.2h54v11.7H15z"/><path opacity=".7" d="M15 79.4h11.8v11.8H15zM29.2 79.4H41v11.8H29.2z"/><path opacity=".4" d="M43.3 79.4h11.8v11.8H43.3zM57.5 79.4h11.8v11.8H57.5z"/><path opacity=".7" d="M15 93.6h11.8v11.8H15z"/><path opacity=".4" d="M29.2 93.6H41v11.8H29.2zM43.3 93.6h11.8v11.8H43.3zM57.5 93.6h11.8v11.8H57.5zM15 121.6h54v11.7H15z"/><path d="M116.5 58.4c-2.7-1.1-5.8-1.9-8.2.5-1 1-2.3 1.8-3.4 1.4-2.2-.7-4.3-1.7-6.4-2.5-1.2-.5-1.5-2.8-1.2-2.5-2.3.7-3.9 3.8-6.2 4.5-1.2.4-3.3-3-4.1-1.8-1.8 2.8-3 5.3-5.5 2.2-1-1.3.2-3.8 1.2-2.5 1.5 1.9 3.5-3.9 5.5-3.3.6.2 1 .9 1.4 1.4 1.5 1.8 3.1-.4 4.2-1.5 1-1 2-1.8 3.2-2.2.4-.1.9.3 1 1 .6 2.2 4.1 2.6 5.4 3.3 2.7 1.3 3.3-1 5.8-2.1 5-2.3 11.5 1.5 9.6.5l-2.3 3.6zM61.2 58.7c-.4.1-1 .1-1.4-.3-1-1.2-1.9-2.2-3.3-2.2-1.2 0-2.2 2.2-3.3 2.8-1.9 1.1-2.9-1.7-4.3-2.8-2.4-1.9-1.6 2.1-3.1 2.8-.3.2-.7 0-1-.3-1.6-2-3.1.3-4.4 1.6-1.1 1.1-1.9 2.1-3.2 1.5-1.5-.7-3.2-2.1-4.7-2.2-1.4-.1-2.5.7-3.8 1.4-.3.2-.7.3-1-.1-1.2-1.6-2.2-3.7-3.8-4.4-1.2-.5-.6-3.3.7-2.8 1.3.6 2.3 1.7 3.2 3.2 1.1 1.8 1.8.1 3.1-.2 1.3-.2 2.6 0 3.8.6.5.3 2.8 2.1 3.3 1.7 1.6-1.4 4.1-5 6.3-4.2.7.3.7.4 1 .7.2-.6.4-1.1.7-1.6.9-1.6 2.3-1.6 3.5-.7 1.7 1.4 2.3 3.6 4.6 1.2.6-.7 1.2-1.2 2-1.2 2.3 0 2.1 1.9 4.2 1.8l.9 3.7zM137.8 55.8c.4-.1 1-.1 1.4.3 1 1.2 1.9 2.2 3.3 2.2 1.2 0 2.2-2.2 3.3-2.8 1.9-1.1 2.9 1.7 4.3 2.8 2.4 1.9 1.6-2.1 3.1-2.8.3-.2.7 0 1 .3 1.6 2 3.1-.3 4.4-1.6 1.1-1.1 1.9-2.1 3.2-1.5 1.5.7 3.2 2.1 4.7 2.2 1.4.1 2.5-.7 3.8-1.4.3-.2.7-.3 1 .1 1.2 1.6 2.2 3.7 3.8 4.4 1.2.5.6 3.3-.7 2.8-1.3-.6-2.3-1.7-3.2-3.2-1.1-1.8-1.8-.1-3.1.2-1.3.2-2.6 0-3.8-.6-.5-.3-2.8-2.1-3.3-1.7-1.6 1.4-4.1 5-6.3 4.2-.7-.3-.7-.4-1-.7-.2.6-.4 1.1-.7 1.6-.9 1.6-2.3 1.6-3.5.7-1.7-1.4-2.3-3.6-4.6-1.2-.6.7-1.2 1.2-2 1.2-2.3 0-2.1-1.9-4.2-1.8l-.9-3.7z"/><path opacity=".4" d="M15 135.7h54v11.7H15z"/><path opacity=".7" d="M15 107.7h11.8v11.8H15zM29.2 107.7H41v11.8H29.2zM43.3 107.7h11.8v11.8H43.3z"/><path opacity=".4" d="M57.5 107.7h11.8v11.8H57.5zM72.8 65.2h54.3V77H72.8z"/><path opacity=".7" d="M72.8 79.4h11.8v11.8H72.8zM87 79.4h11.8v11.8H87zM101.2 79.4H113v11.8h-11.8zM115.3 79.4h11.8v11.8h-11.8zM72.8 93.6h11.8v11.8H72.8zM87 93.6h11.8v11.8H87zM101.2 93.6H113v11.8h-11.8z"/><path opacity=".4" d="M115.3 93.6h11.8v11.8h-11.8zM72.8 121.6h54.3v11.8H72.8zM72.8 135.7h54.3v11.8H72.8z"/><path opacity=".7" d="M72.8 107.7h11.8v11.8H72.8zM87 107.7h11.8v11.8H87z"/><path opacity=".4" d="M101.2 107.7H113v11.8h-11.8zM115.3 107.7h11.8v11.8h-11.8zM130.7 65.2H185V77h-54.3z"/><path d="M15 65.2h28.3v11.7H15zM72.8 65.2h42.5V77H72.8z"/><path opacity=".7" d="M130.7 79.4h11.8v11.8h-11.8zM144.9 79.4h11.8v11.8h-11.8zM159 79.4h11.8v11.8H159z"/><path opacity=".4" d="M173.2 79.4H185v11.8h-11.8z"/><path opacity=".7" d="M130.7 93.6h11.8v11.8h-11.8zM144.9 93.6h11.8v11.8h-11.8z"/><path opacity=".4" d="M159 93.6h11.8v11.8H159zM173.2 93.6H185v11.8h-11.8zM130.7 121.6H185v11.8h-54.3zM130.7 135.7H185v11.8h-54.3z"/><path opacity=".7" d="M130.7 107.7h11.8v11.8h-11.8zM144.9 107.7h11.8v11.8h-11.8z"/><path opacity=".4" d="M159 107.7h11.8v11.8H159zM173.2 107.7H185v11.8h-11.8z"/><path d="M15 121.6h17.1v11.8H15zM15 135.7h34.2v11.7H15zM72.8 121.6h36.8v11.8H72.8zM72.8 135.7H97v11.8H72.8zM130.7 121.6h26v11.8h-26zM130.7 135.7h40.1v11.8h-40.1zM130.7 65.2h34.2V77h-34.2z"/></svg>