<?xml version="1.0" encoding="utf-8"?>
<!-- Generator: Adobe Illustrator 18.1.1, SVG Export Plug-In . SVG Version: 6.00 Build 0)  -->
<svg version="1.0" xmlns="http://www.w3.org/2000/svg" xmlns:xlink="http://www.w3.org/1999/xlink" x="0px" y="0px"
	 viewBox="0 0 200 200" enable-background="new 0 0 200 200" xml:space="preserve">
<g id="Layer_1">
</g>
<g id="Layer_2">
	<g id="Add_Favorite">
	</g>
	<g id="New_Symbol_17">
	</g>
	<g>
		<path d="M161.9,76.5h-75c-7.9,0-14.8,5.2-14.8,13.1v40.7c0,7.9,6.9,15.2,14.8,15.2h53.6l20.6,17.2v-17.2h0.8
			c7.9,0,13.2-7.3,13.2-15.2V89.6C175.1,81.7,169.8,76.5,161.9,76.5z"/>
		<path opacity="0.5" d="M115.5,47.5h-75c-7.9,0-15.4,5.6-15.4,13.5v40.7c0,7.9,7,15,16,15l0,0v17.4l20.8-16.6h53.6
			c7.9,0,13.6-7.9,13.6-15.8V61C129.1,53.1,123.4,47.5,115.5,47.5z"/>
	</g>
</g>
</svg>
