<?xml version="1.0" encoding="utf-8"?>
<!-- Generator: Adobe Illustrator 18.1.1, SVG Export Plug-In . SVG Version: 6.00 Build 0)  -->
<svg version="1.0" xmlns="http://www.w3.org/2000/svg" xmlns:xlink="http://www.w3.org/1999/xlink" x="0px" y="0px"
	 viewBox="0 0 200 200" enable-background="new 0 0 200 200" xml:space="preserve">
<g id="Layer_1">
</g>
<g id="Layer_2">
	<g id="Add_Favorite">
	</g>
	<g id="New_Symbol_17">
	</g>
	<g>
		<circle opacity="0.85" cx="101.1" cy="59.5" r="5.1"/>
		<path opacity="0.85" d="M99.6,43.4c0,4-3.2,7.2-7.2,7.2c-4,0-7.2-3.2-7.2-7.2c0-4,3.2-7.2,7.2-7.2C96.3,36.2,99.6,39.4,99.6,43.4z
			"/>
		<path opacity="0.85" d="M108.2,28.6c0,2-1.6,3.6-3.6,3.6c-2,0-3.6-1.6-3.6-3.6s1.6-3.6,3.6-3.6C106.6,25,108.2,26.6,108.2,28.6z"
			/>
		<path opacity="0.5" d="M137.4,170.5l-27.3-51.3V78.5h4.5c1.8,0,3.5-1.2,3.5-3v-1c0-1.8-1.7-4-3.5-4H84.7c-1.8,0-3.6,2.1-3.6,4v0.1
			c0,2.4,2.2,4,4.5,4h3.5v40.7l-26.8,51.3c-1,1.9,0.4,4,2.5,4h70C137.1,174.5,138.5,172.5,137.4,170.5z M69.6,168.5l11.7-22.1
			c16.7,3.8,18.9-7.7,34.7-4.5l14.2,26.6H69.6z"/>
		<path d="M116,142.1l14.2,26.4H69.6l11.7-22.3C98,149.9,100.2,138.8,116,142.1z"/>
	</g>
</g>
</svg>
