<svg version="1" xmlns="http://www.w3.org/2000/svg" viewBox="0 0 200 200"><circle opacity=".85" cx="101.1" cy="59.5" r="5.1"/><path opacity=".85" d="M99.6 43.4c0 4-3.2 7.2-7.2 7.2s-7.2-3.2-7.2-7.2 3.2-7.2 7.2-7.2c3.9 0 7.2 3.2 7.2 7.2zM108.2 28.6c0 2-1.6 3.6-3.6 3.6s-3.6-1.6-3.6-3.6 1.6-3.6 3.6-3.6 3.6 1.6 3.6 3.6z"/><path opacity=".5" d="M137.4 170.5l-27.3-51.3V78.5h4.5c1.8 0 3.5-1.2 3.5-3v-1c0-1.8-1.7-4-3.5-4H84.7c-1.8 0-3.6 2.1-3.6 4v.1c0 2.4 2.2 4 4.5 4h3.5v40.7l-26.8 51.3c-1 1.9.4 4 2.5 4h70c2.3-.1 3.7-2.1 2.6-4.1zm-67.8-2l11.7-22.1c16.7 3.8 18.9-7.7 34.7-4.5l14.2 26.6H69.6z"/><path d="M116 142.1l14.2 26.4H69.6l11.7-22.3c16.7 3.7 18.9-7.4 34.7-4.1z"/></svg>