<?xml version="1.0" encoding="utf-8"?>
<!-- Generator: Adobe Illustrator 18.1.1, SVG Export Plug-In . SVG Version: 6.00 Build 0)  -->
<!DOCTYPE svg PUBLIC "-//W3C//DTD SVG 1.0//EN" "http://www.w3.org/TR/2001/REC-SVG-20010904/DTD/svg10.dtd">
<svg version="1.0" id="Layer_1" xmlns="http://www.w3.org/2000/svg" xmlns:xlink="http://www.w3.org/1999/xlink" x="0px" y="0px"
	 viewBox="0 0 200 200" enable-background="new 0 0 200 200" xml:space="preserve">
<g>
	<path opacity="0.35" d="M156.3,46.4c0-3.5-2.9-6.4-6.4-6.4h-6.5h-13.3h-17.8c1.3,1,2.9,1.7,4.4,2c8.4,1.3,12,2.1,13,2.3
		c3.1,0.7,4,2.3,4.6,4.7l0.4,2h4.3h2.7h3.6c1.4,0,2.5,1.1,2.5,2.5l0.5,107.1c0,1.4-1.1,2.4-2.5,2.4H54.2c-1.4,0-2.5-1-2.5-2.4
		L51.1,53.4c0-1.4,1.1-2.4,2.5-2.4h10.7l0.4-2.1c0.5-2.4,1.5-3.9,4.6-4.6c1-0.2,4.6-1,13-2.3c1.5-0.2,3-1,4.2-2H48.8
		c-3.5,0-6.3,2.9-6.3,6.4l0.6,121.9c0,3.5,2.9,6.8,6.4,6.8h101.2c3.5,0,6.3-3.3,6.3-6.8L156.3,46.4z"/>
	<g>
		<path d="M65.2,104.4C65.2,104.4,65.2,104.4,65.2,104.4c-0.5,0-0.9-0.3-1.1-0.6l-1.4-2.5c-0.3-0.6-0.1-1.3,0.5-1.7
			c0.6-0.3,1.3-0.1,1.7,0.5l0.4,1l1.8-2.1H62v7h7v-5.5l-2.7,3.4C66.1,104.2,65.6,104.4,65.2,104.4z"/>
		<path d="M65.2,88.7C65.2,88.7,65.2,88.7,65.2,88.7c-0.5,0-0.9-0.3-1.1-0.6l-1.4-2.5c-0.3-0.6-0.1-1.3,0.5-1.7
			c0.6-0.3,1.3-0.1,1.7,0.5l0.4,0.8L67,83h-5v7h7v-5.1l-2.7,3.4C66.1,88.6,65.6,88.7,65.2,88.7z"/>
		<path d="M65.2,72.3C65.2,72.3,65.2,72.3,65.2,72.3c-0.5,0-0.9-0.3-1.1-0.6l-1.4-2.5c-0.3-0.6-0.1-1.3,0.5-1.7
			c0.6-0.3,1.3-0.1,1.7,0.5l0.4,1.1l1.8-2.1H62v7h7v-5.6l-2.7,3.4C66.1,72.1,65.6,72.3,65.2,72.3z"/>
		<path d="M65.2,120C65.2,120,65.2,120,65.2,120c-0.5,0-0.9-0.3-1.1-0.6l-1.4-2.5c-0.3-0.6-0.1-1.3,0.5-1.7c0.6-0.3,1.3-0.1,1.7,0.5
			l0.4,0.8l1.9-2.5H62v7h7v-4.9l-2.7,3.4C66.1,119.8,65.6,120,65.2,120z"/>
		<rect x="62" y="145" width="7" height="7"/>
		<rect x="62" y="130" width="7" height="6"/>
		<path d="M147.8,53.5c0-1.4-1.2-2.5-2.5-2.5h-3.6H139h-4.3l1.3,6h-6.3H69.4H63l1.3-6H53.7c-1.4,0-2.5,1.1-2.5,2.5l0.5,107.2
			c0,1.4,1.2,2.3,2.5,2.3h91.6c1.4,0,2.5-1,2.5-2.4L147.8,53.5z M71,152c0,1.1-0.9,2-2,2h-7c-1.1,0-2-0.9-2-2v-7c0-1.1,0.9-2,2-2h7
			c1.1,0,2,0.9,2,2V152z M71,136c0,1.1-0.9,2-2,2h-7c-1.1,0-2-0.9-2-2v-6c0-1.1,0.9-2,2-2h7c1.1,0,2,0.9,2,2V136z M72.9,111
			l-1.9,2.9v7.1c0,1.1-0.9,2-2,2h-7c-1.1,0-2-0.9-2-2v-7c0-1.1,0.9-2,2-2h6.5l2.2-2.7c0.4-0.5,1.3-0.6,1.9-0.2
			C73.1,109.6,73.3,110.4,72.9,111z M72.9,95.4L71,98.3v7.7c0,1.1-0.9,2-2,2h-7c-1.1,0-2-0.9-2-2v-7c0-1.1,0.9-2,2-2h6.4l2.3-3.1
			c0.4-0.5,1.3-0.7,1.9-0.3C73.1,94.1,73.3,94.8,72.9,95.4z M72.9,79.8L71,82.7V90c0,1.1-0.9,2-2,2h-7c-1.1,0-2-0.9-2-2v-7
			c0-1.1,0.9-2,2-2h7.3l1.4-2.4c0.4-0.5,1.3-0.8,1.9-0.4C73.1,78.6,73.3,79.2,72.9,79.8z M72.9,63.3L71,66.3V74c0,1.1-0.9,2-2,2h-7
			c-1.1,0-2-0.9-2-2v-7c0-1.1,0.9-2,2-2h6.4l2.2-3c0.4-0.5,1.3-0.7,1.9-0.3C73.1,62.1,73.3,62.8,72.9,63.3z M136.1,150H80.6
			c-1.1,0-2.1-0.9-2.1-2s0.9-2,2.1-2h55.5c1.1,0,2.1,0.9,2.1,2S137.2,150,136.1,150z M136.1,135H80.6c-1.1,0-2.1-0.9-2.1-2
			s0.9-2,2.1-2h55.5c1.1,0,2.1,0.9,2.1,2S137.2,135,136.1,135z M136.1,119H80.6c-1.1,0-2.1-0.9-2.1-2c0-1.1,0.9-2,2.1-2h55.5
			c1.1,0,2.1,0.9,2.1,2C138.1,118.1,137.2,119,136.1,119z M136.1,104H80.6c-1.1,0-2.1-0.9-2.1-2s0.9-2,2.1-2h55.5
			c1.1,0,2.1,0.9,2.1,2S137.2,104,136.1,104z M136.1,88H80.6c-1.1,0-2.1-0.9-2.1-2s0.9-2,2.1-2h55.5c1.1,0,2.1,0.9,2.1,2
			S137.2,88,136.1,88z M136.1,73H80.6c-1.1,0-2.1-0.9-2.1-2c0-1.1,0.9-2,2.1-2h55.5c1.1,0,2.1,0.9,2.1,2
			C138.1,72.1,137.2,73,136.1,73z"/>
	</g>
	<path opacity="0.6" d="M134.3,48.8c-0.5-2.4-1.5-3.8-4.6-4.5c-1-0.2-4.6-1-13-2.4c-3.5-0.6-7.2-4-7.4-6.9c0-0.1,0-0.3,0-0.4
		c0-5.4-4.4-9.7-9.7-9.7c-5.2,0-9.4,4-9.7,9.1l0,0c0,3-3.6,7.4-7.6,8c-8.4,1.3-12,2.1-13,2.4c-3.1,0.7-4,2.2-4.6,4.5L63,56.9h73
		L134.3,48.8z M99.6,39.7c-2.2,0-4.1-1.4-4.8-3.4c0,0,0,0,0,0c-0.1-0.2-0.1-0.3-0.1-0.5c0,0,0-0.1,0-0.1c0-0.1-0.1-0.3-0.1-0.5
		c0,0,0-0.1,0-0.1c0-0.2,0-0.4,0-0.6c0-2.9,2.3-5.2,5.2-5.2c2.9,0,5.2,2.3,5.2,5.2c0,0.2,0,0.4,0,0.6c0,0,0,0.1,0,0.1
		c0,0.2,0,0.3-0.1,0.5c0,0,0,0,0,0c0,0.2-0.1,0.3-0.1,0.5c0,0,0,0,0,0C103.8,38.2,101.9,39.7,99.6,39.7z"/>
</g>
</svg>
