<svg version="1" xmlns="http://www.w3.org/2000/svg" viewBox="0 0 200 200"><path opacity=".35" d="M156.3 46.4c0-3.5-2.9-6.4-6.4-6.4h-37.6c1.3 1 2.9 1.7 4.4 2 8.4 1.3 12 2.1 13 2.3 3.1.7 4 2.3 4.6 4.7l.4 2h10.6c1.4 0 2.5 1.1 2.5 2.5l.5 107.1c0 1.4-1.1 2.4-2.5 2.4H54.2c-1.4 0-2.5-1-2.5-2.4l-.6-107.2c0-1.4 1.1-2.4 2.5-2.4h10.7l.4-2.1c.5-2.4 1.5-3.9 4.6-4.6 1-.2 4.6-1 13-2.3 1.5-.2 3-1 4.2-2H48.8c-3.5 0-6.3 2.9-6.3 6.4l.6 121.9c0 3.5 2.9 6.8 6.4 6.8h101.2c3.5 0 6.3-3.3 6.3-6.8l-.7-121.9z"/><path d="M65.2 104.4c-.5 0-.9-.3-1.1-.6l-1.4-2.5c-.3-.6-.1-1.3.5-1.7.6-.3 1.3-.1 1.7.5l.4 1 1.8-2.1H62v7h7v-5.5l-2.7 3.4c-.2.3-.7.5-1.1.5zM65.2 88.7c-.5 0-.9-.3-1.1-.6l-1.4-2.5c-.3-.6-.1-1.3.5-1.7.6-.3 1.3-.1 1.7.5l.4.8L67 83h-5v7h7v-5.1l-2.7 3.4c-.2.3-.7.4-1.1.4zM65.2 72.3c-.5 0-.9-.3-1.1-.6l-1.4-2.5c-.3-.6-.1-1.3.5-1.7.6-.3 1.3-.1 1.7.5l.4 1.1 1.8-2.1H62v7h7v-5.6l-2.7 3.4c-.2.3-.7.5-1.1.5zM65.2 120c-.5 0-.9-.3-1.1-.6l-1.4-2.5c-.3-.6-.1-1.3.5-1.7.6-.3 1.3-.1 1.7.5l.4.8 1.9-2.5H62v7h7v-4.9l-2.7 3.4c-.2.3-.7.5-1.1.5zM62 145h7v7h-7zM62 130h7v6h-7z"/><path d="M147.8 53.5c0-1.4-1.2-2.5-2.5-2.5H134.7l1.3 6H63l1.3-6H53.7c-1.4 0-2.5 1.1-2.5 2.5l.5 107.2c0 1.4 1.2 2.3 2.5 2.3h91.6c1.4 0 2.5-1 2.5-2.4l-.5-107.1zM71 152c0 1.1-.9 2-2 2h-7c-1.1 0-2-.9-2-2v-7c0-1.1.9-2 2-2h7c1.1 0 2 .9 2 2v7zm0-16c0 1.1-.9 2-2 2h-7c-1.1 0-2-.9-2-2v-6c0-1.1.9-2 2-2h7c1.1 0 2 .9 2 2v6zm1.9-25l-1.9 2.9v7.1c0 1.1-.9 2-2 2h-7c-1.1 0-2-.9-2-2v-7c0-1.1.9-2 2-2h6.5l2.2-2.7c.4-.5 1.3-.6 1.9-.2.5.5.7 1.3.3 1.9zm0-15.6L71 98.3v7.7c0 1.1-.9 2-2 2h-7c-1.1 0-2-.9-2-2v-7c0-1.1.9-2 2-2h6.4l2.3-3.1c.4-.5 1.3-.7 1.9-.3.5.5.7 1.2.3 1.8zm0-15.6L71 82.7V90c0 1.1-.9 2-2 2h-7c-1.1 0-2-.9-2-2v-7c0-1.1.9-2 2-2h7.3l1.4-2.4c.4-.5 1.3-.8 1.9-.4.5.4.7 1 .3 1.6zm0-16.5l-1.9 3V74c0 1.1-.9 2-2 2h-7c-1.1 0-2-.9-2-2v-7c0-1.1.9-2 2-2h6.4l2.2-3c.4-.5 1.3-.7 1.9-.3.6.4.8 1.1.4 1.6zm63.2 86.7H80.6c-1.1 0-2.1-.9-2.1-2s.9-2 2.1-2h55.5c1.1 0 2.1.9 2.1 2s-1 2-2.1 2zm0-15H80.6c-1.1 0-2.1-.9-2.1-2s.9-2 2.1-2h55.5c1.1 0 2.1.9 2.1 2s-1 2-2.1 2zm0-16H80.6c-1.1 0-2.1-.9-2.1-2s.9-2 2.1-2h55.5c1.1 0 2.1.9 2.1 2-.1 1.1-1 2-2.1 2zm0-15H80.6c-1.1 0-2.1-.9-2.1-2s.9-2 2.1-2h55.5c1.1 0 2.1.9 2.1 2s-1 2-2.1 2zm0-16H80.6c-1.1 0-2.1-.9-2.1-2s.9-2 2.1-2h55.5c1.1 0 2.1.9 2.1 2s-1 2-2.1 2zm0-15H80.6c-1.1 0-2.1-.9-2.1-2s.9-2 2.1-2h55.5c1.1 0 2.1.9 2.1 2-.1 1.1-1 2-2.1 2z"/><path opacity=".6" d="M134.3 48.8c-.5-2.4-1.5-3.8-4.6-4.5-1-.2-4.6-1-13-2.4-3.5-.6-7.2-4-7.4-6.9v-.4c0-5.4-4.4-9.7-9.7-9.7-5.2 0-9.4 4-9.7 9.1 0 3-3.6 7.4-7.6 8-8.4 1.3-12 2.1-13 2.4-3.1.7-4 2.2-4.6 4.5l-1.7 8h73l-1.7-8.1zm-34.7-9.1c-2.2 0-4.1-1.4-4.8-3.4-.1-.2-.1-.3-.1-.5v-.1c0-.1-.1-.3-.1-.5v-.1-.6c0-2.9 2.3-5.2 5.2-5.2 2.9 0 5.2 2.3 5.2 5.2v.7c0 .2 0 .3-.1.5 0 .2-.1.3-.1.5-1 2-2.9 3.5-5.2 3.5z"/></svg>