<svg version="1" xmlns="http://www.w3.org/2000/svg" viewBox="0 0 200 200"><path opacity=".5" stroke="#000" stroke-miterlimit="10" d="M148.1 181.5H54.9c-6.4 0-11.6-5.2-11.6-11.6V30.1c0-6.4 5.2-11.6 11.6-11.6h93.2c6.4 0 11.6 5.2 11.6 11.6v139.8c0 6.4-5.2 11.6-11.6 11.6z"/><path d="M40.1 39.5h10M50.1 42.5h-10c-1.9 0-3.5-1.6-3.5-3.5s1.6-3.5 3.5-3.5h10c1.9 0 3.5 1.6 3.5 3.5s-1.5 3.5-3.5 3.5zM40.1 60.5h10M50.1 63.5h-10c-1.9 0-3.5-1.6-3.5-3.5s1.6-3.5 3.5-3.5h10c1.9 0 3.5 1.6 3.5 3.5s-1.5 3.5-3.5 3.5zM40.1 80.5h10M50.1 83.5h-10c-1.9 0-3.5-1.6-3.5-3.5s1.6-3.5 3.5-3.5h10c1.9 0 3.5 1.6 3.5 3.5s-1.5 3.5-3.5 3.5zM40.1 100.5h10M50.1 103.5h-10c-1.9 0-3.5-1.6-3.5-3.5s1.6-3.5 3.5-3.5h10c1.9 0 3.5 1.6 3.5 3.5s-1.5 3.5-3.5 3.5z"/><g><path d="M40.1 120.5h10M50.1 123.5h-10c-1.9 0-3.5-1.6-3.5-3.5s1.6-3.5 3.5-3.5h10c1.9 0 3.5 1.6 3.5 3.5s-1.5 3.5-3.5 3.5z"/></g><g><path d="M40.1 140.5h10M50.1 143.5h-10c-1.9 0-3.5-1.6-3.5-3.5s1.6-3.5 3.5-3.5h10c1.9 0 3.5 1.6 3.5 3.5s-1.5 3.5-3.5 3.5z"/></g><g><path d="M40.1 161.5h10M50.1 164.5h-10c-1.9 0-3.5-1.6-3.5-3.5s1.6-3.5 3.5-3.5h10c1.9 0 3.5 1.6 3.5 3.5s-1.5 3.5-3.5 3.5z"/></g><g><path d="M134.3 114.9c-1.8-2.9-8-4.6-14.1-7.2-6.1-2.5-7.6-3.4-7.6-3.4l-.1-5.8s2.3-1.8 3-7.3c1.4.4 2.9-2.1 3-3.5.1-1.3-.2-4.9-1.9-4.5.1-1.1.3-2.2.4-3.1.1-.7.1-1.3.1-1.9v-1.4c-.1-1.2-.5-2.4-1.1-3.6-.7-1.2-.8-2.8-2-3.8-.8-.6-2.3-.6-3.3-1.1-.9-.4-2.5-1.5-3.5-1.8-.9-.2-1.3.5-2.3.5-1.8 0-3.7-.1-5.2.2-3 .6-3.4 3.6-5.9 3-.9-.2.9 1.4.4 2.1-.4.6-.8 1.3-1 2-.3.8-.5 1.5-.5 2.3-.1 1.3.1 3.7.5 6.4-1.7-.4-2 3.2-1.9 4.5.1 1.3 1.6 3.9 3 3.5.7 5.5 3 7.3 3 7.3l-.1 5.8s-1.5.9-7.6 3.4-12.3 4.3-14.1 7.2c-1.6 2.6-1.2 18.5-1.2 18.5h61c.2.2.7-15.7-1-18.3z"/></g><path fill="none" d="M53.1 32.5h106.6v127.2H53.1z"/></svg>