<?xml version="1.0" encoding="utf-8"?>
<!-- Generator: Adobe Illustrator 18.1.1, SVG Export Plug-In . SVG Version: 6.00 Build 0)  -->
<svg version="1.0" xmlns="http://www.w3.org/2000/svg" xmlns:xlink="http://www.w3.org/1999/xlink" x="0px" y="0px"
	 viewBox="0 0 200 200" enable-background="new 0 0 200 200" xml:space="preserve">
<g id="Layer_1">
</g>
<g id="Layer_2">
	<g id="Add_Favorite">
	</g>
	<g id="New_Symbol_17">
	</g>
	<g>
		<path opacity="0.5" stroke="#000000" stroke-miterlimit="10" d="M148.1,181.5H54.9c-6.4,0-11.6-5.2-11.6-11.6V30.1
			c0-6.4,5.2-11.6,11.6-11.6h93.2c6.4,0,11.6,5.2,11.6,11.6v139.8C159.7,176.3,154.5,181.5,148.1,181.5z"/>
		<g>
			<g>
				<line x1="40.1" y1="39.5" x2="50.1" y2="39.5"/>
				<path d="M50.1,42.5h-10c-1.9,0-3.5-1.6-3.5-3.5s1.6-3.5,3.5-3.5h10c1.9,0,3.5,1.6,3.5,3.5S52.1,42.5,50.1,42.5z"/>
			</g>
			<g>
				<line x1="40.1" y1="60.5" x2="50.1" y2="60.5"/>
				<path d="M50.1,63.5h-10c-1.9,0-3.5-1.6-3.5-3.5s1.6-3.5,3.5-3.5h10c1.9,0,3.5,1.6,3.5,3.5S52.1,63.5,50.1,63.5z"/>
			</g>
			<g>
				<line x1="40.1" y1="80.5" x2="50.1" y2="80.5"/>
				<path d="M50.1,83.5h-10c-1.9,0-3.5-1.6-3.5-3.5s1.6-3.5,3.5-3.5h10c1.9,0,3.5,1.6,3.5,3.5S52.1,83.5,50.1,83.5z"/>
			</g>
			<g>
				<line x1="40.1" y1="100.5" x2="50.1" y2="100.5"/>
				<path d="M50.1,103.5h-10c-1.9,0-3.5-1.6-3.5-3.5s1.6-3.5,3.5-3.5h10c1.9,0,3.5,1.6,3.5,3.5S52.1,103.5,50.1,103.5z"/>
			</g>
			<g>
				<line x1="40.1" y1="120.5" x2="50.1" y2="120.5"/>
				<path d="M50.1,123.5h-10c-1.9,0-3.5-1.6-3.5-3.5s1.6-3.5,3.5-3.5h10c1.9,0,3.5,1.6,3.5,3.5S52.1,123.5,50.1,123.5z"/>
			</g>
			<g>
				<line x1="40.1" y1="140.5" x2="50.1" y2="140.5"/>
				<path d="M50.1,143.5h-10c-1.9,0-3.5-1.6-3.5-3.5s1.6-3.5,3.5-3.5h10c1.9,0,3.5,1.6,3.5,3.5S52.1,143.5,50.1,143.5z"/>
			</g>
			<g>
				<line x1="40.1" y1="161.5" x2="50.1" y2="161.5"/>
				<path d="M50.1,164.5h-10c-1.9,0-3.5-1.6-3.5-3.5s1.6-3.5,3.5-3.5h10c1.9,0,3.5,1.6,3.5,3.5S52.1,164.5,50.1,164.5z"/>
			</g>
		</g>
		<g>
			<path d="M134.3,114.9c-1.8-2.9-8-4.6-14.1-7.2c-6.1-2.5-7.6-3.4-7.6-3.4l-0.1-5.8c0,0,2.3-1.8,3-7.3c1.4,0.4,2.9-2.1,3-3.5
				c0.1-1.3-0.2-4.9-1.9-4.5c0.1-1.1,0.3-2.2,0.4-3.1c0.1-0.7,0.1-1.3,0.1-1.9c0-0.6,0-1,0-1.4c-0.1-1.2-0.5-2.4-1.1-3.6
				c-0.7-1.2-0.8-2.8-2-3.8c-0.8-0.6-2.3-0.6-3.3-1.1c-0.9-0.4-2.5-1.5-3.5-1.8c-0.9-0.2-1.3,0.5-2.3,0.5c-1.8,0-3.7-0.1-5.2,0.2
				c-3,0.6-3.4,3.6-5.9,3c-0.9-0.2,0.9,1.4,0.4,2.1c-0.4,0.6-0.8,1.3-1,2c-0.3,0.8-0.5,1.5-0.5,2.3c-0.1,1.3,0.1,3.7,0.5,6.4
				c-1.7-0.4-2,3.2-1.9,4.5c0.1,1.3,1.6,3.9,3,3.5c0.7,5.5,3,7.3,3,7.3l-0.1,5.8c0,0-1.5,0.9-7.6,3.4c-6.1,2.5-12.3,4.3-14.1,7.2
				c-1.6,2.6-1.2,18.5-1.2,18.5h30.5h30.5C135.5,133.4,136,117.5,134.3,114.9z"/>
		</g>
		<rect x="53.1" y="32.5" fill="none" width="106.6" height="127.2"/>
	</g>
</g>
</svg>
