<svg version="1" xmlns="http://www.w3.org/2000/svg" viewBox="0 0 200 200"><g fill-rule="evenodd" clip-rule="evenodd"><path d="M75.3 91.1c.2-5.5 2.8-8.5 5.4-11.5 0 0 2-2.1 5.1-2.8h.1c-14.2-9.5-26.2-18.7-40.1-28.5-15.5 4.1-24.8 23-19.3 42.2 18.3-2.2 38.2 2.7 48.7 6.6.1-.4-.1-3.8.1-6zM155.7 109.2c3.6-2.3 11.4-2.5 16.9-.9-6.9-7.4-70.1-22.4-70.1-22.4s-.1 0-.1-.1v.1c.2 3.2-2 4.7-2 4.7-2.8 1.9-4.9 7.1-4.5 10.7 0 .3.4 7.2.4 8.2l.1.1 29.3 28c3.9 3.5 8.5 8.2 16.7 10.7 16.9 5.2 32.5-8 32.6-19.9.1-11.7-10.2-18.3-19.3-19.2zm8.1 8.6c-9.7-1.4-18.9 4.5-17.7 12.2-3.9-2.2-5.7-7.3-5.7-7.3 1.4-6.4 14.3-13.8 23.4-4.9zm-10.3 6.2l5.4 5.5c-2.2 3.8-6.3 4.2-8.1 2.3-3.3-3.4.8-7 2.7-7.8zm-1 20.2c-7.8.3-18.3-5.8-14.1-16.8 7.3 11 19.3 12.2 24.4 2.1l-6.4-7c7.1-3.4 12.5.9 13.2 5 1.4 9.5-8.3 16.4-17.1 16.7z"/><path opacity=".4" d="M169.5 127.6c-.7-4.2-6.1-8.4-13.2-5l6.4 7c-5.1 10.1-17.1 8.9-24.4-2.1-4.1 11.1 6.3 17.2 14.1 16.8 8.9-.4 18.6-7.3 17.1-16.7z"/><path opacity=".4" d="M150.8 131.9c1.8 1.9 5.8 1.5 8.1-2.3l-5.4-5.5c-1.9.7-6 4.3-2.7 7.8z"/><path opacity=".4" d="M140.4 122.8s1.9 5.1 5.7 7.3c-1.2-7.8 8-13.6 17.7-12.2-9.1-9-22-1.6-23.4 4.9z"/><path opacity=".6" d="M85.9 76.8c9.4-1.5 16.1 4.7 16.5 9.1.2 3.2-2 4.7-2 4.7-2.8 1.9-4.9 7.1-4.5 10.7 0 .3.5 8.3.5 8.3 2.6 19.9 3.5 42.4-9.5 52-.2-5.5-.8-11.7-2.4-14.5-3.6 3.1-7.3 5-13.9 4.2 9.8-6.6 14.2-22.3 10.3-37.4-10 6-21.9 13.9-38 10.3 3.4-2.3 7.8-3.1 9.6-7.2-3.6-1.3-9.9-3-12.1-7.2 14.8 1.2 27.1-5 35-12.7 0 0-.2-3.7 0-6 .2-5.5 2.8-8.5 5.4-11.5 0 .1 1.9-2 5.1-2.8z"/></g></svg>