<?xml version="1.0" encoding="utf-8"?>
<!-- Generator: Adobe Illustrator 18.1.1, SVG Export Plug-In . SVG Version: 6.00 Build 0)  -->
<svg version="1.0" xmlns="http://www.w3.org/2000/svg" xmlns:xlink="http://www.w3.org/1999/xlink" x="0px" y="0px"
	 viewBox="0 0 200 200" enable-background="new 0 0 200 200" xml:space="preserve">
<g id="Layer_1">
</g>
<g id="Layer_2">
	<g id="Add_Favorite">
	</g>
	<g id="New_Symbol_17">
	</g>
	<g>
		<g>
			<path fill-rule="evenodd" clip-rule="evenodd" d="M75.3,91.1c0.2-5.5,2.8-8.5,5.4-11.5c0,0,2-2.1,5.1-2.8c0,0,0.1,0,0.1,0
				c-14.2-9.5-26.2-18.7-40.1-28.5c-15.5,4.1-24.8,23-19.3,42.2c18.3-2.2,38.2,2.7,48.7,6.6C75.3,96.7,75.1,93.3,75.3,91.1z"/>
			<path fill-rule="evenodd" clip-rule="evenodd" d="M155.7,109.2c3.6-2.3,11.4-2.5,16.9-0.9c-6.9-7.4-70.1-22.4-70.1-22.4
				c0,0-0.1,0-0.1-0.1c0,0,0,0,0,0.1c0.2,3.2-2,4.7-2,4.7c-2.8,1.9-4.9,7.1-4.5,10.7c0,0.3,0.4,7.2,0.4,8.2c0,0,0.1,0.1,0.1,0.1
				l29.3,28c3.9,3.5,8.5,8.2,16.7,10.7c16.9,5.2,32.5-8,32.6-19.9C175.1,116.7,164.8,110.1,155.7,109.2z M163.8,117.8
				c-9.7-1.4-18.9,4.5-17.7,12.2c-3.9-2.2-5.7-7.3-5.7-7.3C141.8,116.3,154.7,108.9,163.8,117.8z M153.5,124l5.4,5.5
				c-2.2,3.8-6.3,4.2-8.1,2.3C147.5,128.4,151.6,124.8,153.5,124z M152.5,144.2c-7.8,0.3-18.3-5.8-14.1-16.8
				c7.3,11,19.3,12.2,24.4,2.1l-6.4-7c7.1-3.4,12.5,0.9,13.2,5C171,137,161.3,143.9,152.5,144.2z"/>
		</g>
		<g>
			<path opacity="0.4" fill-rule="evenodd" clip-rule="evenodd" d="M169.5,127.6c-0.7-4.2-6.1-8.4-13.2-5l6.4,7
				c-5.1,10.1-17.1,8.9-24.4-2.1c-4.1,11.1,6.3,17.2,14.1,16.8C161.3,143.9,171,137,169.5,127.6z"/>
			<path opacity="0.4" fill-rule="evenodd" clip-rule="evenodd" d="M150.8,131.9c1.8,1.9,5.8,1.5,8.1-2.3l-5.4-5.5
				C151.6,124.8,147.5,128.4,150.8,131.9z"/>
			<path opacity="0.4" fill-rule="evenodd" clip-rule="evenodd" d="M140.4,122.8c0,0,1.9,5.1,5.7,7.3c-1.2-7.8,8-13.6,17.7-12.2
				C154.7,108.9,141.8,116.3,140.4,122.8z"/>
		</g>
		<path opacity="0.6" fill-rule="evenodd" clip-rule="evenodd" d="M85.9,76.8c9.4-1.5,16.1,4.7,16.5,9.1c0.2,3.2-2,4.7-2,4.7
			c-2.8,1.9-4.9,7.1-4.5,10.7c0,0.3,0.5,8.3,0.5,8.3c2.6,19.9,3.5,42.4-9.5,52c-0.2-5.5-0.8-11.7-2.4-14.5c-3.6,3.1-7.3,5-13.9,4.2
			c9.8-6.6,14.2-22.3,10.3-37.4c-10,6-21.9,13.9-38,10.3c3.4-2.3,7.8-3.1,9.6-7.2c-3.6-1.3-9.9-3-12.1-7.2c14.8,1.2,27.1-5,35-12.7
			c0,0-0.2-3.7,0-6c0.2-5.5,2.8-8.5,5.4-11.5C80.8,79.7,82.7,77.6,85.9,76.8z"/>
	</g>
</g>
</svg>
