<svg version="1" xmlns="http://www.w3.org/2000/svg" viewBox="0 0 200 200"><path d="M59.4 61.4h15.2V77H59.4z"/><path opacity=".4" d="M142.1 49.6c0-4.5-3.6-8.1-8.1-8.1H51.2c-4.5 0-8.1 3.6-8.1 8.1v117.9c0 4.5 3.6 8.1 8.1 8.1h82.9c4.5 0 8.1-3.6 8.1-8.1V49.6z"/><path opacity=".6" d="M149.3 25.5H66.5c-4.4 0-8.3 3.2-8.3 7.6v8.4h75.4c4.4 0 8.6 2.9 8.6 7.4v110.6h7.1c4.4 0 7.9-3.7 7.9-8.1V33.1c-.1-4.4-3.5-7.6-7.9-7.6z"/><path d="M142.1 49.6c0-4.5-3.6-8.1-8.1-8.1H51.2c-4.5 0-8.1 3.6-8.1 8.1v117.9c0 4.5 3.6 8.1 8.1 8.1h82.9c4.5 0 8.1-3.6 8.1-8.1V49.6zM89 57.5h38.3c1.3 0 2.4.7 2.4 2s-1.1 2-2.4 2H89c-1.3 0-2.4-.7-2.4-2s1.1-2 2.4-2zm0 15h38.3c1.3 0 2.4 1.2 2.4 2.5s-1.1 2.5-2.4 2.5H89c-1.3 0-2.4-1.2-2.4-2.5s1.1-2.5 2.4-2.5zm-8.9 7.7c0 1.3-1 2.3-2.3 2.3H57.4c-1.3 0-2.3-1-2.3-2.3V59.8c0-1.3 1-2.3 2.3-2.3h20.4c1.3 0 2.3 1 2.3 2.3v20.4zm47.2 79.3H56.8c-1.3 0-2.4-1.2-2.4-2.5s1.1-2.5 2.4-2.5h70.6c1.3 0 2.4 1.2 2.4 2.5-.1 1.3-1.1 2.5-2.5 2.5zm0-17H56.8c-1.3 0-2.4-.7-2.4-2s1.1-2 2.4-2h70.6c1.3 0 2.4.7 2.4 2-.1 1.3-1.1 2-2.5 2zm0-16H56.8c-1.3 0-2.4-1.2-2.4-2.5s1.1-2.5 2.4-2.5h70.6c1.3 0 2.4 1.2 2.4 2.5-.1 1.3-1.1 2.5-2.5 2.5zm0-16H56.8c-1.3 0-2.4-.7-2.4-2s1.1-2 2.4-2h70.6c1.3 0 2.4.7 2.4 2-.1 1.3-1.1 2-2.5 2zm0-16H56.8c-1.3 0-2.4-1.2-2.4-2.5s1.1-2.5 2.4-2.5h70.6c1.3 0 2.4 1.2 2.4 2.5-.1 1.3-1.1 2.5-2.5 2.5z"/><path opacity=".84" d="M59.4 61.4h15.2V77H59.4z"/></svg>