<?xml version="1.0" encoding="utf-8"?>
<!-- Generator: Adobe Illustrator 18.1.1, SVG Export Plug-In . SVG Version: 6.00 Build 0)  -->
<svg version="1.0" xmlns="http://www.w3.org/2000/svg" xmlns:xlink="http://www.w3.org/1999/xlink" x="0px" y="0px"
	 viewBox="0 0 200 200" enable-background="new 0 0 200 200" xml:space="preserve">
<g id="Layer_1">
</g>
<g id="Layer_2">
	<g id="Add_Favorite">
	</g>
	<g id="New_Symbol_17">
	</g>
	<g>
		<rect x="59.4" y="61.4" width="15.2" height="15.6"/>
		<path opacity="0.4" d="M142.1,49.6c0-4.5-3.6-8.1-8.1-8.1H51.2c-4.5,0-8.1,3.6-8.1,8.1v117.9c0,4.5,3.6,8.1,8.1,8.1h82.9
			c4.5,0,8.1-3.6,8.1-8.1V49.6z"/>
		<path opacity="0.6" d="M149.3,25.5H66.5c-4.4,0-8.3,3.2-8.3,7.6v8.4h75.4c4.4,0,8.6,2.9,8.6,7.4v110.6h7.1c4.4,0,7.9-3.7,7.9-8.1
			V33.1C157.1,28.7,153.7,25.5,149.3,25.5z"/>
		<path d="M142.1,49.6c0-4.5-3.6-8.1-8.1-8.1H51.2c-4.5,0-8.1,3.6-8.1,8.1v117.9c0,4.5,3.6,8.1,8.1,8.1h82.9c4.5,0,8.1-3.6,8.1-8.1
			V49.6z M89,57.5h38.3c1.3,0,2.4,0.7,2.4,2c0,1.3-1.1,2-2.4,2H89c-1.3,0-2.4-0.7-2.4-2C86.6,58.2,87.7,57.5,89,57.5z M89,72.5h38.3
			c1.3,0,2.4,1.2,2.4,2.5c0,1.3-1.1,2.5-2.4,2.5H89c-1.3,0-2.4-1.2-2.4-2.5C86.6,73.7,87.7,72.5,89,72.5z M80.1,80.2
			c0,1.3-1,2.3-2.3,2.3H57.4c-1.3,0-2.3-1-2.3-2.3V59.8c0-1.3,1-2.3,2.3-2.3h20.4c1.3,0,2.3,1,2.3,2.3V80.2z M127.3,159.5H56.8
			c-1.3,0-2.4-1.2-2.4-2.5c0-1.3,1.1-2.5,2.4-2.5h70.6c1.3,0,2.4,1.2,2.4,2.5C129.7,158.3,128.7,159.5,127.3,159.5z M127.3,142.5
			H56.8c-1.3,0-2.4-0.7-2.4-2c0-1.3,1.1-2,2.4-2h70.6c1.3,0,2.4,0.7,2.4,2C129.7,141.8,128.7,142.5,127.3,142.5z M127.3,126.5H56.8
			c-1.3,0-2.4-1.2-2.4-2.5c0-1.3,1.1-2.5,2.4-2.5h70.6c1.3,0,2.4,1.2,2.4,2.5C129.7,125.3,128.7,126.5,127.3,126.5z M127.3,110.5
			H56.8c-1.3,0-2.4-0.7-2.4-2c0-1.3,1.1-2,2.4-2h70.6c1.3,0,2.4,0.7,2.4,2C129.7,109.8,128.7,110.5,127.3,110.5z M127.3,94.5H56.8
			c-1.3,0-2.4-1.2-2.4-2.5c0-1.3,1.1-2.5,2.4-2.5h70.6c1.3,0,2.4,1.2,2.4,2.5C129.7,93.3,128.7,94.5,127.3,94.5z"/>
		<rect x="59.4" y="61.4" opacity="0.84" width="15.2" height="15.6"/>
	</g>
</g>
</svg>
