<?xml version="1.0" encoding="utf-8"?>
<!-- Generator: Adobe Illustrator 18.1.1, SVG Export Plug-In . SVG Version: 6.00 Build 0)  -->
<svg version="1.0" xmlns="http://www.w3.org/2000/svg" xmlns:xlink="http://www.w3.org/1999/xlink" x="0px" y="0px"
	 viewBox="0 0 200 200" enable-background="new 0 0 200 200" xml:space="preserve">
<g id="Layer_1">
</g>
<g id="Layer_2">
	<g id="Add_Favorite">
	</g>
	<g id="New_Symbol_17">
	</g>
	<g>
		<rect x="25.1" y="101.5" opacity="0.7" width="15" height="15"/>
		<rect x="25.1" y="119.5" opacity="0.7" width="15" height="15"/>
		<rect x="43.1" y="119.5" opacity="0.31" width="15" height="15"/>
		<rect x="61.1" y="83.5" opacity="0.53" width="15" height="15"/>
		<rect x="61.1" y="101.5" opacity="0.53" width="15" height="15"/>
		<rect x="61.1" y="119.5" opacity="0.53" width="15" height="15"/>
		<rect x="79.1" y="101.5" opacity="0.76" width="15" height="15"/>
		<rect x="97.1" y="65.5" opacity="0.4" width="15" height="15"/>
		<rect x="97.1" y="47.5" opacity="0.4" width="15" height="15"/>
		<rect x="115.1" y="65.5" opacity="0.6" width="15" height="15"/>
		<rect x="97.1" y="83.5" opacity="0.4" width="15" height="15"/>
		<polygon points="159.1,84.1 159.1,83.5 158.4,83.5 152.1,73.2 152.1,83.5 115.1,83.5 115.1,101.5 97.1,101.5 97.1,119.5 
			79.1,119.5 79.1,134.5 152.1,134.5 152.1,145.1 158.6,134.5 159.1,134.5 159.1,134.2 175.2,109.1 		"/>
		<rect x="25.1" y="137.5" opacity="0.7" width="15" height="15"/>
		<rect x="43.1" y="137.5" opacity="0.31" width="15" height="15"/>
		<rect x="61.1" y="137.5" opacity="0.53" width="15" height="15"/>
		<rect x="79.1" y="137.5" opacity="0.76" width="15" height="15"/>
		<rect x="97.1" y="137.5" opacity="0.4" width="15" height="15"/>
		<rect x="115.1" y="137.5" opacity="0.6" width="15" height="15"/>
	</g>
</g>
</svg>
