<svg version="1" xmlns="http://www.w3.org/2000/svg" viewBox="0 0 200 200"><path opacity=".7" d="M25.1 101.5h15v15h-15zM25.1 119.5h15v15h-15z"/><path opacity=".31" d="M43.1 119.5h15v15h-15z"/><path opacity=".53" d="M61.1 83.5h15v15h-15zM61.1 101.5h15v15h-15zM61.1 119.5h15v15h-15z"/><path opacity=".76" d="M79.1 101.5h15v15h-15z"/><path opacity=".4" d="M97.1 65.5h15v15h-15zM97.1 47.5h15v15h-15z"/><path opacity=".6" d="M115.1 65.5h15v15h-15z"/><path opacity=".4" d="M97.1 83.5h15v15h-15z"/><path d="M159.1 84.1v-.6h-.7l-6.3-10.3v10.3h-37v18h-18v18h-18v15h73v10.6l6.5-10.6h.5v-.3l16.1-25.1"/><path opacity=".7" d="M25.1 137.5h15v15h-15z"/><path opacity=".31" d="M43.1 137.5h15v15h-15z"/><path opacity=".53" d="M61.1 137.5h15v15h-15z"/><path opacity=".76" d="M79.1 137.5h15v15h-15z"/><path opacity=".4" d="M97.1 137.5h15v15h-15z"/><path opacity=".6" d="M115.1 137.5h15v15h-15z"/></svg>