<?xml version="1.0" encoding="utf-8"?>
<!-- Generator: Adobe Illustrator 18.1.1, SVG Export Plug-In . SVG Version: 6.00 Build 0)  -->
<svg version="1.0" xmlns="http://www.w3.org/2000/svg" xmlns:xlink="http://www.w3.org/1999/xlink" x="0px" y="0px"
	 viewBox="0 0 200 200" enable-background="new 0 0 200 200" xml:space="preserve">
<g id="Layer_1">
</g>
<g id="Layer_2">
	<g id="Add_Favorite">
	</g>
	<g id="New_Symbol_17">
	</g>
	<g>
		<path opacity="0.65" d="M146.1,65.9c1.5,1.2,4.7,3.8,4.7,8.8c0,4.8-2.7,7.1-5.5,9.2c-0.9,0.8-1.8,1.8-1.8,3.2c0,1.4,1,2.2,1.7,2.8
			l2.4,1.8c2.9,2.4,5.5,4.6,5.5,9.1c0,6.1-6,12.3-17.3,12.3c-9.5,0-14.1-4.5-14.1-9.3c0-2.3,1.2-5.6,5.1-7.9c4.1-2.5,9.6-2.8,12.6-3
			c-0.9-1.2-2-2.4-2-4.4c0-1.1,0.3-1.8,0.7-2.5l-2.1,0.1c-7,0-10.9-5.1-10.9-10.2c0-3,1.4-6.3,4.2-8.7c3.8-3.1,8.2-3.6,11.8-3.6
			h13.5l-4.2,2.3H146.1z M141.5,94.8l-1.5-0.1c-0.6,0-4.1,0.1-6.9,1c-1.5,0.5-5.7,2.1-5.7,6.7c0,4.6,4.5,7.9,11.6,7.9
			c6.3,0,9.7-3,9.7-7C148.7,100.1,146.5,98.3,141.5,94.8z M143.4,82.4c1.5-1.5,1.6-3.6,1.6-4.8c0-4.7-2.8-12-8.3-12
			c-1.7,0-3.6,0.8-4.6,2.1c-1.1,1.4-1.5,3.1-1.5,4.8c0,4.4,2.6,11.6,8.2,11.6C140.6,84.3,142.3,83.5,143.4,82.4z"/>
		<path d="M104.7,93.8c-10.4,0-16-8.1-16-15.3c0-8.5,7-15.8,17-15.8c9.6,0,15.7,7.5,15.7,15.3C121.4,85.6,115.4,93.8,104.7,93.8z
			 M113,88.5c1.6-2.1,2-4.7,2-7.2c0-5.7-2.8-16.6-10.9-16.6c-2.2,0-4.3,0.8-5.9,2.2c-2.6,2.3-3,5.1-3,7.9c0,6.4,3.2,17,11.2,17
			C108.8,91.8,111.5,90.6,113,88.5z"/>
		<path opacity="0.5" d="M69.1,93.8c-10.4,0-16-8.1-16-15.3c0-8.5,7.1-15.8,17-15.8c9.6,0,15.7,7.5,15.7,15.3
			C85.8,85.6,79.9,93.8,69.1,93.8z M77.4,88.5c1.6-2.1,2-4.7,2-7.2c0-5.7-2.8-16.6-10.9-16.6c-2.2,0-4.3,0.8-5.9,2.2
			c-2.5,2.3-3,5.1-3,7.9c0,6.4,3.2,17,11.2,17C73.2,91.8,75.8,90.6,77.4,88.5z"/>
		<path opacity="0.65" d="M48.1,92.7l-9.4,2.2c-3.8,0.6-7.3,1.1-10.9,1.1C9.5,96,2.6,82.7,2.6,72.4c0-12.7,9.8-24.4,26.7-24.4
			c3.6,0,7,0.5,10.1,1.4c5,1.4,7.3,3.1,8.7,4.1l-5.5,5.2L40.3,59l1.6-2.6c-2.2-2.2-6.3-6.1-14.1-6.1c-10.4,0-18.3,7.8-18.3,19.3
			c0,12.3,9,23.8,23.4,23.8c4.2,0,6.4-0.8,8.4-1.6V81.2l-10,0.5l5.3-2.8h14l-1.7,1.6l-0.7,1.1l-0.1,3.1V92.7z"/>
		<path opacity="0.75" d="M167,90.9c-2.2-0.2-2.6-0.6-2.6-3.1V87V50.8l0-0.4c0.3-2.3,0.9-2.7,3-3.9h-9.5l-4.9,2.3h5v0v0V87v2.2
			c0,1.3-0.2,1.5-1.8,3.5H168l2.4-1.4C169.3,91.1,168.2,91,167,90.9z"/>
		<path opacity="0.5" d="M193.9,91.5l-2.2,1.2c-2.2,1-4.4,1.2-6.4,1.2c-2.1,0-5.4-0.1-8.7-2.5c-4.6-3.2-6.7-8.8-6.7-13.7
			c0-10.1,8.3-15,15-15c2.3,0,4.8,0.6,6.8,1.8c3.3,2.1,4.1,4.9,4.6,6.4l-15.4,6.2l-5.1,0.4c1.7,8.2,7.3,13,13.5,13
			c3.3,0,5.8-1.2,8-2.3L193.9,91.5z M187.7,72.1c1.2-0.5,1.9-0.8,1.9-1.7c0-2.6-2.9-5.6-6.5-5.6c-2.6,0-7.6,2-7.6,9
			c0,1.1,0.1,2.3,0.2,3.5L187.7,72.1z"/>
		<g>
			<path d="M9.6,128.2l6.9-21.8h2.5l7.3,21.8h-2.7l-2.1-6.6h-7.5l-1.9,6.6H9.6z M14.8,119.2h6.1l-1.9-6c-0.6-1.9-1-3.4-1.3-4.5
				c-0.2,1.4-0.6,2.8-1,4.2L14.8,119.2z"/>
			<path d="M28.8,134.2v-21.9h2v2.1c0.5-0.9,1-1.5,1.6-1.8c0.6-0.4,1.3-0.6,2.1-0.6c1,0,1.9,0.3,2.8,0.9c0.8,0.6,1.5,1.5,2,2.8
				c0.5,1.2,0.8,2.7,0.8,4.5c0,2.7-0.6,4.8-1.7,6.2c-1.1,1.5-2.4,2.2-4,2.2c-0.7,0-1.3-0.2-1.9-0.5c-0.6-0.3-1.1-0.8-1.5-1.5v7.7
				H28.8z M30.8,120.3c0,2,0.3,3.5,1,4.5c0.7,1,1.5,1.5,2.5,1.5c0.9,0,1.7-0.5,2.4-1.5c0.7-1,1.1-2.5,1.1-4.6c0-2.1-0.3-3.6-1-4.6
				c-0.7-1-1.5-1.5-2.5-1.5c-0.9,0-1.7,0.5-2.4,1.6C31.2,116.8,30.8,118.3,30.8,120.3z"/>
			<path d="M43.6,134.2v-21.9h2v2.1c0.5-0.9,1-1.5,1.6-1.8c0.6-0.4,1.3-0.6,2.1-0.6c1,0,1.9,0.3,2.8,0.9c0.8,0.6,1.5,1.5,2,2.8
				c0.5,1.2,0.8,2.7,0.8,4.5c0,2.7-0.6,4.8-1.7,6.2c-1.1,1.5-2.4,2.2-4,2.2c-0.7,0-1.3-0.2-1.9-0.5c-0.6-0.3-1.1-0.8-1.5-1.5v7.7
				H43.6z M45.6,120.3c0,2,0.3,3.5,1,4.5c0.7,1,1.5,1.5,2.5,1.5c0.9,0,1.7-0.5,2.4-1.5c0.7-1,1.1-2.5,1.1-4.6c0-2.1-0.3-3.6-1-4.6
				c-0.7-1-1.5-1.5-2.5-1.5c-0.9,0-1.7,0.5-2.4,1.6C46,116.8,45.6,118.3,45.6,120.3z"/>
			<path d="M57.6,123.4l2.2-0.4c0.1,1.1,0.5,1.9,1.1,2.5c0.6,0.5,1.3,0.8,2.3,0.8c0.9,0,1.7-0.2,2.2-0.7c0.5-0.5,0.8-1.1,0.8-1.8
				c0-0.6-0.2-1.1-0.7-1.5c-0.3-0.2-1.1-0.5-2.2-0.9c-1.7-0.5-2.8-1-3.4-1.3c-0.6-0.4-1-0.9-1.3-1.5c-0.3-0.6-0.5-1.3-0.5-2.1
				c0-1.3,0.4-2.4,1.3-3.3c0.9-0.8,2.1-1.3,3.6-1.3c1,0,1.8,0.2,2.5,0.5c0.7,0.3,1.3,0.8,1.7,1.4c0.4,0.6,0.7,1.4,0.8,2.5l-2.1,0.4
				c-0.2-1.7-1.1-2.6-2.8-2.6c-1,0-1.7,0.2-2.1,0.6c-0.5,0.4-0.7,0.9-0.7,1.5c0,0.6,0.2,1,0.7,1.4c0.3,0.2,1.1,0.5,2.4,0.9
				c1.8,0.6,3,1,3.5,1.4c0.5,0.3,0.9,0.8,1.2,1.4c0.3,0.6,0.4,1.3,0.4,2.1c0,1.5-0.5,2.7-1.4,3.7c-1,0.9-2.3,1.4-3.9,1.4
				C59.9,128.5,58.1,126.8,57.6,123.4z"/>
			<path d="M80.2,128.2v-13.7h-1.9v-2.1h1.9v-1.7c0-1.2,0.1-2.2,0.4-2.8c0.3-0.6,0.7-1.1,1.2-1.4c0.5-0.3,1.2-0.5,2-0.5
				c0.6,0,1.3,0.1,2.1,0.3l-0.3,2.3c-0.5-0.1-0.9-0.1-1.3-0.1c-0.7,0-1.1,0.2-1.4,0.5c-0.3,0.3-0.4,1-0.4,2v1.5H85v2.1h-2.5v13.7
				H80.2z"/>
			<path d="M86.6,120.3c0-2.7,0.6-4.8,1.7-6.2c1.1-1.4,2.6-2.1,4.4-2.1c1.7,0,3.2,0.7,4.3,2.1c1.2,1.4,1.7,3.4,1.7,6
				c0,2.8-0.6,5-1.7,6.3c-1.1,1.4-2.6,2.1-4.4,2.1c-1.7,0-3.2-0.7-4.3-2.1C87.2,125,86.6,123,86.6,120.3z M88.9,120.3
				c0,2,0.4,3.6,1.1,4.6c0.7,1,1.7,1.5,2.8,1.5c1,0,1.9-0.5,2.7-1.5c0.7-1,1.1-2.5,1.1-4.6c0-2-0.4-3.6-1.1-4.6
				c-0.7-1-1.7-1.5-2.8-1.5c-1,0-1.9,0.5-2.7,1.5C89.2,116.7,88.9,118.2,88.9,120.3z"/>
			<path d="M102.2,128.2v-15.8h2v2.4c0.5-1.1,1-1.8,1.4-2.2c0.4-0.4,0.9-0.5,1.4-0.5c0.7,0,1.5,0.3,2.2,0.9l-0.7,2.5
				c-0.5-0.4-1.1-0.6-1.6-0.6c-0.5,0-0.9,0.2-1.3,0.5c-0.4,0.3-0.7,0.8-0.8,1.4c-0.3,1-0.4,2.1-0.4,3.3v8.3H102.2z"/>
			<path d="M9.1,163.1v-21.8h12.9v2.6H11.5v6.7h9.9v2.6h-9.9v7.4h11v2.6H9.1z"/>
			<path d="M34.7,163.1v-2c-0.4,0.8-0.9,1.3-1.5,1.7c-0.6,0.4-1.3,0.6-2,0.6c-1.5,0-2.8-0.7-4-2.2c-1.1-1.4-1.7-3.5-1.7-6.1
				c0-1.8,0.2-3.3,0.7-4.6c0.5-1.2,1.2-2.2,2-2.8c0.8-0.6,1.7-0.9,2.8-0.9c0.7,0,1.4,0.2,2,0.6c0.6,0.4,1.1,0.9,1.5,1.6v-7.8h2.2
				v21.8H34.7z M27.8,155.2c0,2,0.4,3.6,1.1,4.6c0.7,1,1.5,1.5,2.5,1.5c0.9,0,1.7-0.5,2.4-1.4c0.7-1,1-2.4,1-4.3
				c0-2.2-0.3-3.8-1-4.8c-0.7-1-1.5-1.5-2.6-1.5c-0.9,0-1.7,0.5-2.4,1.5C28.1,151.6,27.8,153.1,27.8,155.2z"/>
			<path d="M49.6,163.1v-2.3c-0.5,0.9-1.1,1.6-1.8,2c-0.7,0.4-1.5,0.7-2.3,0.7c-1,0-1.9-0.3-2.6-0.8c-0.7-0.6-1.2-1.2-1.5-2.1
				c-0.2-0.8-0.4-2-0.4-3.5v-9.8h2.2v8.8c0,1.6,0.1,2.7,0.2,3.3c0.2,0.6,0.5,1,0.9,1.3c0.4,0.3,0.9,0.5,1.5,0.5
				c1.1,0,1.9-0.4,2.6-1.3c0.6-0.7,0.9-2.1,0.9-4.1v-8.5h2.2v15.8H49.6z"/>
			<path d="M64.4,157.3l2.2,0.3c-0.2,1.9-0.9,3.3-1.9,4.3c-1,1-2.2,1.5-3.6,1.5c-1.7,0-3.1-0.7-4.2-2.1c-1.1-1.4-1.6-3.5-1.6-6.2
				c0-2.7,0.6-4.8,1.7-6.2c1.1-1.4,2.5-2.1,4.3-2.1c1.3,0,2.5,0.4,3.4,1.2c0.9,0.8,1.5,2.1,1.8,3.8l-2.1,0.4
				c-0.2-1.1-0.6-1.9-1.1-2.4c-0.5-0.5-1.1-0.8-1.9-0.8c-1.1,0-2,0.5-2.7,1.4c-0.7,1-1.1,2.5-1.1,4.6c0,2.2,0.3,3.7,1,4.7
				c0.7,1,1.5,1.4,2.6,1.4c0.8,0,1.5-0.3,2.1-1C63.8,159.7,64.2,158.7,64.4,157.3z"/>
			<path d="M77.7,161.2c-0.7,0.8-1.5,1.3-2.3,1.7c-0.8,0.4-1.6,0.6-2.5,0.6c-1.3,0-2.4-0.4-3.2-1.2c-0.8-0.8-1.2-1.9-1.2-3.3
				c0-0.9,0.2-1.7,0.6-2.4c0.4-0.7,0.9-1.3,1.5-1.7c0.7-0.4,1.6-0.7,3-0.9c1.8-0.3,3.1-0.6,3.9-0.9l0-0.7c0-1.1-0.2-1.8-0.6-2.3
				c-0.5-0.6-1.4-1-2.5-1c-1,0-1.8,0.2-2.3,0.6c-0.5,0.4-0.9,1.2-1.1,2.4l-2.2-0.4c0.3-1.7,0.9-2.9,1.9-3.7c0.9-0.8,2.3-1.2,4-1.2
				c1.4,0,2.4,0.3,3.2,0.8c0.8,0.5,1.3,1.1,1.5,1.9c0.2,0.8,0.3,1.9,0.3,3.3v3.6c0,2.5,0,4.1,0.1,4.7c0.1,0.6,0.3,1.3,0.6,1.9h-2.3
				C77.9,162.6,77.8,161.9,77.7,161.2z M77.5,155.2c-0.8,0.4-2,0.7-3.6,1c-0.9,0.2-1.6,0.3-1.9,0.5c-0.4,0.2-0.7,0.5-0.9,0.9
				c-0.2,0.4-0.3,0.8-0.3,1.3c0,0.8,0.2,1.4,0.7,1.8c0.5,0.5,1.1,0.7,1.9,0.7c0.8,0,1.5-0.2,2.1-0.6c0.6-0.4,1.1-0.9,1.4-1.6
				c0.3-0.7,0.5-1.7,0.5-3V155.2z"/>
			<path d="M88.9,160.7l0.3,2.4c-0.6,0.2-1.2,0.2-1.6,0.2c-0.8,0-1.4-0.2-1.8-0.5c-0.5-0.3-0.8-0.7-1-1.2c-0.2-0.5-0.3-1.6-0.3-3.1
				v-9.1h-1.6v-2.1h1.6v-3.9l2.2-1.6v5.5h2.2v2.1h-2.2v9.2c0,0.9,0.1,1.4,0.2,1.7c0.2,0.4,0.5,0.5,1.1,0.5
				C88.2,160.8,88.5,160.8,88.9,160.7z"/>
			<path d="M91.9,144.4v-3.1h2.2v3.1H91.9z M91.9,163.1v-15.8h2.2v15.8H91.9z"/>
			<path d="M97.5,155.2c0-2.7,0.6-4.8,1.7-6.2c1.1-1.4,2.6-2.1,4.4-2.1c1.7,0,3.2,0.7,4.3,2.1c1.2,1.4,1.7,3.4,1.7,6
				c0,2.8-0.6,5-1.7,6.3c-1.1,1.4-2.6,2.1-4.4,2.1c-1.7,0-3.2-0.7-4.3-2.1C98.1,160,97.5,157.9,97.5,155.2z M99.7,155.2
				c0,2,0.4,3.6,1.1,4.6c0.7,1,1.7,1.5,2.8,1.5c1,0,1.9-0.5,2.7-1.5c0.7-1,1.1-2.5,1.1-4.6c0-2-0.4-3.6-1.1-4.6
				c-0.7-1-1.7-1.5-2.8-1.5c-1,0-1.9,0.5-2.7,1.5C100.1,151.7,99.7,153.2,99.7,155.2z"/>
			<path d="M113.1,163.1v-15.8h2v2.2c0.5-0.9,1.1-1.5,1.7-1.9c0.7-0.4,1.5-0.6,2.4-0.6c0.7,0,1.3,0.1,1.9,0.4
				c0.6,0.3,1.1,0.6,1.4,1.1c0.4,0.4,0.6,1,0.8,1.7c0.2,0.7,0.3,1.8,0.3,3.2v9.7h-2.2v-9.6c0-1.2-0.1-2-0.3-2.5
				c-0.2-0.5-0.5-1-0.9-1.2c-0.4-0.3-0.9-0.4-1.5-0.4c-1.1,0-1.9,0.4-2.5,1.2c-0.6,0.8-0.9,2.1-0.9,4v8.6H113.1z"/>
		</g>
	</g>
</g>
</svg>
