<svg version="1" xmlns="http://www.w3.org/2000/svg" viewBox="0 0 200 200"><path opacity=".65" d="M146.1 65.9c1.5 1.2 4.7 3.8 4.7 8.8 0 4.8-2.7 7.1-5.5 9.2-.9.8-1.8 1.8-1.8 3.2 0 1.4 1 2.2 1.7 2.8l2.4 1.8c2.9 2.4 5.5 4.6 5.5 9.1 0 6.1-6 12.3-17.3 12.3-9.5 0-14.1-4.5-14.1-9.3 0-2.3 1.2-5.6 5.1-7.9 4.1-2.5 9.6-2.8 12.6-3-.9-1.2-2-2.4-2-4.4 0-1.1.3-1.8.7-2.5l-2.1.1c-7 0-10.9-5.1-10.9-10.2 0-3 1.4-6.3 4.2-8.7 3.8-3.1 8.2-3.6 11.8-3.6h13.5l-4.2 2.3h-4.3zm-4.6 28.9l-1.5-.1c-.6 0-4.1.1-6.9 1-1.5.5-5.7 2.1-5.7 6.7s4.5 7.9 11.6 7.9c6.3 0 9.7-3 9.7-7 0-3.2-2.2-5-7.2-8.5zm1.9-12.4c1.5-1.5 1.6-3.6 1.6-4.8 0-4.7-2.8-12-8.3-12-1.7 0-3.6.8-4.6 2.1-1.1 1.4-1.5 3.1-1.5 4.8 0 4.4 2.6 11.6 8.2 11.6 1.8.2 3.5-.6 4.6-1.7z"/><path d="M104.7 93.8c-10.4 0-16-8.1-16-15.3 0-8.5 7-15.8 17-15.8 9.6 0 15.7 7.5 15.7 15.3 0 7.6-6 15.8-16.7 15.8zm8.3-5.3c1.6-2.1 2-4.7 2-7.2 0-5.7-2.8-16.6-10.9-16.6-2.2 0-4.3.8-5.9 2.2-2.6 2.3-3 5.1-3 7.9 0 6.4 3.2 17 11.2 17 2.4 0 5.1-1.2 6.6-3.3z"/><path opacity=".5" d="M69.1 93.8c-10.4 0-16-8.1-16-15.3 0-8.5 7.1-15.8 17-15.8 9.6 0 15.7 7.5 15.7 15.3 0 7.6-5.9 15.8-16.7 15.8zm8.3-5.3c1.6-2.1 2-4.7 2-7.2 0-5.7-2.8-16.6-10.9-16.6-2.2 0-4.3.8-5.9 2.2-2.5 2.3-3 5.1-3 7.9 0 6.4 3.2 17 11.2 17 2.4 0 5-1.2 6.6-3.3z"/><path opacity=".65" d="M48.1 92.7l-9.4 2.2c-3.8.6-7.3 1.1-10.9 1.1C9.5 96 2.6 82.7 2.6 72.4 2.6 59.7 12.4 48 29.3 48c3.6 0 7 .5 10.1 1.4 5 1.4 7.3 3.1 8.7 4.1l-5.5 5.2-2.3.3 1.6-2.6c-2.2-2.2-6.3-6.1-14.1-6.1-10.4 0-18.3 7.8-18.3 19.3 0 12.3 9 23.8 23.4 23.8 4.2 0 6.4-.8 8.4-1.6V81.2l-10 .5 5.3-2.8h14l-1.7 1.6-.7 1.1-.1 3.1v8z"/><path opacity=".75" d="M167 90.9c-2.2-.2-2.6-.6-2.6-3.1V50.4c.3-2.3.9-2.7 3-3.9h-9.5l-4.9 2.3h5V89.2c0 1.3-.2 1.5-1.8 3.5H168l2.4-1.4c-1.1-.2-2.2-.3-3.4-.4z"/><path opacity=".5" d="M193.9 91.5l-2.2 1.2c-2.2 1-4.4 1.2-6.4 1.2-2.1 0-5.4-.1-8.7-2.5-4.6-3.2-6.7-8.8-6.7-13.7 0-10.1 8.3-15 15-15 2.3 0 4.8.6 6.8 1.8 3.3 2.1 4.1 4.9 4.6 6.4l-15.4 6.2-5.1.4c1.7 8.2 7.3 13 13.5 13 3.3 0 5.8-1.2 8-2.3l-3.4 3.3zm-6.2-19.4c1.2-.5 1.9-.8 1.9-1.7 0-2.6-2.9-5.6-6.5-5.6-2.6 0-7.6 2-7.6 9 0 1.1.1 2.3.2 3.5l12-5.2z"/><path d="M9.6 128.2l6.9-21.8H19l7.3 21.8h-2.7l-2.1-6.6H14l-1.9 6.6H9.6zm5.2-9h6.1l-1.9-6c-.6-1.9-1-3.4-1.3-4.5-.2 1.4-.6 2.8-1 4.2l-1.9 6.3zM28.8 134.2v-21.9h2v2.1c.5-.9 1-1.5 1.6-1.8.6-.4 1.3-.6 2.1-.6 1 0 1.9.3 2.8.9.8.6 1.5 1.5 2 2.8.5 1.2.8 2.7.8 4.5 0 2.7-.6 4.8-1.7 6.2-1.1 1.5-2.4 2.2-4 2.2-.7 0-1.3-.2-1.9-.5-.6-.3-1.1-.8-1.5-1.5v7.7h-2.2zm2-13.9c0 2 .3 3.5 1 4.5s1.5 1.5 2.5 1.5c.9 0 1.7-.5 2.4-1.5s1.1-2.5 1.1-4.6c0-2.1-.3-3.6-1-4.6-.7-1-1.5-1.5-2.5-1.5-.9 0-1.7.5-2.4 1.6s-1.1 2.6-1.1 4.6zM43.6 134.2v-21.9h2v2.1c.5-.9 1-1.5 1.6-1.8.6-.4 1.3-.6 2.1-.6 1 0 1.9.3 2.8.9.8.6 1.5 1.5 2 2.8.5 1.2.8 2.7.8 4.5 0 2.7-.6 4.8-1.7 6.2-1.1 1.5-2.4 2.2-4 2.2-.7 0-1.3-.2-1.9-.5-.6-.3-1.1-.8-1.5-1.5v7.7h-2.2zm2-13.9c0 2 .3 3.5 1 4.5s1.5 1.5 2.5 1.5c.9 0 1.7-.5 2.4-1.5s1.1-2.5 1.1-4.6c0-2.1-.3-3.6-1-4.6-.7-1-1.5-1.5-2.5-1.5-.9 0-1.7.5-2.4 1.6s-1.1 2.6-1.1 4.6zM57.6 123.4l2.2-.4c.1 1.1.5 1.9 1.1 2.5.6.5 1.3.8 2.3.8.9 0 1.7-.2 2.2-.7.5-.5.8-1.1.8-1.8 0-.6-.2-1.1-.7-1.5-.3-.2-1.1-.5-2.2-.9-1.7-.5-2.8-1-3.4-1.3-.6-.4-1-.9-1.3-1.5-.3-.6-.5-1.3-.5-2.1 0-1.3.4-2.4 1.3-3.3.9-.8 2.1-1.3 3.6-1.3 1 0 1.8.2 2.5.5s1.3.8 1.7 1.4c.4.6.7 1.4.8 2.5l-2.1.4c-.2-1.7-1.1-2.6-2.8-2.6-1 0-1.7.2-2.1.6-.5.4-.7.9-.7 1.5s.2 1 .7 1.4c.3.2 1.1.5 2.4.9 1.8.6 3 1 3.5 1.4.5.3.9.8 1.2 1.4.3.6.4 1.3.4 2.1 0 1.5-.5 2.7-1.4 3.7-1 .9-2.3 1.4-3.9 1.4-3.3 0-5.1-1.7-5.6-5.1zM80.2 128.2v-13.7h-1.9v-2.1h1.9v-1.7c0-1.2.1-2.2.4-2.8.3-.6.7-1.1 1.2-1.4.5-.3 1.2-.5 2-.5.6 0 1.3.1 2.1.3l-.3 2.3c-.5-.1-.9-.1-1.3-.1-.7 0-1.1.2-1.4.5-.3.3-.4 1-.4 2v1.5H85v2.1h-2.5v13.7h-2.3zM86.6 120.3c0-2.7.6-4.8 1.7-6.2 1.1-1.4 2.6-2.1 4.4-2.1 1.7 0 3.2.7 4.3 2.1 1.2 1.4 1.7 3.4 1.7 6 0 2.8-.6 5-1.7 6.3-1.1 1.4-2.6 2.1-4.4 2.1-1.7 0-3.2-.7-4.3-2.1-1.1-1.4-1.7-3.4-1.7-6.1zm2.3 0c0 2 .4 3.6 1.1 4.6.7 1 1.7 1.5 2.8 1.5 1 0 1.9-.5 2.7-1.5.7-1 1.1-2.5 1.1-4.6 0-2-.4-3.6-1.1-4.6-.7-1-1.7-1.5-2.8-1.5-1 0-1.9.5-2.7 1.5-.8 1-1.1 2.5-1.1 4.6zM102.2 128.2v-15.8h2v2.4c.5-1.1 1-1.8 1.4-2.2.4-.4.9-.5 1.4-.5.7 0 1.5.3 2.2.9l-.7 2.5c-.5-.4-1.1-.6-1.6-.6s-.9.2-1.3.5-.7.8-.8 1.4c-.3 1-.4 2.1-.4 3.3v8.3h-2.2zM9.1 163.1v-21.8H22v2.6H11.5v6.7h9.9v2.6h-9.9v7.4h11v2.6H9.1zM34.7 163.1v-2c-.4.8-.9 1.3-1.5 1.7-.6.4-1.3.6-2 .6-1.5 0-2.8-.7-4-2.2-1.1-1.4-1.7-3.5-1.7-6.1 0-1.8.2-3.3.7-4.6.5-1.2 1.2-2.2 2-2.8.8-.6 1.7-.9 2.8-.9.7 0 1.4.2 2 .6.6.4 1.1.9 1.5 1.6v-7.8h2.2V163h-2zm-6.9-7.9c0 2 .4 3.6 1.1 4.6.7 1 1.5 1.5 2.5 1.5.9 0 1.7-.5 2.4-1.4.7-1 1-2.4 1-4.3 0-2.2-.3-3.8-1-4.8s-1.5-1.5-2.6-1.5c-.9 0-1.7.5-2.4 1.5-.7.8-1 2.3-1 4.4zM49.6 163.1v-2.3c-.5.9-1.1 1.6-1.8 2-.7.4-1.5.7-2.3.7-1 0-1.9-.3-2.6-.8-.7-.6-1.2-1.2-1.5-2.1-.2-.8-.4-2-.4-3.5v-9.8h2.2v8.8c0 1.6.1 2.7.2 3.3.2.6.5 1 .9 1.3.4.3.9.5 1.5.5 1.1 0 1.9-.4 2.6-1.3.6-.7.9-2.1.9-4.1v-8.5h2.2v15.8h-1.9zM64.4 157.3l2.2.3c-.2 1.9-.9 3.3-1.9 4.3-1 1-2.2 1.5-3.6 1.5-1.7 0-3.1-.7-4.2-2.1-1.1-1.4-1.6-3.5-1.6-6.2s.6-4.8 1.7-6.2c1.1-1.4 2.5-2.1 4.3-2.1 1.3 0 2.5.4 3.4 1.2.9.8 1.5 2.1 1.8 3.8l-2.1.4c-.2-1.1-.6-1.9-1.1-2.4-.5-.5-1.1-.8-1.9-.8-1.1 0-2 .5-2.7 1.4-.7 1-1.1 2.5-1.1 4.6 0 2.2.3 3.7 1 4.7s1.5 1.4 2.6 1.4c.8 0 1.5-.3 2.1-1 .5-.4.9-1.4 1.1-2.8zM77.7 161.2c-.7.8-1.5 1.3-2.3 1.7-.8.4-1.6.6-2.5.6-1.3 0-2.4-.4-3.2-1.2-.8-.8-1.2-1.9-1.2-3.3 0-.9.2-1.7.6-2.4.4-.7.9-1.3 1.5-1.7.7-.4 1.6-.7 3-.9 1.8-.3 3.1-.6 3.9-.9v-.7c0-1.1-.2-1.8-.6-2.3-.5-.6-1.4-1-2.5-1-1 0-1.8.2-2.3.6-.5.4-.9 1.2-1.1 2.4l-2.2-.4c.3-1.7.9-2.9 1.9-3.7.9-.8 2.3-1.2 4-1.2 1.4 0 2.4.3 3.2.8.8.5 1.3 1.1 1.5 1.9.2.8.3 1.9.3 3.3v3.6c0 2.5 0 4.1.1 4.7.1.6.3 1.3.6 1.9h-2.3c-.2-.4-.3-1.1-.4-1.8zm-.2-6c-.8.4-2 .7-3.6 1-.9.2-1.6.3-1.9.5-.4.2-.7.5-.9.9-.2.4-.3.8-.3 1.3 0 .8.2 1.4.7 1.8.5.5 1.1.7 1.9.7.8 0 1.5-.2 2.1-.6.6-.4 1.1-.9 1.4-1.6.3-.7.5-1.7.5-3v-1zM88.9 160.7l.3 2.4c-.6.2-1.2.2-1.6.2-.8 0-1.4-.2-1.8-.5-.5-.3-.8-.7-1-1.2-.2-.5-.3-1.6-.3-3.1v-9.1h-1.6v-2.1h1.6v-3.9l2.2-1.6v5.5h2.2v2.1h-2.2v9.2c0 .9.1 1.4.2 1.7.2.4.5.5 1.1.5.2 0 .5 0 .9-.1zM91.9 144.4v-3.1h2.2v3.1h-2.2zm0 18.7v-15.8h2.2v15.8h-2.2zM97.5 155.2c0-2.7.6-4.8 1.7-6.2 1.1-1.4 2.6-2.1 4.4-2.1 1.7 0 3.2.7 4.3 2.1 1.2 1.4 1.7 3.4 1.7 6 0 2.8-.6 5-1.7 6.3-1.1 1.4-2.6 2.1-4.4 2.1-1.7 0-3.2-.7-4.3-2.1-1.1-1.3-1.7-3.4-1.7-6.1zm2.2 0c0 2 .4 3.6 1.1 4.6.7 1 1.7 1.5 2.8 1.5 1 0 1.9-.5 2.7-1.5.7-1 1.1-2.5 1.1-4.6 0-2-.4-3.6-1.1-4.6-.7-1-1.7-1.5-2.8-1.5-1 0-1.9.5-2.7 1.5-.7 1.1-1.1 2.6-1.1 4.6zM113.1 163.1v-15.8h2v2.2c.5-.9 1.1-1.5 1.7-1.9.7-.4 1.5-.6 2.4-.6.7 0 1.3.1 1.9.4.6.3 1.1.6 1.4 1.1.4.4.6 1 .8 1.7.2.7.3 1.8.3 3.2v9.7h-2.2v-9.6c0-1.2-.1-2-.3-2.5-.2-.5-.5-1-.9-1.2-.4-.3-.9-.4-1.5-.4-1.1 0-1.9.4-2.5 1.2-.6.8-.9 2.1-.9 4v8.6h-2.2z"/></svg>