<?xml version="1.0" encoding="utf-8"?>
<!-- Generator: Adobe Illustrator 18.1.1, SVG Export Plug-In . SVG Version: 6.00 Build 0)  -->
<svg version="1.0" xmlns="http://www.w3.org/2000/svg" xmlns:xlink="http://www.w3.org/1999/xlink" x="0px" y="0px"
	 viewBox="0 0 200 200" enable-background="new 0 0 200 200" xml:space="preserve">
<g id="Layer_1">
</g>
<g id="Layer_2">
	<g id="Add_Favorite">
	</g>
	<g id="New_Symbol_17">
	</g>
	<g>
		<g>
			<path opacity="0.5" d="M161.1,34.5h-122c-7.7,0-14,6.3-14,14v104c0,7.7,6.3,14,14,14h56l40-40h40v-78
				C175.1,40.8,168.9,34.5,161.1,34.5z M56.3,58.8c-3.7,0-6.8-3-6.8-6.8c0-3.7,3-6.8,6.8-6.8s6.8,3,6.8,6.8
				C63,55.7,60,58.8,56.3,58.8z M143.8,58.8c-3.7,0-6.8-3-6.8-6.8c0-3.7,3-6.8,6.8-6.8s6.8,3,6.8,6.8
				C150.5,55.7,147.5,58.8,143.8,58.8z"/>
		</g>
		<g>
			<path d="M77.3,99.3c1.8,0.1,3.5-0.1,5.3-0.4c1.8-0.3,3.3-0.9,4.7-1.7c1.4-0.8,2.5-1.9,3.4-3.3c0.9-1.4,1.3-3.1,1.3-5.1
				c0-2.8-1-5.1-2.9-6.8c-1.9-1.7-4.4-2.6-7.4-2.6c-1.9,0-3.5,0.4-4.9,1.1c-1.4,0.8-2.5,1.8-3.5,3.1c-0.9,1.3-1.6,2.7-2,4.3
				c-0.4,1.6-0.6,3.3-0.6,5H59.9c0.1-3.2,0.7-6.2,1.8-8.9c1.1-2.7,2.5-5.1,4.4-7.1c1.9-2,4.1-3.6,6.8-4.7c2.6-1.1,5.6-1.7,9-1.7
				c2.6,0,5.1,0.4,7.6,1.1c2.5,0.8,4.7,1.9,6.7,3.3c2,1.5,3.6,3.3,4.8,5.5c1.2,2.2,1.8,4.8,1.8,7.7c0,3.3-0.8,6.3-2.3,8.7
				c-1.5,2.5-3.9,4.3-7.1,5.4v0.2c3.8,0.8,6.7,2.6,8.8,5.6c2.1,3,3.2,6.6,3.2,10.9c0,3.2-0.6,6-1.9,8.5c-1.3,2.5-3,4.6-5.1,6.3
				c-2.1,1.7-4.6,3.1-7.5,4s-5.8,1.4-9,1.4c-3.8,0-7.2-0.6-10.1-1.7c-2.9-1.1-5.3-2.7-7.2-4.7c-1.9-2-3.4-4.4-4.4-7.3
				c-1-2.8-1.5-6-1.6-9.5h10.8c-0.1,4,0.9,7.4,3,10.1c2.1,2.7,5.3,4,9.5,4c3.6,0,6.6-1,9-3.1c2.4-2,3.6-5,3.6-8.7
				c0-2.6-0.5-4.6-1.5-6.1c-1-1.5-2.3-2.7-4-3.5c-1.6-0.8-3.5-1.3-5.5-1.5c-2-0.2-4.1-0.3-6.3-0.2V99.3z"/>
			<path d="M132.6,71.5c-0.4,2-1.2,3.9-2.4,5.3c-1.2,1.4-2.7,2.6-4.4,3.5c-1.7,0.9-3.7,1.6-5.9,1.9c-2.2,0.4-4.7,0.6-6.7,0.6v8.6h16
				v41l6-6h6v-55H132.6z"/>
		</g>
		<g>
			<polygon opacity="0.35" points="95.1,166.5 135.1,126.5 135.1,166.5 			"/>
			<polygon opacity="0.7" points="175.1,126.5 135.1,166.5 135.1,126.5 			"/>
		</g>
	</g>
</g>
</svg>
