<svg version="1" xmlns="http://www.w3.org/2000/svg" viewBox="0 0 200 200"><path opacity=".5" d="M161.1 34.5h-122c-7.7 0-14 6.3-14 14v104c0 7.7 6.3 14 14 14h56l40-40h40v-78c0-7.7-6.2-14-14-14zM56.3 58.8c-3.7 0-6.8-3-6.8-6.8 0-3.7 3-6.8 6.8-6.8s6.8 3 6.8 6.8c-.1 3.7-3.1 6.8-6.8 6.8zm87.5 0c-3.7 0-6.8-3-6.8-6.8 0-3.7 3-6.8 6.8-6.8s6.8 3 6.8 6.8c-.1 3.7-3.1 6.8-6.8 6.8z"/><path d="M77.3 99.3c1.8.1 3.5-.1 5.3-.4 1.8-.3 3.3-.9 4.7-1.7 1.4-.8 2.5-1.9 3.4-3.3.9-1.4 1.3-3.1 1.3-5.1 0-2.8-1-5.1-2.9-6.8-1.9-1.7-4.4-2.6-7.4-2.6-1.9 0-3.5.4-4.9 1.1-1.4.8-2.5 1.8-3.5 3.1-.9 1.3-1.6 2.7-2 4.3-.4 1.6-.6 3.3-.6 5H59.9c.1-3.2.7-6.2 1.8-8.9s2.5-5.1 4.4-7.1c1.9-2 4.1-3.6 6.8-4.7 2.6-1.1 5.6-1.7 9-1.7 2.6 0 5.1.4 7.6 1.1 2.5.8 4.7 1.9 6.7 3.3 2 1.5 3.6 3.3 4.8 5.5 1.2 2.2 1.8 4.8 1.8 7.7 0 3.3-.8 6.3-2.3 8.7-1.5 2.5-3.9 4.3-7.1 5.4v.2c3.8.8 6.7 2.6 8.8 5.6 2.1 3 3.2 6.6 3.2 10.9 0 3.2-.6 6-1.9 8.5-1.3 2.5-3 4.6-5.1 6.3-2.1 1.7-4.6 3.1-7.5 4s-5.8 1.4-9 1.4c-3.8 0-7.2-.6-10.1-1.7-2.9-1.1-5.3-2.7-7.2-4.7-1.9-2-3.4-4.4-4.4-7.3-1-2.8-1.5-6-1.6-9.5h10.8c-.1 4 .9 7.4 3 10.1 2.1 2.7 5.3 4 9.5 4 3.6 0 6.6-1 9-3.1 2.4-2 3.6-5 3.6-8.7 0-2.6-.5-4.6-1.5-6.1s-2.3-2.7-4-3.5c-1.6-.8-3.5-1.3-5.5-1.5-2-.2-4.1-.3-6.3-.2v-7.6zM132.6 71.5c-.4 2-1.2 3.9-2.4 5.3s-2.7 2.6-4.4 3.5c-1.7.9-3.7 1.6-5.9 1.9-2.2.4-4.7.6-6.7.6v8.6h16v41l6-6h6v-55h-8.6z"/><g><path opacity=".35" d="M95.1 166.5l40-40v40"/><path opacity=".7" d="M175.1 126.5l-40 40v-40"/></g></svg>