<svg xmlns="http://www.w3.org/2000/svg" viewBox="0 0 50 50" width="200" height="200"><path d="M6 5C3.793 5 2 6.793 2 9v32c0 2.207 1.793 4 4 4h38c2.207 0 4-1.793 4-4V9c0-2.207-1.793-4-4-4zm1 4h36c.555 0 1 .45 1 1v30c0 .555-.445 1-1 1H7c-.55 0-1-.445-1-1V10c0-.55.45-1 1-1zm1 2v28h21v-2h9v2h4V11zm17 7c1.656 0 3 1.344 3 3s-1.344 3-3 3-3-1.344-3-3 1.344-3 3-3zm-8 4c1.105 0 2 .895 2 2s-.895 2-2 2-2-.895-2-2 .895-2 2-2zm16 0c1.105 0 2 .895 2 2s-.895 2-2 2-2-.895-2-2 .895-2 2-2zm-8 5c2.125 0 3.94.89 5 1.563V32H20v-3.438c1.06-.67 2.875-1.562 5-1.562zm-8 1.656c.348 0 .68.063 1 .125V32h-5v-1.813s1.742-1.53 4-1.53zm16 0c2.258 0 4 1.532 4 1.532V32h-5v-3.22c.32-.06.652-.124 1-.124z"/></svg>