<?xml version="1.0" encoding="utf-8"?>
<!-- Generator: Adobe Illustrator 18.1.1, SVG Export Plug-In . SVG Version: 6.00 Build 0)  -->
<svg version="1.0" xmlns="http://www.w3.org/2000/svg" xmlns:xlink="http://www.w3.org/1999/xlink" x="0px" y="0px"
	 viewBox="0 0 200 200" enable-background="new 0 0 200 200" xml:space="preserve">
<g id="Layer_1">
</g>
<g id="Layer_2">
	<g id="Add_Favorite">
	</g>
	<g id="New_Symbol_17">
	</g>
	<g>
		<g>
			<path d="M163,121c0.7-1.4,1.1-2.9,1.5-4.4c0.3-1.5,0.5-3,0.5-4.6c3.5-1.2,6.8-2.9,10-5.2c-0.5-2.6-1.2-5.1-2.3-7.5
				c-4-0.5-7.9-0.2-11.6,0.7c-0.9-1.3-1.9-2.4-3-3.5c-1.1-1.1-2.4-1.9-3.7-2.7c0.7-3.6,0.9-7.4,0.4-11.2c-2.5-0.9-5-1.5-7.6-1.8
				c-2.4,3.2-4.2,6.8-5.2,10.3c-1.5,0.2-3.1,0.4-4.5,0.9c-1.5,0.5-2.9,1.1-4.2,1.9c-2.8-2.5-6-4.5-9.5-6c-2,1.7-3.8,3.6-5.4,5.7
				c1.6,3.7,3.8,7,6.3,9.7c-0.7,1.4-1.1,2.9-1.5,4.4c-0.3,1.5-0.5,3-0.5,4.6c-3.5,1.2-6.8,2.9-10,5.2c0.5,2.6,1.2,5.1,2.3,7.5
				c4,0.5,7.9,0.2,11.5-0.7c0.9,1.3,1.9,2.4,3,3.5c1.1,1.1,2.4,1.9,3.7,2.7c-0.7,3.6-0.9,7.4-0.4,11.2c2.5,0.9,5,1.5,7.6,1.8
				c2.4-3.2,4.2-6.8,5.2-10.3c1.5-0.2,3.1-0.4,4.5-0.9c1.5-0.5,2.9-1.1,4.2-1.9c2.8,2.5,6,4.5,9.5,6c2-1.7,3.8-3.6,5.4-5.7
				C167.8,127,165.6,123.7,163,121z M152.7,114c-0.7,3.1-3,5.7-6.1,6.6c-3,1-6.5,0.2-8.8-1.9c-2.4-2.1-3.4-5.5-2.7-8.6
				c0.7-3.1,3-5.7,6.1-6.6c2.9-1,6.5-0.2,8.7,1.9C152.3,107.6,153.3,111,152.7,114z"/>
		</g>
		<g opacity="0.5">
			<path d="M50.5,107.2c1.2,0.1,2.4,0.3,3.5,0.3c0.3,1.1,0.7,2.2,1.1,3.3c0.4,1.1,0.9,2.2,1.4,3.2c-2.2,2-4.3,4.1-6.3,6.4
				c0.8,1.4,1.6,2.8,2.4,4.1c3-0.5,6-1.2,8.9-2.1c0.7,0.9,1.4,1.8,2.2,2.7c0.8,0.9,1.6,1.7,2.4,2.5c-1.3,2.6-2.5,5.4-3.5,8.2
				c1.2,1,2.5,2,3.8,2.9c2.7-1.6,5.1-3.3,7.5-5.2c1,0.6,2,1.2,3.1,1.7c0.1,0,0.1,0.1,0.2,0.1c1.7-3,2.6-6.4,2.6-9.8
				c-2.9-1.7-5.6-3.8-8-6.3l5.3-4c-0.5-0.8-1-1.6-1.5-2.3c-1.2-1.5-2.5-2.9-4-4l-4.8,3.6c-1-1.7-1.9-3.5-2.6-5.4
				c-0.2-0.6-0.4-1.2-0.6-1.8C59.3,104.6,54.6,105.1,50.5,107.2z"/>
			<path d="M143,100c2.9-0.6,5.8-1.3,8.7-2.2c0.1-1.6,0.1-3.2,0.1-4.8c-2.8-1.2-5.8-2.1-8.7-2.9c-0.1-1.2-0.3-2.3-0.5-3.5
				c-0.2-1.2-0.5-2.3-0.7-3.4c2.5-1.6,4.9-3.3,7.3-5.2c-0.5-1.5-1-3-1.7-4.4c-3.1,0-6.1,0.1-9.1,0.5c-0.5-1-1.1-2.1-1.7-3.1
				c-0.6-1-1.3-2-1.9-2.9c1.8-2.4,3.5-4.9,5-7.5c-1-1.2-2.1-2.4-3.2-3.6c-2.9,1.1-5.7,2.3-8.4,3.7c-0.9-0.8-1.8-1.5-2.7-2.3
				c-0.9-0.7-1.9-1.4-2.9-2c0.8-2.9,1.4-5.8,1.9-8.8c-1.4-0.8-2.8-1.5-4.2-2.2c-2.3,2.1-4.5,4.2-6.4,6.5c-1.1-0.4-2.2-0.8-3.3-1.1
				c-1.1-0.3-2.3-0.6-3.4-0.9c-0.3-3-0.7-5.9-1.3-8.9c-1.6-0.2-3.1-0.4-4.7-0.5c-1.4,2.7-2.6,5.6-3.7,8.4c-1.2,0-2.3,0-3.5,0.2
				c-1.2,0.1-2.3,0.3-3.5,0.4c-1.3-2.6-2.8-5.3-4.5-7.8c-1.5,0.3-3.1,0.8-4.6,1.2c-0.3,3.1-0.4,6.1-0.4,9.1
				c-1.1,0.4-2.2,0.9-3.2,1.4c-1,0.5-2.1,1.1-3.1,1.7c-2.2-2-4.5-3.9-7-5.6c-1.3,0.9-2.6,1.8-3.8,2.8c0.8,3,1.8,5.9,2.9,8.7
				c-0.9,0.8-1.7,1.6-2.5,2.5c-0.8,0.9-1.6,1.8-2.3,2.7c-2.8-1.1-5.6-2-8.5-2.7c-0.9,1.3-1.8,2.6-2.6,4c1.9,2.5,3.8,4.8,5.9,7
				c-0.5,1-1,2.1-1.4,3.2c-0.4,1.1-0.8,2.2-1.2,3.3c-3,0-5.9,0.2-9,0.5c-0.4,1.5-0.7,3.1-0.9,4.7c2.6,1.7,5.3,3.1,8,4.4
				c-0.1,1.2-0.2,2.3-0.2,3.5c0,0.8,0,1.6,0,2.4c0.2-0.1,0.5-0.1,0.8-0.2c1-0.2,2.1-0.5,3.2-0.5c0.4-1.8,0.9-3.6,1.5-5.4
				c1.5-0.1,3.1,0,4.6,0.1c0.2-2,0.6-3.9,1.2-5.8l16,6.8c-0.3,1.7-0.4,3.5-0.2,5.3c1.2,0.9,2.4,1.8,3.5,2.8
				c-0.7,1.8-1.4,3.5-2.3,5.1c0.7,0.8,1.4,1.6,2.1,2.4c0.6,0.9,1.2,1.7,1.8,2.6c0,0,0,0,0.1,0l1.2-0.9c0.2,0.2,0.5,0.4,0.7,0.6
				c1.1-0.2,2.3-0.4,3.5-0.5c0.5,1,1,2.1,1.4,3.2c1.3,0.5,2.7,0.8,4.1,1l2.1,17.2c-1.2,0-2.4-0.1-3.5-0.2c-0.2,0-0.4-0.1-0.7-0.1
				c-0.3,1.9-0.8,3.7-1.3,5.6c-1.9,0.1-3.8,0.1-5.6,0.1c-0.4,1-0.9,2-1.3,2.9c-0.5,1-1.1,1.8-1.7,2.7c0.9,1.2,1.7,2.4,2.5,3.7
				c1.3-1.8,2.5-3.7,3.6-5.6c1.2,0.2,2.3,0.4,3.5,0.5c1.2,0.1,2.3,0.2,3.5,0.2c0.8,2.8,1.8,5.7,3,8.5c1.6,0,3.2-0.2,4.7-0.4
				c0.9-3,1.6-5.9,2-8.9c1.2-0.2,2.3-0.5,3.4-0.8c1.1-0.3,2.3-0.7,3.4-1.1c1.8,2.4,3.7,4.6,5.8,6.8c1.4-0.6,2.9-1.3,4.3-2.1
				c-0.2-3.1-0.7-6.1-1.3-9c1-0.6,2-1.3,2.9-2c1-0.7,1.8-1.4,2.7-2.2c2.5,1.5,5.2,3,7.9,4.3c1.1-1.1,2.2-2.3,3.3-3.5
				c-1.4-2.8-2.8-5.4-4.5-8c0.7-0.9,1.4-1.9,2-2.9c0.6-1,1.2-2,1.8-3c2.9,0.5,5.9,0.9,8.9,1.1c0.6-1.4,1.2-2.9,1.8-4.4
				c-2.3-2.1-4.6-4-7.1-5.8c0.3-1.1,0.6-2.3,0.8-3.4C142.6,102.4,142.9,101.2,143,100z M107.8,60.5c4.2,1.2,8.2,3.3,11.7,6
				c1.4,1.1,2.7,2.3,3.9,3.5l-14.1,10.7c-2.7-2.2-6.1-3.7-9.7-4.1l-2.2-17.5C100.9,59,104.4,59.5,107.8,60.5z M82.8,84l-16.1-6.8
				c1.4-2.4,3-4.7,4.9-6.7c3-3.2,6.6-5.9,10.5-7.8c2.2-1.1,4.5-1.9,6.8-2.5l2.2,17.5C87.7,78.9,84.9,81.2,82.8,84z M102.4,102.4
				c-1.3,0.7-2.4,1.2-3.7,1.3c-0.1,0-0.1,0-0.2,0c-0.3,0-0.6,0-0.8,0.1c-0.1,0-0.2,0-0.4,0c-0.2,0-0.5,0-0.7-0.1c-0.1,0-0.1,0-0.2,0
				c-0.3,0-0.5-0.1-0.8-0.1c-0.7-0.2-1.3-0.4-1.9-0.7c-0.3-0.2-0.6-0.3-0.9-0.5c0,0,0,0,0,0c-0.3-0.2-0.5-0.4-0.8-0.6
				c-0.1-0.1-0.1-0.1-0.2-0.2c-0.2-0.2-0.4-0.3-0.6-0.5c-0.1-0.1-0.1-0.1-0.2-0.2c-0.2-0.2-0.4-0.4-0.5-0.6c0,0-0.1-0.1-0.1-0.1
				c-0.2-0.3-0.4-0.6-0.6-0.9c0,0,0,0,0,0c-0.2-0.3-0.3-0.6-0.4-0.9c0-0.1-0.1-0.2-0.1-0.2c-0.1-0.2-0.2-0.5-0.3-0.8
				c0-0.1-0.1-0.2-0.1-0.3c-0.1-0.3-0.1-0.6-0.2-0.9c0-0.1,0-0.2-0.1-0.3c0-0.2,0-0.4,0-0.6c0-0.2,0-0.5,0-0.7c0-0.1,0-0.2,0-0.3
				c0-0.3,0.1-0.7,0.1-1c0,0,0,0,0,0c0.1-0.3,0.1-0.7,0.2-1c0-0.1,0.1-0.2,0.1-0.3c0.1-0.2,0.2-0.5,0.3-0.7c0-0.1,0.1-0.2,0.1-0.3
				c0.1-0.2,0.2-0.4,0.3-0.6c0-0.1,0.1-0.2,0.1-0.3c0.2-0.3,0.3-0.5,0.5-0.8c0,0,0,0,0,0c0.2-0.3,0.4-0.5,0.7-0.7
				c0.1-0.1,0.1-0.1,0.2-0.2c0.2-0.2,0.3-0.3,0.5-0.5c0.5-0.4,1-0.8,1.6-1c0.3-0.1,0.5-0.2,0.8-0.3c0.1,0,0.1,0,0.2-0.1
				c0.2-0.1,0.5-0.2,0.7-0.2c0.1,0,0.2-0.1,0.3-0.1c0.3-0.1,0.5-0.1,0.8-0.2c0.1,0,0.1,0,0.2,0c1.3-0.2,2.5,0,3.9,0.4
				c0.3,0.1,0.7,0.2,1,0.4c0.2,0.1,0.4,0.2,0.6,0.3c0.1,0,0.2,0.1,0.3,0.1c0.3,0.2,0.5,0.3,0.8,0.5c0,0,0,0,0,0
				c0.3,0.2,0.5,0.4,0.7,0.6c0.1,0.1,0.1,0.1,0.2,0.2c0.2,0.2,0.3,0.3,0.5,0.5c0.1,0.1,0.1,0.2,0.2,0.3c0.1,0.2,0.3,0.4,0.4,0.6
				c0.1,0.1,0.1,0.2,0.2,0.3c0.2,0.3,0.3,0.6,0.5,0.9c0,0,0,0,0,0c0.1,0.3,0.3,0.6,0.4,1c0,0.1,0.1,0.2,0.1,0.3
				c0.1,0.2,0.1,0.5,0.2,0.7c0,0.2,0.1,0.4,0.1,0.6c0,0.1,0,0.2,0,0.4c0,0.3,0,0.6,0,0.9c0,0.1,0,0.2,0,0.3c0,0.3,0,0.5-0.1,0.8
				c0,0.1,0,0.1,0,0.2c-0.1,0.7-0.3,1.3-0.6,2c0,0.1-0.1,0.1-0.1,0.2c-0.1,0.2-0.2,0.5-0.4,0.7c0,0.1-0.1,0.2-0.1,0.2
				c-0.1,0.2-0.3,0.4-0.4,0.7c0,0.1-0.1,0.1-0.1,0.2c-0.4,0.5-0.9,1-1.4,1.5C103.1,102,102.8,102.2,102.4,102.4z M127.9,113.8
				c-2.3,3.7-5.4,7-8.9,9.6c-3.5,2.6-7.5,4.6-11.8,5.7c-0.3,0.1-0.7,0.2-1,0.3l-2.1-17.2c3.5-1.3,6.5-3.6,8.6-6.5l16.1,6.8
				C128.4,112.9,128.2,113.4,127.9,113.8z M132.7,101.6c-0.2,1.1-0.5,2.1-0.8,3.2l-16.2-6.8c0.3-1.7,0.3-3.5,0.1-5.3
				c-0.2-1.9-0.8-3.7-1.5-5.4l14-10.6c2.1,3.6,3.7,7.7,4.4,11.9C133.6,92.8,133.6,97.3,132.7,101.6z"/>
		</g>
		<path opacity="0.75" d="M71.9,141.7c-9,6.8-21.8,5.1-28.6-3.8s-5.1-21.8,3.8-28.6c9-6.8,21.8-5.1,28.6,3.8
			C82.5,122,80.8,134.8,71.9,141.7z M82.6,107.3c-0.7-0.8-1.4-1.6-2.1-2.4c0.8-1.6,1.6-3.3,2.3-5.1c-1.9-1.8-4-3.3-6.3-4.6
			c-1.5,1.2-2.9,2.4-4.2,3.7c-0.9-0.5-2-0.9-2.9-1.3c-1-0.4-2-0.6-3.1-0.9c-0.2-1.9-0.5-3.7-0.9-5.5c-2.6-0.5-5.2-0.6-7.8-0.5
			c-0.6,1.8-1.1,3.6-1.5,5.4C55,96.1,54,96.3,53,96.5c-1.1,0.2-2.1,0.6-3.1,0.9c-1.2-1.5-2.4-2.8-3.7-4.2c-2.4,1-4.7,2.3-6.8,3.8
			c0.4,1.8,1,3.6,1.6,5.4c-0.8,0.7-1.6,1.4-2.4,2.2c-0.8,0.8-1.5,1.5-2.1,2.4c-1.7-0.6-3.6-1.1-5.4-1.5c-1.5,2.2-2.7,4.5-3.7,6.9
			c1.4,1.3,2.8,2.5,4.3,3.6c-0.3,1-0.6,2-0.8,3.1c-0.2,1-0.4,2.1-0.5,3.2c-1.8,0.4-3.6,1-5.4,1.6c0,2.6,0.1,5.2,0.6,7.8
			c1.9,0.4,3.7,0.6,5.5,0.8c0.3,1,0.6,2.1,1,3c0.4,1,0.8,2,1.3,2.9c-1.3,1.3-2.5,2.8-3.6,4.3c1.3,2.2,2.9,4.3,4.7,6.2
			c1.8-0.7,3.5-1.5,5.1-2.4c0.7,0.8,1.6,1.4,2.5,2c0.9,0.6,1.8,1.2,2.7,1.8c-0.3,1.8-0.6,3.7-0.7,5.5c2.3,1.2,4.8,2,7.3,2.7
			c1.1-1.5,2.1-3.2,3-4.8c1,0.2,2.1,0.3,3.2,0.4c1.1,0.1,2.1,0,3.2,0c0.7,1.7,1.5,3.4,2.4,5.1c2.6-0.2,5.1-0.9,7.6-1.7
			c0.1-1.9,0.1-3.8,0-5.6c1-0.4,1.9-0.9,2.9-1.4c1-0.5,1.8-1.1,2.7-1.7c1.5,1.1,3.1,2.1,4.8,3c2-1.6,3.9-3.5,5.5-5.6
			c-0.9-1.7-1.9-3.2-3.1-4.7c0.6-0.9,1.2-1.8,1.7-2.7c0.5-1,1-1.9,1.3-2.9c1.8,0.1,3.8,0.1,5.6-0.1c0.8-2.5,1.4-5,1.6-7.6
			c-1.7-0.9-3.4-1.6-5.1-2.3c0-1.1,0-2.1-0.1-3.2c-0.1-1.1-0.2-2.1-0.4-3.2c1.6-0.9,3.2-2,4.7-3.1c-0.7-2.5-1.6-5-2.8-7.3
			c-1.9,0.2-3.7,0.5-5.5,0.8C83.8,109,83.2,108.1,82.6,107.3z"/>
	</g>
</g>
</svg>
