<svg version="1" xmlns="http://www.w3.org/2000/svg" viewBox="0 0 200 200"><path d="M163 121c.7-1.4 1.1-2.9 1.5-4.4.3-1.5.5-3 .5-4.6 3.5-1.2 6.8-2.9 10-5.2-.5-2.6-1.2-5.1-2.3-7.5-4-.5-7.9-.2-11.6.7-.9-1.3-1.9-2.4-3-3.5s-2.4-1.9-3.7-2.7c.7-3.6.9-7.4.4-11.2-2.5-.9-5-1.5-7.6-1.8-2.4 3.2-4.2 6.8-5.2 10.3-1.5.2-3.1.4-4.5.9-1.5.5-2.9 1.1-4.2 1.9-2.8-2.5-6-4.5-9.5-6-2 1.7-3.8 3.6-5.4 5.7 1.6 3.7 3.8 7 6.3 9.7-.7 1.4-1.1 2.9-1.5 4.4-.3 1.5-.5 3-.5 4.6-3.5 1.2-6.8 2.9-10 5.2.5 2.6 1.2 5.1 2.3 7.5 4 .5 7.9.2 11.5-.7.9 1.3 1.9 2.4 3 3.5s2.4 1.9 3.7 2.7c-.7 3.6-.9 7.4-.4 11.2 2.5.9 5 1.5 7.6 1.8 2.4-3.2 4.2-6.8 5.2-10.3 1.5-.2 3.1-.4 4.5-.9 1.5-.5 2.9-1.1 4.2-1.9 2.8 2.5 6 4.5 9.5 6 2-1.7 3.8-3.6 5.4-5.7-1.4-3.7-3.6-7-6.2-9.7zm-10.3-7c-.7 3.1-3 5.7-6.1 6.6-3 1-6.5.2-8.8-1.9-2.4-2.1-3.4-5.5-2.7-8.6.7-3.1 3-5.7 6.1-6.6 2.9-1 6.5-.2 8.7 1.9 2.4 2.2 3.4 5.6 2.8 8.6z"/><g opacity=".5"><path d="M50.5 107.2c1.2.1 2.4.3 3.5.3.3 1.1.7 2.2 1.1 3.3.4 1.1.9 2.2 1.4 3.2-2.2 2-4.3 4.1-6.3 6.4.8 1.4 1.6 2.8 2.4 4.1 3-.5 6-1.2 8.9-2.1.7.9 1.4 1.8 2.2 2.7.8.9 1.6 1.7 2.4 2.5-1.3 2.6-2.5 5.4-3.5 8.2 1.2 1 2.5 2 3.8 2.9 2.7-1.6 5.1-3.3 7.5-5.2 1 .6 2 1.2 3.1 1.7.1 0 .1.1.2.1 1.7-3 2.6-6.4 2.6-9.8-2.9-1.7-5.6-3.8-8-6.3l5.3-4c-.5-.8-1-1.6-1.5-2.3-1.2-1.5-2.5-2.9-4-4l-4.8 3.6c-1-1.7-1.9-3.5-2.6-5.4l-.6-1.8c-4.3-.7-9-.2-13.1 1.9z"/><path d="M143 100c2.9-.6 5.8-1.3 8.7-2.2.1-1.6.1-3.2.1-4.8-2.8-1.2-5.8-2.1-8.7-2.9-.1-1.2-.3-2.3-.5-3.5-.2-1.2-.5-2.3-.7-3.4 2.5-1.6 4.9-3.3 7.3-5.2-.5-1.5-1-3-1.7-4.4-3.1 0-6.1.1-9.1.5-.5-1-1.1-2.1-1.7-3.1-.6-1-1.3-2-1.9-2.9 1.8-2.4 3.5-4.9 5-7.5-1-1.2-2.1-2.4-3.2-3.6-2.9 1.1-5.7 2.3-8.4 3.7-.9-.8-1.8-1.5-2.7-2.3-.9-.7-1.9-1.4-2.9-2 .8-2.9 1.4-5.8 1.9-8.8-1.4-.8-2.8-1.5-4.2-2.2-2.3 2.1-4.5 4.2-6.4 6.5-1.1-.4-2.2-.8-3.3-1.1-1.1-.3-2.3-.6-3.4-.9-.3-3-.7-5.9-1.3-8.9-1.6-.2-3.1-.4-4.7-.5-1.4 2.7-2.6 5.6-3.7 8.4-1.2 0-2.3 0-3.5.2-1.2.1-2.3.3-3.5.4-1.3-2.6-2.8-5.3-4.5-7.8-1.5.3-3.1.8-4.6 1.2C81.1 46 81 49 81 52c-1.1.4-2.2.9-3.2 1.4-1 .5-2.1 1.1-3.1 1.7-2.2-2-4.5-3.9-7-5.6-1.3.9-2.6 1.8-3.8 2.8.8 3 1.8 5.9 2.9 8.7-.9.8-1.7 1.6-2.5 2.5-.8.9-1.6 1.8-2.3 2.7-2.8-1.1-5.6-2-8.5-2.7-.9 1.3-1.8 2.6-2.6 4 1.9 2.5 3.8 4.8 5.9 7-.5 1-1 2.1-1.4 3.2L54.2 81c-3 0-5.9.2-9 .5-.4 1.5-.7 3.1-.9 4.7 2.6 1.7 5.3 3.1 8 4.4-.1 1.2-.2 2.3-.2 3.5v2.4c.2-.1.5-.1.8-.2 1-.2 2.1-.5 3.2-.5.4-1.8.9-3.6 1.5-5.4 1.5-.1 3.1 0 4.6.1.2-2 .6-3.9 1.2-5.8l16 6.8c-.3 1.7-.4 3.5-.2 5.3 1.2.9 2.4 1.8 3.5 2.8-.7 1.8-1.4 3.5-2.3 5.1l2.1 2.4c.6.9 1.2 1.7 1.8 2.6h.1l1.2-.9c.2.2.5.4.7.6 1.1-.2 2.3-.4 3.5-.5.5 1 1 2.1 1.4 3.2 1.3.5 2.7.8 4.1 1l2.1 17.2c-1.2 0-2.4-.1-3.5-.2-.2 0-.4-.1-.7-.1-.3 1.9-.8 3.7-1.3 5.6-1.9.1-3.8.1-5.6.1-.4 1-.9 2-1.3 2.9-.5 1-1.1 1.8-1.7 2.7.9 1.2 1.7 2.4 2.5 3.7 1.3-1.8 2.5-3.7 3.6-5.6 1.2.2 2.3.4 3.5.5 1.2.1 2.3.2 3.5.2.8 2.8 1.8 5.7 3 8.5 1.6 0 3.2-.2 4.7-.4.9-3 1.6-5.9 2-8.9 1.2-.2 2.3-.5 3.4-.8 1.1-.3 2.3-.7 3.4-1.1 1.8 2.4 3.7 4.6 5.8 6.8 1.4-.6 2.9-1.3 4.3-2.1-.2-3.1-.7-6.1-1.3-9 1-.6 2-1.3 2.9-2 1-.7 1.8-1.4 2.7-2.2 2.5 1.5 5.2 3 7.9 4.3 1.1-1.1 2.2-2.3 3.3-3.5-1.4-2.8-2.8-5.4-4.5-8 .7-.9 1.4-1.9 2-2.9l1.8-3c2.9.5 5.9.9 8.9 1.1.6-1.4 1.2-2.9 1.8-4.4-2.3-2.1-4.6-4-7.1-5.8.3-1.1.6-2.3.8-3.4.4-.9.7-2.1.8-3.3zm-35.2-39.5c4.2 1.2 8.2 3.3 11.7 6 1.4 1.1 2.7 2.3 3.9 3.5l-14.1 10.7c-2.7-2.2-6.1-3.7-9.7-4.1l-2.2-17.5c3.5-.1 7 .4 10.4 1.4zM82.8 84l-16.1-6.8c1.4-2.4 3-4.7 4.9-6.7 3-3.2 6.6-5.9 10.5-7.8 2.2-1.1 4.5-1.9 6.8-2.5l2.2 17.5c-3.4 1.2-6.2 3.5-8.3 6.3zm19.6 18.4c-1.3.7-2.4 1.2-3.7 1.3h-.2c-.3 0-.6 0-.8.1h-.4c-.2 0-.5 0-.7-.1h-.2c-.3 0-.5-.1-.8-.1-.7-.2-1.3-.4-1.9-.7-.3-.2-.6-.3-.9-.5-.3-.2-.5-.4-.8-.6l-.2-.2c-.2-.2-.4-.3-.6-.5l-.2-.2c-.2-.2-.4-.4-.5-.6l-.1-.1-.6-.9c-.2-.3-.3-.6-.4-.9 0-.1-.1-.2-.1-.2-.1-.2-.2-.5-.3-.8 0-.1-.1-.2-.1-.3-.1-.3-.1-.6-.2-.9 0-.1 0-.2-.1-.3v-.6-.7-.3c0-.3.1-.7.1-1 .1-.3.1-.7.2-1 0-.1.1-.2.1-.3.1-.2.2-.5.3-.7 0-.1.1-.2.1-.3l.3-.6c0-.1.1-.2.1-.3.2-.3.3-.5.5-.8.2-.3.4-.5.7-.7l.2-.2.5-.5c.5-.4 1-.8 1.6-1 .3-.1.5-.2.8-.3.1 0 .1 0 .2-.1.2-.1.5-.2.7-.2.1 0 .2-.1.3-.1.3-.1.5-.1.8-.2h.2c1.3-.2 2.5 0 3.9.4.3.1.7.2 1 .4l.6.3c.1 0 .2.1.3.1.3.2.5.3.8.5.3.2.5.4.7.6l.2.2.5.5c.1.1.1.2.2.3.1.2.3.4.4.6.1.1.1.2.2.3.2.3.3.6.5.9.1.3.3.6.4 1 0 .1.1.2.1.3.1.2.1.5.2.7 0 .2.1.4.1.6v1.6c0 .3 0 .5-.1.8v.2c-.1.7-.3 1.3-.6 2 0 .1-.1.1-.1.2-.1.2-.2.5-.4.7 0 .1-.1.2-.1.2-.1.2-.3.4-.4.7 0 .1-.1.1-.1.2-.4.5-.9 1-1.4 1.5-.1.2-.4.4-.8.6zm25.5 11.4c-2.3 3.7-5.4 7-8.9 9.6-3.5 2.6-7.5 4.6-11.8 5.7-.3.1-.7.2-1 .3l-2.1-17.2c3.5-1.3 6.5-3.6 8.6-6.5l16.1 6.8c-.4.4-.6.9-.9 1.3zm4.8-12.2c-.2 1.1-.5 2.1-.8 3.2L115.7 98c.3-1.7.3-3.5.1-5.3-.2-1.9-.8-3.7-1.5-5.4l14-10.6c2.1 3.6 3.7 7.7 4.4 11.9.9 4.2.9 8.7 0 13z"/></g><path opacity=".75" d="M71.9 141.7c-9 6.8-21.8 5.1-28.6-3.8s-5.1-21.8 3.8-28.6c9-6.8 21.8-5.1 28.6 3.8 6.8 8.9 5.1 21.7-3.8 28.6zm10.7-34.4l-2.1-2.4c.8-1.6 1.6-3.3 2.3-5.1-1.9-1.8-4-3.3-6.3-4.6-1.5 1.2-2.9 2.4-4.2 3.7-.9-.5-2-.9-2.9-1.3-1-.4-2-.6-3.1-.9-.2-1.9-.5-3.7-.9-5.5-2.6-.5-5.2-.6-7.8-.5-.6 1.8-1.1 3.6-1.5 5.4-1.1 0-2.1.2-3.1.4-1.1.2-2.1.6-3.1.9-1.2-1.5-2.4-2.8-3.7-4.2-2.4 1-4.7 2.3-6.8 3.8.4 1.8 1 3.6 1.6 5.4-.8.7-1.6 1.4-2.4 2.2-.8.8-1.5 1.5-2.1 2.4-1.7-.6-3.6-1.1-5.4-1.5-1.5 2.2-2.7 4.5-3.7 6.9 1.4 1.3 2.8 2.5 4.3 3.6-.3 1-.6 2-.8 3.1-.2 1-.4 2.1-.5 3.2-1.8.4-3.6 1-5.4 1.6 0 2.6.1 5.2.6 7.8 1.9.4 3.7.6 5.5.8.3 1 .6 2.1 1 3 .4 1 .8 2 1.3 2.9-1.3 1.3-2.5 2.8-3.6 4.3 1.3 2.2 2.9 4.3 4.7 6.2 1.8-.7 3.5-1.5 5.1-2.4.7.8 1.6 1.4 2.5 2l2.7 1.8c-.3 1.8-.6 3.7-.7 5.5 2.3 1.2 4.8 2 7.3 2.7 1.1-1.5 2.1-3.2 3-4.8 1 .2 2.1.3 3.2.4 1.1.1 2.1 0 3.2 0 .7 1.7 1.5 3.4 2.4 5.1 2.6-.2 5.1-.9 7.6-1.7.1-1.9.1-3.8 0-5.6 1-.4 1.9-.9 2.9-1.4 1-.5 1.8-1.1 2.7-1.7 1.5 1.1 3.1 2.1 4.8 3 2-1.6 3.9-3.5 5.5-5.6-.9-1.7-1.9-3.2-3.1-4.7.6-.9 1.2-1.8 1.7-2.7.5-1 1-1.9 1.3-2.9 1.8.1 3.8.1 5.6-.1.8-2.5 1.4-5 1.6-7.6-1.7-.9-3.4-1.6-5.1-2.3 0-1.1 0-2.1-.1-3.2s-.2-2.1-.4-3.2c1.6-.9 3.2-2 4.7-3.1-.7-2.5-1.6-5-2.8-7.3-1.9.2-3.7.5-5.5.8-.8-.9-1.4-1.8-2-2.6z"/></svg>