<?xml version="1.0" encoding="utf-8"?>
<!-- Generator: Adobe Illustrator 18.1.1, SVG Export Plug-In . SVG Version: 6.00 Build 0)  -->
<svg version="1.0" xmlns="http://www.w3.org/2000/svg" xmlns:xlink="http://www.w3.org/1999/xlink" x="0px" y="0px"
	 viewBox="0 0 200 200" enable-background="new 0 0 200 200" xml:space="preserve">
<g id="Layer_1">
</g>
<g id="Layer_2">
	<g id="Add_Favorite">
	</g>
	<g id="New_Symbol_17">
	</g>
	<g>
		<path opacity="0.5" d="M164.2,135.6c-4-6.2-17.5-10.2-30.8-15.7c-13.3-5.6-16.5-7.5-16.5-7.5l-0.1-12.8c0,0,5-3.9,6.6-15.9
			c3.1,0.9,6.4-4.7,6.6-7.6c0.2-2.8,5.2-11.5,1.4-10.7c0.3-2.4-1.6-4.4-1.4-6.5c0.2-1.5-3.2-2.3-3.1-3.5c0.1-1.2,0.1-2.3,0-3.1
			c-0.3-2.6-1.1-5.3-2.5-7.8c-1.4-2.6-3.8-5.2-6.3-7.2c-1.6-1.4-3.1-2.4-5.2-3.3c-1.9-0.9-5.4-0.3-7.6-0.8c-2-0.4-2.8-0.9-5.1-0.9
			c-4,0-7,1.8-10.4,2.5c-6.6,1.4-8.5,4.8-13.8,3.6c-2-0.5,2,3,0.9,4.7c-0.9,1.4-1.7,2.9-2.2,4.3c-0.6,1.6-1,3.3-1.2,5
			c-0.3,2.8-3.5,7.3-2.7,13.2c-3.8-0.8-0.6,7.9-0.4,10.7c0.2,2.9,3.5,8.5,6.6,7.6c1.6,12,6.6,15.9,6.6,15.9l-0.1,12.8
			c0,0-3.2,1.9-16.5,7.5c-13.4,5.6-26.8,9.5-30.9,15.7c-3.6,5.6-2.5,40.4-2.5,40.4H100h66.7C166.7,175.9,167.8,141.2,164.2,135.6z"
			/>
		<path d="M63.4,71.2c0.1,0.9,0.2,1.9,0.4,2.8c-2.1,1.1-4.2,2.3-6.2,3.7c0.3,1.2,0.7,2.5,1.1,3.7c2.5,0.2,4.9,0.3,7.3,0.2
			c0.3,0.9,0.8,1.7,1.2,2.6c0.5,0.8,0.9,1.7,1.4,2.5c-1.6,1.8-3,3.7-4.4,5.7c0.7,1,1.5,2.1,2.3,3c2.4-0.7,4.7-1.5,6.9-2.5
			c0.7,0.7,1.3,1.3,2,2c0.7,0.6,1.4,1.2,2.2,1.8c-0.8,2.2-1.5,4.5-2.1,6.9c1.1,0.7,2.1,1.4,3.3,2c2-1.5,3.8-3.1,5.5-4.8
			c0.8,0.4,1.7,0.8,2.6,1.1c0.9,0.3,1.8,0.6,2.7,0.9c0,2.4,0.2,4.8,0.6,7.2c1.2,0.3,2.5,0.5,3.7,0.7c1.3-2.1,2.4-4.3,3.4-6.5
			c0.9,0.1,1.9,0.1,2.8,0.1c0.9,0,1.9-0.1,2.8-0.1c0.9,2.2,1.9,4.4,3.1,6.5c1.3-0.2,2.5-0.4,3.7-0.7c0.4-2.4,0.7-4.9,0.8-7.3
			c0.9-0.3,1.8-0.6,2.7-0.9c0.9-0.4,1.7-0.7,2.6-1.2c1.7,1.7,3.4,3.3,5.2,4.9c1.1-0.6,2.2-1.3,3.2-2c-0.5-2.4-1.1-4.8-1.8-7.1
			c0.7-0.6,1.5-1.2,2.1-1.8c0.7-0.6,1.3-1.3,2-2c2.1,1,4.4,1.9,6.7,2.7c0.8-1,1.6-2,2.3-3.1c-1.3-2.1-2.7-4.1-4.3-5.9
			c0.5-0.8,0.9-1.6,1.3-2.5c0.4-0.9,0.8-1.7,1.1-2.6c2.4,0.2,4.8,0.2,7.2,0.1c0.4-1.2,0.7-2.4,1-3.7c-2-1.5-4-2.8-6.1-4
			c0.2-0.9,0.3-1.9,0.3-2.8c0.1-0.9,0.1-1.9,0.1-2.8c2.3-0.7,4.5-1.5,6.7-2.5c-0.1-1.3-0.2-2.5-0.4-3.8c-2.4-0.7-4.8-1.2-7.2-1.5
			c-0.2-0.9-0.4-1.8-0.7-2.7c-0.3-0.9-0.6-1.8-0.9-2.7c1.9-1.5,3.6-3.1,5.4-4.8c-0.5-1.2-1.1-2.3-1.7-3.4c-2.5,0.2-4.9,0.6-7.2,1.2
			c-0.5-0.8-1.1-1.6-1.6-2.3c-0.6-0.8-1.2-1.5-1.8-2.2c1.2-2,2.3-4.2,3.3-6.4c-0.9-0.9-1.9-1.7-2.8-2.6c-2.2,1.1-4.3,2.4-6.3,3.7
			c-0.8-0.6-1.6-1.1-2.4-1.6c-0.8-0.5-1.6-0.9-2.5-1.4c0.4-2.4,0.6-4.7,0.8-7.2c-1.2-0.5-2.4-1-3.6-1.4c-1.7,1.9-3.2,3.8-4.5,5.8
			c-0.9-0.2-1.8-0.4-2.8-0.6c-0.9-0.1-1.9-0.3-2.8-0.4c-0.5-2.3-1.1-4.6-1.9-6.9c-1.3,0-2.5-0.1-3.8,0c-0.9,2.3-1.6,4.7-2.2,7
			c-0.9,0.1-1.9,0.2-2.8,0.4c-0.9,0.2-1.8,0.4-2.7,0.6c-1.3-2-2.7-3.9-4.3-5.8c-1.2,0.4-2.4,0.9-3.5,1.4c0,2.5,0.2,4.9,0.5,7.3
			c-0.8,0.4-1.6,0.9-2.4,1.4c-0.8,0.5-1.6,1-2.3,1.6c-1.9-1.4-4-2.7-6.1-3.9c-1,0.8-1.9,1.7-2.8,2.6c0.9,2.3,1.9,4.5,3.1,6.6
			c-0.6,0.7-1.2,1.4-1.8,2.2c-0.6,0.8-1.1,1.5-1.6,2.3c-2.3-0.6-4.6-1.1-7-1.4c-0.6,1.1-1.2,2.3-1.7,3.4c1.7,1.8,3.4,3.5,5.3,5.1
			c-0.3,0.9-0.6,1.8-0.9,2.7c-0.2,0.9-0.5,1.8-0.6,2.7c-2.4,0.3-4.7,0.7-7.1,1.2c-0.2,1.3-0.3,2.5-0.3,3.8c2.2,1.1,4.5,2,6.8,2.8
			C63.3,69.3,63.3,70.2,63.4,71.2z M74.3,80.4c-1.6-3.2-2.6-6.6-3-10.1c-0.3-2.6-0.2-5.2,0.3-7.8l13.4,4c-0.1,1.4,0,2.9,0.4,4.4
			c0.3,1.4,0.9,2.7,1.6,3.9l-10.1,9.6C75.9,83.2,75,81.8,74.3,80.4z M95.7,61.6c0.2-0.1,0.4-0.2,0.6-0.3c0,0,0.1,0,0.1-0.1
			c0.2-0.1,0.4-0.2,0.5-0.2c0.1,0,0.2-0.1,0.3-0.1c0.2-0.1,0.4-0.1,0.6-0.2c0,0,0.1,0,0.1,0c1.1-0.3,2-0.2,3.1,0
			c0.3,0.1,0.6,0.1,0.8,0.2c0.2,0.1,0.3,0.1,0.5,0.2c0.1,0,0.1,0.1,0.2,0.1c0.2,0.1,0.5,0.2,0.7,0.4c0,0,0,0,0,0
			c0.2,0.1,0.4,0.3,0.7,0.5c0.1,0,0.1,0.1,0.2,0.1c0.1,0.1,0.3,0.2,0.4,0.4c0.1,0.1,0.1,0.1,0.2,0.2c0.1,0.1,0.3,0.3,0.4,0.4
			c0.1,0.1,0.1,0.1,0.2,0.2c0.2,0.2,0.3,0.4,0.4,0.6c0,0,0,0,0,0c0.1,0.2,0.3,0.5,0.4,0.7c0,0.1,0.1,0.1,0.1,0.2
			c0.1,0.2,0.1,0.4,0.2,0.6c0.1,0.2,0.1,0.3,0.1,0.5c0,0.1,0.3,0.2,0.4,0.3c0,0.2,0.4,0.4,0.4,0.6c0,0.1,0,0.1,0,0.2
			c0,0.2-0.3,0.5-0.3,0.7c0,0.1-0.1,0.1-0.2,0.2c0,0.6-0.2,1.1-0.3,1.6c0,0-0.1,0.1-0.1,0.2c-0.1,0.2-0.2,0.4-0.2,0.6
			c0,0.1-0.1,0.1-0.1,0.2c-0.1,0.2-0.2,0.4-0.3,0.6c0,0.1-0.1,0.1-0.1,0.2c-0.3,0.5-0.6,0.9-1,1.3c-0.2,0.2-0.5,0.5-0.7,0.7
			c-1,0.7-1.8,1.1-2.8,1.4c0,0-0.1,0-0.1,0c-0.2,0-0.4,0.1-0.7,0.1c-0.1,0-0.2,0-0.3,0c-0.2,0-0.4,0-0.6,0c0,0-0.1,0-0.1,0
			c-0.2,0-0.4,0-0.7,0c-0.6-0.1-1.1-0.2-1.6-0.4c-0.3-0.1-0.5-0.2-0.8-0.3c0,0,0,0,0,0c-0.2-0.1-0.4-0.2-0.7-0.4
			c-0.1,0-0.1-0.1-0.2-0.1c-0.2-0.1-0.3-0.2-0.5-0.4c-0.1,0-0.1-0.1-0.2-0.1c-0.2-0.1-0.3-0.3-0.5-0.5c0,0-0.1-0.1-0.1-0.1
			c-0.2-0.2-0.4-0.4-0.5-0.6c0,0,0,0,0,0c-0.2-0.2-0.3-0.4-0.4-0.7c0-0.1-0.1-0.1-0.1-0.2c-0.1-0.2-0.2-0.4-0.3-0.6
			c0-0.1-0.1-0.1-0.1-0.2c-0.1-0.2-0.2-0.4-0.2-0.7c0-0.1-0.1-0.2-0.1-0.2c0-0.2-0.1-0.3-0.1-0.5c0-0.2-0.1-0.4-0.1-0.6
			c0-0.1-0.2-0.2-0.2-0.2c0-0.3-0.2-0.5-0.2-0.8c0,0,0,0,0,0c0-0.3,0.3-0.5,0.3-0.8c0-0.1,0.1-0.1,0.2-0.2c0-0.2,0.1-0.4,0.2-0.6
			c0-0.1,0.1-0.2,0.1-0.3c0.1-0.2,0.1-0.4,0.2-0.5c0-0.1,0.1-0.1,0.1-0.2c0.1-0.2,0.2-0.5,0.4-0.7c0,0,0,0,0,0
			c0.1-0.2,0.3-0.4,0.5-0.7c0-0.1,0.1-0.1,0.1-0.2c0.1-0.1,0.2-0.3,0.4-0.4C94.9,62.2,95.3,61.8,95.7,61.6z M122.6,50.2
			c2,2.7,3.6,5.8,4.6,9.1c1,3.4,1.4,6.9,1.1,10.4c-0.1,0.9-0.2,1.7-0.3,2.6l-13.5-4c0.1-1.4,0-2.8-0.4-4.2c-0.4-1.5-0.9-2.9-1.7-4.1
			L122.6,50.2z M100.1,96c-3.5,0-7.1-0.6-10.4-1.8c-3-1.1-5.8-2.8-8.3-4.8l10.1-9.5c2.4,1.6,5.2,2.5,8.2,2.5l3.2,13.5
			C102,95.9,101,96,100.1,96z M119.3,88.3c-2.6,2.4-5.6,4.3-8.9,5.6c-0.3,0.1-0.5,0.2-0.8,0.3l-3.2-13.5c2.7-1.3,4.8-3.4,6.2-6
			l13.4,4c-0.2,0.4-0.3,0.8-0.5,1.2C124,83,121.8,85.9,119.3,88.3z M104.7,39.2c3.5,0.6,6.8,1.9,9.9,3.7c1.2,0.7,2.4,1.6,3.4,2.5
			l-10.3,9.7c-2.4-1.5-5.2-2.4-8.1-2.4L96.3,39C99.1,38.7,101.9,38.7,104.7,39.2z M76.8,50.4c2.1-2.8,4.7-5.3,7.7-7.2
			c1.6-1.1,3.4-1.9,5.2-2.6L93,54.4c-2.6,1.3-4.7,3.3-6.1,5.8l-13.4-4C74.3,54.1,75.4,52.2,76.8,50.4z"/>
	</g>
</g>
</svg>
