<svg version="1" xmlns="http://www.w3.org/2000/svg" viewBox="0 0 200 200"><path opacity=".5" d="M164.2 135.6c-4-6.2-17.5-10.2-30.8-15.7-13.3-5.6-16.5-7.5-16.5-7.5l-.1-12.8s5-3.9 6.6-15.9c3.1.9 6.4-4.7 6.6-7.6.2-2.8 5.2-11.5 1.4-10.7.3-2.4-1.6-4.4-1.4-6.5.2-1.5-3.2-2.3-3.1-3.5.1-1.2.1-2.3 0-3.1-.3-2.6-1.1-5.3-2.5-7.8-1.4-2.6-3.8-5.2-6.3-7.2-1.6-1.4-3.1-2.4-5.2-3.3-1.9-.9-5.4-.3-7.6-.8-2-.4-2.8-.9-5.1-.9-4 0-7 1.8-10.4 2.5-6.6 1.4-8.5 4.8-13.8 3.6-2-.5 2 3 .9 4.7-.9 1.4-1.7 2.9-2.2 4.3-.6 1.6-1 3.3-1.2 5-.3 2.8-3.5 7.3-2.7 13.2-3.8-.8-.6 7.9-.4 10.7.2 2.9 3.5 8.5 6.6 7.6 1.6 12 6.6 15.9 6.6 15.9l-.1 12.8s-3.2 1.9-16.5 7.5c-13.4 5.6-26.8 9.5-30.9 15.7-3.6 5.6-2.5 40.4-2.5 40.4H166.7c0-.3 1.1-35-2.5-40.6z"/><path d="M63.4 71.2c.1.9.2 1.9.4 2.8-2.1 1.1-4.2 2.3-6.2 3.7.3 1.2.7 2.5 1.1 3.7 2.5.2 4.9.3 7.3.2.3.9.8 1.7 1.2 2.6.5.8.9 1.7 1.4 2.5-1.6 1.8-3 3.7-4.4 5.7.7 1 1.5 2.1 2.3 3 2.4-.7 4.7-1.5 6.9-2.5l2 2c.7.6 1.4 1.2 2.2 1.8-.8 2.2-1.5 4.5-2.1 6.9 1.1.7 2.1 1.4 3.3 2 2-1.5 3.8-3.1 5.5-4.8.8.4 1.7.8 2.6 1.1l2.7.9c0 2.4.2 4.8.6 7.2 1.2.3 2.5.5 3.7.7 1.3-2.1 2.4-4.3 3.4-6.5.9.1 1.9.1 2.8.1.9 0 1.9-.1 2.8-.1.9 2.2 1.9 4.4 3.1 6.5 1.3-.2 2.5-.4 3.7-.7.4-2.4.7-4.9.8-7.3l2.7-.9c.9-.4 1.7-.7 2.6-1.2 1.7 1.7 3.4 3.3 5.2 4.9 1.1-.6 2.2-1.3 3.2-2-.5-2.4-1.1-4.8-1.8-7.1.7-.6 1.5-1.2 2.1-1.8.7-.6 1.3-1.3 2-2 2.1 1 4.4 1.9 6.7 2.7.8-1 1.6-2 2.3-3.1-1.3-2.1-2.7-4.1-4.3-5.9.5-.8.9-1.6 1.3-2.5.4-.9.8-1.7 1.1-2.6 2.4.2 4.8.2 7.2.1.4-1.2.7-2.4 1-3.7-2-1.5-4-2.8-6.1-4 .2-.9.3-1.9.3-2.8.1-.9.1-1.9.1-2.8 2.3-.7 4.5-1.5 6.7-2.5-.1-1.3-.2-2.5-.4-3.8-2.4-.7-4.8-1.2-7.2-1.5-.2-.9-.4-1.8-.7-2.7l-.9-2.7c1.9-1.5 3.6-3.1 5.4-4.8-.5-1.2-1.1-2.3-1.7-3.4-2.5.2-4.9.6-7.2 1.2-.5-.8-1.1-1.6-1.6-2.3-.6-.8-1.2-1.5-1.8-2.2 1.2-2 2.3-4.2 3.3-6.4-.9-.9-1.9-1.7-2.8-2.6-2.2 1.1-4.3 2.4-6.3 3.7-.8-.6-1.6-1.1-2.4-1.6-.8-.5-1.6-.9-2.5-1.4.4-2.4.6-4.7.8-7.2-1.2-.5-2.4-1-3.6-1.4-1.7 1.9-3.2 3.8-4.5 5.8-.9-.2-1.8-.4-2.8-.6-.9-.1-1.9-.3-2.8-.4-.5-2.3-1.1-4.6-1.9-6.9-1.3 0-2.5-.1-3.8 0-.9 2.3-1.6 4.7-2.2 7-.9.1-1.9.2-2.8.4l-2.7.6c-1.3-2-2.7-3.9-4.3-5.8-1.2.4-2.4.9-3.5 1.4 0 2.5.2 4.9.5 7.3-.8.4-1.6.9-2.4 1.4-.8.5-1.6 1-2.3 1.6-1.9-1.4-4-2.7-6.1-3.9-1 .8-1.9 1.7-2.8 2.6.9 2.3 1.9 4.5 3.1 6.6-.6.7-1.2 1.4-1.8 2.2-.6.8-1.1 1.5-1.6 2.3-2.3-.6-4.6-1.1-7-1.4-.6 1.1-1.2 2.3-1.7 3.4 1.7 1.8 3.4 3.5 5.3 5.1l-.9 2.7c-.2.9-.5 1.8-.6 2.7-2.4.3-4.7.7-7.1 1.2-.2 1.3-.3 2.5-.3 3.8 2.2 1.1 4.5 2 6.8 2.8.3 1 .3 1.9.4 2.9zm10.9 9.2c-1.6-3.2-2.6-6.6-3-10.1-.3-2.6-.2-5.2.3-7.8l13.4 4c-.1 1.4 0 2.9.4 4.4.3 1.4.9 2.7 1.6 3.9l-10.1 9.6c-1-1.2-1.9-2.6-2.6-4zm21.4-18.8l.6-.3s.1 0 .1-.1c.2-.1.4-.2.5-.2.1 0 .2-.1.3-.1.2-.1.4-.1.6-.2h.1c1.1-.3 2-.2 3.1 0 .3.1.6.1.8.2.2.1.3.1.5.2.1 0 .1.1.2.1.2.1.5.2.7.4.2.1.4.3.7.5.1 0 .1.1.2.1.1.1.3.2.4.4l.2.2.4.4.2.2c.2.2.3.4.4.6.1.2.3.5.4.7 0 .1.1.1.1.2.1.2.1.4.2.6.1.2.1.3.1.5 0 .1.3.2.4.3 0 .2.4.4.4.6v.2c0 .2-.3.5-.3.7 0 .1-.1.1-.2.2 0 .6-.2 1.1-.3 1.6 0 0-.1.1-.1.2-.1.2-.2.4-.2.6 0 .1-.1.1-.1.2l-.3.6c0 .1-.1.1-.1.2-.3.5-.6.9-1 1.3l-.7.7c-1 .7-1.8 1.1-2.8 1.4h-.1c-.2 0-.4.1-.7.1H99.5 98.7c-.6-.1-1.1-.2-1.6-.4-.3-.1-.5-.2-.8-.3-.2-.1-.4-.2-.7-.4-.1 0-.1-.1-.2-.1-.2-.1-.3-.2-.5-.4-.1 0-.1-.1-.2-.1-.2-.1-.3-.3-.5-.5l-.1-.1c-.2-.2-.4-.4-.5-.6-.2-.2-.3-.4-.4-.7 0-.1-.1-.1-.1-.2l-.3-.6c0-.1-.1-.1-.1-.2-.1-.2-.2-.4-.2-.7 0-.1-.1-.2-.1-.2 0-.2-.1-.3-.1-.5s-.1-.4-.1-.6c0-.1-.2-.2-.2-.2 0-.3-.2-.5-.2-.8 0-.3.3-.5.3-.8 0-.1.1-.1.2-.2 0-.2.1-.4.2-.6 0-.1.1-.2.1-.3.1-.2.1-.4.2-.5 0-.1.1-.1.1-.2.1-.2.2-.5.4-.7.1-.2.3-.4.5-.7 0-.1.1-.1.1-.2.1-.1.2-.3.4-.4.6-.5 1-.9 1.4-1.1zm26.9-11.4c2 2.7 3.6 5.8 4.6 9.1 1 3.4 1.4 6.9 1.1 10.4-.1.9-.2 1.7-.3 2.6l-13.5-4c.1-1.4 0-2.8-.4-4.2-.4-1.5-.9-2.9-1.7-4.1l10.2-9.8zM100.1 96c-3.5 0-7.1-.6-10.4-1.8-3-1.1-5.8-2.8-8.3-4.8l10.1-9.5c2.4 1.6 5.2 2.5 8.2 2.5l3.2 13.5c-.9 0-1.9.1-2.8.1zm19.2-7.7c-2.6 2.4-5.6 4.3-8.9 5.6-.3.1-.5.2-.8.3l-3.2-13.5c2.7-1.3 4.8-3.4 6.2-6l13.4 4c-.2.4-.3.8-.5 1.2-1.5 3.1-3.7 6-6.2 8.4zm-14.6-49.1c3.5.6 6.8 1.9 9.9 3.7 1.2.7 2.4 1.6 3.4 2.5l-10.3 9.7c-2.4-1.5-5.2-2.4-8.1-2.4L96.3 39c2.8-.3 5.6-.3 8.4.2zM76.8 50.4c2.1-2.8 4.7-5.3 7.7-7.2 1.6-1.1 3.4-1.9 5.2-2.6L93 54.4c-2.6 1.3-4.7 3.3-6.1 5.8l-13.4-4c.8-2.1 1.9-4 3.3-5.8z"/></svg>