<svg version="1" xmlns="http://www.w3.org/2000/svg" viewBox="0 0 200 200"><path opacity=".75" d="M163.3 87.2c-16.2 4-32.5 5.8-35.2-1.8-6.8-17.1-20.6-8.9-18.8 13.2 1.8 22.1 14.4 19.9 14 34.6-.1 4.4.3 10.2.9 16.1 23-11.2 38.9-34.8 39.1-62.1z"/><path d="M136.6 18.4h.7c4.3 0 7.8-3.5 7.8-7.8s-3.5-7.8-7.8-7.8-7.8 3.5-7.8 7.8c0 1.8.6 3.5 1.7 4.9l-5.7 9.8c1.8.9 3.6 2 5.4 3.1l2.6-4.6c16.8 10.5 28.4 26.1 33 44.2 4.7 18.6 1.7 38.5-8.4 56.1-13.7 23.8-37.5 37.9-63.5 37.9-12.2 0-24.2-3.1-35.6-9.2l2.8-4.8c-1.8-1-3.6-1.9-5.3-3.1l-5.5 9.5c-4.3 0-7.8 3.4-7.8 7.7 0 4.3 3.5 7.7 7.8 7.7s7.8-3.5 7.8-7.8c0-.9-.1-1.7-.4-2.5 9.9 5 20.2 7.9 30.8 8.6v14c-6.2.8-13.2 3.2-21.2 8.1-4.9 4.4-1.7 7.1 2.5 7.1h45.2c4.7 0 8.4-3 2.9-7.2-5.5-3.2-12-7.1-20.5-8.1v-13.8c26.9-1.2 51.2-16.4 65.4-41.1 22.6-38.8 10.9-85.2-26.9-108.7z"/><path d="M94.1 50.8c-1.6-7.4-17.5 2.7-28.3 0-6.5-1.6-5.2-15-3.1-25.5C40.3 36.8 25 60.1 25 86.9c0 4.7.5 9.4 1.4 13.9 15.5 1.5 11.3 3.3 21.5 18.4 10.9 15.9 20.2-2.7 16.7-23.3-2-11.5-3.1-16.7 17.1-24.1 20.2-7.4 14-13.6 12.4-21z" opacity=".75"/><path d="M123.3 133.1c.4-14.6-12.2-12.4-14-34.6-1.8-22.1 12-30.3 18.8-13.2 2.7 7.7 19 5.8 35.2 1.8 0 .8 0 1.6-.1 2.4 0-.9.1-1.8.1-2.7 0-17.5-6.5-33.4-17.2-45.6-11.4 34-17.6 17-25.5 15.7-20.4-1.9-16.3-28.5-14.2-38.1-4-.7-8.1-1.1-12.3-1.1-11.3 0-22 2.7-31.5 7.6-2.1 10.4-3.4 23.8 3.1 25.5 10.9 2.7 26.8-7.4 28.3 0 1.6 7.4 7.8 13.6-12.4 21s-19 12.6-17.1 24.1c3.5 20.6-5.8 39.2-16.7 23.3-10.3-15-6-16.9-21.5-18.4 6.4 31.5 34.3 55.3 67.7 55.3 10.7 0 20.9-2.5 30-6.8-.5-6-.9-11.8-.7-16.2z" opacity=".4"/><path d="M106.4 18.9c-2.2 9.6-6.3 36.2 14.2 38.1 7.9 1.4 14.1 18.3 25.5-15.7-10.1-11.5-24-19.6-39.7-22.4z" opacity=".75"/></svg>