<svg version="1" xmlns="http://www.w3.org/2000/svg" viewBox="0 0 200 200"><path d="M153.2 154.4L101 116.3l-52.2 38.1M164.7 45.6H36.3l5.8 4.2 58.4 42.7 57.4-41.9.5-.4M43.6 154.4l54.8-40-13.9-10.2-42.4-31v81.2"/><path opacity=".5" d="M165.2 45.6h-.4l-6.3 4.6-.5.3-57.4 41.9-58.5-42.6-5.8-4.2h-1.5c-5.4 0-9.8 4.4-9.8 9.8v89.1c0 1 .1 1.9.4 2.8 1.2 4.1 5 7.1 9.4 7.1h7.3V73.2l42.4 31 13.9 10.2 2.6 1.9 16-11.7 40.9-29.9.5-.3L175 62.2v-6.8c0-5.4-4.4-9.8-9.8-9.8z"/><g opacity=".8"><path d="M167.3 154.2c-.1 0-.2 0-.3.1.1-.1.2-.1.3-.1zM117 104.6l-16 11.7 52.2 38.1h4.7V74.7M166.4 154.3h-.3c.1.1.2 0 .3 0z"/></g><path opacity=".35" d="M157.9 74.7v79.7h7.3c4.5 0 8.2-3 9.4-7.1.3-.9.4-1.8.4-2.8V62.2l-16.6 12.1-.5.4z"/></svg>