<?xml version="1.0" encoding="utf-8"?>
<!-- Generator: Adobe Illustrator 18.1.1, SVG Export Plug-In . SVG Version: 6.00 Build 0)  -->
<svg version="1.0" xmlns="http://www.w3.org/2000/svg" xmlns:xlink="http://www.w3.org/1999/xlink" x="0px" y="0px"
	 viewBox="0 0 200 200" enable-background="new 0 0 200 200" xml:space="preserve">
<g id="Layer_1">
</g>
<g id="Layer_2">
	<g id="Add_Favorite">
	</g>
	<g id="New_Symbol_17">
	</g>
	<g>
		<polyline points="153.2,154.4 101,116.3 48.8,154.4 		"/>
		<g>
			<polygon points="164.7,45.6 36.3,45.6 42.1,49.8 100.5,92.5 157.9,50.6 158.4,50.2 			"/>
			<polyline points="43.6,154.4 98.4,114.4 98.4,114.4 84.5,104.2 42.1,73.2 42.1,154.4 			"/>
		</g>
		<path opacity="0.5" d="M165.2,45.6h-0.4l-6.3,4.6l-0.5,0.3l-57.4,41.9L42.1,49.8l-5.8-4.2h-1.5c-5.4,0-9.8,4.4-9.8,9.8v5.3v83.8
			c0,1,0.1,1.9,0.4,2.8c1.2,4.1,5,7.1,9.4,7.1h7.3V73.2l42.4,31l13.9,10.2l2.6,1.9l16-11.7l40.9-29.9l0.5-0.3L175,62.2v-6.8
			C175,50,170.6,45.6,165.2,45.6z"/>
		<g opacity="0.8">
			<path d="M167.3,154.2c-0.1,0-0.2,0-0.3,0.1C167.1,154.2,167.2,154.2,167.3,154.2z"/>
			<polygon points="117,104.6 101,116.3 153.2,154.4 157.9,154.4 157.9,74.7 			"/>
			<path d="M166.4,154.3c-0.1,0-0.2,0-0.3,0C166.2,154.4,166.3,154.3,166.4,154.3z"/>
		</g>
		<path opacity="0.35" d="M157.9,74.7v79.7h7.3c4.5,0,8.2-3,9.4-7.1c0.3-0.9,0.4-1.8,0.4-2.8V62.2l-16.6,12.1L157.9,74.7z"/>
	</g>
</g>
</svg>
