<?xml version="1.0" encoding="utf-8"?>
<!-- Generator: Adobe Illustrator 18.1.1, SVG Export Plug-In . SVG Version: 6.00 Build 0)  -->
<svg version="1.0" xmlns="http://www.w3.org/2000/svg" xmlns:xlink="http://www.w3.org/1999/xlink" x="0px" y="0px"
	 viewBox="0 0 200 200" enable-background="new 0 0 200 200" xml:space="preserve">
<g id="Layer_1">
</g>
<g id="Layer_2">
	<g id="Add_Favorite">
	</g>
	<g id="New_Symbol_17">
	</g>
	<g>
		<path opacity="0.6" d="M162.3,135.7c-3.9-6.1-17-9.9-29.9-15.3c-13-5.4-16-7.3-16-7.3l-0.1-12.4c0,0,4.8-3.7,6.4-15.4
			c3,0.9,6.2-4.5,6.4-7.4c0.2-2.7-0.4-10.3-4.1-9.6c0.3-2.3,0.6-4.6,0.8-6.6c0.1-1.5,0.2-2.8,0.3-4c0.1-1.2,0.1-2.2,0-3
			c-0.2-1.7-0.6-3.4-1.2-5.1L99.9,60.2L75.3,49.8c0,0,0,0,0,0c-0.6,1.6-1,3.2-1.2,4.9c-0.3,2.7,0.3,7.9,1.1,13.6
			c-3.7-0.8-4.3,6.9-4.1,9.6c0.2,2.9,3.4,8.2,6.4,7.4c1.5,11.7,6.4,15.4,6.4,15.4l-0.1,12.4c0,0-3.1,1.9-16,7.3
			c-13,5.4-26,9.3-29.9,15.3c-3.5,5.4-2.4,39.3-2.4,39.3H100h64.7C164.7,175,165.8,141.2,162.3,135.7z"/>
		<g>
			<polygon opacity="0.84" points="99,25.1 52.8,40.6 57,42.4 57,61 63,61 63,44.7 99.9,60.2 146.9,40.2 			"/>
			<rect x="57" y="64" opacity="0.84" width="6" height="7"/>
		</g>
	</g>
</g>
</svg>
