<svg version="1" xmlns="http://www.w3.org/2000/svg" viewBox="0 0 200 200"><path opacity=".6" d="M162.3 135.7c-3.9-6.1-17-9.9-29.9-15.3-13-5.4-16-7.3-16-7.3l-.1-12.4s4.8-3.7 6.4-15.4c3 .9 6.2-4.5 6.4-7.4.2-2.7-.4-10.3-4.1-9.6.3-2.3.6-4.6.8-6.6.1-1.5.2-2.8.3-4 .1-1.2.1-2.2 0-3-.2-1.7-.6-3.4-1.2-5.1l-25 10.6-24.6-10.4c-.6 1.6-1 3.2-1.2 4.9-.3 2.7.3 7.9 1.1 13.6-3.7-.8-4.3 6.9-4.1 9.6.2 2.9 3.4 8.2 6.4 7.4 1.5 11.7 6.4 15.4 6.4 15.4l-.1 12.4s-3.1 1.9-16 7.3c-13 5.4-26 9.3-29.9 15.3-3.5 5.4-2.4 39.3-2.4 39.3h129.2s1.1-33.8-2.4-39.3z"/><path opacity=".84" d="M99 25.1L52.8 40.6l4.2 1.8V61h6V44.7l36.9 15.5 47-20M57 64h6v7h-6z"/></svg>