<?xml version="1.0" encoding="utf-8"?>
<!-- Generator: Adobe Illustrator 18.1.1, SVG Export Plug-In . SVG Version: 6.00 Build 0)  -->
<svg version="1.0" xmlns="http://www.w3.org/2000/svg" xmlns:xlink="http://www.w3.org/1999/xlink" x="0px" y="0px"
	 viewBox="0 0 200 200" enable-background="new 0 0 200 200" xml:space="preserve">
<g id="Layer_1">
</g>
<g id="Layer_2">
	<g id="Add_Favorite">
	</g>
	<g id="New_Symbol_17">
	</g>
	<g>
		<path opacity="0.1" d="M60.4,60.2c-3.2,1-6.7,2.2-10.8,3c-1.2,7.6-4.5,28.4-7.4,46.4l-4.1,25.6c5.5-0.7,14.5-2.2,20.4-3.3
			c5.4-1,7.8-1.4,8.8-1.4c1.2-0.1,2.5-0.1,3.8-0.1c7.9,0,15.9,1.8,23.3,3.5c0.5,0.1,0.7,0.2,1.7,0.3V59.4c-4-0.8-11.5-1.9-14.5-2.2
			c-1.6-0.2-3.2-0.3-4.7-0.3C70.7,56.9,65.7,58.5,60.4,60.2z"/>
		<path d="M89,132.7c-0.2-0.1-0.8-0.2-1.5-0.3C88,132.5,88.5,132.6,89,132.7z M80.8,131.2C80.8,131.2,80.8,131.2,80.8,131.2
			L80.8,131.2c-0.2,0-0.4-0.1-0.7-0.1C80.3,131.1,80.6,131.1,80.8,131.2z M72.1,130.4L72.1,130.4c0,0,0.1,0,0.2,0v0c0,0,0,0,0,0
			H72.1z M70.1,130.4c0.2,0,0.3,0,0.5,0L70.1,130.4L70.1,130.4z M47.8,74.7L47.8,74.7c0.1-0.3,0.1-0.6,0.2-1c0,0.2-0.1,0.5-0.1,0.7
			C47.9,74.5,47.9,74.6,47.8,74.7z M45.9,87.1c0-0.2,0.1-0.4,0.1-0.6c0-0.3,0.1-0.5,0.1-0.8C46,86.2,45.9,86.6,45.9,87.1L45.9,87.1z
			 M44.5,95.9c0-0.1,0.1-0.3,0.1-0.4h0C44.5,95.6,44.5,95.8,44.5,95.9z M44.4,96.4c0,0.1,0,0.1,0,0.2c0-0.1,0-0.3,0.1-0.4
			C44.4,96.3,44.4,96.3,44.4,96.4C44.4,96.4,44.4,96.4,44.4,96.4z M43.8,99.5c0-0.1,0.1-0.3,0.1-0.4C43.9,99.2,43.8,99.4,43.8,99.5
			L43.8,99.5z M40.2,122.4l-0.1,0.3l0.4-2.2h0L40.2,122.4z"/>
		<path d="M160.1,57.5h-6.8c-4.2-1-7.8-2.4-11.3-3.5c-5.7-1.8-11.1-3.8-18.3-3.8c-1.7,0-3.5,0-5.3,0.2c-8.9,1-14.6,1.9-17.4,3.1
			c-2.9-1.1-8.6-2.2-17.4-3.2C81.8,50.1,80,50,78.3,50c-7.2,0-12.6,2.2-18.2,4c-3.6,1.1-7.2,2.5-11.4,3.5h-7.1l-15.6,89h65
			c0.7,2,2.3,3,4.2,3h11.6c1.9,0,3.5-1,4.2-3h65.1 M160.1,57.5 M150.4,63.2l1.4,9c2.9,17.9,8.1,50.6,10.1,63.1
			c-2.1-0.2-4.8-0.6-7.5-1.1L153,123c3.2,0.8,5.7,1.5,7.2,1.9c-0.2-1.5-0.5-3.1-0.8-4.8c-1.8-0.5-4.2-1.1-7-1.8l-0.9-7.8
			c3.1,0.8,5.5,1.5,6.7,1.9c-0.2-1.6-0.5-3.2-0.8-4.8c-1.6-0.5-3.8-1.1-6.5-1.7l-0.9-7.6c3.5,0.9,5.8,1.7,6.1,1.8
			c-0.3-1.6-0.5-3.2-0.8-4.9c-1.4-0.4-3.4-1-5.9-1.6l-1-7.9c2.6,0.7,4.5,1.2,5.6,1.5c-0.3-1.6-0.5-3.3-0.8-4.8
			c-1.4-0.4-3.2-0.9-5.4-1.4l-0.9-7.7c3.1,0.9,5,1.5,5,1.6l0-0.1c-0.1-0.9-0.3-1.7-0.4-2.5l-0.4-2.3c-1.2-0.4-2.9-0.9-4.9-1.4
			l-0.8-6.4c-0.8-0.2-1.5-0.4-2.3-0.7l0.8,6.5c-1.7-0.4-3.6-0.9-5.6-1.3l-0.8-7c-0.8-0.2-1.5-0.5-2.3-0.7l0.9,7.3
			c-1.8-0.3-3.7-0.6-5.6-0.9l-0.9-7.8c-0.7-0.1-1.5-0.3-2.3-0.4l0.9,7.9c-1.9-0.2-3.8-0.3-5.6-0.4l-0.8-7.8c0.4,0,0.8,0,1.3,0
			c6.3,0,10.9,1.5,16.4,3.3C143,61.3,146.4,62.4,150.4,63.2z M146.5,132.8l-1.4-11.4c2,0.4,3.9,0.7,5.6,1.1l1.3,11.3
			C150.2,133.5,148.3,133.2,146.5,132.8z M132.7,130.5c-1-0.1-2-0.1-3-0.1l-1.1-10.8c2.1,0,4.3,0.2,6.4,0.4l1.3,11.1
			c0.3,0,0.5,0.1,0.8,0.2c-0.3-0.1-1-0.1-1-0.1v0C134.1,130.7,133.3,130.6,132.7,130.5z M121,130.9l-0.6-11c2-0.1,4-0.2,5.9-0.3
			l1.2,10.8c0.5,0,0.8,0,1.2,0c-0.5,0-0.6,0-1.6,0v0C125.1,130.5,123.1,130.7,121,130.9z M119,57.1c0.3,0,0.2-0.1,1.2-0.1v0
			c0,0,0.7-0.1,1.1-0.1c-0.4,0-0.9,0.1-1.4,0.1l0.8,7.7c-1.3,0-2.5,0.1-3.7,0.2l-0.5-7.4c-0.7,0.1-1.4,0.2-2.2,0.3l0.5,7.3
			c-1.7,0.2-3.2,0.4-4.6,0.7l-0.3-7.3c-0.8,0.1-1.5,0.2-2.2,0.4l0.7,7.4c-1.5,0.3-2.2,0.7-3.2,0.9v-7.8c0.7-0.2,1.5-0.4,2.6-0.6
			l0.1-0.1c0.7-0.1,1.3-0.2,2.3-0.4v0.1c1-0.2,3-0.5,4-0.7v-0.1c1-0.1,2-0.2,2-0.3v0C117.1,57.3,118.3,57.2,119,57.1z M143.1,104.2
			l-0.9-7.8c2,0.4,3.9,0.8,5.6,1.2l0.9,7.7C146.9,105,145,104.6,143.1,104.2z M149.2,110l0.9,7.9c-1.8-0.4-3.6-0.7-5.6-1.1l-1-8
			C145.6,109.2,147.5,109.6,149.2,110z M127.3,107.5c2.1,0,4.1-0.1,6.2,0.1l1,8c-1.9-0.2-3.9-0.4-5.9-0.4c-0.1,0-0.3,0.2-0.4,0.2
			L127.3,107.5L127.3,107.5z M126.8,102.6l-0.9-8.2c2,0.1,4.1,0.2,6.1,0.5l1,8c-1.8-0.1-3.7-0.3-5.5-0.3
			C127.2,102.6,127,102.6,126.8,102.6z M134.3,95.1c1.9,0.2,3.8,0.5,5.6,0.9l0.9,7.8c-1.8-0.3-3.7-0.5-5.6-0.7L134.3,95.1z
			 M141.3,108.4l1,8c-1.8-0.3-3.7-0.5-5.6-0.7l-1-8.1C137.7,107.8,139.5,108.1,141.3,108.4z M141.6,91.8l-1-8c2,0.4,3.9,0.8,5.6,1.2
			l0.9,7.9C145.5,92.6,143.6,92.2,141.6,91.8z M140.1,79.2l-1-8c2.1,0.4,4,0.9,5.7,1.4l0.9,7.8C144,80,142.1,79.6,140.1,79.2z
			 M139.3,91.4c-1.8-0.3-3.7-0.6-5.6-0.8l-1-8.1c1.9,0.2,3.8,0.5,5.6,0.9L139.3,91.4z M132.2,78.1l-1-8.2c1.9,0.3,3.8,0.6,5.6,0.9
			l1,8.1C136,78.6,134.2,78.3,132.2,78.1z M131.5,90.4c-2-0.2-4-0.3-6-0.4l-0.9-8.2c2,0.1,4,0.2,5.9,0.5L131.5,90.4z M125.9,115.2
			c-1.9,0-3.8,0.1-5.7,0.3l-0.5-8.2c1.8-0.1,3.6-0.2,5.4-0.3L125.9,115.2z M124.2,77.4l-0.9-8.2c1.9,0.1,3.8,0.2,5.7,0.4l1,8.2
			C128.1,77.6,126.1,77.5,124.2,77.4z M123.7,94.4l0.9,8.2c-1.7,0-3.5,0.1-5.2,0.2l-0.5-8.3C120.4,94.4,122.1,94.4,123.7,94.4z
			 M118.6,90.1l-0.5-8.3c1.4-0.1,2.8-0.1,4.3-0.1l0.9,8.2C121.7,90,120.1,90,118.6,90.1z M117.8,77.4l-0.5-8.2
			c1.2-0.1,2.5-0.1,3.8-0.1l0.9,8.2C120.5,77.3,119.1,77.4,117.8,77.4z M109,83l0.5,8.3c-1.8,0.3-3.3,0.6-4.3,0.9v-8.2
			C106.1,83.6,107.2,83.3,109,83z M105.1,79.3v-7.6c0-0.2,1.5-0.6,3.4-1.1l0.5,7.8C107.4,78.8,106.1,79.1,105.1,79.3z M109.4,95.7
			l0.5,8.3c-1.9,0.3-3.8,0.6-4.8,0.8v-8.2C106.1,96.4,107.5,96,109.4,95.7z M109.9,108.5l0.5,8.2c-2.1,0.3-4.2,0.6-5.2,0.9v-8.2
			C106.1,109.1,107.8,108.8,109.9,108.5z M110.3,70.2c1.4-0.3,3-0.5,4.7-0.7l0.5,8.1c-1.8,0.1-3.4,0.3-5,0.6L110.3,70.2z M115.8,82
			l0.5,8.3c-1.9,0.2-3.7,0.4-5.3,0.6l-0.3-8.3C112.3,82.3,114,82.1,115.8,82z M116.7,94.7l0.5,8.4c-2,0.2-3.9,0.4-5.7,0.7l-0.3-8.4
			C112.9,95.1,114.7,94.9,116.7,94.7z M117.5,107.5l0.5,8.2c-2.1,0.2-4.1,0.4-6,0.7l-0.3-8.2C113.5,107.9,115.4,107.7,117.5,107.5z
			 M105.1,122c1-0.2,2.9-0.6,5.2-0.9l0.2,11.8c0.7-0.2,1.4-0.3,2.1-0.5l-0.5-11.6c1.9-0.3,4-0.5,6.1-0.7l0.7,11.1
			c0.4-0.1,0.8-0.1,1.2-0.2c-4.7,0.7-9.3,1.8-14.1,2.9c-0.5,0.1-1,0.2-1,0.3V122z M137.3,120.2c1.9,0.2,3.8,0.5,5.6,0.8l1.4,11.4
			c-1-0.2-1.9-0.3-2.7-0.5c-1.1-0.2-2.1-0.4-2.9-0.5L137.3,120.2z M72.3,57.2c1.5-0.2,3-0.3,4.6-0.3c1.4,0,3.2,0.1,4.8,0.3
			c3,0.3,10.5,1.4,14.5,2.2v7.8c-1-0.3-2.5-0.6-4.1-1l0.2-7.5c-0.7-0.1-1.5-0.2-2.2-0.4l-0.3,7.4c-1.4-0.2-3-0.5-4.6-0.7l0.5-7.4
			c-0.8-0.1-1.5-0.2-2.2-0.3l-0.5,7.5c-1.2-0.1-2.4-0.1-3.6-0.2L80,57c-0.8-0.1-1.5-0.1-2.2-0.1L77,64.7c-1.9,0.1-3.8,0.2-5.6,0.4
			L72.3,57.2z M90.7,104l0.4-8.3c2,0.4,4,0.7,5,1v8.2C95.1,104.7,92.7,104.4,90.7,104z M96.1,109.4v8.2c-2-0.3-3.7-0.6-5.9-0.9
			l0.4-8.2C92.8,108.8,95.1,109.2,96.1,109.4z M91.2,91.3l0.4-8.3c1.9,0.4,3.6,0.7,4.6,1v8.2C95.1,91.9,93,91.6,91.2,91.3z
			 M91.6,78.5l0.4-7.8c2.2,0.5,4.1,1,4.1,1.1v7.6C95.1,79.1,93.3,78.8,91.6,78.5z M68.3,90.4l1-8.1c1.9-0.2,3.9-0.4,5.9-0.5L74.3,90
			C72.3,90.1,70.3,90.2,68.3,90.4z M73.8,94.4l-0.9,8.2c-0.2,0-0.4,0-0.6,0c-1.8,0-3.7,0.1-5.5,0.3l1-8
			C69.8,94.7,71.8,94.5,73.8,94.4z M74.8,107c1.8,0,3.6,0.1,5.4,0.3l-0.5,8.2c-1.9-0.1-3.8-0.2-5.7-0.3L74.8,107z M75.2,102.6
			l0.9-8.2c1.6,0,3.3,0.1,4.9,0.2l-0.5,8.3C78.7,102.7,76.9,102.7,75.2,102.6z M76.5,90l0.9-8.2c1.5,0,2.9,0,4.3,0.1l-0.5,8.3
			C79.7,90,78.1,90,76.5,90z M77.9,77.4l0.9-8.2c1.3,0,2.6,0.1,3.8,0.2L82,77.4C80.7,77.4,79.3,77.3,77.9,77.4z M82.3,107.5
			c2,0.2,4,0.4,5.8,0.7l-0.3,8.2c-1.9-0.2-3.9-0.5-6-0.7L82.3,107.5z M82.6,103.1l0.5-8.4c1.9,0.2,3.8,0.4,5.4,0.7l-0.3,8.3
			C86.5,103.5,84.6,103.3,82.6,103.1z M83.4,90.3l0.5-8.3c1.8,0.2,3.5,0.4,5.1,0.6l-0.3,8.3C87.1,90.7,85.3,90.5,83.4,90.3z
			 M84.2,77.6l0.5-8.1c1.8,0.2,3.3,0.4,4.7,0.7l-0.3,7.9C87.7,77.9,86,77.7,84.2,77.6z M76.5,69.2l-0.9,8.2c-2,0.1-3.9,0.2-5.8,0.4
			l1-8.2C72.7,69.4,74.6,69.2,76.5,69.2z M49.7,63.2c4.1-0.8,7.6-2,10.8-3c3.2-1,6.2-2,9.6-2.6l-0.9,7.8c-8.8,1.1-16.6,3.3-20.4,4.5
			C49.1,67.1,49.4,64.9,49.7,63.2z M47.9,74.7c1.3-0.5,10.2-3.4,20.6-4.8l-1,8.2c-8.8,1-16.7,2.9-20.9,4.1 M45.9,87.2
			c3-0.9,11.4-3.3,21.1-4.6l-1,8c-9.2,1.1-17.3,3.3-21.3,4.5 M45.9,87.2 M43.8,100C43.8,100,43.8,100,43.8,100 M43.8,100
			c1.8-0.6,11-3.4,21.7-4.8l-0.9,8c-9.2,1-17.6,3.1-22,4.4 M40.2,122.4 M39.8,124.9c3.5-1,12.6-3.5,22.7-4.6l-1.3,11.3
			c-0.8,0.1-1.7,0.2-2.7,0.4c-5.9,1-14.9,2.5-20.4,3.2 M40.7,120.1l1.1-7.6h0c3-1,12-3.6,22.2-4.8l-1,8.1
			C53.8,116.7,45.3,118.8,40.7,120.1 M70.1,130.5c-1,0-1.9,0-2.8,0.1c-0.6,0-1.8,0.2-3.9,0.5l1.3-11.1c2.1-0.2,4.3-0.2,6.4-0.3
			 M70.1,130.5 M72.6,107.1l-0.9,8.1c0,0-3.4,0.1-6.4,0.3l0.9-8.1 M80.8,131.1l0.7-11c2.1,0.2,4.2,0.4,6.1,0.7l-0.4,11.5
			c0.1,0,0.2,0,0.3,0.1c0,0,0-0.1,0-0.1c0.7,0.1,1.2,0.2,1.5,0.2h0c0.1,0,0.3,0.2,0.4,0.2l0.7-11.6c2.4,0.4,5,0.7,6,1v12.2
			c-1-0.1-1.4-0.2-1.9-0.3c-1.6-0.4-3.1-0.8-5.1-1.1v0c0-0.2-1-0.3-2-0.5v-0.1c-2-0.4-4-0.8-6-1.1v0C81,131.2,80.9,131.2,80.8,131.1
			C80.8,131.2,80.8,131.2,80.8,131.1 M72.3,130.3l1.1-10.7c1.9,0,3.9,0.1,5.9,0.3l-0.7,11"/>
		<path d="M40.6,120.5l-0.4,1.9l-0.4,2.1h0l0.3-1.8L40.6,120.5L40.6,120.5z M44.6,95.5c0,0.1-0.1,0.3-0.1,0.4
			C44.5,95.8,44.6,95.6,44.6,95.5L44.6,95.5z M44.4,96.4c0,0.1,0,0.2,0,0.2c0,0,0-0.1,0-0.1c0-0.1,0-0.3,0.1-0.4
			C44.4,96.3,44.4,96.3,44.4,96.4C44.4,96.4,44.4,96.4,44.4,96.4z M43.8,99.5c0-0.1,0.1-0.3,0.1-0.4C43.9,99.2,43.8,99.4,43.8,99.5
			L43.8,99.5z M47.9,74.4c0,0.1,0,0.2,0,0.3c0,0,0,0,0,0.1h0c0,0,0,0,0-0.1c0.1-0.3,0.1-0.6,0.2-1C48,73.9,47.9,74.2,47.9,74.4z
			 M70.1,130.4L70.1,130.4L70.1,130.4c0.2,0,0.3,0,0.5,0H70.1z M72.1,130.4c-0.3,0-0.5,0-0.8,0c0.2,0,0.5,0,0.7,0L72.1,130.4
			c0,0,0.1,0,0.2,0v0H72.1z M80.8,131.1c-0.2,0-0.5,0-0.7-0.1c-0.7-0.1-1.3-0.1-2-0.2v0C79,131,79.9,131.1,80.8,131.1
			C80.8,131.2,80.8,131.2,80.8,131.1c0.1,0,0.2,0.1,0.3,0.1v0C81,131.2,80.9,131.1,80.8,131.1z M89,132.7L89,132.7
			c-0.2-0.1-0.8-0.2-1.5-0.3c0,0,0,0,0,0c-0.1,0-0.2,0-0.4-0.1v0.1c1,0.2,2,0.3,2,0.5L89,132.7C89.1,132.8,89.1,132.7,89,132.7z"/>
		<path opacity="0.1" d="M106.2,133.9c7.5-1.7,14.9-3.5,22.8-3.5c1.3,0,2.5,0,3.8,0.1c1,0.1,3.2,0.4,8.7,1.4
			c5.9,1,14.8,2.6,20.3,3.3c-2-12.4-7.2-45.2-10.1-63.1l-1.4-9c-4-0.8-7.4-1.9-10.7-3c-5.5-1.8-10.2-3.3-16.4-3.3
			c-1.5,0-2.7,0.1-4.2,0.3c-3,0.3-10.8,1.4-13.8,2.2v74.9C105.1,134.1,105.7,134,106.2,133.9z"/>
		<path d="M136.3,131.1c0.3,0.1,0.6,0.1,0.9,0.1C136.9,131.2,136.6,131.1,136.3,131.1L136.3,131.1z M127.5,130.4c0.5,0,0.9,0,1.4,0
			C128.4,130.4,128,130.4,127.5,130.4L127.5,130.4z M119.8,57L119.8,57c0.4,0,0.9-0.1,1.3-0.1C120.7,57,120.2,57,119.8,57z
			 M116.1,57.4c0,0.1-1,0.2-2,0.3v0.1C115.1,57.6,116.1,57.5,116.1,57.4L116.1,57.4z M110.1,58.4L110.1,58.4c-1,0.1-1.6,0.2-2.3,0.3
			l0.1,0.1C108.6,58.7,109.1,58.5,110.1,58.4z"/>
		<path d="M40.6,120.5l-0.4,1.9l-0.4,2.1h0l0.3-1.8L40.6,120.5L40.6,120.5z M44.6,95.5c0,0.1-0.1,0.3-0.1,0.4
			C44.5,95.8,44.6,95.6,44.6,95.5L44.6,95.5z M44.4,96.4c0,0.1,0,0.2,0,0.2c0,0,0-0.1,0-0.1c0-0.1,0-0.3,0.1-0.4
			C44.4,96.3,44.4,96.3,44.4,96.4C44.4,96.4,44.4,96.4,44.4,96.4z M43.8,99.5c0-0.1,0.1-0.3,0.1-0.4C43.9,99.2,43.8,99.4,43.8,99.5
			L43.8,99.5z M47.9,74.4c0,0.1,0,0.2,0,0.3c0,0,0,0,0,0.1h0c0,0,0,0,0-0.1c0.1-0.3,0.1-0.6,0.2-1C48,73.9,47.9,74.2,47.9,74.4z
			 M70.1,130.4L70.1,130.4L70.1,130.4c0.2,0,0.3,0,0.5,0H70.1z M72.1,130.4c-0.3,0-0.5,0-0.8,0c0.2,0,0.5,0,0.7,0L72.1,130.4
			c0,0,0.1,0,0.2,0v0H72.1z M80.8,131.1c-0.2,0-0.5,0-0.7-0.1c-0.7-0.1-1.3-0.1-2-0.2v0C79,131,79.9,131.1,80.8,131.1
			C80.8,131.2,80.8,131.2,80.8,131.1c0.1,0,0.2,0.1,0.3,0.1v0C81,131.2,80.9,131.1,80.8,131.1z M89,132.7L89,132.7
			c-0.2-0.1-0.8-0.2-1.5-0.3c0,0,0,0,0,0c-0.1,0-0.2,0-0.4-0.1v0.1c1,0.2,2,0.3,2,0.5L89,132.7C89.1,132.8,89.1,132.7,89,132.7z"/>
		<path d="M136.3,131.1L136.3,131.1c0.3,0.1,0.6,0.1,0.9,0.2C136.9,131.2,136.6,131.1,136.3,131.1z M127.5,130.4c0.5,0,0.9,0,1.4,0
			C128.4,130.4,128,130.4,127.5,130.4L127.5,130.4z M119.8,57.1c0.4-0.1,0.9-0.1,1.3-0.1C120.7,57,120.2,57,119.8,57.1L119.8,57.1z
			 M114.1,57.7c1-0.1,2-0.2,2-0.3v0C116.1,57.5,115.1,57.6,114.1,57.7L114.1,57.7z M107.8,58.8c0.7-0.1,1.3-0.3,2.3-0.4v-0.1
			C109.1,58.5,108.6,58.6,107.8,58.8L107.8,58.8z"/>
	</g>
</g>
</svg>
