<svg version="1" xmlns="http://www.w3.org/2000/svg" viewBox="0 0 200 200"><path opacity=".1" d="M60.4 60.2c-3.2 1-6.7 2.2-10.8 3-1.2 7.6-4.5 28.4-7.4 46.4l-4.1 25.6c5.5-.7 14.5-2.2 20.4-3.3 5.4-1 7.8-1.4 8.8-1.4 1.2-.1 2.5-.1 3.8-.1 7.9 0 15.9 1.8 23.3 3.5.5.1.7.2 1.7.3V59.4c-4-.8-11.5-1.9-14.5-2.2-1.6-.2-3.2-.3-4.7-.3-6.2 0-11.2 1.6-16.5 3.3z"/><path d="M89 132.7c-.2-.1-.8-.2-1.5-.3l1.5.3zm-8.2-1.5c-.2 0-.4-.1-.7-.1.2 0 .5 0 .7.1zm-8.7-.8h.2-.2zm-2 0h.5-.5zM47.8 74.7c.1-.3.1-.6.2-1 0 .2-.1.5-.1.7 0 .1 0 .2-.1.3zm-1.9 12.4c0-.2.1-.4.1-.6 0-.3.1-.5.1-.8-.1.5-.2.9-.2 1.4zm-1.4 8.8c0-.1.1-.3.1-.4-.1.1-.1.3-.1.4zm-.1.5v.2c0-.1 0-.3.1-.4-.1.1-.1.1-.1.2zm-.6 3.1c0-.1.1-.3.1-.4 0 .1-.1.3-.1.4zm-3.6 22.9l-.1.3.4-2.2-.3 1.9z"/><path d="M160.1 57.5h-6.8c-4.2-1-7.8-2.4-11.3-3.5-5.7-1.8-11.1-3.8-18.3-3.8-1.7 0-3.5 0-5.3.2-8.9 1-14.6 1.9-17.4 3.1-2.9-1.1-8.6-2.2-17.4-3.2-1.8-.2-3.6-.3-5.3-.3-7.2 0-12.6 2.2-18.2 4-3.6 1.1-7.2 2.5-11.4 3.5h-7.1l-15.6 89h65c.7 2 2.3 3 4.2 3h11.6c1.9 0 3.5-1 4.2-3h65.1m-25.7-83.3l1.4 9c2.9 17.9 8.1 50.6 10.1 63.1-2.1-.2-4.8-.6-7.5-1.1L153 123c3.2.8 5.7 1.5 7.2 1.9-.2-1.5-.5-3.1-.8-4.8-1.8-.5-4.2-1.1-7-1.8l-.9-7.8c3.1.8 5.5 1.5 6.7 1.9-.2-1.6-.5-3.2-.8-4.8-1.6-.5-3.8-1.1-6.5-1.7l-.9-7.6c3.5.9 5.8 1.7 6.1 1.8-.3-1.6-.5-3.2-.8-4.9-1.4-.4-3.4-1-5.9-1.6l-1-7.9c2.6.7 4.5 1.2 5.6 1.5-.3-1.6-.5-3.3-.8-4.8-1.4-.4-3.2-.9-5.4-1.4l-.9-7.7c3.1.9 5 1.5 5 1.6v-.1c-.1-.9-.3-1.7-.4-2.5l-.4-2.3c-1.2-.4-2.9-.9-4.9-1.4l-.8-6.4c-.8-.2-1.5-.4-2.3-.7l.8 6.5c-1.7-.4-3.6-.9-5.6-1.3l-.8-7c-.8-.2-1.5-.5-2.3-.7l.9 7.3c-1.8-.3-3.7-.6-5.6-.9l-.9-7.8c-.7-.1-1.5-.3-2.3-.4l.9 7.9c-1.9-.2-3.8-.3-5.6-.4l-.8-7.8h1.3c6.3 0 10.9 1.5 16.4 3.3 3.5 1.1 6.9 2.2 10.9 3zm-3.9 69.6l-1.4-11.4c2 .4 3.9.7 5.6 1.1l1.3 11.3c-1.8-.3-3.7-.6-5.5-1zm-13.8-2.3c-1-.1-2-.1-3-.1l-1.1-10.8c2.1 0 4.3.2 6.4.4l1.3 11.1c.3 0 .5.1.8.2-.3-.1-1-.1-1-.1-2-.5-2.8-.6-3.4-.7zm-11.7.4l-.6-11c2-.1 4-.2 5.9-.3l1.2 10.8h1.2-1.6c-2 .1-4 .3-6.1.5zm-2-73.8c.3 0 .2-.1 1.2-.1 0 0 .7-.1 1.1-.1-.4 0-.9.1-1.4.1l.8 7.7c-1.3 0-2.5.1-3.7.2l-.5-7.4c-.7.1-1.4.2-2.2.3l.5 7.3c-1.7.2-3.2.4-4.6.7l-.3-7.3c-.8.1-1.5.2-2.2.4l.7 7.4c-1.5.3-2.2.7-3.2.9v-7.8c.7-.2 1.5-.4 2.6-.6l.1-.1c.7-.1 1.3-.2 2.3-.4v.1c1-.2 3-.5 4-.7v-.1c1-.1 2-.2 2-.3.9 0 2.1-.1 2.8-.2zm24.1 47.1l-.9-7.8c2 .4 3.9.8 5.6 1.2l.9 7.7c-1.8-.3-3.7-.7-5.6-1.1zm6.1 5.8l.9 7.9c-1.8-.4-3.6-.7-5.6-1.1l-1-8c2.1.4 4 .8 5.7 1.2zm-21.9-2.5c2.1 0 4.1-.1 6.2.1l1 8c-1.9-.2-3.9-.4-5.9-.4-.1 0-.3.2-.4.2l-.9-7.9zm-.5-4.9l-.9-8.2c2 .1 4.1.2 6.1.5l1 8c-1.8-.1-3.7-.3-5.5-.3h-.7zm7.5-7.5c1.9.2 3.8.5 5.6.9l.9 7.8c-1.8-.3-3.7-.5-5.6-.7l-.9-8zm7 13.3l1 8c-1.8-.3-3.7-.5-5.6-.7l-1-8.1c2 .2 3.8.5 5.6.8zm.3-16.6l-1-8c2 .4 3.9.8 5.6 1.2l.9 7.9c-1.6-.3-3.5-.7-5.5-1.1zm-1.5-12.6l-1-8c2.1.4 4 .9 5.7 1.4l.9 7.8c-1.7-.4-3.6-.8-5.6-1.2zm-.8 12.2c-1.8-.3-3.7-.6-5.6-.8l-1-8.1c1.9.2 3.8.5 5.6.9l1 8zm-7.1-13.3l-1-8.2c1.9.3 3.8.6 5.6.9l1 8.1c-1.8-.3-3.6-.6-5.6-.8zm-.7 12.3c-2-.2-4-.3-6-.4l-.9-8.2c2 .1 4 .2 5.9.5l1 8.1zm-5.6 24.8c-1.9 0-3.8.1-5.7.3l-.5-8.2 5.4-.3.8 8.2zm-1.7-37.8l-.9-8.2c1.9.1 3.8.2 5.7.4l1 8.2c-1.9-.2-3.9-.3-5.8-.4zm-.5 17l.9 8.2c-1.7 0-3.5.1-5.2.2l-.5-8.3c1.5-.1 3.2-.1 4.8-.1zm-5.1-4.3l-.5-8.3c1.4-.1 2.8-.1 4.3-.1l.9 8.2c-1.6.1-3.2.1-4.7.2zm-.8-12.7l-.5-8.2c1.2-.1 2.5-.1 3.8-.1l.9 8.2c-1.5 0-2.9.1-4.2.1zM109 83l.5 8.3c-1.8.3-3.3.6-4.3.9V84c.9-.4 2-.7 3.8-1zm-3.9-3.7v-7.6c0-.2 1.5-.6 3.4-1.1l.5 7.8c-1.6.4-2.9.7-3.9.9zm4.3 16.4l.5 8.3c-1.9.3-3.8.6-4.8.8v-8.2c1-.2 2.4-.6 4.3-.9zm.5 12.8l.5 8.2c-2.1.3-4.2.6-5.2.9v-8.2c.9-.3 2.6-.6 4.7-.9zm.4-38.3c1.4-.3 3-.5 4.7-.7l.5 8.1c-1.8.1-3.4.3-5 .6l-.2-8zm5.5 11.8l.5 8.3c-1.9.2-3.7.4-5.3.6l-.3-8.3c1.6-.3 3.3-.5 5.1-.6zm.9 12.7l.5 8.4c-2 .2-3.9.4-5.7.7l-.3-8.4c1.7-.3 3.5-.5 5.5-.7zm.8 12.8l.5 8.2c-2.1.2-4.1.4-6 .7l-.3-8.2c1.8-.3 3.7-.5 5.8-.7zM105.1 122c1-.2 2.9-.6 5.2-.9l.2 11.8c.7-.2 1.4-.3 2.1-.5l-.5-11.6c1.9-.3 4-.5 6.1-.7l.7 11.1c.4-.1.8-.1 1.2-.2-4.7.7-9.3 1.8-14.1 2.9-.5.1-1 .2-1 .3V122zm32.2-1.8c1.9.2 3.8.5 5.6.8l1.4 11.4c-1-.2-1.9-.3-2.7-.5-1.1-.2-2.1-.4-2.9-.5l-1.4-11.2zm-65-63c1.5-.2 3-.3 4.6-.3 1.4 0 3.2.1 4.8.3 3 .3 10.5 1.4 14.5 2.2v7.8c-1-.3-2.5-.6-4.1-1l.2-7.5c-.7-.1-1.5-.2-2.2-.4l-.3 7.4c-1.4-.2-3-.5-4.6-.7l.5-7.4c-.8-.1-1.5-.2-2.2-.3l-.5 7.5c-1.2-.1-2.4-.1-3.6-.2L80 57c-.8-.1-1.5-.1-2.2-.1l-.8 7.8c-1.9.1-3.8.2-5.6.4l.9-7.9zM90.7 104l.4-8.3c2 .4 4 .7 5 1v8.2c-1-.2-3.4-.5-5.4-.9zm5.4 5.4v8.2c-2-.3-3.7-.6-5.9-.9l.4-8.2c2.2.3 4.5.7 5.5.9zm-4.9-18.1l.4-8.3c1.9.4 3.6.7 4.6 1v8.2c-1.1-.3-3.2-.6-5-.9zm.4-12.8l.4-7.8c2.2.5 4.1 1 4.1 1.1v7.6c-1-.3-2.8-.6-4.5-.9zM68.3 90.4l1-8.1c1.9-.2 3.9-.4 5.9-.5l-.9 8.2c-2 .1-4 .2-6 .4zm5.5 4l-.9 8.2h-.6c-1.8 0-3.7.1-5.5.3l1-8c2-.2 4-.4 6-.5zm1 12.6c1.8 0 3.6.1 5.4.3l-.5 8.2-5.7-.3.8-8.2zm.4-4.4l.9-8.2c1.6 0 3.3.1 4.9.2l-.5 8.3c-1.8-.2-3.6-.2-5.3-.3zM76.5 90l.9-8.2c1.5 0 2.9 0 4.3.1l-.5 8.3c-1.5-.2-3.1-.2-4.7-.2zm1.4-12.6l.9-8.2c1.3 0 2.6.1 3.8.2l-.6 8c-1.3 0-2.7-.1-4.1 0zm4.4 30.1c2 .2 4 .4 5.8.7l-.3 8.2c-1.9-.2-3.9-.5-6-.7l.5-8.2zm.3-4.4l.5-8.4c1.9.2 3.8.4 5.4.7l-.3 8.3c-1.7-.2-3.6-.4-5.6-.6zm.8-12.8l.5-8.3c1.8.2 3.5.4 5.1.6l-.3 8.3c-1.6-.2-3.4-.4-5.3-.6zm.8-12.7l.5-8.1c1.8.2 3.3.4 4.7.7l-.3 7.9c-1.4-.2-3.1-.4-4.9-.5zm-7.7-8.4l-.9 8.2c-2 .1-3.9.2-5.8.4l1-8.2c1.9-.2 3.8-.4 5.7-.4zm-26.8-6c4.1-.8 7.6-2 10.8-3 3.2-1 6.2-2 9.6-2.6l-.9 7.8c-8.8 1.1-16.6 3.3-20.4 4.5.3-2.8.6-5 .9-6.7zm-1.8 11.5c1.3-.5 10.2-3.4 20.6-4.8l-1 8.2c-8.8 1-16.7 2.9-20.9 4.1m-.7 5c3-.9 11.4-3.3 21.1-4.6l-1 8c-9.2 1.1-17.3 3.3-21.3 4.5M43.8 100c1.8-.6 11-3.4 21.7-4.8l-.9 8c-9.2 1-17.6 3.1-22 4.4m-2.8 17.3c3.5-1 12.6-3.5 22.7-4.6l-1.3 11.3c-.8.1-1.7.2-2.7.4-5.9 1-14.9 2.5-20.4 3.2m2.6-15.1l1.1-7.6c3-1 12-3.6 22.2-4.8l-1 8.1c-9.2.9-17.7 3-22.3 4.3m29.4 10.4c-1 0-1.9 0-2.8.1-.6 0-1.8.2-3.9.5l1.3-11.1c2.1-.2 4.3-.2 6.4-.3M72.6 107.1l-.9 8.1s-3.4.1-6.4.3l.9-8.1m14.6 23.7l.7-11c2.1.2 4.2.4 6.1.7l-.4 11.5c.1 0 .2 0 .3.1v-.1c.7.1 1.2.2 1.5.2.1 0 .3.2.4.2l.7-11.6c2.4.4 5 .7 6 1v12.2c-1-.1-1.4-.2-1.9-.3-1.6-.4-3.1-.8-5.1-1.1 0-.2-1-.3-2-.5v-.1c-2-.4-4-.8-6-1.1-.1 0-.2 0-.3-.1 0 .1 0 .1 0 0m-8.5-.8l1.1-10.7c1.9 0 3.9.1 5.9.3l-.7 11"/><path d="M40.6 120.5l-.4 1.9-.4 2.1.3-1.8.5-2.2zm4-25c0 .1-.1.3-.1.4 0-.1.1-.3.1-.4zm-.2.9v.1c0-.1 0-.3.1-.4-.1.2-.1.2-.1.3zm-.6 3.1c0-.1.1-.3.1-.4 0 .1-.1.3-.1.4zm4.1-25.1V74.7c.1-.3.1-.6.2-1-.1.2-.2.5-.2.7zm22.2 56h.5-.5zm2 0h-.8 1-.2zm8.7.7c-.2 0-.5 0-.7-.1-.7-.1-1.3-.1-2-.2.9.2 1.8.3 2.7.3 0 .1 0 .1 0 0 .1 0 .2.1.3.1-.1 0-.2-.1-.3-.1zm8.2 1.6c-.2-.1-.8-.2-1.5-.3-.1 0-.2 0-.4-.1v.1c1 .2 2 .3 2 .5l-.1-.2c.1.1.1 0 0 0z"/><path opacity=".1" d="M106.2 133.9c7.5-1.7 14.9-3.5 22.8-3.5 1.3 0 2.5 0 3.8.1 1 .1 3.2.4 8.7 1.4 5.9 1 14.8 2.6 20.3 3.3-2-12.4-7.2-45.2-10.1-63.1l-1.4-9c-4-.8-7.4-1.9-10.7-3-5.5-1.8-10.2-3.3-16.4-3.3-1.5 0-2.7.1-4.2.3-3 .3-10.8 1.4-13.8 2.2v74.9c-.1-.1.5-.2 1-.3z"/><path d="M136.3 131.1c.3.1.6.1.9.1-.3 0-.6-.1-.9-.1zm-8.8-.7h1.4-1.4zM119.8 57c.4 0 .9-.1 1.3-.1-.4.1-.9.1-1.3.1zm-3.7.4c0 .1-1 .2-2 .3v.1c1-.2 2-.3 2-.4zm-6 1c-1 .1-1.6.2-2.3.3l.1.1c.7-.1 1.2-.3 2.2-.4zM40.6 120.5l-.4 1.9-.4 2.1.3-1.8.5-2.2zm4-25c0 .1-.1.3-.1.4 0-.1.1-.3.1-.4zm-.2.9v.1c0-.1 0-.3.1-.4-.1.2-.1.2-.1.3zm-.6 3.1c0-.1.1-.3.1-.4 0 .1-.1.3-.1.4zm4.1-25.1V74.7c.1-.3.1-.6.2-1-.1.2-.2.5-.2.7zm22.2 56h.5-.5zm2 0h-.8 1-.2zm8.7.7c-.2 0-.5 0-.7-.1-.7-.1-1.3-.1-2-.2.9.2 1.8.3 2.7.3 0 .1 0 .1 0 0 .1 0 .2.1.3.1-.1 0-.2-.1-.3-.1zm8.2 1.6c-.2-.1-.8-.2-1.5-.3-.1 0-.2 0-.4-.1v.1c1 .2 2 .3 2 .5l-.1-.2c.1.1.1 0 0 0z"/><path d="M136.3 131.1c.3.1.6.1.9.2-.3-.1-.6-.2-.9-.2zm-8.8-.7h1.4-1.4zm-7.7-73.3c.4-.1.9-.1 1.3-.1-.4 0-.9 0-1.3.1zm-5.7.6c1-.1 2-.2 2-.3 0 .1-1 .2-2 .3zm-6.3 1.1c.7-.1 1.3-.3 2.3-.4v-.1c-1 .2-1.5.3-2.3.5z"/></svg>