<?xml version="1.0" encoding="utf-8"?>
<!-- Generator: Adobe Illustrator 18.1.1, SVG Export Plug-In . SVG Version: 6.00 Build 0)  -->
<svg version="1.0" xmlns="http://www.w3.org/2000/svg" xmlns:xlink="http://www.w3.org/1999/xlink" x="0px" y="0px"
	 viewBox="0 0 200 200" enable-background="new 0 0 200 200" xml:space="preserve">
<g id="Layer_1">
</g>
<g id="Layer_2">
	<g id="Add_Favorite">
	</g>
	<g id="New_Symbol_17">
	</g>
	<g>
		<path opacity="0.65" d="M134.3,46.1l0.3-0.2c-2-0.2-3.7-0.4-5.4-0.4h0v-0.3c-3,0-4.8,0.5-6.9,0.8c-0.1,0-0.3,0.2-0.4,0.2
			c0,0,0,0.1,0,0.1c-7.1,1.3-12,4.7-16.7,9.4c-1.6,1.6-3.2,3.5-4.9,5.4c-1.7-2-3.4-3.9-5.1-5.6c-4.6-4.6-9.5-7.9-16.5-9.2
			c0,0,0,0,0,0c-0.1,0-0.4-0.2-0.6-0.2c-2.1-0.4-5-0.9-7-0.9v0.3h0.3c-1.8,0-3.7,0.2-5.7,0.4l-0.6,0.2c-18.6,2.6-29,18.1-29,37.7
			v0.5c0,21.3,18.2,49.2,63.4,81.2h0.1h0h0h0c45.7-32,62.4-59.9,62.4-81.2v-0.5C162.1,64.2,153,48.7,134.3,46.1z"/>
		<path d="M100.2,136.3c-1,0-2-0.6-2.4-1.5l-21-40.9l-10.3,16.2c-0.5,0.8-1.4,1.4-2.3,1.4H27.7c-1.5,0-2.7-1-2.7-2.5
			c0-1.5,1.2-2.5,2.7-2.5h34.9l12.1-19.2c0.5-0.8,1.5-1.5,2.4-1.4c1,0,1.9,0.5,2.3,1.4l20.4,39.7l20.5-52.8c0.4-1.1,1.4-1.6,2.6-1.6
			c0,0,0,0,0,0c1.1,0,2.2,0.9,2.6,1.9l11.8,32.1h35c1.5,0,2.7,1,2.7,2.5c0,1.5-1.2,2.5-2.7,2.5h-36.9c-1.1,0-2.2-0.8-2.6-1.9
			l-9.9-27l-20.1,51.9c-0.4,1-1.3,1.7-2.4,1.7C100.3,136.3,100.2,136.3,100.2,136.3z"/>
	</g>
</g>
</svg>
