<svg version="1" xmlns="http://www.w3.org/2000/svg" viewBox="0 0 200 200"><path opacity=".65" d="M134.3 46.1l.3-.2c-2-.2-3.7-.4-5.4-.4v-.3c-3 0-4.8.5-6.9.8-.1 0-.3.2-.4.2v.1c-7.1 1.3-12 4.7-16.7 9.4-1.6 1.6-3.2 3.5-4.9 5.4-1.7-2-3.4-3.9-5.1-5.6-4.6-4.6-9.5-7.9-16.5-9.2-.1 0-.4-.2-.6-.2-2.1-.4-5-.9-7-.9v.3h.3c-1.8 0-3.7.2-5.7.4l-.6.2c-18.6 2.6-29 18.1-29 37.7v.5c0 21.3 18.2 49.2 63.4 81.2h.1c45.7-32 62.4-59.9 62.4-81.2v-.5c.1-19.6-9-35.1-27.7-37.7z"/><path d="M100.2 136.3c-1 0-2-.6-2.4-1.5l-21-40.9-10.3 16.2c-.5.8-1.4 1.4-2.3 1.4H27.7c-1.5 0-2.7-1-2.7-2.5s1.2-2.5 2.7-2.5h34.9l12.1-19.2c.5-.8 1.5-1.5 2.4-1.4 1 0 1.9.5 2.3 1.4L99.8 127l20.5-52.8c.4-1.1 1.4-1.6 2.6-1.6 1.1 0 2.2.9 2.6 1.9l11.8 32.1h35c1.5 0 2.7 1 2.7 2.5s-1.2 2.5-2.7 2.5h-36.9c-1.1 0-2.2-.8-2.6-1.9l-9.9-27-20.1 51.9c-.4 1-1.3 1.7-2.4 1.7h-.2z"/></svg>