<svg version="1" xmlns="http://www.w3.org/2000/svg" viewBox="0 0 200 200"><path opacity=".75" d="M149.5 90.9l-26.4-19.3-21.4-15.5c-1.1-.8-2.4-.9-3.7 0L41.1 97.3v56.2c0 6.6 5.8 12 12.4 12h52.6v-55h33v55h7.4c6.6 0 11.6-5.4 11.6-12V97.3l-8.6-6.4zm-75.4 45.6h-13v-12h13v12zm0-16h-13v-12h13v12zm16 16h-13v-12h13v12zm0-16h-13v-12h13v12z"/><path d="M173.2 88.9l-14.7-10.7-8.8-6.3c-2.4-2.1-3.5-4.6-3.5-8.1V41.5c0-3.9-3.1-7-7-7h-4.7c-3.9 0-7.3 3.2-7.3 7V49c0 3.2-1.7 4.9-4.1 3.9l-6.3-4.4-14.9-11.1v-.1c-1-.8-2.2-.9-3.4-.1 0 0 0 .2-.1.3l-15 11.1-41.9 29.7-14.7 10.6c-.6.4-.9 1.2-.9 2.2 0 1.7.9 4 2.5 6.1 1.4 1.9 3.1 3.4 4.6 4 .1.1.3.1.4.2h.1c.1 0 .2.1.3.1H35.1c.1 0 .1 0 .2-.1h.1c.1 0 .1-.1.2-.1h.2l5.6-4.1 56.8-41.1c1.3-.9 2.5-.8 3.5 0l21.4 15.5 26.6 19.3 8.8 6.4.3.2 5.3 3.9h.2c.1 0 .1.1.2.1h.1c.1 0 .1 0 .2.1h.8c.1 0 .2 0 .3-.1h.1c.1 0 .2-.1.4-.1h.1c.2-.1.3-.1.5-.2 1.5-.7 3.1-2.1 4.6-4 1.6-2.2 2.4-4.4 2.4-6.1.1-.9-.2-1.7-.8-2.2z"/><path opacity=".3" d="M106.1 110.5h33v55h-33z"/><path opacity=".2" d="M61.1 124.5h13v12h-13zM77.1 124.5h13v12h-13zM61.1 108.5h13v12h-13zM77.1 108.5h13v12h-13z"/></svg>