<?xml version="1.0" encoding="utf-8"?>
<!-- Generator: Adobe Illustrator 18.1.1, SVG Export Plug-In . SVG Version: 6.00 Build 0)  -->
<svg version="1.0" xmlns="http://www.w3.org/2000/svg" xmlns:xlink="http://www.w3.org/1999/xlink" x="0px" y="0px"
	 viewBox="0 0 200 200" enable-background="new 0 0 200 200" xml:space="preserve">
<g id="Layer_1">
</g>
<g id="Layer_2">
	<g id="Add_Favorite">
	</g>
	<g id="New_Symbol_17">
	</g>
	<g>
		<path opacity="0.75" d="M149.5,90.9l-26.4-19.3l-21.4-15.5c-1.1-0.8-2.4-0.9-3.7,0L41.1,97.3v56.2c0,6.6,5.8,12,12.4,12h52.6v-55
			h33v55h7.4c6.6,0,11.6-5.4,11.6-12V97.3L149.5,90.9z M74.1,136.5h-13v-12h13V136.5z M74.1,120.5h-13v-12h13V120.5z M90.1,136.5
			h-13v-12h13V136.5z M90.1,120.5h-13v-12h13V120.5z"/>
		<path d="M173.2,88.9l-14.7-10.7l-8.8-6.3c-2.4-2.1-3.5-4.6-3.5-8.1V48.5v-7c0-3.9-3.1-7-7-7h-4.7c-3.9,0-7.3,3.2-7.3,7v7V49
			c0,3.2-1.7,4.9-4.1,3.9l-6.3-4.4l-14.9-11.1c0,0,0-0.1,0-0.1c-1-0.8-2.2-0.9-3.4-0.1c0,0,0,0.2-0.1,0.3l-15,11.1L41.5,78.3
			L26.8,88.9c-0.6,0.4-0.9,1.2-0.9,2.2c0,1.7,0.9,4,2.5,6.1c1.4,1.9,3.1,3.4,4.6,4c0,0,0,0,0,0c0.1,0.1,0.3,0.1,0.4,0.2
			c0,0,0.1,0,0.1,0c0.1,0,0.2,0.1,0.3,0.1c0.1,0,0.1,0,0.2,0c0.1,0,0.2,0,0.3,0c0.1,0,0.1,0,0.2,0c0.1,0,0.1,0,0.2,0
			c0.1,0,0.1,0,0.2,0c0.1,0,0.1,0,0.2,0c0.1,0,0.1,0,0.2-0.1c0,0,0.1,0,0.1,0c0.1,0,0.1-0.1,0.2-0.1c0,0,0.1,0,0.1,0l0,0
			c0,0,0,0,0.1,0l5.6-4.1l0,0l0,0l56.8-41.1c1.3-0.9,2.5-0.8,3.5,0l21.4,15.5l26.6,19.3l8.8,6.4l0.3,0.2l0,0l5.3,3.9c0,0,0,0,0.1,0
			l0,0c0,0,0.1,0,0.1,0c0.1,0,0.1,0.1,0.2,0.1c0,0,0.1,0,0.1,0c0.1,0,0.1,0,0.2,0.1c0.1,0,0.1,0,0.2,0c0.1,0,0.1,0,0.2,0
			c0.1,0,0.2,0,0.2,0c0.1,0,0.1,0,0.2,0c0.1,0,0.2,0,0.3-0.1c0,0,0.1,0,0.1,0c0.1,0,0.2-0.1,0.4-0.1c0,0,0.1,0,0.1,0
			c0.2-0.1,0.3-0.1,0.5-0.2c0,0,0,0,0,0c1.5-0.7,3.1-2.1,4.6-4c1.6-2.2,2.4-4.4,2.4-6.1C174.1,90.2,173.8,89.4,173.2,88.9z"/>
		<g>
			<rect x="106.1" y="110.5" opacity="0.3" width="33" height="55"/>
			<g>
				<rect x="61.1" y="124.5" opacity="0.2" width="13" height="12"/>
				<rect x="77.1" y="124.5" opacity="0.2" width="13" height="12"/>
				<rect x="61.1" y="108.5" opacity="0.2" width="13" height="12"/>
				<rect x="77.1" y="108.5" opacity="0.2" width="13" height="12"/>
			</g>
		</g>
	</g>
</g>
</svg>
