<svg version="1" xmlns="http://www.w3.org/2000/svg" viewBox="0 0 200 200"><path opacity=".75" d="M168.8 53.1H31.2c-3.5 0-6.2 2.8-6.2 6.2v10h150v-10c0-3.4-2.8-6.2-6.2-6.2z"/><path d="M25 69.4v71.2c0 3.5 2.8 6.2 6.2 6.2h137.5c3.5 0 6.2-2.8 6.2-6.2V69.4H25zm59.1 68.1h-50v-59h50v59zm54 0h-44v-7h44v7zm28 0h-19v-7h19v7zm0-27h-72v-4h72v4zm0-9h-72v-4h72v4zm0-9h-72v-5h72v5zm0-10h-72v-4h72v4z"/><path opacity=".35" d="M94.1 78.5h72v4h-72zM94.1 87.5h72v5h-72zM94.1 97.5h72v4h-72zM94.1 106.5h72v4h-72zM94.1 130.5h44v7h-44zM147.1 130.5h19v7h-19z"/><path opacity=".5" d="M34.1 78.5v59h.8s-.4-12.4.9-14.4c1.4-2.3 6.3-3.6 11.1-5.6 4.8-2 6-2.7 6-2.7v-4.6s-1.8-1.4-2.4-5.7c-1.1.3-2.3-1.7-2.4-2.7-.1-1 .2-3.8 1.5-3.6-.3-2.1-.5-4.1-.4-5.1.1-.6.2-1.2.4-1.8.2-.5.5-1.1.8-1.6.4-.6-1.1-1.8-.3-1.7 1.9.4 2.2-1.9 4.6-2.4 1.2-.3 2.7-.2 4.1-.2.8 0 1.1-.5 1.8-.4.8.2 2.1 1.1 2.8 1.4.7.4 2 .4 2.6.8.9.7 1 2 1.6 3 .5.9.8 1.9.9 2.8v1.1c0 .4-.1.9-.1 1.5-.1.8-.2 1.6-.3 2.5 1.4-.3 1.6 2.6 1.5 3.6-.1 1.1-1.2 3.1-2.4 2.7-.6 4.4-2.4 5.7-2.4 5.7v4.6s1.1.7 6 2.7c4.8 2 9.7 3.2 11.1 5.5 1.3 2 .9 14.4.9 14.4h1v-59H34.1z"/><path d="M82.2 123.3c-1.4-2.3-6.3-3.7-11.1-5.7s-6-2.7-6-2.7v-4.6s1.8-1.4 2.4-5.7c1.1.3 2.3-1.7 2.4-2.7.1-1-.2-3.9-1.5-3.6.1-.9.2-1.7.3-2.5.1-.5.1-1 .1-1.5v-1.1c-.1-1-.4-1.9-.9-2.8-.5-.9-.7-2.2-1.6-3-.6-.5-1.9-.5-2.6-.8-.7-.3-2-1.2-2.8-1.4-.7-.2-1 .4-1.8.4-1.4 0-2.9-.1-4.1.2-2.4.5-2.7 2.8-4.6 2.4-.7-.2.7 1.1.3 1.7-.3.5-.6 1-.8 1.6-.2.6-.4 1.2-.4 1.8-.1 1 .1 2.9.4 5.1-1.4-.3-1.6 2.6-1.5 3.6.1 1.1 1.3 3.1 2.4 2.7.6 4.4 2.4 5.7 2.4 5.7v4.6s-1.1.7-6 2.7c-4.8 2-9.7 3.4-11.1 5.7-1.3 2-.9 14.6-.9 14.6H83.1c0-.1.4-12.7-.9-14.7z" opacity=".74"/></svg>