<?xml version="1.0" encoding="utf-8"?>
<!-- Generator: Adobe Illustrator 18.1.1, SVG Export Plug-In . SVG Version: 6.00 Build 0)  -->
<svg version="1.0" xmlns="http://www.w3.org/2000/svg" xmlns:xlink="http://www.w3.org/1999/xlink" x="0px" y="0px"
	 viewBox="0 0 200 200" enable-background="new 0 0 200 200" xml:space="preserve">
<g id="Layer_1">
</g>
<g id="Layer_2">
	<g id="Add_Favorite">
	</g>
	<g id="New_Symbol_17">
	</g>
	<g>
		<path opacity="0.75" d="M168.8,53.1H31.2c-3.5,0-6.2,2.8-6.2,6.2v10h150v-10C175,55.9,172.2,53.1,168.8,53.1z"/>
		<path d="M25,69.4v71.2c0,3.5,2.8,6.2,6.2,6.2h137.5c3.5,0,6.2-2.8,6.2-6.2V69.4H25z M84.1,137.5h-50v-59h50V137.5z M138.1,137.5
			h-44v-7h44V137.5z M166.1,137.5h-19v-7h19V137.5z M166.1,110.5h-72v-4h72V110.5z M166.1,101.5h-72v-4h72V101.5z M166.1,92.5h-72
			v-5h72V92.5z M166.1,82.5h-72v-4h72V82.5z"/>
		<rect x="94.1" y="78.5" opacity="0.35" width="72" height="4"/>
		<rect x="94.1" y="87.5" opacity="0.35" width="72" height="5"/>
		<rect x="94.1" y="97.5" opacity="0.35" width="72" height="4"/>
		<rect x="94.1" y="106.5" opacity="0.35" width="72" height="4"/>
		<rect x="94.1" y="130.5" opacity="0.35" width="44" height="7"/>
		<rect x="147.1" y="130.5" opacity="0.35" width="19" height="7"/>
		<path opacity="0.5" d="M34.1,78.5v59h0.8c0,0-0.4-12.4,0.9-14.4c1.4-2.3,6.3-3.6,11.1-5.6c4.8-2,6-2.7,6-2.7l0-4.6
			c0,0-1.8-1.4-2.4-5.7c-1.1,0.3-2.3-1.7-2.4-2.7c-0.1-1,0.2-3.8,1.5-3.6c-0.3-2.1-0.5-4.1-0.4-5.1c0.1-0.6,0.2-1.2,0.4-1.8
			c0.2-0.5,0.5-1.1,0.8-1.6c0.4-0.6-1.1-1.8-0.3-1.7c1.9,0.4,2.2-1.9,4.6-2.4c1.2-0.3,2.7-0.2,4.1-0.2c0.8,0,1.1-0.5,1.8-0.4
			c0.8,0.2,2.1,1.1,2.8,1.4c0.7,0.4,2,0.4,2.6,0.8c0.9,0.7,1,2,1.6,3c0.5,0.9,0.8,1.9,0.9,2.8c0,0.3,0,0.7,0,1.1
			c0,0.4-0.1,0.9-0.1,1.5c-0.1,0.8-0.2,1.6-0.3,2.5c1.4-0.3,1.6,2.6,1.5,3.6c-0.1,1.1-1.2,3.1-2.4,2.7c-0.6,4.4-2.4,5.7-2.4,5.7
			l0,4.6c0,0,1.1,0.7,6,2.7c4.8,2,9.7,3.2,11.1,5.5c1.3,2,0.9,14.4,0.9,14.4h1v-59H34.1z"/>
		<g opacity="0.74">
			<path d="M82.2,123.3c-1.4-2.3-6.3-3.7-11.1-5.7c-4.8-2-6-2.7-6-2.7l0-4.6c0,0,1.8-1.4,2.4-5.7c1.1,0.3,2.3-1.7,2.4-2.7
				c0.1-1-0.2-3.9-1.5-3.6c0.1-0.9,0.2-1.7,0.3-2.5c0.1-0.5,0.1-1,0.1-1.5c0-0.4,0-0.8,0-1.1c-0.1-1-0.4-1.9-0.9-2.8
				c-0.5-0.9-0.7-2.2-1.6-3c-0.6-0.5-1.9-0.5-2.6-0.8c-0.7-0.3-2-1.2-2.8-1.4c-0.7-0.2-1,0.4-1.8,0.4c-1.4,0-2.9-0.1-4.1,0.2
				c-2.4,0.5-2.7,2.8-4.6,2.4c-0.7-0.2,0.7,1.1,0.3,1.7c-0.3,0.5-0.6,1-0.8,1.6c-0.2,0.6-0.4,1.2-0.4,1.8c-0.1,1,0.1,2.9,0.4,5.1
				c-1.4-0.3-1.6,2.6-1.5,3.6c0.1,1.1,1.3,3.1,2.4,2.7c0.6,4.4,2.4,5.7,2.4,5.7l0,4.6c0,0-1.1,0.7-6,2.7c-4.8,2-9.7,3.4-11.1,5.7
				c-1.3,2-0.9,14.6-0.9,14.6H59h24.1C83.1,137.9,83.5,125.3,82.2,123.3z"/>
		</g>
	</g>
</g>
</svg>
