<?xml version="1.0" encoding="utf-8"?>
<!-- Generator: Adobe Illustrator 18.1.1, SVG Export Plug-In . SVG Version: 6.00 Build 0)  -->
<svg version="1.0" xmlns="http://www.w3.org/2000/svg" xmlns:xlink="http://www.w3.org/1999/xlink" x="0px" y="0px"
	 viewBox="0 0 200 200" enable-background="new 0 0 200 200" xml:space="preserve">
<g id="Layer_1">
</g>
<g id="Layer_2">
	<g id="Add_Favorite">
	</g>
	<g id="New_Symbol_17">
	</g>
	<g>
		<path opacity="0.75" d="M151.1,70.4c-6.5-2-10.9-5.2-15.2-11.7l-23.7,43c0,0-0.2,3,10.4,9c2.3,1.3,4.8,2.2,7.3,3L151.1,70.4z"/>
		<path opacity="0.5" d="M176.5,74.4c-0.4,0-0.7-0.1-1.1-0.1l-20.6,43.9c8.3,1.6,15.6,4.4,20,11.8L195,85.7
			C195,85.7,190.1,76.5,176.5,74.4z"/>
		<path d="M80.3,157.6c-0.3,0-0.7-0.1-1-0.2c-1-0.5-1.3-1.7-0.8-2.7l56.2-101.2c0.5-1,1.7-1.3,2.7-0.8c1,0.5,1.3,1.7,0.8,2.7
			L82.1,156.6C81.7,157.2,81,157.6,80.3,157.6z"/>
		<path opacity="0.75" d="M48.9,70.4c6.5-2,10.9-5.2,15.2-11.7l23.7,43c0,0,0.2,3-10.4,9c-2.3,1.3-4.8,2.2-7.3,3L48.9,70.4z"/>
		<path opacity="0.5" d="M23.5,74.4c0.4,0,0.7-0.1,1.1-0.1l20.6,43.9c-8.3,1.6-15.6,4.4-20,11.8L5,85.7C5,85.7,9.9,76.5,23.5,74.4z"
			/>
		<path d="M48.9,70.4l21.2,43.3c-8.1,2.5-16.9,3-24.9,4.5L24.5,74.3C35.3,73,42.9,72.3,48.9,70.4z"/>
		<path d="M151.1,70.4l-21.2,43.3c8.1,2.5,16.9,3,24.9,4.5l20.6-43.9C164.7,73,157.1,72.3,151.1,70.4z M153.7,102.2
			c-4.9,0-8.9-4-8.9-8.9s4-8.9,8.9-8.9c4.9,0,8.9,4,8.9,8.9S158.6,102.2,153.7,102.2z"/>
		<path d="M119.7,157.6c-0.7,0-1.4-0.4-1.7-1L61.8,55.4c-0.5-1-0.2-2.2,0.8-2.7c1-0.5,2.2-0.2,2.7,0.8l56.2,101.2
			c0.5,1,0.2,2.2-0.8,2.7C120.3,157.5,120,157.6,119.7,157.6z"/>
		<path opacity="0.2" d="M153.7,84.5c-4.9,0-8.9,4-8.9,8.9s4,8.9,8.9,8.9c4.9,0,8.9-4,8.9-8.9S158.6,84.5,153.7,84.5z M153.7,100.2
			c-3.8,0-6.9-3.1-6.9-6.9c0-3.8,3.1-6.9,6.9-6.9s6.9,3.1,6.9,6.9C160.6,97.1,157.5,100.2,153.7,100.2z"/>
		<circle opacity="0.5" cx="153.7" cy="93.3" r="6.9"/>
	</g>
</g>
</svg>
