<svg version="1" xmlns="http://www.w3.org/2000/svg" viewBox="0 0 200 200"><path opacity=".75" d="M151.1 70.4c-6.5-2-10.9-5.2-15.2-11.7l-23.7 43s-.2 3 10.4 9c2.3 1.3 4.8 2.2 7.3 3l21.2-43.3z"/><path opacity=".5" d="M176.5 74.4c-.4 0-.7-.1-1.1-.1l-20.6 43.9c8.3 1.6 15.6 4.4 20 11.8L195 85.7s-4.9-9.2-18.5-11.3z"/><path d="M80.3 157.6c-.3 0-.7-.1-1-.2-1-.5-1.3-1.7-.8-2.7l56.2-101.2c.5-1 1.7-1.3 2.7-.8 1 .5 1.3 1.7.8 2.7L82.1 156.6c-.4.6-1.1 1-1.8 1z"/><path opacity=".75" d="M48.9 70.4c6.5-2 10.9-5.2 15.2-11.7l23.7 43s.2 3-10.4 9c-2.3 1.3-4.8 2.2-7.3 3L48.9 70.4z"/><path opacity=".5" d="M23.5 74.4c.4 0 .7-.1 1.1-.1l20.6 43.9c-8.3 1.6-15.6 4.4-20 11.8L5 85.7s4.9-9.2 18.5-11.3z"/><path d="M48.9 70.4l21.2 43.3c-8.1 2.5-16.9 3-24.9 4.5L24.5 74.3c10.8-1.3 18.4-2 24.4-3.9zM151.1 70.4l-21.2 43.3c8.1 2.5 16.9 3 24.9 4.5l20.6-43.9c-10.7-1.3-18.3-2-24.3-3.9zm2.6 31.8c-4.9 0-8.9-4-8.9-8.9s4-8.9 8.9-8.9 8.9 4 8.9 8.9-4 8.9-8.9 8.9zM119.7 157.6c-.7 0-1.4-.4-1.7-1L61.8 55.4c-.5-1-.2-2.2.8-2.7s2.2-.2 2.7.8l56.2 101.2c.5 1 .2 2.2-.8 2.7-.4.1-.7.2-1 .2z"/><path opacity=".2" d="M153.7 84.5c-4.9 0-8.9 4-8.9 8.9s4 8.9 8.9 8.9 8.9-4 8.9-8.9-4-8.9-8.9-8.9zm0 15.7c-3.8 0-6.9-3.1-6.9-6.9 0-3.8 3.1-6.9 6.9-6.9s6.9 3.1 6.9 6.9c0 3.8-3.1 6.9-6.9 6.9z"/><circle opacity=".5" cx="153.7" cy="93.3" r="6.9"/></svg>