<svg version="1" xmlns="http://www.w3.org/2000/svg" viewBox="0 0 200 200"><path opacity=".5" d="M166.6 40.2l-7.9-7.9c-10.9-10.9-27.9-10.4-38.7.5L96.4 56.4c-9.5 9.5-10.9 24-4 34.6l12.5-12.5c-.8-3.6-.5-8.3 2.4-11.2L131 43.7c4.3-4.3 11.4-3.7 15.8.6l7.9 7.9c4.3 4.3 4.8 11.2.4 15.6l-23.6 23.6c-2.9 2.9-7.6 3.2-11.2 2.4l-12.5 12.5c10.6 6.9 26.2 6.6 35.7-2.9l23.6-23.6c10.8-10.8 10.4-28.7-.5-39.6zM107.1 106.9l-12 12.1c2.2 4.4 1.5 9.5-1.9 12.9l-23.6 23.6c-4.3 4.3-11 4.1-15.3-.2l-9.2-9.2c-4.3-4.3-5-11.4-.6-15.8l23.6-23.6c2.9-2.9 7.6-3.2 11.2-2.4l12.5-12.5c-10.6-6.9-25.1-5.5-34.6 4l-23.6 23.6c-10.9 10.9-11.3 27.9-.5 38.7l9.2 9.2c10.9 10.9 28.6 11.1 39.4.2l23.6-23.6c9.8-9.9 10.4-25.8 1.8-37z"/><path d="M127.3 71.6c4.3 4.3 4.3 11.4 0 15.8L88 126.7c-4.3 4.3-11.4 4.3-15.8 0-4.3-4.3-4.3-11.4 0-15.8l39.4-39.4c4.3-4.2 11.4-4.2 15.7.1z"/></svg>