<?xml version="1.0" encoding="utf-8"?>
<!-- Generator: Adobe Illustrator 18.1.1, SVG Export Plug-In . SVG Version: 6.00 Build 0)  -->
<svg version="1.0" xmlns="http://www.w3.org/2000/svg" xmlns:xlink="http://www.w3.org/1999/xlink" x="0px" y="0px"
	 viewBox="0 0 200 200" enable-background="new 0 0 200 200" xml:space="preserve">
<g id="Layer_1">
</g>
<g id="Layer_2">
	<g id="Add_Favorite">
	</g>
	<g id="New_Symbol_17">
	</g>
	<g>
		<path opacity="0.5" d="M166.6,40.2l-7.9-7.9c-10.9-10.9-27.9-10.4-38.7,0.5L96.4,56.4c-9.5,9.5-10.9,24-4,34.6l12.5-12.5
			c-0.8-3.6-0.5-8.3,2.4-11.2L131,43.7c4.3-4.3,11.4-3.7,15.8,0.6l7.9,7.9c4.3,4.3,4.8,11.2,0.4,15.6l-23.6,23.6
			c-2.9,2.9-7.6,3.2-11.2,2.4l-12.5,12.5c10.6,6.9,26.2,6.6,35.7-2.9l23.6-23.6C177.9,69,177.5,51.1,166.6,40.2z"/>
		<path opacity="0.5" d="M107.1,106.9L95.1,119c2.2,4.4,1.5,9.5-1.9,12.9l-23.6,23.6c-4.3,4.3-11,4.1-15.3-0.2l-9.2-9.2
			c-4.3-4.3-5-11.4-0.6-15.8l23.6-23.6c2.9-2.9,7.6-3.2,11.2-2.4l12.5-12.5c-10.6-6.9-25.1-5.5-34.6,4l-23.6,23.6
			c-10.9,10.9-11.3,27.9-0.5,38.7l9.2,9.2c10.9,10.9,28.6,11.1,39.4,0.2l23.6-23.6C115.1,134,115.7,118.1,107.1,106.9z"/>
		<g>
			<path d="M127.3,71.6c4.3,4.3,4.3,11.4,0,15.8L88,126.7c-4.3,4.3-11.4,4.3-15.8,0l0,0c-4.3-4.3-4.3-11.4,0-15.8l39.4-39.4
				C115.9,67.3,123,67.3,127.3,71.6L127.3,71.6z"/>
		</g>
	</g>
</g>
</svg>
