<svg version="1" xmlns="http://www.w3.org/2000/svg" viewBox="0 0 200 200"><circle opacity=".5" cx="99.3" cy="100.5" r="72.2"/><g opacity=".5"><path d="M103.6 33.7c13 .8 25 5.4 34.9 12.6.2-1.9 1.3-3.6 3-4.3-11.1-8.1-24.6-13-39.3-13.6.9 1.3 1.4 2.8 1.4 4.4.1.2.1.5 0 .9zM141.7 78.2c.7-.2 1.5-.4 2.4-.4 1 0 2 .2 2.9.6.7-9.1.4-17.6-.3-25.2 12 12 19.4 28.5 19.6 46.8.7-.3 1.5-.5 2.4-.5 1 0 2 .3 2.9.7-.1-20.6-8.8-39.1-22.7-52.3-.6 2.3-2.6 4-5.1 4-.9 0-1.8-.2-2.6-.7.9 8.3 1.3 17.4.5 27z"/><path d="M148.9 91.5c4.6 3.8 9.1 8.2 13.5 13.2.3-1.9 1.5-3.5 3.2-4.4-4.5-5.1-9.1-9.5-13.9-13.4-.4 1.9-1.4 3.5-2.8 4.6zM46 60.1c5.7-7.5 12.9-13.8 21.3-18.4-3.3 6-6.8 14.1-8.4 23.5-3.6-.7-7.3-1.2-11-1.6.1.4.1.7.1 1.1 0 1.6-.6 3-1.5 4.1 4 .4 7.9.9 11.7 1.6-.2 2.6-.3 5.3-.2 8.1.9-.5 1.9-.7 3-.7.8 0 1.6.2 2.3.4-.1-2.3-.1-4.5.1-6.7 4.1 1 8.2 2.3 12 3.8-3.2 1.2-6.5 2.6-9.9 4.3 1.1 1.2 1.9 2.7 1.9 4.5v.5c5.4-2.7 10.5-4.7 15.3-6.2 6.5 3.1 12.5 7 18 11.6.7-1.7 1.9-3.1 3.5-3.9-4.4-3.6-9-6.8-13.9-9.6 6.8-1.4 12.8-1.8 17.9-1.5-.1 3.4-.5 6.8-1 10.3h.6c1.7 0 3.2.5 4.5 1.4.7-3.8 1.1-7.6 1.2-11.3 8.1 1.1 15.9 3.7 23.4 7.8.6-1.8 1.7-3.3 3.3-4.2-8.5-4.8-17.4-7.8-26.7-8.9-.5-12.5-4.1-24-10.7-33.4-.9 1.5-2.4 2.7-4.1 3.3 4.1 5.9 6.9 12.6 8.4 20.2.6 3.1 1 6.3 1.1 9.5-7-.3-15.4.4-25 3.2-6-2.7-12.3-4.9-19-6.5 2.2-12.9 8.1-23.2 11.8-28.6 4.1-1.5 8.3-2.7 12.7-3.4-.1-.5-.2-1.1-.2-1.7 0-1.4.4-2.7 1-3.8-20 2.8-37.4 13.8-48.7 29.4.3 0 .5-.1.8-.1 1.6.1 3.2.8 4.4 1.9zM54.7 85.7c-7 4.3-14.4 9.8-22 16.5 1.6.9 2.8 2.6 2.8 4.6 7.9-7 15.4-12.6 22.5-17-1.6-.8-2.8-2.3-3.3-4.1zM32.4 102.1v-1.7c0-10.6 2.5-20.7 6.9-29.6-1.8-.6-3.3-2.1-3.9-3.9-5.3 10-8.3 21.4-8.3 33.5v2.2c.9-.6 1.9-1 3.1-1 .8 0 1.6.2 2.2.5zM30.2 112.1c-.8 0-1.6-.2-2.3-.5 2.1 13.7 8.1 26.1 16.8 36.2 1-1.5 2.5-2.6 4.3-3.1-8.2-9.3-13.8-20.8-15.9-33.5-.7.5-1.7.9-2.9.9zM58.7 153.5c-.4 1.8-1.4 3.4-2.8 4.5 8.8 6.6 19.1 11.3 30.2 13.4-.3-.7-.5-1.5-.5-2.3 0-1.1.3-2.1.9-3-10.3-2-19.8-6.4-27.8-12.6zM141.7 104.5c1.3-3.8 2.3-7.6 3.1-11.3h-.7c-1.6 0-3.1-.5-4.4-1.4-.8 3.6-1.7 7.3-3 11-1.8 5.4-4.1 10.8-6.8 16-4.4-8.4-9.5-15.9-15.4-22.5-.8 1.6-2.1 2.9-3.8 3.7 6.2 7 11.6 15.2 16.1 24.5-3.5 6-7.7 11.9-12.6 17.7-8.1-4.3-15.2-8.9-21.4-13.7 6.6-8.1 12-17.5 15.6-27.9h-.8c-1.6 0-3.1-.5-4.3-1.3-3.4 9.6-8.4 18.4-14.5 25.8C77 115 69.2 103.9 65.6 91.8c-.3-.9-.5-1.7-.7-2.6-1.1.8-2.4 1.4-3.9 1.4-.4 0-.8 0-1.2-.1.2.9.5 1.9.8 2.9 3.9 13 12.3 25 24.9 35.8-7.9 8.5-17.5 15-27.9 18.6.8 1.2 1.3 2.7 1.3 4.3v.8c11.5-4 22-11.1 30.7-20.5 6.2 4.8 13.3 9.4 21.3 13.8-5.2 5.9-11.2 11.6-17.8 17.3 1.8.5 3.3 1.8 3.9 3.6 7-6 13.2-12.2 18.6-18.4 5.7 2.9 11.7 5.6 18.2 8.3v-.4c0-1.8.8-3.4 2-4.5-5.9-2.4-11.5-4.9-16.7-7.5 3.9-4.7 7.3-9.5 10.4-14.4 2.8 6.6 5.2 13.6 7.2 21.2 1-.6 2.1-1 3.3-1 .7 0 1.3.1 1.9.3-2.4-9.4-5.5-18.1-9.1-26.1 3.7-6.5 6.7-13.3 8.9-20.1zM165.4 111.3c-2.6 15.8-10.8 29.8-22.4 39.9 1.6.9 2.8 2.4 3.2 4.2 12.8-10.9 21.7-26.2 24.5-43.5-.6.2-1.3.3-2 .3-1.3 0-2.4-.3-3.3-.9zM133.9 157.7c-10.1 6.1-21.9 9.6-34.5 9.6h-2.3c.2.6.3 1.2.3 1.8 0 1.3-.4 2.5-1.1 3.4 1 0 2.1.1 3.2.1 13.8 0 26.6-3.9 37.6-10.6-1.8-.9-2.9-2.4-3.2-4.3z"/></g><circle cx="96" cy="32.7" r="7.7"/><circle cx="143.8" cy="46.6" r="5.2"/><circle cx="168.6" cy="105.8" r="6.4"/><circle cx="107.7" cy="92.9" r="7.7"/><circle cx="144.1" cy="85.5" r="7.7"/><circle cx="41.5" cy="64.7" r="6.4"/><circle cx="60.9" cy="84.2" r="6.4"/><circle cx="30.2" cy="106.8" r="5.2"/><circle cx="51.2" cy="152" r="7.7"/><circle cx="91.5" cy="169.1" r="5.8"/><circle cx="140" cy="156.7" r="6.2"/></svg>