<?xml version="1.0" encoding="utf-8"?>
<!-- Generator: Adobe Illustrator 18.1.1, SVG Export Plug-In . SVG Version: 6.00 Build 0)  -->
<svg version="1.0" xmlns="http://www.w3.org/2000/svg" xmlns:xlink="http://www.w3.org/1999/xlink" x="0px" y="0px"
	 viewBox="0 0 200 200" enable-background="new 0 0 200 200" xml:space="preserve">
<g id="Layer_1">
</g>
<g id="Layer_2">
	<g id="Add_Favorite">
	</g>
	<g id="New_Symbol_17">
	</g>
	<g>
		<circle opacity="0.5" cx="99.3" cy="100.5" r="72.2"/>
		<g opacity="0.5">
			<path d="M103.6,33.7c13,0.8,25,5.4,34.9,12.6c0.2-1.9,1.3-3.6,3-4.3c-11.1-8.1-24.6-13-39.3-13.6c0.9,1.3,1.4,2.8,1.4,4.4
				C103.7,33,103.7,33.3,103.6,33.7z"/>
			<path d="M141.7,78.2c0.7-0.2,1.5-0.4,2.4-0.4c1,0,2,0.2,2.9,0.6c0.7-9.1,0.4-17.6-0.3-25.2c12,12,19.4,28.5,19.6,46.8
				c0.7-0.3,1.5-0.5,2.4-0.5c1,0,2,0.3,2.9,0.7c-0.1-20.6-8.8-39.1-22.7-52.3c-0.6,2.3-2.6,4-5.1,4c-0.9,0-1.8-0.2-2.6-0.7
				C142.1,59.5,142.5,68.6,141.7,78.2z"/>
			<path d="M148.9,91.5c4.6,3.8,9.1,8.2,13.5,13.2c0.3-1.9,1.5-3.5,3.2-4.4c-4.5-5.1-9.1-9.5-13.9-13.4
				C151.3,88.8,150.3,90.4,148.9,91.5z"/>
			<path d="M46,60.1c5.7-7.5,12.9-13.8,21.3-18.4c-3.3,6-6.8,14.1-8.4,23.5c-3.6-0.7-7.3-1.2-11-1.6c0.1,0.4,0.1,0.7,0.1,1.1
				c0,1.6-0.6,3-1.5,4.1c4,0.4,7.9,0.9,11.7,1.6c-0.2,2.6-0.3,5.3-0.2,8.1c0.9-0.5,1.9-0.7,3-0.7c0.8,0,1.6,0.2,2.3,0.4
				c-0.1-2.3-0.1-4.5,0.1-6.7c4.1,1,8.2,2.3,12,3.8c-3.2,1.2-6.5,2.6-9.9,4.3c1.1,1.2,1.9,2.7,1.9,4.5c0,0.2,0,0.3,0,0.5
				c5.4-2.7,10.5-4.7,15.3-6.2c6.5,3.1,12.5,7,18,11.6c0.7-1.7,1.9-3.1,3.5-3.9c-4.4-3.6-9-6.8-13.9-9.6c6.8-1.4,12.8-1.8,17.9-1.5
				c-0.1,3.4-0.5,6.8-1,10.3c0.2,0,0.4,0,0.6,0c1.7,0,3.2,0.5,4.5,1.4c0.7-3.8,1.1-7.6,1.2-11.3c8.1,1.1,15.9,3.7,23.4,7.8
				c0.6-1.8,1.7-3.3,3.3-4.2c-8.5-4.8-17.4-7.8-26.7-8.9c-0.5-12.5-4.1-24-10.7-33.4c-0.9,1.5-2.4,2.7-4.1,3.3
				c4.1,5.9,6.9,12.6,8.4,20.2c0.6,3.1,1,6.3,1.1,9.5c-7-0.3-15.4,0.4-25,3.2c-6-2.7-12.3-4.9-19-6.5c2.2-12.9,8.1-23.2,11.8-28.6
				c4.1-1.5,8.3-2.7,12.7-3.4c-0.1-0.5-0.2-1.1-0.2-1.7c0-1.4,0.4-2.7,1-3.8c-20,2.8-37.4,13.8-48.7,29.4c0.3,0,0.5-0.1,0.8-0.1
				C43.2,58.3,44.8,59,46,60.1z"/>
			<path d="M54.7,85.7c-7,4.3-14.4,9.8-22,16.5c1.6,0.9,2.8,2.6,2.8,4.6c7.9-7,15.4-12.6,22.5-17C56.4,89,55.2,87.5,54.7,85.7z"/>
			<path d="M32.4,102.1c0-0.6,0-1.1,0-1.7c0-10.6,2.5-20.7,6.9-29.6c-1.8-0.6-3.3-2.1-3.9-3.9c-5.3,10-8.3,21.4-8.3,33.5
				c0,0.7,0,1.5,0,2.2c0.9-0.6,1.9-1,3.1-1C31,101.6,31.8,101.8,32.4,102.1z"/>
			<path d="M30.2,112.1c-0.8,0-1.6-0.2-2.3-0.5c2.1,13.7,8.1,26.1,16.8,36.2c1-1.5,2.5-2.6,4.3-3.1c-8.2-9.3-13.8-20.8-15.9-33.5
				C32.4,111.7,31.4,112.1,30.2,112.1z"/>
			<path d="M58.7,153.5c-0.4,1.8-1.4,3.4-2.8,4.5c8.8,6.6,19.1,11.3,30.2,13.4c-0.3-0.7-0.5-1.5-0.5-2.3c0-1.1,0.3-2.1,0.9-3
				C76.2,164.1,66.7,159.7,58.7,153.5z"/>
			<path d="M141.7,104.5c1.3-3.8,2.3-7.6,3.1-11.3c-0.2,0-0.5,0-0.7,0c-1.6,0-3.1-0.5-4.4-1.4c-0.8,3.6-1.7,7.3-3,11
				c-1.8,5.4-4.1,10.8-6.8,16c-4.4-8.4-9.5-15.9-15.4-22.5c-0.8,1.6-2.1,2.9-3.8,3.7c6.2,7,11.6,15.2,16.1,24.5
				c-3.5,6-7.7,11.9-12.6,17.7c-8.1-4.3-15.2-8.9-21.4-13.7c6.6-8.1,12-17.5,15.6-27.9c-0.3,0-0.6,0-0.8,0c-1.6,0-3.1-0.5-4.3-1.3
				c-3.4,9.6-8.4,18.4-14.5,25.8C77,115,69.2,103.9,65.6,91.8c-0.3-0.9-0.5-1.7-0.7-2.6c-1.1,0.8-2.4,1.4-3.9,1.4
				c-0.4,0-0.8,0-1.2-0.1c0.2,0.9,0.5,1.9,0.8,2.9c3.9,13,12.3,25,24.9,35.8c-7.9,8.5-17.5,15-27.9,18.6c0.8,1.2,1.3,2.7,1.3,4.3
				c0,0.3,0,0.6,0,0.8c11.5-4,22-11.1,30.7-20.5c6.2,4.8,13.3,9.4,21.3,13.8c-5.2,5.9-11.2,11.6-17.8,17.3c1.8,0.5,3.3,1.8,3.9,3.6
				c7-6,13.2-12.2,18.6-18.4c5.7,2.9,11.7,5.6,18.2,8.3c0-0.1,0-0.2,0-0.4c0-1.8,0.8-3.4,2-4.5c-5.9-2.4-11.5-4.9-16.7-7.5
				c3.9-4.7,7.3-9.5,10.4-14.4c2.8,6.6,5.2,13.6,7.2,21.2c1-0.6,2.1-1,3.3-1c0.7,0,1.3,0.1,1.9,0.3c-2.4-9.4-5.5-18.1-9.1-26.1
				C136.5,118.1,139.5,111.3,141.7,104.5z"/>
			<path d="M165.4,111.3c-2.6,15.8-10.8,29.8-22.4,39.9c1.6,0.9,2.8,2.4,3.2,4.2c12.8-10.9,21.7-26.2,24.5-43.5
				c-0.6,0.2-1.3,0.3-2,0.3C167.4,112.2,166.3,111.9,165.4,111.3z"/>
			<path d="M133.9,157.7c-10.1,6.1-21.9,9.6-34.5,9.6c-0.8,0-1.6,0-2.3,0c0.2,0.6,0.3,1.2,0.3,1.8c0,1.3-0.4,2.5-1.1,3.4
				c1,0,2.1,0.1,3.2,0.1c13.8,0,26.6-3.9,37.6-10.6C135.3,161.1,134.2,159.6,133.9,157.7z"/>
		</g>
		<g>
			<circle cx="96" cy="32.7" r="7.7"/>
			<circle cx="143.8" cy="46.6" r="5.2"/>
			<circle cx="168.6" cy="105.8" r="6.4"/>
			<circle cx="107.7" cy="92.9" r="7.7"/>
			<circle cx="144.1" cy="85.5" r="7.7"/>
			<circle cx="41.5" cy="64.7" r="6.4"/>
			<circle cx="60.9" cy="84.2" r="6.4"/>
			<circle cx="30.2" cy="106.8" r="5.2"/>
			<circle cx="51.2" cy="152" r="7.7"/>
			<circle cx="91.5" cy="169.1" r="5.8"/>
			<circle cx="140" cy="156.7" r="6.2"/>
		</g>
	</g>
</g>
</svg>
