<?xml version="1.0" encoding="utf-8"?>
<!-- Generator: Adobe Illustrator 18.1.1, SVG Export Plug-In . SVG Version: 6.00 Build 0)  -->
<svg version="1.0" xmlns="http://www.w3.org/2000/svg" xmlns:xlink="http://www.w3.org/1999/xlink" x="0px" y="0px"
	 viewBox="0 0 200 200" enable-background="new 0 0 200 200" xml:space="preserve">
<g id="Layer_1">
</g>
<g id="Layer_2">
	<g id="Add_Favorite">
	</g>
	<g id="New_Symbol_17">
	</g>
	<g>
		<path opacity="0.5" d="M168.4,146.6c0,0-36.2,14.5-65.3,22.9c18.3-3.7,72-21.9,72-21.9s0-3.8,0-7.4
			C175.1,145.4,173.4,145.1,168.4,146.6z"/>
		<g>
			<path d="M76.3,174.4c-0.8,0.1-1.6,0.1-2.2,0.1h1.6C75.9,174.5,76.1,174.4,76.3,174.4z"/>
			<path d="M79.6,174.5H165c5.5,0,10.1-4.2,10.1-9.7v-17.3c0,0-53.7,18-72,21.8C94.2,171.9,85.9,173.5,79.6,174.5z"/>
		</g>
		<path d="M25,34.8v130c0,5.5,4.5,10,10,10h40.7c4.2-0.7,13.5-2.6,23.7-6.4c9-3.1,30.3-20.5,43.3-31.5c-1.5,1.2-3,2.6-4.7,4h-33v-4
			h37.8c6.2-5.3,10.5-9.1,10.5-9.1s10.2,20.5,19.2,17c2.4-0.9,2.6-4.5,2.6-4.5V34.8c0-5.5-4.5-10-10-10H35
			C29.5,24.8,25,29.3,25,34.8z M40.1,46.5h56v4h-56V46.5z M160.1,125.5h-120v-4h120V125.5z M160.1,110.5h-120v-4h120V110.5z
			 M160.1,95.5h-120v-4h120V95.5z M160.1,80.5h-120v-4h120V80.5z M160.1,65.5h-120v-4h120V65.5z M160.1,42.5h-28v-4h28V42.5z"/>
		<path opacity="0.7" d="M175,140.1c0,5.2-1.7,4.9-6.6,6.4c0,0-73.5,29.5-95.1,28.6c0,0,12.2-1.5,26.2-6.8
			c13.3-4.5,53.8-40.6,53.8-40.6s10.2,20.5,19.2,17C174.8,143.7,175,140.1,175,140.1z"/>
		<rect x="40.1" y="46.5" opacity="0.3" width="56" height="4"/>
		<rect x="40.1" y="61.5" opacity="0.3" width="120" height="4"/>
		<rect x="40.1" y="76.5" opacity="0.3" width="120" height="4"/>
		<rect x="40.1" y="91.5" opacity="0.3" width="120" height="4"/>
		<rect x="40.1" y="106.5" opacity="0.3" width="120" height="4"/>
		<rect x="40.1" y="121.5" opacity="0.3" width="120" height="4"/>
		<rect x="132.1" y="38.5" opacity="0.3" width="28" height="4"/>
		<path opacity="0.3" d="M142.8,136.5h-37.6v4H138C139.7,139.5,141.3,138.5,142.8,136.5z"/>
	</g>
</g>
</svg>
