<svg version="1" xmlns="http://www.w3.org/2000/svg" viewBox="0 0 200 200"><path opacity=".5" d="M168.4 146.6s-36.2 14.5-65.3 22.9c18.3-3.7 72-21.9 72-21.9v-7.4c0 5.2-1.7 4.9-6.7 6.4z"/><path d="M76.3 174.4c-.8.1-1.6.1-2.2.1h1.6c.2 0 .4-.1.6-.1zM79.6 174.5H165c5.5 0 10.1-4.2 10.1-9.7v-17.3s-53.7 18-72 21.8c-8.9 2.6-17.2 4.2-23.5 5.2z"/><path d="M25 34.8v130c0 5.5 4.5 10 10 10h40.7c4.2-.7 13.5-2.6 23.7-6.4 9-3.1 30.3-20.5 43.3-31.5-1.5 1.2-3 2.6-4.7 4h-33v-4h37.8c6.2-5.3 10.5-9.1 10.5-9.1s10.2 20.5 19.2 17c2.4-.9 2.6-4.5 2.6-4.5V34.8c0-5.5-4.5-10-10-10H35c-5.5 0-10 4.5-10 10zm15.1 11.7h56v4h-56v-4zm120 79h-120v-4h120v4zm0-15h-120v-4h120v4zm0-15h-120v-4h120v4zm0-15h-120v-4h120v4zm0-15h-120v-4h120v4zm0-23h-28v-4h28v4z"/><path opacity=".7" d="M175 140.1c0 5.2-1.7 4.9-6.6 6.4 0 0-73.5 29.5-95.1 28.6 0 0 12.2-1.5 26.2-6.8 13.3-4.5 53.8-40.6 53.8-40.6s10.2 20.5 19.2 17c2.3-1 2.5-4.6 2.5-4.6z"/><path opacity=".3" d="M40.1 46.5h56v4h-56zM40.1 61.5h120v4h-120zM40.1 76.5h120v4h-120zM40.1 91.5h120v4h-120zM40.1 106.5h120v4h-120zM40.1 121.5h120v4h-120zM132.1 38.5h28v4h-28zM142.8 136.5h-37.6v4H138c1.7-1 3.3-2 4.8-4z"/></svg>