<svg version="1" xmlns="http://www.w3.org/2000/svg" viewBox="0 0 200 200"><path d="M102.7 94.9c-4.3.8-9.8.4-12.3 2.8-7.3 6.6 4 18.6-8.5 22.6 14.8 9.2 30.3-4.1 28.6-18.5l-.1-2.8s7.2-.4 12-5.4c3.1-3.3 29.2-33.9 29.2-33.9l20-23.1c2.7-3.2 3.4-7.1 1.5-8.8-1.9-1.7-5.9-.7-8.9 2.2l-21.8 21.4s-29.9 29.2-32.2 31.2c-5 4.3-4.4 11.9-4.4 11.9l-3.1.4z"/><path opacity=".6" d="M173.2 112.5s-3.6-6.4-14.7-7.8c-11.1-1.4-26.5-2.8-27.2-10.1-.7-7.7 12.6-10.5 12.6-10.5s9.1-3.9 5.6-12.9c-3.5-9.1-22.7-11.9-22.7-11.9s-18.8-3.1-43.9 2.5c-25.1 5.6-39.6 20.1-39.6 20.1S25.5 97.2 25 119.6c-.5 22.3 15 35.5 15 35.5s12.1 16.1 45.5 17.9 55.1-13.3 55.1-13.3 25.2-16.1 31.3-29.6c6.1-13.1 1.3-17.6 1.3-17.6zM46.6 128c-2.6.1-8.3 3.5-10.2.4C32 121 38 115 38 115c3.1-2.2-.4-6 4.3-4.9 2 .5 2.9 2.6 4.5 3.3 1.4.6 3.2.1 4.8.6.3 2.1-2.3 2.4-2.7 4.3-.6 2.7 1.7 3.3 3.1 4.6 1.6 1.5 2.5 2.9-.3 4.7-1.4.9-3.4.3-5.1.4zm23.8 25.4c-1.4 1.2-3 8.1-6 8.9-5.5 1.6-5.1-3.6-7.5-6.2-4.2-4.6-7.4-.8-7.5-6.6 0-1.6.1-9.5 3.3-10.5.6-.2 3.7-1.1 4.2-1 3.3.8 6.1-1.9 8.3.9.7 1 5.4 2.4 5.5 4.6.1 1.9 1.1 8.7-.3 9.9zm1.3-58.9c-2.9 1.9-5.6 6.1-9.3 5.6-1.6-.2-3.1-1.1-4.7-1.2-1.1-.1-2.3.2-3.3-.1-3.2-.8-2.7-3.7-2.4-6.3l-.2-2.4c.7-2.3 2.6-.6 3.1-3 .5-2.9 2.6-6.3 6.1-7 2.2-.4 6.2 1.7 7 3.4.5 1.1-.2 2.4.8 3.5s3.1.9 4.5 1.6c4.3 2.1.9 4.3-1.6 5.9zm12-19.5c.3-3 6.3-4.6 6.3-4.6 1-1.3 1.8-2 3.6-2.4 2.4-.5 3.1 1.5 4.3 3 .9 1.1 2.1 2.2 3.5 2.5.9.2 3.2-.6 4 .2 1.5 1.4-1 5-2.2 5.9-2 1.6-5.8 3.2-8.3 3.3-2.6.2-4.4-2.1-6.5-3.2-2-1-4.9-1.9-4.7-4.7zm25.1 81.8c-.3.5-2.1.8-2.5 1-3 1.7-4.7 6.8-8.2 6.3-1.2-.2-4.7-2-6.3-3.5-1.2-1.2-2.1-3.4-1.9-5.2.2-1.9-3.8-3-3.8-3-2.1-.7-3.4-1.7-1.9-4.4 2.9-4.9 6.2-.9 9.7-.7 6.2.4 5.9-4.5 10-.4 1.2 1.2 6.5 7 4.9 9.9zm31.1-27c-5.4 2.8-11.3 2.3-13.1-1.1-1.8-3.5 1.1-8.6 6.5-11.4 5.4-2.8 11.3-2.3 13.1 1.1 1.8 3.5-1.1 8.6-6.5 11.4z"/><path d="M103.9 146.9c-4.1-4.1-3.8.8-10 .4-3.5-.2-6.7-4.3-9.7.7-1.5 2.6-.2 3.7 1.9 4.4 0 0 3.9 1.1 3.8 3-.2 1.9.6 4 1.9 5.2 1.6 1.5 5.1 3.3 6.3 3.5 3.5.6 5.3-4.5 8.2-6.3.4-.3 2.2-.5 2.5-1 1.6-2.9-3.7-8.7-4.9-9.9z"/><path d="M70.7 143.6c-.1-2.2-4.7-3.6-5.5-4.6-2.1-2.8-4.9-.1-8.3-.9-.5-.1-3.6.8-4.2 1-3.1 1-3.3 8.9-3.3 10.5.1 5.8 3.3 2 7.5 6.6 2.3 2.6 1.9 7.7 7.5 6.2 2.9-.8 4.6-7.7 6-8.9 1.4-1.3.4-8.1.3-9.9z" opacity=".2"/><path d="M38.1 115c3.1-2.2-.4-6 4.3-4.9 2 .5 2.9 2.6 4.5 3.3 1.4.6 3.2.1 4.8.6.3 2.1-2.3 2.4-2.7 4.3-.6 2.7 1.7 3.3 3.1 4.6 1.6 1.5 2.5 2.9-.3 4.7-1.5 1-3.5.4-5.2.5-2.6.1-8.3 3.5-10.2.4-4.3-7.5 1.7-13.5 1.7-13.5z" opacity=".9"/><path d="M52 92.5c-.3 2.6-.8 5.5 2.4 6.3 1 .2 2.2 0 3.3.1 1.7.2 3.1 1 4.7 1.2 3.7.5 6.4-3.6 9.3-5.6 2.4-1.6 5.9-3.9 1.4-6-1.4-.6-3.4-.5-4.5-1.6-1-1.1-.4-2.4-.8-3.5-.8-1.8-4.8-3.8-7-3.4-3.5.6-5.5 4-6.1 7-.4 2.4-2.4.7-3.1 3l.4 2.5z" opacity=".4"/><path d="M90 70.4c1-1.3 1.8-2 3.6-2.4 2.4-.5 3.1 1.5 4.3 3 .9 1.1 2.1 2.2 3.5 2.5.9.2 3.2-.6 4 .2 1.5 1.4-1 5-2.2 5.9-2 1.6-5.8 3.2-8.3 3.3-2.6.2-4.4-2.1-6.5-3.2-1.9-1-4.7-1.9-4.5-4.7.1-3 6.1-4.6 6.1-4.6z" opacity=".85"/></svg>