<?xml version="1.0" encoding="utf-8"?>
<!-- Generator: Adobe Illustrator 18.1.1, SVG Export Plug-In . SVG Version: 6.00 Build 0)  -->
<svg version="1.0" xmlns="http://www.w3.org/2000/svg" xmlns:xlink="http://www.w3.org/1999/xlink" x="0px" y="0px"
	 viewBox="0 0 200 200" enable-background="new 0 0 200 200" xml:space="preserve">
<g id="Layer_1">
</g>
<g id="Layer_2">
	<g id="Add_Favorite">
	</g>
	<g id="New_Symbol_17">
	</g>
	<g>
		<path d="M102.7,94.9c-4.3,0.8-9.8,0.4-12.3,2.8c-7.3,6.6,4,18.6-8.5,22.6c14.8,9.2,30.3-4.1,28.6-18.5l-0.1-2.8
			c0,0,7.2-0.4,12-5.4c3.1-3.3,29.2-33.9,29.2-33.9l20-23.1c2.7-3.2,3.4-7.1,1.5-8.8c-1.9-1.7-5.9-0.7-8.9,2.2l-21.8,21.4
			c0,0-29.9,29.2-32.2,31.2c-5,4.3-4.4,11.9-4.4,11.9L102.7,94.9z"/>
		<path opacity="0.6" d="M173.2,112.5c0,0-3.6-6.4-14.7-7.8c-11.1-1.4-26.5-2.8-27.2-10.1c-0.7-7.7,12.6-10.5,12.6-10.5
			s9.1-3.9,5.6-12.9c-3.5-9.1-22.7-11.9-22.7-11.9s-18.8-3.1-43.9,2.5c-25.1,5.6-39.6,20.1-39.6,20.1S25.5,97.2,25,119.6
			c-0.5,22.3,15,35.5,15,35.5s12.1,16.1,45.5,17.9s55.1-13.3,55.1-13.3s25.2-16.1,31.3-29.6C178,117,173.2,112.5,173.2,112.5z
			 M46.6,128c-2.6,0.1-8.3,3.5-10.2,0.4c-4.4-7.4,1.6-13.4,1.6-13.4c3.1-2.2-0.4-6,4.3-4.9c2,0.5,2.9,2.6,4.5,3.3
			c1.4,0.6,3.2,0.1,4.8,0.6c0.3,2.1-2.3,2.4-2.7,4.3c-0.6,2.7,1.7,3.3,3.1,4.6c1.6,1.5,2.5,2.9-0.3,4.7
			C50.3,128.5,48.3,127.9,46.6,128z M70.4,153.4c-1.4,1.2-3,8.1-6,8.9c-5.5,1.6-5.1-3.6-7.5-6.2c-4.2-4.6-7.4-0.8-7.5-6.6
			c0-1.6,0.1-9.5,3.3-10.5c0.6-0.2,3.7-1.1,4.2-1c3.3,0.8,6.1-1.9,8.3,0.9c0.7,1,5.4,2.4,5.5,4.6C70.8,145.4,71.8,152.2,70.4,153.4z
			 M71.7,94.5c-2.9,1.9-5.6,6.1-9.3,5.6c-1.6-0.2-3.1-1.1-4.7-1.2c-1.1-0.1-2.3,0.2-3.3-0.1c-3.2-0.8-2.7-3.7-2.4-6.3l-0.2-2.4
			c0.7-2.3,2.6-0.6,3.1-3c0.5-2.9,2.6-6.3,6.1-7c2.2-0.4,6.2,1.7,7,3.4c0.5,1.1-0.2,2.4,0.8,3.5c1,1.1,3.1,0.9,4.5,1.6
			C77.6,90.7,74.2,92.9,71.7,94.5z M83.7,75C84,72,90,70.4,90,70.4c1-1.3,1.8-2,3.6-2.4c2.4-0.5,3.1,1.5,4.3,3
			c0.9,1.1,2.1,2.2,3.5,2.5c0.9,0.2,3.2-0.6,4,0.2c1.5,1.4-1,5-2.2,5.9c-2,1.6-5.8,3.2-8.3,3.3c-2.6,0.2-4.4-2.1-6.5-3.2
			C86.4,78.7,83.5,77.8,83.7,75z M108.8,156.8c-0.3,0.5-2.1,0.8-2.5,1c-3,1.7-4.7,6.8-8.2,6.3c-1.2-0.2-4.7-2-6.3-3.5
			c-1.2-1.2-2.1-3.4-1.9-5.2c0.2-1.9-3.8-3-3.8-3c-2.1-0.7-3.4-1.7-1.9-4.4c2.9-4.9,6.2-0.9,9.7-0.7c6.2,0.4,5.9-4.5,10-0.4
			C105.1,148.1,110.4,153.9,108.8,156.8z M139.9,129.8c-5.4,2.8-11.3,2.3-13.1-1.1c-1.8-3.5,1.1-8.6,6.5-11.4
			c5.4-2.8,11.3-2.3,13.1,1.1C148.2,121.9,145.3,127,139.9,129.8z"/>
		<g>
			<path d="M103.9,146.9c-4.1-4.1-3.8,0.8-10,0.4c-3.5-0.2-6.7-4.3-9.7,0.7c-1.5,2.6-0.2,3.7,1.9,4.4c0,0,3.9,1.1,3.8,3
				c-0.2,1.9,0.6,4,1.9,5.2c1.6,1.5,5.1,3.3,6.3,3.5c3.5,0.6,5.3-4.5,8.2-6.3c0.4-0.3,2.2-0.5,2.5-1
				C110.4,153.9,105.1,148.1,103.9,146.9z"/>
		</g>
		<g opacity="0.2">
			<path d="M70.7,143.6c-0.1-2.2-4.7-3.6-5.5-4.6c-2.1-2.8-4.9-0.1-8.3-0.9c-0.5-0.1-3.6,0.8-4.2,1c-3.1,1-3.3,8.9-3.3,10.5
				c0.1,5.8,3.3,2,7.5,6.6c2.3,2.6,1.9,7.7,7.5,6.2c2.9-0.8,4.6-7.7,6-8.9C71.8,152.2,70.8,145.4,70.7,143.6z"/>
		</g>
		<g opacity="0.9">
			<path d="M38.1,115c3.1-2.2-0.4-6,4.3-4.9c2,0.5,2.9,2.6,4.5,3.3c1.4,0.6,3.2,0.1,4.8,0.6c0.3,2.1-2.3,2.4-2.7,4.3
				c-0.6,2.7,1.7,3.3,3.1,4.6c1.6,1.5,2.5,2.9-0.3,4.7c-1.5,1-3.5,0.4-5.2,0.5c-2.6,0.1-8.3,3.5-10.2,0.4
				C32.1,121,38.1,115,38.1,115z"/>
		</g>
		<g opacity="0.4">
			<path d="M52,92.5c-0.3,2.6-0.8,5.5,2.4,6.3c1,0.2,2.2,0,3.3,0.1c1.7,0.2,3.1,1,4.7,1.2c3.7,0.5,6.4-3.6,9.3-5.6
				c2.4-1.6,5.9-3.9,1.4-6c-1.4-0.6-3.4-0.5-4.5-1.6c-1-1.1-0.4-2.4-0.8-3.5c-0.8-1.8-4.8-3.8-7-3.4c-3.5,0.6-5.5,4-6.1,7
				c-0.4,2.4-2.4,0.7-3.1,3L52,92.5z"/>
		</g>
		<g opacity="0.85">
			<path d="M90,70.4c1-1.3,1.8-2,3.6-2.4c2.4-0.5,3.1,1.5,4.3,3c0.9,1.1,2.1,2.2,3.5,2.5c0.9,0.2,3.2-0.6,4,0.2c1.5,1.4-1,5-2.2,5.9
				c-2,1.6-5.8,3.2-8.3,3.3c-2.6,0.2-4.4-2.1-6.5-3.2c-1.9-1-4.7-1.9-4.5-4.7C84,72,90,70.4,90,70.4z"/>
		</g>
	</g>
</g>
</svg>
