<?xml version="1.0" encoding="utf-8"?>
<!-- Generator: Adobe Illustrator 18.1.1, SVG Export Plug-In . SVG Version: 6.00 Build 0)  -->
<svg version="1.0" xmlns="http://www.w3.org/2000/svg" xmlns:xlink="http://www.w3.org/1999/xlink" x="0px" y="0px"
	 viewBox="0 0 200 200" enable-background="new 0 0 200 200" xml:space="preserve">
<g id="Layer_1">
</g>
<g id="Layer_2">
	<g id="Add_Favorite">
	</g>
	<g id="New_Symbol_17">
	</g>
	<g>
		<g>
			<path opacity="0.5" d="M185.1,74.1l-81.2-21.8c-3.4-0.9-6.8,1.1-7.7,4.5l0,0l93.6,25.1l0,0C190.7,78.5,188.5,75,185.1,74.1z"/>
			<path opacity="0.5" d="M83.7,103.5c-0.9,3.4,1,6.8,4.4,7.7l81.2,21.8c3.4,0.9,7-1,7.9-4.4l10-37.5L93.8,66.1L83.7,103.5z"/>
			
				<rect x="93.3" y="69.2" transform="matrix(-0.9659 -0.2588 0.2588 -0.9659 259.5706 182.1749)" opacity="0.15" width="96.9" height="9.6"/>
		</g>
		<g>
			<g>
				<path fill="none" d="M74.5,136.1c-0.3,0-0.5,0.4-0.5,0.7l0.4,3.2c0,0.3,0.3,0.6,0.6,0.5l1.6-0.2c0.3,0,0.4-0.3,0.4-0.7l-0.4-3.2
					c0-0.3-0.3-0.6-0.6-0.6L74.5,136.1z M76.7,139.8l-1.8,0.2l-0.5-3.5l1.8-0.2L76.7,139.8z"/>
				<path fill="none" d="M58.1,128.9c-0.5,0.1-0.8,0.5-0.8,1l0.6,4c0.1,0.5,0.5,0.8,1,0.8l1.8-0.2c0.5-0.1,0.8-0.5,0.8-1l-0.6-4
					c-0.1-0.5-0.5-0.8-1-0.8L58.1,128.9z M60.5,133.5l-1.8,0.2l-0.6-4l1.8-0.2L60.5,133.5z"/>
				<path fill="none" d="M63,128.2c-0.5,0.1-0.8,0.5-0.8,1l0.6,4c0.1,0.5,0.5,0.8,1,0.8l1.8-0.2c0.5-0.1,0.8-0.5,0.8-1l-0.6-4
					c-0.1-0.5-0.5-0.8-1-0.8L63,128.2z M65.4,132.8l-1.8,0.2l-0.6-4l1.8-0.2L65.4,132.8z"/>
				<path fill="none" d="M78.5,135.5c-0.3,0-0.5,0.4-0.5,0.7l0.4,3.2c0,0.3,0.3,0.6,0.6,0.5l1.6-0.2c0.3,0,0.4-0.3,0.4-0.7l-0.4-3.2
					c0-0.3-0.3-0.6-0.6-0.6L78.5,135.5z M80.7,139.2l-1.8,0.2l-0.5-3.5l1.8-0.2L80.7,139.2z"/>
				<path fill="none" d="M84.1,135l-1.6,3.8c0,0.1-0.1,0.2-0.1,0.3c0,0.1,0.2,0.2,0.3,0.2c0.1,0,0.2-0.1,0.2-0.2l1.6-3.9
					c0-0.1,0-0.1,0-0.2c0-0.1-0.2-0.2-0.3-0.2C84.2,134.8,84.2,134.9,84.1,135z"/>
				<path fill="none" d="M76.8,127.2c-0.1-0.5-0.5-0.8-1-0.8l-1.8,0.2c-0.5,0.1-0.8,0.5-0.8,1l0.6,4c0.1,0.5,0.5,0.8,1,0.8l1.8-0.2
					c0.5-0.1,0.8-0.5,0.8-1L76.8,127.2z M76.4,131.3l-1.8,0.2l-0.6-4l1.8-0.2L76.4,131.3z"/>
				<path fill="none" d="M53.2,129.6c-0.5,0.1-0.8,0.5-0.8,1l0.6,4c0.1,0.5,0.5,0.8,1,0.8l1.8-0.2c0.5-0.1,0.8-0.5,0.8-1l-0.6-4
					c-0.1-0.5-0.5-0.8-1-0.8L53.2,129.6z M55.7,134.2l-1.8,0.2l-0.6-4l1.8-0.2L55.7,134.2z"/>
				<path fill="none" d="M27.6,133.2c-0.5,0.1-0.8,0.5-0.8,1l0.6,4c0.1,0.5,0.5,0.8,1,0.8l1.8-0.2c0.5-0.1,0.8-0.5,0.8-1l-0.6-4
					c-0.1-0.5-0.5-0.8-1-0.8L27.6,133.2z M30.1,137.8l-1.8,0.2l-0.6-4l1.8-0.2L30.1,137.8z"/>
				<path fill="none" d="M48.4,130.3c-0.5,0.1-0.8,0.5-0.8,1l0.6,4c0.1,0.5,0.5,0.8,1,0.8l1.8-0.2c0.5-0.1,0.8-0.5,0.8-1l-0.6-4
					c-0.1-0.5-0.5-0.8-1-0.8L48.4,130.3z M50.8,134.9l-1.8,0.2l-0.6-4l1.8-0.2L50.8,134.9z"/>
				<path fill="none" d="M22.8,133.9c-0.5,0.1-0.8,0.5-0.8,1l0.6,4c0.1,0.5,0.5,0.8,1,0.8l1.8-0.2c0.5-0.1,0.8-0.5,0.8-1l-0.6-4
					c-0.1-0.5-0.5-0.8-1-0.8L22.8,133.9z M25.2,138.5l-1.8,0.2l-0.6-4l1.8-0.2L25.2,138.5z"/>
				<path fill="none" d="M81.4,131.5c0.5-0.1,0.8-0.5,0.8-1l-0.6-4c-0.1-0.5-0.5-0.8-1-0.8l-1.8,0.2c-0.5,0.1-0.8,0.5-0.8,1l0.6,4
					c0.1,0.5,0.5,0.8,1,0.8L81.4,131.5z M79,126.9l1.8-0.2l0.6,4l-1.8,0.2L79,126.9z"/>
				<path fill="none" d="M37.3,131.8c-0.5,0.1-0.8,0.5-0.8,1l0.6,4c0.1,0.5,0.5,0.8,1,0.8l1.8-0.2c0.5-0.1,0.8-0.5,0.8-1l-0.6-4
					c-0.1-0.5-0.5-0.8-1-0.8L37.3,131.8z M39.8,136.4l-1.8,0.2l-0.6-4l1.8-0.2L39.8,136.4z"/>
				<path fill="none" d="M87,129.8l-0.6-4c-0.1-0.5-0.5-0.8-1-0.8l-1.8,0.2c-0.5,0.1-0.8,0.5-0.8,1l0.6,4c0.1,0.5,0.5,0.8,1,0.8
					l1.8-0.2C86.8,130.7,87.1,130.3,87,129.8z M83.8,126.2l1.8-0.2l0.6,4l-1.8,0.2L83.8,126.2z"/>
				<path fill="none" d="M32.5,132.5c-0.5,0.1-0.8,0.5-0.8,1l0.6,4c0.1,0.5,0.5,0.8,1,0.8l1.8-0.2c0.5-0.1,0.8-0.5,0.8-1l-0.6-4
					c-0.1-0.5-0.5-0.8-1-0.8L32.5,132.5z M34.9,137.1l-1.8,0.2l-0.6-4l1.8-0.2L34.9,137.1z"/>
				<path fill="none" d="M114.2,121c-0.5,0.1-0.8,0.5-0.8,1l0.6,4c0.1,0.5,0.5,0.8,1,0.8l1.8-0.2c0.5-0.1,0.8-0.5,0.8-1l-0.6-4
					c-0.1-0.5-0.5-0.8-1-0.8L114.2,121z M116.6,125.6l-1.8,0.2l-0.6-4l1.8-0.2L116.6,125.6z"/>
				<path fill="none" d="M88.6,124.6c-0.5,0.1-0.8,0.5-0.8,1l0.6,4c0.1,0.5,0.5,0.8,1,0.8l1.8-0.2c0.5-0.1,0.8-0.5,0.8-1l-0.6-4
					c-0.1-0.5-0.5-0.8-1-0.8L88.6,124.6z M91,129.2l-1.8,0.2l-0.6-4l1.8-0.2L91,129.2z"/>
				<path fill="none" d="M90.4,133.8c-0.3,0-0.5,0.4-0.4,0.7l0.4,3.2c0,0.3,0.3,0.6,0.6,0.5l1.6-0.2c0.3,0,0.5-0.3,0.4-0.7l-0.4-3.2
					c0-0.3-0.3-0.6-0.6-0.6L90.4,133.8z M92.6,137.6l-1.8,0.2l-0.5-3.5l1.8-0.2L92.6,137.6z"/>
				<path fill="none" d="M104.5,122.4c-0.5,0.1-0.8,0.5-0.8,1l0.6,4c0.1,0.5,0.5,0.8,1,0.8l1.8-0.2c0.5-0.1,0.8-0.5,0.8-1l-0.6-4
					c-0.1-0.5-0.5-0.8-1-0.8L104.5,122.4z M106.9,127l-1.8,0.2l-0.6-4l1.8-0.2L106.9,127z"/>
				<path fill="none" d="M109.3,121.7c-0.5,0.1-0.8,0.5-0.8,1l0.6,4c0.1,0.5,0.5,0.8,1,0.8l1.8-0.2c0.5-0.1,0.8-0.5,0.8-1l-0.6-4
					c-0.1-0.5-0.5-0.8-1-0.8L109.3,121.7z M111.8,126.3l-1.8,0.2l-0.6-4l1.8-0.2L111.8,126.3z"/>
				<path fill="none" d="M99.6,123.1c-0.5,0.1-0.8,0.5-0.8,1l0.6,4c0.1,0.5,0.5,0.8,1,0.8l1.8-0.2c0.5-0.1,0.8-0.5,0.8-1l-0.6-4
					c-0.1-0.5-0.5-0.8-1-0.8L99.6,123.1z M102,127.7l-1.8,0.2l-0.6-4l1.8-0.2L102,127.7z"/>
				<path fill="none" d="M86.4,134.4c-0.3,0-0.5,0.4-0.4,0.7l0.4,3.2c0,0.3,0.3,0.6,0.6,0.5l1.6-0.2c0.3,0,0.5-0.3,0.4-0.7l-0.4-3.2
					c0-0.3-0.3-0.6-0.6-0.6L86.4,134.4z M88.7,138.1l-1.8,0.2l-0.5-3.5l1.8-0.2L88.7,138.1z"/>
				<rect x="78.7" y="135.8" transform="matrix(-0.9903 0.1392 -0.1392 -0.9903 177.5275 262.7944)" width="1.8" height="3.6"/>
				<rect x="86.6" y="134.7" transform="matrix(-0.9903 0.1392 -0.1392 -0.9903 193.1873 259.4659)" width="1.8" height="3.6"/>
				<rect x="74.7" y="136.4" transform="matrix(-0.9903 0.1392 -0.1392 -0.9903 169.6976 264.4586)" width="1.8" height="3.6"/>
				<rect x="90.6" y="134.1" transform="matrix(-0.9903 0.1392 -0.1392 -0.9903 201.0172 257.8017)" width="1.8" height="3.6"/>
				<rect x="84.1" y="126.1" transform="matrix(0.9903 -0.1392 0.1392 0.9903 -16.9961 13.0743)" width="1.8" height="4"/>
				<rect x="37.7" y="132.6" transform="matrix(-0.9903 0.1392 -0.1392 -0.9903 95.6222 262.4729)" width="1.8" height="4"/>
				<rect x="32.9" y="133.3" transform="matrix(-0.9903 0.1392 -0.1392 -0.9903 86.0525 264.5069)" width="1.8" height="4"/>
				<rect x="58.5" y="129.7" transform="matrix(-0.9903 0.1392 -0.1392 -0.9903 136.5115 253.7812)" width="1.8" height="4"/>
				<rect x="53.6" y="130.3" transform="matrix(-0.9903 0.1392 -0.1392 -0.9903 126.9418 255.8156)" width="1.8" height="4"/>
				<rect x="48.8" y="131" transform="matrix(-0.9903 0.1392 -0.1392 -0.9903 117.3721 257.8495)" width="1.8" height="4"/>
				<rect x="74.4" y="127.4" transform="matrix(-0.9903 0.1392 -0.1392 -0.9903 167.8311 247.1243)" width="1.8" height="4"/>
				<rect x="63.3" y="129" transform="matrix(-0.9903 0.1392 -0.1392 -0.9903 146.0821 251.7472)" width="1.8" height="4"/>
				<rect x="114.6" y="121.8" transform="matrix(-0.9903 0.1392 -0.1392 -0.9903 247.0011 230.2962)" width="1.8" height="4"/>
				<rect x="109.7" y="122.5" transform="matrix(-0.9903 0.1392 -0.1392 -0.9903 237.4304 232.3302)" width="1.8" height="4"/>
				<rect x="79.2" y="126.7" transform="matrix(0.9903 -0.1392 0.1392 0.9903 -17.1383 12.4051)" width="1.8" height="4"/>
				<rect x="23.2" y="134.6" transform="matrix(-0.9903 0.1392 -0.1392 -0.9903 66.9122 268.5753)" width="1.8" height="4"/>
				<rect x="89" y="125.4" transform="matrix(-0.9903 0.1392 -0.1392 -0.9903 196.5411 241.0219)" width="1.8" height="4"/>
				<path d="M117.3,79.6c-0.6-3.9-4.3-6.6-8.2-6L16,86.7c-3.9,0.5-6.9,4.1-5.9,8c0,0,0,0,0,0l7.3,52.1c0.7,4.7,4.2,8,8.1,7.4
					l93.1-13.1c3.9-0.5,6.7-4.7,6-9.4L117.3,79.6C117.3,79.6,117.3,79.6,117.3,79.6z M78.1,127c-0.1-0.5,0.3-0.9,0.8-1l1.8-0.2
					c0.5-0.1,0.9,0.3,1,0.8l0.6,4c0.1,0.5-0.3,0.9-0.8,1l-1.8,0.2c-0.5,0.1-0.9-0.3-1-0.8L78.1,127z M26.1,138.4
					c0.1,0.5-0.3,0.9-0.8,1l-1.8,0.2c-0.5,0.1-0.9-0.3-1-0.8l-0.6-4c-0.1-0.5,0.3-0.9,0.8-1l1.8-0.2c0.5-0.1,0.9,0.3,1,0.8
					L26.1,138.4z M31,137.7c0.1,0.5-0.3,0.9-0.8,1l-1.8,0.2c-0.5,0.1-0.9-0.3-1-0.8l-0.6-4c-0.1-0.5,0.3-0.9,0.8-1l1.8-0.2
					c0.5-0.1,0.9,0.3,1,0.8L31,137.7z M35.8,137c0.1,0.5-0.3,0.9-0.8,1l-1.8,0.2c-0.5,0.1-0.9-0.3-1-0.8l-0.6-4
					c-0.1-0.5,0.3-0.9,0.8-1l1.8-0.2c0.5-0.1,0.9,0.3,1,0.8L35.8,137z M40.7,136.3c0.1,0.5-0.3,0.9-0.8,1l-1.8,0.2
					c-0.5,0.1-0.9-0.3-1-0.8l-0.6-4c-0.1-0.5,0.3-0.9,0.8-1l1.8-0.2c0.5-0.1,0.9,0.3,1,0.8L40.7,136.3z M51.7,134.8
					c0.1,0.5-0.3,0.9-0.8,1l-1.8,0.2c-0.5,0.1-0.9-0.3-1-0.8l-0.6-4c-0.1-0.5,0.3-0.9,0.8-1l1.8-0.2c0.5-0.1,0.9,0.3,1,0.8
					L51.7,134.8z M56.6,134.1c0.1,0.5-0.3,0.9-0.8,1l-1.8,0.2c-0.5,0.1-0.9-0.3-1-0.8l-0.6-4c-0.1-0.5,0.3-0.9,0.8-1l1.8-0.2
					c0.5-0.1,0.9,0.3,1,0.8L56.6,134.1z M61.4,133.4c0.1,0.5-0.3,0.9-0.8,1l-1.8,0.2c-0.5,0.1-0.9-0.3-1-0.8l-0.6-4
					c-0.1-0.5,0.3-0.9,0.8-1l1.8-0.2c0.5-0.1,0.9,0.3,1,0.8L61.4,133.4z M66.3,132.7c0.1,0.5-0.3,0.9-0.8,1l-1.8,0.2
					c-0.5,0.1-0.9-0.3-1-0.8l-0.6-4c-0.1-0.5,0.3-0.9,0.8-1l1.8-0.2c0.5-0.1,0.9,0.3,1,0.8L66.3,132.7z M77.2,139.6
					c0,0.3-0.1,0.6-0.4,0.7l-1.6,0.2c-0.3,0-0.6-0.2-0.6-0.5l-0.4-3.2c0-0.3,0.2-0.7,0.5-0.7l1.6-0.2c0.3,0,0.5,0.3,0.6,0.6
					L77.2,139.6z M74.8,132.4c-0.5,0.1-0.9-0.3-1-0.8l-0.6-4c-0.1-0.5,0.3-0.9,0.8-1l1.8-0.2c0.5-0.1,0.9,0.3,1,0.8l0.6,4
					c0.1,0.5-0.3,0.9-0.8,1L74.8,132.4z M81.1,139c0,0.3-0.1,0.6-0.4,0.7l-1.6,0.2c-0.3,0-0.6-0.2-0.6-0.5l-0.4-3.2
					c0-0.3,0.2-0.7,0.5-0.7l1.6-0.2c0.3,0,0.5,0.3,0.6,0.6L81.1,139z M84.6,135.2l-1.6,3.9c-0.1,0.1-0.1,0.2-0.2,0.2
					c-0.1,0-0.3-0.1-0.3-0.2c0-0.1,0-0.2,0.1-0.3l1.6-3.8c0.1-0.1,0.1-0.2,0.2-0.2c0.1,0,0.3,0.1,0.3,0.2
					C84.7,135.1,84.7,135.2,84.6,135.2z M83.5,130.3l-0.6-4c-0.1-0.5,0.3-0.9,0.8-1l1.8-0.2c0.5-0.1,0.9,0.3,1,0.8l0.6,4
					c0.1,0.5-0.3,0.9-0.8,1l-1.8,0.2C84,131.1,83.6,130.8,83.5,130.3z M89.1,137.9c0,0.3-0.1,0.6-0.4,0.7l-1.6,0.2
					c-0.3,0-0.6-0.2-0.6-0.5l-0.4-3.2c0-0.3,0.1-0.7,0.4-0.7l1.6-0.2c0.3,0,0.6,0.3,0.6,0.6L89.1,137.9z M93,137.4
					c0,0.3-0.1,0.6-0.4,0.7l-1.6,0.2c-0.3,0-0.6-0.2-0.6-0.5l-0.4-3.2c0-0.3,0.1-0.7,0.4-0.7l1.6-0.2c0.3,0,0.6,0.3,0.6,0.6
					L93,137.4z M91.9,129.1c0.1,0.5-0.3,0.9-0.8,1l-1.8,0.2c-0.5,0.1-0.9-0.3-1-0.8l-0.6-4c-0.1-0.5,0.3-0.9,0.8-1l1.8-0.2
					c0.5-0.1,0.9,0.3,1,0.8L91.9,129.1z M102.9,127.6c0.1,0.5-0.3,0.9-0.8,1l-1.8,0.2c-0.5,0.1-0.9-0.3-1-0.8l-0.6-4
					c-0.1-0.5,0.3-0.9,0.8-1l1.8-0.2c0.5-0.1,0.9,0.3,1,0.8L102.9,127.6z M107.8,126.9c0.1,0.5-0.3,0.9-0.8,1l-1.8,0.2
					c-0.5,0.1-0.9-0.3-1-0.8l-0.6-4c-0.1-0.5,0.3-0.9,0.8-1l1.8-0.2c0.5-0.1,0.9,0.3,1,0.8L107.8,126.9z M112.6,126.2
					c0.1,0.5-0.3,0.9-0.8,1l-1.8,0.2c-0.5,0.1-0.9-0.3-1-0.8l-0.6-4c-0.1-0.5,0.3-0.9,0.8-1l1.8-0.2c0.5-0.1,0.9,0.3,1,0.8
					L112.6,126.2z M117.5,125.5c0.1,0.5-0.3,0.9-0.8,1l-1.8,0.2c-0.5,0.1-0.9-0.3-1-0.8l-0.6-4c-0.1-0.5,0.3-0.9,0.8-1l1.8-0.2
					c0.5-0.1,0.9,0.3,1,0.8L117.5,125.5z M83.5,94.3l-62.4,8.8c-1.9,0.3-3.7-1.1-3.9-3l-0.4-2.8c-0.3-1.9,1.1-3.7,3-3.9l62.4-8.8
					c1.9-0.3,3.7,1.1,3.9,3l0.4,2.8C86.7,92.3,85.4,94,83.5,94.3z"/>
				<rect x="104.8" y="123.1" transform="matrix(-0.9903 0.1392 -0.1392 -0.9903 227.8608 234.3646)" width="1.8" height="4"/>
				<rect x="28" y="133.9" transform="matrix(-0.9903 0.1392 -0.1392 -0.9903 76.4828 266.5408)" width="1.8" height="4"/>
				<rect x="100" y="123.8" transform="matrix(-0.9903 0.1392 -0.1392 -0.9903 218.2911 236.3985)" width="1.8" height="4"/>
			</g>
			<path opacity="0.75" d="M83.5,94.3l-62.4,8.8c-1.9,0.3-3.7-1.1-3.9-3l-0.4-2.8c-0.3-1.9,1.1-3.7,3-3.9l62.4-8.8
				c1.9-0.3,3.7,1.1,3.9,3l0.4,2.8C86.7,92.3,85.4,94,83.5,94.3z"/>
		</g>
	</g>
</g>
</svg>
