<svg version="1" xmlns="http://www.w3.org/2000/svg" viewBox="0 0 200 200"><path opacity=".5" d="M185.1 74.1l-81.2-21.8c-3.4-.9-6.8 1.1-7.7 4.5l93.6 25.1c.9-3.4-1.3-6.9-4.7-7.8zM83.7 103.5c-.9 3.4 1 6.8 4.4 7.7l81.2 21.8c3.4.9 7-1 7.9-4.4l10-37.5-93.4-25-10.1 37.4z"/><path opacity=".15" d="M187.36 91.19L93.766 66.11l2.485-9.272 93.596 25.078z"/><g><path fill="none" d="M74.5 136.1c-.3 0-.5.4-.5.7l.4 3.2c0 .3.3.6.6.5l1.6-.2c.3 0 .4-.3.4-.7l-.4-3.2c0-.3-.3-.6-.6-.6l-1.5.3zm2.2 3.7l-1.8.2-.5-3.5 1.8-.2.5 3.5zM58.1 128.9c-.5.1-.8.5-.8 1l.6 4c.1.5.5.8 1 .8l1.8-.2c.5-.1.8-.5.8-1l-.6-4c-.1-.5-.5-.8-1-.8l-1.8.2zm2.4 4.6l-1.8.2-.6-4 1.8-.2.6 4zM63 128.2c-.5.1-.8.5-.8 1l.6 4c.1.5.5.8 1 .8l1.8-.2c.5-.1.8-.5.8-1l-.6-4c-.1-.5-.5-.8-1-.8l-1.8.2zm2.4 4.6l-1.8.2-.6-4 1.8-.2.6 4zM78.5 135.5c-.3 0-.5.4-.5.7l.4 3.2c0 .3.3.6.6.5l1.6-.2c.3 0 .4-.3.4-.7l-.4-3.2c0-.3-.3-.6-.6-.6l-1.5.3zm2.2 3.7l-1.8.2-.5-3.5 1.8-.2.5 3.5zM84.1 135l-1.6 3.8c0 .1-.1.2-.1.3 0 .1.2.2.3.2.1 0 .2-.1.2-.2l1.6-3.9v-.2c0-.1-.2-.2-.3-.2 0 0 0 .1-.1.2zM76.8 127.2c-.1-.5-.5-.8-1-.8l-1.8.2c-.5.1-.8.5-.8 1l.6 4c.1.5.5.8 1 .8l1.8-.2c.5-.1.8-.5.8-1l-.6-4zm-.4 4.1l-1.8.2-.6-4 1.8-.2.6 4zM53.2 129.6c-.5.1-.8.5-.8 1l.6 4c.1.5.5.8 1 .8l1.8-.2c.5-.1.8-.5.8-1l-.6-4c-.1-.5-.5-.8-1-.8l-1.8.2zm2.5 4.6l-1.8.2-.6-4 1.8-.2.6 4zM27.6 133.2c-.5.1-.8.5-.8 1l.6 4c.1.5.5.8 1 .8l1.8-.2c.5-.1.8-.5.8-1l-.6-4c-.1-.5-.5-.8-1-.8l-1.8.2zm2.5 4.6l-1.8.2-.6-4 1.8-.2.6 4zM48.4 130.3c-.5.1-.8.5-.8 1l.6 4c.1.5.5.8 1 .8l1.8-.2c.5-.1.8-.5.8-1l-.6-4c-.1-.5-.5-.8-1-.8l-1.8.2zm2.4 4.6l-1.8.2-.6-4 1.8-.2.6 4zM22.8 133.9c-.5.1-.8.5-.8 1l.6 4c.1.5.5.8 1 .8l1.8-.2c.5-.1.8-.5.8-1l-.6-4c-.1-.5-.5-.8-1-.8l-1.8.2zm2.4 4.6l-1.8.2-.6-4 1.8-.2.6 4zM81.4 131.5c.5-.1.8-.5.8-1l-.6-4c-.1-.5-.5-.8-1-.8l-1.8.2c-.5.1-.8.5-.8 1l.6 4c.1.5.5.8 1 .8l1.8-.2zm-2.4-4.6l1.8-.2.6 4-1.8.2-.6-4zM37.3 131.8c-.5.1-.8.5-.8 1l.6 4c.1.5.5.8 1 .8l1.8-.2c.5-.1.8-.5.8-1l-.6-4c-.1-.5-.5-.8-1-.8l-1.8.2zm2.5 4.6l-1.8.2-.6-4 1.8-.2.6 4zM87 129.8l-.6-4c-.1-.5-.5-.8-1-.8l-1.8.2c-.5.1-.8.5-.8 1l.6 4c.1.5.5.8 1 .8l1.8-.2c.6-.1.9-.5.8-1zm-3.2-3.6l1.8-.2.6 4-1.8.2-.6-4zM32.5 132.5c-.5.1-.8.5-.8 1l.6 4c.1.5.5.8 1 .8l1.8-.2c.5-.1.8-.5.8-1l-.6-4c-.1-.5-.5-.8-1-.8l-1.8.2zm2.4 4.6l-1.8.2-.6-4 1.8-.2.6 4zM114.2 121c-.5.1-.8.5-.8 1l.6 4c.1.5.5.8 1 .8l1.8-.2c.5-.1.8-.5.8-1l-.6-4c-.1-.5-.5-.8-1-.8l-1.8.2zm2.4 4.6l-1.8.2-.6-4 1.8-.2.6 4zM88.6 124.6c-.5.1-.8.5-.8 1l.6 4c.1.5.5.8 1 .8l1.8-.2c.5-.1.8-.5.8-1l-.6-4c-.1-.5-.5-.8-1-.8l-1.8.2zm2.4 4.6l-1.8.2-.6-4 1.8-.2.6 4zM90.4 133.8c-.3 0-.5.4-.4.7l.4 3.2c0 .3.3.6.6.5l1.6-.2c.3 0 .5-.3.4-.7l-.4-3.2c0-.3-.3-.6-.6-.6l-1.6.3zm2.2 3.8l-1.8.2-.5-3.5 1.8-.2.5 3.5zM104.5 122.4c-.5.1-.8.5-.8 1l.6 4c.1.5.5.8 1 .8l1.8-.2c.5-.1.8-.5.8-1l-.6-4c-.1-.5-.5-.8-1-.8l-1.8.2zm2.4 4.6l-1.8.2-.6-4 1.8-.2.6 4zM109.3 121.7c-.5.1-.8.5-.8 1l.6 4c.1.5.5.8 1 .8l1.8-.2c.5-.1.8-.5.8-1l-.6-4c-.1-.5-.5-.8-1-.8l-1.8.2zm2.5 4.6l-1.8.2-.6-4 1.8-.2.6 4zM99.6 123.1c-.5.1-.8.5-.8 1l.6 4c.1.5.5.8 1 .8l1.8-.2c.5-.1.8-.5.8-1l-.6-4c-.1-.5-.5-.8-1-.8l-1.8.2zm2.4 4.6l-1.8.2-.6-4 1.8-.2.6 4zM86.4 134.4c-.3 0-.5.4-.4.7l.4 3.2c0 .3.3.6.6.5l1.6-.2c.3 0 .5-.3.4-.7l-.4-3.2c0-.3-.3-.6-.6-.6l-1.6.3zm2.3 3.7l-1.8.2-.5-3.5 1.8-.2.5 3.5z"/><path d="M80.688 139.267l-1.783.25-.5-3.565 1.78-.25zM88.677 138.127l-1.782.25-.502-3.564 1.783-.25zM76.735 139.78l-1.782.25-.5-3.565 1.78-.25zM92.63 137.614l-1.783.25-.5-3.565 1.78-.25zM83.84 126.244l1.784-.25.557 3.96-1.782.252zM39.83 136.407l-1.783.25-.556-3.96 1.783-.25zM34.916 137.08l-1.782.25-.557-3.96 1.782-.252zM60.525 133.482l-1.783.25-.557-3.96 1.783-.25zM55.724 134.24l-1.783.25-.555-3.96 1.782-.25zM50.81 134.913l-1.782.25-.557-3.96 1.783-.25zM76.42 131.317l-1.784.25-.557-3.96 1.782-.252zM65.44 132.81l-1.783.25-.557-3.96 1.783-.25zM116.558 125.63l-1.782.25-.557-3.96 1.78-.25zM111.742 126.29l-1.782.25-.557-3.962 1.783-.25zM78.93 126.85l1.783-.25.556 3.962-1.783.25zM25.2 138.51l-1.782.25-.556-3.96 1.782-.25zM90.95 129.227l-1.784.25-.557-3.96 1.782-.25z"/><path d="M117.3 79.6c-.6-3.9-4.3-6.6-8.2-6L16 86.7c-3.9.5-6.9 4.1-5.9 8l7.3 52.1c.7 4.7 4.2 8 8.1 7.4l93.1-13.1c3.9-.5 6.7-4.7 6-9.4l-7.3-52.1zM78.1 127c-.1-.5.3-.9.8-1l1.8-.2c.5-.1.9.3 1 .8l.6 4c.1.5-.3.9-.8 1l-1.8.2c-.5.1-.9-.3-1-.8l-.6-4zm-52 11.4c.1.5-.3.9-.8 1l-1.8.2c-.5.1-.9-.3-1-.8l-.6-4c-.1-.5.3-.9.8-1l1.8-.2c.5-.1.9.3 1 .8l.6 4zm4.9-.7c.1.5-.3.9-.8 1l-1.8.2c-.5.1-.9-.3-1-.8l-.6-4c-.1-.5.3-.9.8-1l1.8-.2c.5-.1.9.3 1 .8l.6 4zm4.8-.7c.1.5-.3.9-.8 1l-1.8.2c-.5.1-.9-.3-1-.8l-.6-4c-.1-.5.3-.9.8-1l1.8-.2c.5-.1.9.3 1 .8l.6 4zm4.9-.7c.1.5-.3.9-.8 1l-1.8.2c-.5.1-.9-.3-1-.8l-.6-4c-.1-.5.3-.9.8-1l1.8-.2c.5-.1.9.3 1 .8l.6 4zm11-1.5c.1.5-.3.9-.8 1l-1.8.2c-.5.1-.9-.3-1-.8l-.6-4c-.1-.5.3-.9.8-1l1.8-.2c.5-.1.9.3 1 .8l.6 4zm4.9-.7c.1.5-.3.9-.8 1l-1.8.2c-.5.1-.9-.3-1-.8l-.6-4c-.1-.5.3-.9.8-1l1.8-.2c.5-.1.9.3 1 .8l.6 4zm4.8-.7c.1.5-.3.9-.8 1l-1.8.2c-.5.1-.9-.3-1-.8l-.6-4c-.1-.5.3-.9.8-1l1.8-.2c.5-.1.9.3 1 .8l.6 4zm4.9-.7c.1.5-.3.9-.8 1l-1.8.2c-.5.1-.9-.3-1-.8l-.6-4c-.1-.5.3-.9.8-1l1.8-.2c.5-.1.9.3 1 .8l.6 4zm10.9 6.9c0 .3-.1.6-.4.7l-1.6.2c-.3 0-.6-.2-.6-.5l-.4-3.2c0-.3.2-.7.5-.7l1.6-.2c.3 0 .5.3.6.6l.3 3.1zm-2.4-7.2c-.5.1-.9-.3-1-.8l-.6-4c-.1-.5.3-.9.8-1l1.8-.2c.5-.1.9.3 1 .8l.6 4c.1.5-.3.9-.8 1l-1.8.2zm6.3 6.6c0 .3-.1.6-.4.7l-1.6.2c-.3 0-.6-.2-.6-.5l-.4-3.2c0-.3.2-.7.5-.7l1.6-.2c.3 0 .5.3.6.6l.3 3.1zm3.5-3.8l-1.6 3.9c-.1.1-.1.2-.2.2s-.3-.1-.3-.2 0-.2.1-.3l1.6-3.8c.1-.1.1-.2.2-.2s.3.1.3.2 0 .2-.1.2zm-1.1-4.9l-.6-4c-.1-.5.3-.9.8-1l1.8-.2c.5-.1.9.3 1 .8l.6 4c.1.5-.3.9-.8 1l-1.8.2c-.5 0-.9-.3-1-.8zm5.6 7.6c0 .3-.1.6-.4.7l-1.6.2c-.3 0-.6-.2-.6-.5l-.4-3.2c0-.3.1-.7.4-.7l1.6-.2c.3 0 .6.3.6.6l.4 3.1zm3.9-.5c0 .3-.1.6-.4.7l-1.6.2c-.3 0-.6-.2-.6-.5l-.4-3.2c0-.3.1-.7.4-.7l1.6-.2c.3 0 .6.3.6.6l.4 3.1zm-1.1-8.3c.1.5-.3.9-.8 1l-1.8.2c-.5.1-.9-.3-1-.8l-.6-4c-.1-.5.3-.9.8-1l1.8-.2c.5-.1.9.3 1 .8l.6 4zm11-1.5c.1.5-.3.9-.8 1l-1.8.2c-.5.1-.9-.3-1-.8l-.6-4c-.1-.5.3-.9.8-1l1.8-.2c.5-.1.9.3 1 .8l.6 4zm4.9-.7c.1.5-.3.9-.8 1l-1.8.2c-.5.1-.9-.3-1-.8l-.6-4c-.1-.5.3-.9.8-1l1.8-.2c.5-.1.9.3 1 .8l.6 4zm4.8-.7c.1.5-.3.9-.8 1l-1.8.2c-.5.1-.9-.3-1-.8l-.6-4c-.1-.5.3-.9.8-1l1.8-.2c.5-.1.9.3 1 .8l.6 4zm4.9-.7c.1.5-.3.9-.8 1l-1.8.2c-.5.1-.9-.3-1-.8l-.6-4c-.1-.5.3-.9.8-1l1.8-.2c.5-.1.9.3 1 .8l.6 4zm-34-31.2l-62.4 8.8c-1.9.3-3.7-1.1-3.9-3l-.4-2.8c-.3-1.9 1.1-3.7 3-3.9l62.4-8.8c1.9-.3 3.7 1.1 3.9 3l.4 2.8c.2 1.9-1.1 3.6-3 3.9z"/><path d="M106.942 127.047l-1.783.25-.557-3.96 1.782-.25zM30.116 137.837l-1.783.25-.557-3.96 1.783-.25zM102.028 127.72l-1.782.25-.557-3.96 1.78-.252z"/><path opacity=".75" d="M83.5 94.3l-62.4 8.8c-1.9.3-3.7-1.1-3.9-3l-.4-2.8c-.3-1.9 1.1-3.7 3-3.9l62.4-8.8c1.9-.3 3.7 1.1 3.9 3l.4 2.8c.2 1.9-1.1 3.6-3 3.9z"/></g></svg>