<svg version="1" xmlns="http://www.w3.org/2000/svg" viewBox="0 0 200 200"><path d="M135.6 84.2c-.3-.3-.7-.5-1.2-.8-2.8-1.7-3.5-2.2-3.5-2.2l.4-2.9s1.3-.7 2-3.3c.7.3 1.6-.8 1.7-1.5.1-.6.3-2.4-.6-2.4.4-1.3.7-2.5.7-3.1v-.9c0-.3.2-.9.1-1.2-.2-.4-.7-.5-.9-.9-.3-.4-.5-1.1-.9-1.4-.2-.2-.7-.1-1-.3-.2-.1-.6-.5-.8-.6-.6-.3-1-.1-1.7-.2-.5-.1-1-.5-1.5-.5-.3 0-.7.5-1 .5-.5.1-1 .3-1.4.5-.2.1-.6.8-.8.9-.2.1.2-.8 0-.7-.4.3-1.2.6-1.4.9-.4.5-.5 1.6-.6 2.1-.1.3-.1.8-.2 1.3 0 .4 0 .8-.1 1.2v.7c-.8-.3-1.2 1.4-1.3 2.1-.1.7.5 2 1.2 1.9-.1 2.7.9 3.8.9 3.8l-.3 2.6.3-2.6-.5 2.9s-.8.3-4 1.1-3.3 1.7-4.4 3c0 .1-.1.1-.1.2l20.9-.2z"/><path opacity=".2" d="M114.9 84.3c0-.1.1-.1.1-.2 1.1-1.3 1.2-2.1 4.4-3 3.2-.8 4-1.1 4-1.1l.5-2.9-.3 2.6.3-2.6s-1-1-.9-3.8c-.7.1-1.3-1.3-1.2-1.9.1-.6.5-2.4 1.3-2.1v-.7c0-.4 0-.8.1-1.2 0-.6.1-1 .2-1.3.1-.6.2-1.6.6-2.1.3-.4 1.1-.6 1.4-.9.2-.1-.2.8 0 .7.2-.1.6-.8.8-.9.4-.2.9-.4 1.4-.5.3-.1.7-.5 1-.5.5 0 .9.4 1.5.5.7.1 1.1 0 1.7.2.2.1.6.5.8.6.3.2.8.1 1 .3.4.3.6 1 .9 1.4.3.4.8.5.9.9.1.3-.1.9-.1 1.2 0 .3.1.6 0 .9 0 .6-.3 1.8-.7 3.1.9 0 .8 1.7.6 2.4-.1.7-1.1 1.8-1.7 1.5-.8 2.6-2 3.3-2 3.3l-.4 2.9s.6.5 3.5 2.2c.5.3.9.6 1.2.8h8.2l3.6-24-33.8-5-4.3 29.2h5.4z"/><path d="M167.6 84.1l.8-11.4-22.7-1.8-1.9 13.3M109.2 84.4l2.4-16.1-50.5-3.8-1.6 20.1"/><path opacity=".74" d="M55 84.6h4.5L61 64.5l50.5 3.9 2-13.2 33.8 5-1.6 10.7 12.8 1-.1-17.7-107.6.7L51 86c1.1-.9 2.6-1.4 4-1.4z"/><path opacity=".85" d="M48.6 89.3c.3-1.4 1.1-2.5 2.3-3.3l-.1-18-13.1.6 2.8 59.2 8.1-38.5z"/><path opacity=".35" d="M40 155.6c-3 0-4.9-2.2-4.3-4.9l4.8-22.9-2.8-59.2 13.1-.5v-5.7H35.7c-3 0-5.6 1.9-5.6 4.8v79.5c0 5.2 4 9 8.3 9"/><path opacity=".45" d="M179.9 88.6c.6-2.7-1.4-4.6-4.3-4.6L55 84.6c-3 0-5.8 1.9-6.4 4.6l-13 61.5c-.6 2.7 1.4 4.9 4.3 4.9l112.6-2.4c3 0 5.8-2.2 6.4-4.9l21-59.7z"/></svg>