<?xml version="1.0" encoding="utf-8"?>
<!-- Generator: Adobe Illustrator 18.1.1, SVG Export Plug-In . SVG Version: 6.00 Build 0)  -->
<svg version="1.0" xmlns="http://www.w3.org/2000/svg" xmlns:xlink="http://www.w3.org/1999/xlink" x="0px" y="0px"
	 viewBox="0 0 200 200" enable-background="new 0 0 200 200" xml:space="preserve">
<g id="Layer_1">
</g>
<g id="Layer_2">
	<g id="Add_Favorite">
	</g>
	<g id="New_Symbol_17">
	</g>
	<g>
		<path d="M135.6,84.2c-0.3-0.3-0.7-0.5-1.2-0.8c-2.8-1.7-3.5-2.2-3.5-2.2l0.4-2.9c0,0,1.3-0.7,2-3.3c0.7,0.3,1.6-0.8,1.7-1.5
			c0.1-0.6,0.3-2.4-0.6-2.4c0.4-1.3,0.7-2.5,0.7-3.1c0-0.3,0-0.6,0-0.9c0-0.3,0.2-0.9,0.1-1.2c-0.2-0.4-0.7-0.5-0.9-0.9
			c-0.3-0.4-0.5-1.1-0.9-1.4c-0.2-0.2-0.7-0.1-1-0.3c-0.2-0.1-0.6-0.5-0.8-0.6c-0.6-0.3-1-0.1-1.7-0.2c-0.5-0.1-1-0.5-1.5-0.5
			c-0.3,0-0.7,0.5-1,0.5c-0.5,0.1-1,0.3-1.4,0.5c-0.2,0.1-0.6,0.8-0.8,0.9c-0.2,0.1,0.2-0.8,0-0.7c-0.4,0.3-1.2,0.6-1.4,0.9
			c-0.4,0.5-0.5,1.6-0.6,2.1c-0.1,0.3-0.1,0.8-0.2,1.3c0,0.4,0,0.8-0.1,1.2c0,0.2,0,0.4,0,0.7c-0.8-0.3-1.2,1.4-1.3,2.1
			c-0.1,0.7,0.5,2,1.2,1.9c-0.1,2.7,0.9,3.8,0.9,3.8l-0.3,2.6l0.3-2.6l-0.5,2.9c0,0-0.8,0.3-4,1.1c-3.2,0.8-3.3,1.7-4.4,3
			c0,0.1-0.1,0.1-0.1,0.2L135.6,84.2z"/>
		<path opacity="0.2" d="M114.9,84.3c0-0.1,0.1-0.1,0.1-0.2c1.1-1.3,1.2-2.1,4.4-3c3.2-0.8,4-1.1,4-1.1l0.5-2.9l-0.3,2.6l0.3-2.6
			c0,0-1-1-0.9-3.8c-0.7,0.1-1.3-1.3-1.2-1.9c0.1-0.6,0.5-2.4,1.3-2.1c0-0.2,0-0.5,0-0.7c0-0.4,0-0.8,0.1-1.2c0-0.6,0.1-1,0.2-1.3
			c0.1-0.6,0.2-1.6,0.6-2.1c0.3-0.4,1.1-0.6,1.4-0.9c0.2-0.1-0.2,0.8,0,0.7c0.2-0.1,0.6-0.8,0.8-0.9c0.4-0.2,0.9-0.4,1.4-0.5
			c0.3-0.1,0.7-0.5,1-0.5c0.5,0,0.9,0.4,1.5,0.5c0.7,0.1,1.1,0,1.7,0.2c0.2,0.1,0.6,0.5,0.8,0.6c0.3,0.2,0.8,0.1,1,0.3
			c0.4,0.3,0.6,1,0.9,1.4c0.3,0.4,0.8,0.5,0.9,0.9c0.1,0.3-0.1,0.9-0.1,1.2c0,0.3,0.1,0.6,0,0.9c0,0.6-0.3,1.8-0.7,3.1
			c0.9,0,0.8,1.7,0.6,2.4c-0.1,0.7-1.1,1.8-1.7,1.5c-0.8,2.6-2,3.3-2,3.3l-0.4,2.9c0,0,0.6,0.5,3.5,2.2c0.5,0.3,0.9,0.6,1.2,0.8
			l8.2,0l3.6-24l-33.8-5l-4.3,29.2L114.9,84.3z"/>
		<g>
			<polygon points="167.6,84.1 168.4,72.7 145.7,70.9 143.8,84.2 			"/>
			<polygon points="109.2,84.4 111.6,68.3 61.1,64.5 59.5,84.6 			"/>
		</g>
		<path opacity="0.74" d="M55,84.6l4.5,0l1.5-20.1l50.5,3.9l2-13.2l33.8,5l-1.6,10.7l12.8,1l-0.1-17.7L50.8,54.9l0.2,31.1
			C52.1,85.1,53.6,84.6,55,84.6z"/>
		<path opacity="0.85" d="M48.6,89.3c0.3-1.4,1.1-2.5,2.3-3.3L50.8,68l-13.1,0.6l2.8,59.2L48.6,89.3z"/>
		<path opacity="0.35" d="M40,155.6c-3,0-4.9-2.2-4.3-4.9l4.8-22.9l-2.8-59.2l13.1-0.5l0-5.7H35.7c-3,0-5.6,1.9-5.6,4.8v79.5
			c0,5.2,4,9,8.3,9"/>
		<path opacity="0.45" d="M179.9,88.6c0.6-2.7-1.4-4.6-4.3-4.6L55,84.6c-3,0-5.8,1.9-6.4,4.6l-13,61.5c-0.6,2.7,1.4,4.9,4.3,4.9
			l112.6-2.4c3,0,5.8-2.2,6.4-4.9L179.9,88.6z"/>
	</g>
</g>
</svg>
