<svg version="1" xmlns="http://www.w3.org/2000/svg" viewBox="0 0 200 200"><path d="M53.6 164.7c-10.3 0-18.8-8.4-18.8-18.8 0-10.3 8.4-18.8 18.8-18.8s18.8 8.4 18.8 18.8c0 10.3-8.4 18.8-18.8 18.8z"/><path opacity=".75" d="M44.3 80.9c-2.9 0-6.2.2-8.2.5v25c2-.5 5.2-.8 8.2-.8 28 0 50.4 22.8 50.4 50.7 0 2.7-.5 6.1-.9 8.1h25c.3-2 .7-5.4.7-8.1.1-41.5-33.5-75.4-75.2-75.4z"/><path opacity=".5" d="M44.3 35.3c-2.9 0-6.2.1-8.2.3v24.9c2-.3 5.3-.4 8.2-.4 53.1 0 96 43.2 96 96.3 0 2.7-.4 6.1-.6 8.1h24.9c.2-2 .5-5.4.5-8.1 0-66.8-53.9-121.1-120.8-121.1z"/></svg>