<?xml version="1.0" encoding="utf-8"?>
<!-- Generator: Adobe Illustrator 18.1.1, SVG Export Plug-In . SVG Version: 6.00 Build 0)  -->
<svg version="1.0" xmlns="http://www.w3.org/2000/svg" xmlns:xlink="http://www.w3.org/1999/xlink" x="0px" y="0px"
	 viewBox="0 0 200 200" enable-background="new 0 0 200 200" xml:space="preserve">
<g id="Layer_1">
</g>
<g id="Layer_2">
	<g id="Add_Favorite">
	</g>
	<g id="New_Symbol_17">
	</g>
	<g>
		<path d="M53.6,164.7c-10.3,0-18.8-8.4-18.8-18.8c0-10.3,8.4-18.8,18.8-18.8s18.8,8.4,18.8,18.8C72.4,156.2,64,164.7,53.6,164.7z"
			/>
		<path opacity="0.75" d="M44.3,80.9c-2.9,0-6.2,0.2-8.2,0.5v25c2-0.5,5.2-0.8,8.2-0.8c28,0,50.4,22.8,50.4,50.7
			c0,2.7-0.5,6.1-0.9,8.1h25c0.3-2,0.7-5.4,0.7-8.1C119.6,114.8,86,80.9,44.3,80.9z"/>
		<path opacity="0.5" d="M44.3,35.3c-2.9,0-6.2,0.1-8.2,0.3v24.9c2-0.3,5.3-0.4,8.2-0.4c53.1,0,96,43.2,96,96.3
			c0,2.7-0.4,6.1-0.6,8.1h24.9c0.2-2,0.5-5.4,0.5-8.1C165.1,89.6,111.2,35.3,44.3,35.3z"/>
	</g>
</g>
</svg>
