<svg version="1" xmlns="http://www.w3.org/2000/svg" viewBox="0 0 200 200"><path opacity=".85" d="M28.3 114.1v-1.6c0-1.5-.5-4-1.8-6.3-.5-.8-10.7-18-11.7-20-2.4-4.6-3.9-7-3.8-11.6.1-4.6 0-13.1 0-14.6 0-4 3.9-9.1 12.6-9.2C32 50.8 36 56.9 36 60l-.1 15.1h-4v-3-6-3.9-.2c0-.8-.1-2.6-1.2-4.3-1.1-1.7-3.2-3.1-6.9-3.1-2.1 0-3.7.4-4.8.9-1.8.8-2.6 2.2-3 3.4-.2.6-.3 1.2-.3 1.6v14.9c0 .7.1 1.5.2 2 .4 2.1 1.9 4.8 1.9 4.9 0 0 11.3 18.6 13.3 21.8 1.9 3.1 1.7 5.3 1.8 7.5 0 1.1.1 2.7.1 2.7v14c0 .5-.2 2.2-1.4 3.8-1.2 1.6-3.4 3.1-7.7 3.1-2.2 0-3.7-.4-4.9-.9-1.7-.8-2.6-2.1-3-3.2-.2-.6-.3-1.1-.4-1.5-.1-.4-.1-.8-.1-.9v-4.2-6.9-3.4h4.3s-.1 11.9 0 12.8c.1.9-.1 4.2 4.2 4.2 3.9 0 4.5-3.1 4.5-4.2v-12.9zM190 135.8v3.6h-23.8V51h23.7v3.5h-19.6v81.3"/><path opacity=".6" d="M190 131.1v3.8h-18.9V94.3h16.5v3.6h-12.1v33.2M189.9 55.4v3.7h-14.4v30.3h12.1v4h-16.5v-38M157.7 55.4V59h-10.4v80.4h-4.5v-84"/><path opacity=".85" d="M126.7 51h31v3.5h-31zM142.3 139.4h-5.1V59h-10.5v-3.6h15.2v83.9M68.9 135.5v3.9H45.7V51h4.4v84.5"/><path opacity=".6" d="M68.9 131.1v3.5H51V51h4.5v80.1M14.6 130.1c.2 1.1.8 2.6 2.2 3.8 1.4 1.2 3.6 2.1 7 2.1 4.5 0 7-1.6 8.4-3.4 1.3-1.8 1.5-3.7 1.6-4.2v-1.8-10.5-1.8s0-1.6-.1-2.7c-.1-2.1.1-4.7-1.9-8-1-1.6-4.3-7-7.4-12.1-1.5-2.5-3-4.9-4.1-6.7-1-1.7-1.7-2.8-1.8-2.9l-.2-.4c-.4-.9-1.3-2.8-1.6-4.2-.1-.4-.1-1.1-.2-1.8v-2-.8V70v-5.1-3.3c0-.3 0-.8.1-1.4.1-.9.5-2.1 1.5-3 1-.9 2.7-1.7 5.7-1.7 3.5 0 5.2 1.3 6.2 2.7.9 1.4 1 3.1 1 3.8v13.2h-4.2V63.8s0-3.8-3.2-3.8c-2.9 0-2.6 4.1-2.6 4.1v9.2s-.1 2 .8 4.4c.7 2 2.6 4.8 2.9 5.3.2.4 9.2 16.2 11.2 19.8 2 3.6 1.8 6 1.8 8.4v17.9c0 6.1-5.3 10.6-14.2 10.6-9.4 0-13.6-5.2-13.5-11.4v-14.2h4.4v14.5c0 .2.1.8.2 1.5z"/><path opacity=".85" d="M126.9 141v.1l.6-.1c0 .4-.3.8-.7.9 0 0-.1-.5-.2-.9h.3z"/><ellipse opacity=".85" cx="128.5" cy="110.2" rx=".7" ry="1.7"/><path opacity=".85" d="M127.4 110.3c0 1.1.5 1.6.5 1.6h-2.8s-.6-.4-.6-1.7c0-1.2.6-1.7.6-1.7h2.7c.1 0-.4.5-.4 1.8zM126.6 140.2c.5-.1.9.2 1 .7l-.6.1h-.2c-.2-.4-.2-.8-.2-.8zM124.9 137.2c.5-.1.9.3 1 .7l1 6.3c.1.5-.3.9-.7 1-.5.1-.9-.3-1-.7l-1-6.3c-.1-.5.2-.9.7-1z"/><path opacity=".85" d="M123.7 110.1c0 1.3.6 1.7.6 1.7h-6.1l5.4 29 .6-.1.2 1.3-.6.1 2.1 13.7-1.8 7.2-.8 3.7h-2.2s-.4-2-1.1-5.1c2.5-.3 4.5-2.5 4.5-5.1 0-1.8-.9-3.4-2.3-4.3h.1l-17.2-92c.2-.6.3-1.2.3-1.8 0-2.5-1.8-4.5-4.1-5l1.2-7.9h3.5l11.7 62.9h6.6c0 .1-.6.6-.6 1.7zM122.8 167.2l-.2 1.2h-1.2l-.2-1.2M122.3 168.7l-.9 1.8v-1.8"/><circle opacity=".85" cx="119.4" cy="156.6" r="4"/><path opacity=".6" d="M118 151.7c-3.2-15.2-7.6-36.6-7.9-38.1 0 0-.1-.8-.3-1.3-.1-.6-.9-.5-.9-.5h-6.7v-3.4h6.9l-7.9-45c1.3-.2 2.5-1 3.2-2l16.9 90.4c-.6-.2-1.2-.4-1.9-.4-.5.1-1 .2-1.4.3z"/><path opacity=".85" d="M103.6 43.7l.5 1.1h-2l-1.3 7.8h-.6l-.9-7.7h-2.4l.4-1.2M103.5 55.8c1.3 1.6 1.2 4-.3 5.5s-3.9 1.6-5.5.3l5.8-5.8zM98.1 42.3h4.8v1h-4.8zM100.4 29.4c1.8 0 2.5.9 2.5.9l-.3 4.1s-.5-.9-2.2-.9c-1.8 0-2.2.7-2.2.7l-.3-4c.1 0 .7-.8 2.5-.8z"/><path opacity=".85" d="M102.1 34.6v7.2h-3.4v-7.2s.3-.5 1.7-.5c1.5 0 1.7.5 1.7.5zM100.6 121.3c-.5 0-.9-.4-.9-.9V99.3c0-.5.4-.9.9-.9s.9.4.9.9v21.1c-.1.5-.4.9-.9.9zM103.1 55.3l-5.8 5.8c-1.4-1.6-1.3-4.1.2-5.6s4-1.6 5.6-.2z"/><path opacity=".6" d="M91.3 112.3c-.2.2-.4 1.1-.5 1.5v-.2-.1c-.1.1-4.8 22.5-8.1 38.3-.6-.2-1.1-.3-1.8-.3-.5 0-1 .1-1.5.2l16.9-90c.8.9 1.9 1.6 3.1 1.8l-7.5 45h6.9v3.3h-6.6s-.5.1-.9.5z"/><path opacity=".85" d="M90.8 114z"/><circle opacity=".85" cx="81.1" cy="156.6" r="4"/><path opacity=".85" d="M75.9 156.6c0 2.7 2.1 4.9 4.8 5.1-.7 3.2-1.1 5.2-1.1 5.2h-2l-1.1-3.8-2.2-7.1 8.2-44.1H75s-.5-.3-.6-1.7c0-1.4.8-1.6.8-1.6h8.2l11.4-63h3.8l1.2 7.8c-2.5.3-4.5 2.5-4.5 5.1 0 .8.2 1.5.5 2.1l-17.2 91.6c-1.6.8-2.7 2.5-2.7 4.4zM79.5 169.6v1l-1.7-3.3 1.7.1M71.4 108.6h2.8s-.6.4-.6 1.6c0 1.2.5 1.8.5 1.8h-2.7s-.6-.4-.6-1.7c0-1.3.6-1.7.6-1.7zM90.8 114"/></svg>