<?xml version="1.0" encoding="utf-8"?>
<!-- Generator: Adobe Illustrator 18.1.1, SVG Export Plug-In . SVG Version: 6.00 Build 0)  -->
<svg version="1.0" xmlns="http://www.w3.org/2000/svg" xmlns:xlink="http://www.w3.org/1999/xlink" x="0px" y="0px"
	 viewBox="0 0 200 200" enable-background="new 0 0 200 200" xml:space="preserve">
<g id="Layer_1">
</g>
<g id="Layer_2">
	<g id="Add_Favorite">
	</g>
	<g id="New_Symbol_17">
	</g>
	<g>
		<g opacity="0.7">
			<path d="M96.3,122.1l-4.3-5.2L84.3,132l-0.1,0.2c1.7,3.8,3.8,7.7,6.2,11.6L96.3,122.1z"/>
			<path d="M108.1,116.5l-4.9,5.6l6,22.1c2.6-4.2,4.8-8.6,6.7-12.9L108.1,116.5z"/>
		</g>
		<path d="M74.8,98.2c0,0,1,15.4,9.2,33.5c0.1,0.1,0.2,0.2,0.3,0.2l15.8-30.7l15.8,30c7.4-17.2,9.2-33,9.2-33.1v-7.6
			c0,0-11.2,9.8-25.3,9.8c-12.8,0-23.1-8-25-9.5L74.8,98.2z"/>
		<path opacity="0.45" d="M175,175.4H25l5.9-52.6c0.3-2,1.6-3.8,3.4-4.7l40.5-19.9c0,0,2,32.4,25.1,58.3
			c21.3-22.4,25.3-58.3,25.3-58.3l39.7,19.9c1.8,0.9,3,2.6,3.3,4.5L175,175.4z"/>
		<path opacity="0.3" d="M90.4,143.8c2.7,4.3,5.8,8.6,9.5,12.7c3.6-3.8,6.7-8,9.4-12.3l-6-22.1l4.9-5.6l-8-15.2l-8,15.5l4.3,5.2
			L90.4,143.8z"/>
	</g>
</g>
</svg>
