<svg version="1" xmlns="http://www.w3.org/2000/svg" viewBox="0 0 200 200"><g opacity=".7"><path d="M96.3 122.1l-4.3-5.2-7.7 15.1-.1.2c1.7 3.8 3.8 7.7 6.2 11.6l5.9-21.7zM108.1 116.5l-4.9 5.6 6 22.1c2.6-4.2 4.8-8.6 6.7-12.9l-7.8-14.8z"/></g><path d="M74.8 98.2s1 15.4 9.2 33.5c.1.1.2.2.3.2l15.8-30.7 15.8 30c7.4-17.2 9.2-33 9.2-33.1v-7.6s-11.2 9.8-25.3 9.8c-12.8 0-23.1-8-25-9.5v7.4z"/><path opacity=".45" d="M175 175.4H25l5.9-52.6c.3-2 1.6-3.8 3.4-4.7l40.5-19.9s2 32.4 25.1 58.3c21.3-22.4 25.3-58.3 25.3-58.3l39.7 19.9c1.8.9 3 2.6 3.3 4.5l6.8 52.8z"/><path opacity=".3" d="M90.4 143.8c2.7 4.3 5.8 8.6 9.5 12.7 3.6-3.8 6.7-8 9.4-12.3l-6-22.1 4.9-5.6-8-15.2-8 15.5 4.3 5.2-6.1 21.8z"/></svg>