<?xml version="1.0" encoding="utf-8"?>
<!-- Generator: Adobe Illustrator 18.1.1, SVG Export Plug-In . SVG Version: 6.00 Build 0)  -->
<svg version="1.0" xmlns="http://www.w3.org/2000/svg" xmlns:xlink="http://www.w3.org/1999/xlink" x="0px" y="0px"
	 viewBox="0 0 200 200" enable-background="new 0 0 200 200" xml:space="preserve">
<g id="Layer_1">
</g>
<g id="Layer_2">
	<g id="Add_Favorite">
	</g>
	<g id="New_Symbol_17">
	</g>
	<g>
		<path d="M172.1,78c0,0-9-5.5-17.8-3.4c0-3.5-1-5.9-3.1-6.7c0,0-7.6-4-15.1-4.7c-0.3-2.9-1.3-4.9-3.3-5.6c0,0-11.4-5.8-19.7-5.6
			c-0.3-3.2-1.5-5.4-3.7-6.2c0,0-26.6-10.5-35.2-12.3c0.1-3.8-0.5-6.2-1.9-6.8c0,0-13.7-7.2-19.9-7.6c-4.4-0.3-13.2,12.5-20.4,31.4
			c-7.2,18.9-8.1,33.4-5.6,37c3.5,5.3,19.9,7.6,19.9,7.6c1.3,0.5,3-0.5,5-2.7c8.1,5.9,35.4,13.2,35.4,13.2c2.2,0.8,4.5,0,6.8-2.1
			c5.9,5.8,18.5,8.8,18.5,8.8c1.9,0.7,3.9,0,6-1.8c4.2,3.6,14.6,6.3,14.6,6.3c2,0.8,4.1-0.2,6.2-2.3c4.6,5.8,16.2,8.7,16.2,8.7
			c5,1.9,10.7-7.5,15.5-20C175.1,90.8,177.1,79.9,172.1,78z M44.4,55.2c-6.3,16.5-14.3,28.8-16.5,28c-2.2-0.8,0-15.4,6.3-31.9
			c6.3-16.5,14.3-28.8,16.5-28C52.9,24.2,50.7,38.7,44.4,55.2z"/>
		<polygon opacity="0.7" points="144.1,180.5 150.8,180.5 143.1,144.9 143.1,137.5 116.1,137.5 116.1,143.3 116.1,142.9 
			109.3,180.5 116,180.5 122.6,147.5 127.1,147.5 127.1,180.5 133.1,180.5 133.1,147.5 137.5,147.5 		"/>
		<path opacity="0.5" d="M50.7,23.3c2.2,0.8,0,15.4-6.3,31.9S30.1,84,27.9,83.2c-2.2-0.8,0-15.4,6.3-31.9
			C40.4,34.8,48.5,22.5,50.7,23.3z"/>
		<path opacity="0.7" d="M138.5,114.6c-2.1,2.1-4.1,3-6.1,2.3c0,0-10.7-2.7-14.8-6.3c-0.4,0.4-0.5,0.7-1.5,1v23h27v-15.9
			C141.1,117.4,139.8,116.1,138.5,114.6z"/>
	</g>
</g>
</svg>
