<svg version="1" xmlns="http://www.w3.org/2000/svg" viewBox="0 0 200 200"><path d="M172.1 78s-9-5.5-17.8-3.4c0-3.5-1-5.9-3.1-6.7 0 0-7.6-4-15.1-4.7-.3-2.9-1.3-4.9-3.3-5.6 0 0-11.4-5.8-19.7-5.6-.3-3.2-1.5-5.4-3.7-6.2 0 0-26.6-10.5-35.2-12.3.1-3.8-.5-6.2-1.9-6.8 0 0-13.7-7.2-19.9-7.6C48 18.8 39.2 31.6 32 50.5c-7.2 18.9-8.1 33.4-5.6 37 3.5 5.3 19.9 7.6 19.9 7.6 1.3.5 3-.5 5-2.7 8.1 5.9 35.4 13.2 35.4 13.2 2.2.8 4.5 0 6.8-2.1 5.9 5.8 18.5 8.8 18.5 8.8 1.9.7 3.9 0 6-1.8 4.2 3.6 14.6 6.3 14.6 6.3 2 .8 4.1-.2 6.2-2.3 4.6 5.8 16.2 8.7 16.2 8.7 5 1.9 10.7-7.5 15.5-20 4.6-12.4 6.6-23.3 1.6-25.2zM44.4 55.2c-6.3 16.5-14.3 28.8-16.5 28-2.2-.8 0-15.4 6.3-31.9s14.3-28.8 16.5-28c2.2.9 0 15.4-6.3 31.9z"/><path opacity=".7" d="M144.1 180.5h6.7l-7.7-35.6v-7.4h-27v5.8-.4l-6.8 37.6h6.7l6.6-33h4.5v33h6v-33h4.4"/><path opacity=".5" d="M50.7 23.3c2.2.8 0 15.4-6.3 31.9S30.1 84 27.9 83.2c-2.2-.8 0-15.4 6.3-31.9 6.2-16.5 14.3-28.8 16.5-28z"/><path opacity=".7" d="M138.5 114.6c-2.1 2.1-4.1 3-6.1 2.3 0 0-10.7-2.7-14.8-6.3-.4.4-.5.7-1.5 1v23h27v-15.9c-2-1.3-3.3-2.6-4.6-4.1z"/></svg>