<svg version="1" xmlns="http://www.w3.org/2000/svg" viewBox="0 0 200 200"><path opacity=".5" d="M38.7 101.2l2.1-2.4c2.3-2.6 2.1-6.4-.3-8.8.1-1.6.8-3.6 3.1-6.1 8.9-10 14.4-4.3 14.4-4.3l27.7 25.9 5.1-4.9 9.4-9.1-30.4-25.3c-8.3-6.2-3-29.6 29.4-26.7.7.1 1.4-.5 1.4-1.2s.1-1.5.1-2.1c0-.6-.3-1.1-.9-1.3C86 30.3 62.5 32.2 48.4 48c.1-.2-10.7 12-10.7 12s-3.3 3.5-2.9 7.7c.1 4.7 1.5 5.9-2.2 10.1-1.2 1.3-2.2 2.1-3 2.5-2.6-2.1-6.5-1.8-8.8.7l-2.1 2.4c-2.4 2.6-2.1 6.7.5 9.1l10.5 9.4c2.6 2.2 6.7 2 9-.7zM115.7 104.3l-2.5 2.4-12.9 12.4 45.1 42.1c1.3 1.2 3.4 1.1 4.6-.2l12.3-13.7c1.2-1.4 1.1-3.5-.4-4.6l-46.2-38.4z"/><path d="M57.6 135.4L69 142c2.3 1.4 3.2 4.4 1.8 6.7L60 167.3c7.9 0 15.6-4.1 19.9-11.4 3.3-5.7 3.9-12.2 2.1-18.1.5-1.2 1.2-2.3 2.2-3.2l29-27.9L133.6 87c1.1-1 2.3-1.8 3.6-2.2 10 3.1 21.2-1 26.6-10.4 4.3-7.3 4-16.1 0-22.9L153 70.1c-1.4 2.3-4.4 3.2-6.7 1.8l-11.4-6.6c-2.3-1.4-3.2-4.4-1.8-6.7L143.9 40c-7.9 0-15.6 4.1-19.9 11.4-3.3 5.7-3.9 12.2-2.1 18.1-.5 1.2-1.2 2.3-2.2 3.2l-29 27.9-20.5 19.7c-1.1 1-2.3 1.8-3.6 2.2-10-3.1-21.2 1-26.6 10.4-4.3 7.4-4 16.1 0 22.9l10.8-18.6c1.4-2.4 4.5-3.2 6.8-1.8z"/></svg>