<?xml version="1.0" encoding="utf-8"?>
<!-- Generator: Adobe Illustrator 18.1.1, SVG Export Plug-In . SVG Version: 6.00 Build 0)  -->
<svg version="1.0" xmlns="http://www.w3.org/2000/svg" xmlns:xlink="http://www.w3.org/1999/xlink" x="0px" y="0px"
	 viewBox="0 0 200 200" enable-background="new 0 0 200 200" xml:space="preserve">
<g id="Layer_1">
</g>
<g id="Layer_2">
	<g id="Add_Favorite">
	</g>
	<g id="New_Symbol_17">
	</g>
	<g>
		<path opacity="0.5" d="M38.7,101.2l2.1-2.4c2.3-2.6,2.1-6.4-0.3-8.8c0.1-1.6,0.8-3.6,3.1-6.1c8.9-10,14.4-4.3,14.4-4.3l27.7,25.9
			l5.1-4.9l0,0l9.4-9.1L69.8,66.2c-8.3-6.2-3-29.6,29.4-26.7c0.7,0.1,1.4-0.5,1.4-1.2c0-0.7,0.1-1.5,0.1-2.1c0-0.6-0.3-1.1-0.9-1.3
			C86,30.3,62.5,32.2,48.4,48c0.1-0.2-10.7,12-10.7,12s-3.3,3.5-2.9,7.7c0.1,4.7,1.5,5.9-2.2,10.1c-1.2,1.3-2.2,2.1-3,2.5
			c-2.6-2.1-6.5-1.8-8.8,0.7l-2.1,2.4c-2.4,2.6-2.1,6.7,0.5,9.1l10.5,9.4C32.3,104.1,36.4,103.9,38.7,101.2z"/>
		<path opacity="0.5" d="M115.7,104.3l-2.5,2.4l0,0l-12.9,12.4l45.1,42.1c1.3,1.2,3.4,1.1,4.6-0.2l12.3-13.7
			c1.2-1.4,1.1-3.5-0.4-4.6L115.7,104.3z"/>
		<g>
			<path d="M57.6,135.4L69,142c2.3,1.4,3.2,4.4,1.8,6.7L60,167.3c7.9,0,15.6-4.1,19.9-11.4c3.3-5.7,3.9-12.2,2.1-18.1
				c0.5-1.2,1.2-2.3,2.2-3.2l29-27.9l0,0L133.6,87c1.1-1,2.3-1.8,3.6-2.2c10,3.1,21.2-1,26.6-10.4c4.3-7.3,4-16.1,0-22.9l-10.8,18.6
				c-1.4,2.3-4.4,3.2-6.7,1.8l-11.4-6.6c-2.3-1.4-3.2-4.4-1.8-6.7l10.8-18.6c-7.9,0-15.6,4.1-19.9,11.4c-3.3,5.7-3.9,12.2-2.1,18.1
				c-0.5,1.2-1.2,2.3-2.2,3.2l-29,27.9l0,0l-20.5,19.7c-1.1,1-2.3,1.8-3.6,2.2c-10-3.1-21.2,1-26.6,10.4c-4.3,7.4-4,16.1,0,22.9
				l10.8-18.6C52.2,134.8,55.3,134,57.6,135.4z"/>
		</g>
	</g>
</g>
</svg>
