<?xml version="1.0" encoding="utf-8"?>
<!-- Generator: Adobe Illustrator 18.1.1, SVG Export Plug-In . SVG Version: 6.00 Build 0)  -->
<svg version="1.0" xmlns="http://www.w3.org/2000/svg" xmlns:xlink="http://www.w3.org/1999/xlink" x="0px" y="0px"
	 viewBox="0 0 200 200" enable-background="new 0 0 200 200" xml:space="preserve">
<g id="Layer_1">
</g>
<g id="Layer_2">
	<g id="Add_Favorite">
	</g>
	<g id="New_Symbol_17">
	</g>
	<g>
		<g opacity="0.5">
			<path d="M164.2,134.6c-4-6.2-17.5-10.2-30.8-15.7c-13.3-5.6-16.5-7.5-16.5-7.5l-0.1-12.8c0,0,5-3.9,6.6-15.9
				c3.1,0.9,6.4-4.7,6.6-7.6c0.2-2.8-0.4-10.7-4.2-9.9c0.3-2.4,0.6-4.7,0.8-6.8c0.2-1.5,0.3-2.9,0.3-4.1c0.1-1.2,0.1-2.3,0-3.1
				c-0.3-2.6-1.1-5.3-2.5-7.8c-1.4-2.6-1.8-6.2-4.3-8.2c-1.6-1.4-5.1-1.4-7.2-2.3c-1.9-0.9-5.4-3.3-7.6-3.8c-2-0.4-2.8,1.1-5.1,1.1
				c-4,0-8-0.2-11.4,0.5c-6.6,1.4-7.5,7.8-12.8,6.6c-2-0.5,2,3,0.9,4.7c-0.9,1.4-1.7,2.9-2.2,4.3c-0.6,1.6-1,3.3-1.2,5
				c-0.3,2.8,0.3,8.1,1.1,14c-3.8-0.8-4.4,7.1-4.3,9.9c0.2,2.9,3.5,8.5,6.6,7.6c1.6,12,6.6,15.9,6.6,15.9l-0.1,12.8
				c0,0-3.2,1.9-16.5,7.5c-13.4,5.6-26.8,9.5-30.9,15.7c-3.6,5.6-2.5,40.4-2.5,40.4H100h66.7C166.7,175,167.8,140.2,164.2,134.6z"/>
		</g>
		<path fill-rule="evenodd" clip-rule="evenodd" d="M127.4,65.6c-0.2-0.7,0.6-4.7,0.6-5.4c0-0.3,0-1.4,0-1.5c0-1.2,0.2-2.5,0.4-3.7
			c0-0.1,0.1-0.6,0.1-0.8c0.1-1.1,0-2.1-0.4-3.2c-0.1-0.4-0.2-0.8-0.3-1.3c-0.1-0.1-0.1-2.1,0.1-3c-0.5-2.2-0.7-3.2-1.6-4.2
			c-0.8-2-1.2-4.6-2.3-6.1c-1.2-1.5-2.6-3.1-3.8-4c-1.3-0.9-1.8-0.9-2.7-1.5c-2.1-1.3-4.8-3.1-7.4-3.7c0,0,0,0,0,0
			c-1-0.6-1-0.7-3-1.5c-2-0.8-2.9-1-4.4-0.8c-1.5,0.2-2,0.2-3,0.2c-1.1,0-2.3-0.6-3.4,0c-0.5,0.1-0.9-0.1-1.6,0.3
			c-1.2,0.1-3.1,1-4.3,1.8c-0.3,0.2-0.6,0.4-0.9,0.7c-0.4,0.4-0.8,0.7-1.4,0.8c-1.6,0.1-3.1,0.9-4.5,1.7c-0.4,0.1-0.4-0.1-1.2,0.3
			c-0.8,0.5-1.4,1.2-2.1,1.7l0,0c-0.1-0.1-0.3-0.2-0.4-0.3c-1.7,0.6-3.2,2.2-4.2,3.4v1.1h0.5c-0.7,0-1,0.6-1.4,1.2
			c-1.6,2.6-2.2,5.3-3.4,8c0,0-0.1-0.1-0.1,0.1c-0.2,0.2-0.3,0.4-0.3,0.7c-0.2,0.6-0.5,1.3-0.6,1.8c-0.3,1-0.3,1.8,0,2.5
			c-0.2,2.7,0.5,4.5,0.5,6.6c0,0.3,0.1,0.5,0.1,0.8c-0.1,0.6,0.8,1.2,0.8,1.8c0.7,0.2,0.7,5.1,1.7,5.7c1.3,0.8,0.7,0.4,0.9,0.4
			c0,0,0.1-0.6,0.2-0.5c1.7,3.1,1.9,10.1,2.3,9.6c1.6-2.8-0.8-11.3-0.8-12.6c0.3-0.7-0.4-2.6-0.6-3.3c-0.4-2.1-0.4-4.2,0.5-6.2
			c0,0,0,0,0.1,0c0.4-0.7,0.8-1.4,1.5-2.1c0.7-0.7,1.1-1.7,1.1-2.8c-0.1-0.2-0.2-0.3-0.3-0.5c0-0.8,0-1.6,0.4-2.1
			c0.3,0,0.9-0.4,1.2-0.5c0.1,0,0.1,0,0.2,0v0c0.8,0.3,1.6,0.7,2.4,1c1.1,0.6,1.6-0.9,2.6-0.7c1.1,0.2,2.4,2,2.3,1.8
			c1.4,1,3.1,0.2,4.6,0.5c0.8,0.5,1.7,0.7,2.7,0.8c0.1,0.1,0.3,0.2,0.4,0.2h0c1.6,0,3.2,0.3,4.6,1.3c0.6,0.4,1.2,0.6,1.9,0.4
			c0.5,0.2,0.8,0.1,2.3,0.2c0.1,0,0.1,0,0.2,0c0.9-0.2,1.7-0.4,2.3-0.2c0.9,0.3,1.3,0.5,1.6,0.5c2.7,0.1,3.3,2.6,5.3,3.9
			c1.9,1.2,2.2,1.5,3,0.7c0,0,0,0.1,0,0.1c1.1,1.4,3.4,1.3,4.9,1.1c0.1,0.1,0.2,0.2,0.3,0.3c1.5,1.9,1.3,4.1,1.1,6.2
			c0,0-0.1,1.2-0.1,1.2c0,0.9,0.1,3.8,0.7,7.1c0.2,1.1,0.3,1.8,0.5,2.1c0.6,0.9,0.7-1.5,0.6-3.3c-0.1-1.8-0.8-1.1,0.2-3.1v0
			c0.5-0.9,0.6-2.3,1.3-2.3C126.3,65.2,127.6,65.9,127.4,65.6z M101.5,50.4C101.5,50.4,101.5,50.4,101.5,50.4
			C101.5,50.5,101.5,50.4,101.5,50.4C101.5,50.4,101.5,50.4,101.5,50.4z"/>
	</g>
</g>
</svg>
