<svg version="1" xmlns="http://www.w3.org/2000/svg" viewBox="0 0 200 200"><path opacity=".4" d="M63.6 117c-.7-.4-1.5-.7-2.3-1.1-7.9-3.3-11.4-4.5-11.4-4.5l.5-7.6s3-2.3 3.9-9.5c1.9.5 3.8-2.8 3.9-4.5.1-1.7-.3-6.4-2.5-5.9.2-1.4.4-2.8.5-4 .2-1.8.3-4.4.2-5.4-.1-1.4-.6-1.8-1.2-3.1-.5-1-1.3-3.3-2.1-4.2-1.2-1.4-2.4-1.8-4.2-2.8-.7-.4-1.3-.1-2.1-.4-.7-.3-1.2-1.2-1.9-1.3-1.3-.3-1.9-1.6-3.5-1.6-2.1 0-5 2.1-6.7 2.7-.7.2-2.7-.5-3.3-.3-1.3.6-1.1 2.4-2.1 3.3-.6.5-2.4 1-2.9 1.6-.5.6.3 1.3 0 1.9-.3.5-1.6 1-1.9 1.5-.3.6.6 1.2.4 1.8-.2.6-.9 1.6-.9 2.2-.1.8.6 1.5.7 2.8.1 1.5.3 3.3.6 5.2-2.3-.5-2.6 4.2-2.5 5.9.1 1.8 2.1 5.1 3.9 4.5.9 7.2 3.9 9.5 3.9 9.5l-.1 7.6s-2.2.5-9.8 4.5c-8.8 4.6-9.4 7.3-10.3 9.5-1.3 3.3-1.5 24.1-1.5 24.1h33.6c.1-9 .5-19.3 2.2-21.9 2.5-4.1 10.2-7.1 18.9-10.5z"/><path opacity=".6" d="M189.4 121.9c-2.7-4.3-2.7-7-11.8-10.8-9.1-3.8-11.3-5.1-11.3-5.1l-.1-8.7s3.4-2.6 4.5-10.8c2.1.6 4.4-3.2 4.5-5.2.1-1.9-.3-7.3-2.9-6.7.5-4 .9-7.6.7-9.6-.1-.9-.3-1.8-.5-2.6-.3-.9.1-2.8-.4-3.7-.6-1.2-2.2-1.3-3.2-2.3-1-1.1-1.8-3-3.2-3.9-.8-.5-2.1 0-3.1-.4-.6-.2-2-1.3-2.6-1.5-1.8-.6-3 0-5.2 0-1.6 0-3.1-1-4.6-.7-.9.2-1.8 1.6-2.7 2-1.4.5-2.7 1.2-3.9 2-.6.4-1.6 2.7-2.1 3.1-.5.4.1-2.5-.3-2-1 1-3.2 2.2-3.8 3.4-.9 1.7-.7 4.9-.8 6.6-.1 1 0 2.3.1 4 .1 1.1.2 2.3.4 3.6.1.7.2 1.3.3 2-2.6-.5-3 4.8-2.9 6.7.1 2 2.4 5.8 4.5 5.2 1.1 8.2 4.5 10.8 4.5 10.8l.2 7.7-.3-7.7-.1 8.7s-2.2 1.3-11.3 5.1c-2.6 1.1-4.4 2.1-5.8 3 .1 0 .2.1.3.1 11.2 4.7 22.6 8 26 13.3 1.7 2.7 2.2 12.9 2.2 21.9H191c.2.1.9-23.7-1.6-27.5z"/><path d="M126.6 114.3c-.1 0-.2-.1-.3-.1-11-4.6-13.6-6.2-13.6-6.2l-.1-10.8s4.2-3.2 5.5-13.4c2.6.8 5.4-3.9 5.5-6.4.1-2.4-.4-9-3.6-8.3.3-2 .5-4 .7-5.7.1-1.3.2-2.4.3-3.5v-2.6c-.2-2.2-.9-4.5-2.1-6.6-1.2-2.2-1.5-5.2-3.6-6.9-1.4-1.1-4.3-1.2-6.1-2-1.6-.7-4.6-2.8-6.4-3.2-1.7-.4-2.3.9-4.3.9-3.4 0-6.7-.2-9.6.4-5.6 1.1-6.3 6.5-10.8 5.6-1.7-.4 1.7 2.5.8 3.9-.8 1.2-1.4 2.4-1.9 3.7-.5 1.4-.9 2.8-1 4.2-.2 2.4.2 6.8.9 11.8-3.2-.7-3.7 6-3.6 8.3.1 2.5 2.9 7.2 5.5 6.4 1.3 10.1 5.5 13.4 5.5 13.4l-.1 10.8s-2.7 1.6-13.9 6.3c-2.3 1-4.6 1.9-6.9 2.7-8.7 3.4-16.4 6.3-19.1 10.5-1.7 2.7-2.2 13.2-2.2 21.9-.1 6.6.1 12.1.1 12.1h112.4s.2-5.5.1-12.1c-.1-8.6-.5-19.2-2.2-21.9-3.3-5.3-14.6-8.6-25.9-13.2z"/></svg>