<?xml version="1.0" encoding="utf-8"?>
<!-- Generator: Adobe Illustrator 18.1.1, SVG Export Plug-In . SVG Version: 6.00 Build 0)  -->
<svg version="1.0" xmlns="http://www.w3.org/2000/svg" xmlns:xlink="http://www.w3.org/1999/xlink" x="0px" y="0px"
	 viewBox="0 0 200 200" enable-background="new 0 0 200 200" xml:space="preserve">
<g id="Layer_1">
</g>
<g id="Layer_2">
	<g id="Add_Favorite">
	</g>
	<g id="New_Symbol_17">
	</g>
	<g>
		<path opacity="0.4" d="M63.6,117c-0.7-0.4-1.5-0.7-2.3-1.1c-7.9-3.3-11.4-4.5-11.4-4.5l0.5-7.6c0,0,3-2.3,3.9-9.5
			c1.9,0.5,3.8-2.8,3.9-4.5c0.1-1.7-0.3-6.4-2.5-5.9c0.2-1.4,0.4-2.8,0.5-4c0.2-1.8,0.3-4.4,0.2-5.4c-0.1-1.4-0.6-1.8-1.2-3.1
			c-0.5-1-1.3-3.3-2.1-4.2c-1.2-1.4-2.4-1.8-4.2-2.8c-0.7-0.4-1.3-0.1-2.1-0.4c-0.7-0.3-1.2-1.2-1.9-1.3c-1.3-0.3-1.9-1.6-3.5-1.6
			c-2.1,0-5,2.1-6.7,2.7c-0.7,0.2-2.7-0.5-3.3-0.3c-1.3,0.6-1.1,2.4-2.1,3.3c-0.6,0.5-2.4,1-2.9,1.6c-0.5,0.6,0.3,1.3,0,1.9
			c-0.3,0.5-1.6,1-1.9,1.5c-0.3,0.6,0.6,1.2,0.4,1.8c-0.2,0.6-0.9,1.6-0.9,2.2c-0.1,0.8,0.6,1.5,0.7,2.8c0.1,1.5,0.3,3.3,0.6,5.2
			c-2.3-0.5-2.6,4.2-2.5,5.9c0.1,1.8,2.1,5.1,3.9,4.5c0.9,7.2,3.9,9.5,3.9,9.5l-0.1,7.6c0,0-2.2,0.5-9.8,4.5
			c-8.8,4.6-9.4,7.3-10.3,9.5c-1.3,3.3-1.5,24.1-1.5,24.1h29.5h4.1c0.1-9,0.5-19.3,2.2-21.9C47.2,123.4,54.9,120.4,63.6,117z"/>
		<path opacity="0.6" d="M189.4,121.9c-2.7-4.3-2.7-7-11.8-10.8c-9.1-3.8-11.3-5.1-11.3-5.1l-0.1-8.7c0,0,3.4-2.6,4.5-10.8
			c2.1,0.6,4.4-3.2,4.5-5.2c0.1-1.9-0.3-7.3-2.9-6.7c0.5-4,0.9-7.6,0.7-9.6c-0.1-0.9-0.3-1.8-0.5-2.6c-0.3-0.9,0.1-2.8-0.4-3.7
			c-0.6-1.2-2.2-1.3-3.2-2.3c-1-1.1-1.8-3-3.2-3.9c-0.8-0.5-2.1,0-3.1-0.4c-0.6-0.2-2-1.3-2.6-1.5c-1.8-0.6-3,0-5.2,0
			c-1.6,0-3.1-1-4.6-0.7c-0.9,0.2-1.8,1.6-2.7,2c-1.4,0.5-2.7,1.2-3.9,2c-0.6,0.4-1.6,2.7-2.1,3.1c-0.5,0.4,0.1-2.5-0.3-2
			c-1,1-3.2,2.2-3.8,3.4c-0.9,1.7-0.7,4.9-0.8,6.6c-0.1,1,0,2.3,0.1,4c0.1,1.1,0.2,2.3,0.4,3.6c0.1,0.7,0.2,1.3,0.3,2
			c-2.6-0.5-3,4.8-2.9,6.7c0.1,2,2.4,5.8,4.5,5.2c1.1,8.2,4.5,10.8,4.5,10.8l0.2,7.7l-0.3-7.7l-0.1,8.7c0,0-2.2,1.3-11.3,5.1
			c-2.6,1.1-4.4,2.1-5.8,3c0.1,0,0.2,0.1,0.3,0.1c11.2,4.7,22.6,8,26,13.3c1.7,2.7,2.2,12.9,2.2,21.9h2.6h33.7
			C191.2,149.5,191.9,125.7,189.4,121.9z"/>
		<path d="M126.6,114.3c-0.1,0-0.2-0.1-0.3-0.1c-11-4.6-13.6-6.2-13.6-6.2l-0.1-10.8c0,0,4.2-3.2,5.5-13.4c2.6,0.8,5.4-3.9,5.5-6.4
			c0.1-2.4-0.4-9-3.6-8.3c0.3-2,0.5-4,0.7-5.7c0.1-1.3,0.2-2.4,0.3-3.5c0-1,0-1.9,0-2.6c-0.2-2.2-0.9-4.5-2.1-6.6
			c-1.2-2.2-1.5-5.2-3.6-6.9c-1.4-1.1-4.3-1.2-6.1-2c-1.6-0.7-4.6-2.8-6.4-3.2c-1.7-0.4-2.3,0.9-4.3,0.9c-3.4,0-6.7-0.2-9.6,0.4
			c-5.6,1.1-6.3,6.5-10.8,5.6c-1.7-0.4,1.7,2.5,0.8,3.9c-0.8,1.2-1.4,2.4-1.9,3.7c-0.5,1.4-0.9,2.8-1,4.2c-0.2,2.4,0.2,6.8,0.9,11.8
			c-3.2-0.7-3.7,6-3.6,8.3c0.1,2.5,2.9,7.2,5.5,6.4c1.3,10.1,5.5,13.4,5.5,13.4l-0.1,10.8c0,0-2.7,1.6-13.9,6.3
			c-2.3,1-4.6,1.9-6.9,2.7c-8.7,3.4-16.4,6.3-19.1,10.5c-1.7,2.7-2.2,13.2-2.2,21.9c-0.1,6.6,0.1,12.1,0.1,12.1h56.2h56.2
			c0,0,0.2-5.5,0.1-12.1c-0.1-8.6-0.5-19.2-2.2-21.9C149.2,122.2,137.9,118.9,126.6,114.3z"/>
	</g>
</g>
</svg>
