<svg version="1" xmlns="http://www.w3.org/2000/svg" viewBox="0 0 200 200"><path d="M164.2 134.6c-4-6.2-17.5-10.2-30.8-15.7-13.3-5.6-16.5-7.5-16.5-7.5l-.1-12.8s5-3.9 6.6-15.9c3.1.9 6.4-4.7 6.6-7.6.2-2.8-.4-10.7-4.2-9.9.3-2.4.6-4.7.8-6.8.2-1.5.3-2.9.3-4.1.1-1.2.1-2.3 0-3.1-.3-2.6-1.1-5.3-2.5-7.8-1.4-2.6-1.8-6.2-4.3-8.2-1.6-1.4-5.1-1.4-7.2-2.3-1.9-.9-5.4-3.3-7.6-3.8-2-.4-2.8 1.1-5.1 1.1-4 0-8-.2-11.4.5-6.6 1.4-7.5 7.8-12.8 6.6-2-.5 2 3 .9 4.7-.9 1.4-1.7 2.9-2.2 4.3-.6 1.6-1 3.3-1.2 5-.3 2.8.3 8.1 1.1 14-3.8-.8-4.4 7.1-4.3 9.9.2 2.9 3.5 8.5 6.6 7.6 1.6 12 6.6 15.9 6.6 15.9l-.1 12.8s-3.2 1.9-16.5 7.5c-13.4 5.6-26.8 9.5-30.9 15.7-3.6 5.6-2.5 40.4-2.5 40.4h133.2c0-.1 1.1-34.9-2.5-40.5z" opacity=".5"/><path fill-rule="evenodd" clip-rule="evenodd" d="M127.4 65.6c-.2-.7.6-4.7.6-5.4v-1.5c0-1.2.2-2.5.4-3.7 0-.1.1-.6.1-.8.1-1.1 0-2.1-.4-3.2-.1-.4-.2-.8-.3-1.3-.1-.1-.1-2.1.1-3-.5-2.2-.7-3.2-1.6-4.2-.8-2-1.2-4.6-2.3-6.1-1.2-1.5-2.6-3.1-3.8-4-1.3-.9-1.8-.9-2.7-1.5-2.1-1.3-4.8-3.1-7.4-3.7-1-.6-1-.7-3-1.5s-2.9-1-4.4-.8c-1.5.2-2 .2-3 .2-1.1 0-2.3-.6-3.4 0-.5.1-.9-.1-1.6.3-1.2.1-3.1 1-4.3 1.8-.3.2-.6.4-.9.7-.4.4-.8.7-1.4.8-1.6.1-3.1.9-4.5 1.7-.4.1-.4-.1-1.2.3-.8.5-1.4 1.2-2.1 1.7-.1-.1-.3-.2-.4-.3-1.7.6-3.2 2.2-4.2 3.4v1.1h.5c-.7 0-1 .6-1.4 1.2-1.6 2.6-2.2 5.3-3.4 8 0 0-.1-.1-.1.1-.2.2-.3.4-.3.7-.2.6-.5 1.3-.6 1.8-.3 1-.3 1.8 0 2.5-.2 2.7.5 4.5.5 6.6 0 .3.1.5.1.8-.1.6.8 1.2.8 1.8.7.2.7 5.1 1.7 5.7 1.3.8.7.4.9.4 0 0 .1-.6.2-.5 1.7 3.1 1.9 10.1 2.3 9.6 1.6-2.8-.8-11.3-.8-12.6.3-.7-.4-2.6-.6-3.3-.4-2.1-.4-4.2.5-6.2h.1c.4-.7.8-1.4 1.5-2.1.7-.7 1.1-1.7 1.1-2.8-.1-.2-.2-.3-.3-.5 0-.8 0-1.6.4-2.1.3 0 .9-.4 1.2-.5h.2c.8.3 1.6.7 2.4 1 1.1.6 1.6-.9 2.6-.7 1.1.2 2.4 2 2.3 1.8 1.4 1 3.1.2 4.6.5.8.5 1.7.7 2.7.8.1.1.3.2.4.2 1.6 0 3.2.3 4.6 1.3.6.4 1.2.6 1.9.4.5.2.8.1 2.3.2h.2c.9-.2 1.7-.4 2.3-.2.9.3 1.3.5 1.6.5 2.7.1 3.3 2.6 5.3 3.9 1.9 1.2 2.2 1.5 3 .7v.1c1.1 1.4 3.4 1.3 4.9 1.1l.3.3c1.5 1.9 1.3 4.1 1.1 6.2l-.1 1.2c0 .9.1 3.8.7 7.1.2 1.1.3 1.8.5 2.1.6.9.7-1.5.6-3.3-.1-1.8-.8-1.1.2-3.1.5-.9.6-2.3 1.3-2.3.4.2 1.7.9 1.5.6zm-25.9-15.2c0 .1 0 0 0 0z"/></svg>