<svg version="1" xmlns="http://www.w3.org/2000/svg" viewBox="0 0 200 200"><path d="M167.1 61.1l2.3-2.5-11.1-10-2.3 2.5M171 56.3l1.3-1.4c2.8-3 4.7-5.3-.5-10.5-5.2-5.3-7.8-2.6-10.5.5l-1.3 1.4 11 10z"/><path opacity=".75" d="M121.7 99.5l-.4 1.5.4-1.5z"/><path d="M121.7 99.5l-.4 1.5.4-1.5z"/><path stroke="#000" stroke-width="0" stroke-linecap="round" stroke-linejoin="round" d="M45.6 120.7c-.1 0-.1-.1-.2-.1"/><path opacity=".6" d="M165.5 130l-13.3-52.2-16.7 18.6-14.2 4.6v.2c-1 .6-2 1.5-3 .9-.5.2-1 .2-1.4-.4-.9-1.3-2.3.2-3.9-.3-1.2-.4-.4-.6-1 .6-.2.5-.5.8-1 1.1-.6.4-1.4 0-2-.4-.2.5-.5.8-1.1.6-.5-.2-.9-.4-1.2-.8-.9-.9-.4.4-.3 1.1 0 1-1.5 1-1.6 0 0-1.1-.4-2.7.8-3.2.6-.2 2.2.3 2.2 1 .1-.6.7-1 1.2-.7 1.9 1.1 1.5-.4 2.6-1.2.5-.3.9-.3 1.4.1 1.5 1 2.6-.9 3.9-.2.3.2.6.4.8.7.3.5.3.5.2.6.3-.2.7-.1 1 .2l.4-.2c.1 0 .1-.1.2-.1.4-.2 1-.5 1.5-.8.1-.1.2-.1.3-.1.1 0 .2-.1.2-.1h.1l2.2-10.5c-.2 0-.4 0-.6-.1-1.3-.8-2.1-1.3-3.7-.9-1.3.3-1.9 1.8-3 2.4-1.8 1.1-3 1-4.2 0-1 1.5-2.1 3.3-3.7 3.8-2 .6-2.2-1-2.8-2.3-.2.5-.3 1.1-.7 1.4-.6.4-1 .7-1.7.8-1 .2-1.6-.6-1.8-1.5-.3-1 1.4-1.4 1.6-.4.2.6 1.4-1.7 1.5-1.9.1-.2.6-.5.8-.6.3-.2.8-.1 1 .2.6.7 1.3 3.3 2.5 1.9.9-1 1.6-2.1 2.4-3.2.3-.4.9-.5 1.3-.1 2.5 2.8 3.9-1.9 6.3-2.2 2-.3 2.9-.1 4.4.7.3-.3.6-.5.9-.8L136.2 73c-.3.1-.7.1-1.1 0-.4.9-1.1 2-2.2 1.7-1.5-.5-2.9.1-4.3.6-.3.1-.8.3-1.2.1-1-.4-1.9-.7-3-.4-.9.2-1.5 1.7-2.3 2.3-1.4 1-2.6-.2-3.9-.5-2.2-.5-1 1.5-2.1 2.2-.3.2-.6.2-.9.1-1.6-.7-2.5.9-3.4 1.9-.7.8-1.2 1.6-2.4 1.5-1.3 0-2.9-.4-4.2-.1-1.1.3-1.9.9-2.9 1.6-.2.2-.5.3-.8.2-1.2-.6-2.3-1.5-3.8-1.5-1.1 0-1-1.7.1-1.7 1.2 0 2.1.4 3.1 1 1.2.7 1.5-.4 2.5-.8s2.1-.6 3.2-.5c.5 0 2.6.5 3 .1 1.1-1.1 2.6-3.6 4.5-3.7.6 0 .7 0 .9.1.1-.4.2-.7.3-1.1.5-1 1.7-1.4 2.7-1.2 1.6.4 2.4 1.4 3.9-.4.4-.5.8-.9 1.4-1.1 1.9-.5 3.9.4 5.6-.2 1-.3 2-.6 3.1-.7.7 0 1 .9 1.5-.4.1-.2.2-.5.4-.7.2-.3.6-.4 1-.3 1.5.5 1.7-.9 2-1.7.2-.5.8-.7 1.2-.4.5.3.7.5.9.7l8.5-9.5-.6-2.5c-.8-3.3-3.5-4.1-7.5-4.5-4-.3-10.7-1.1-26.2 2.8s-18.8 7.5-21.9 9.4c-3.1 1.9-5.3 4.2-4.5 7.5l.7 2.9 1.5-.4c1-.2 2 .4 2.3 1.4.2 1-.4 2-1.4 2.3l-1.5.4 1.8 7.2 1.5-.4c1-.3 2 .3 2.3 1.3.2 1-.4 2-1.4 2.3l-1.5.4 1.7 6.7 1.5-.4c1-.3 2 .3 2.3 1.3.2 1-.4 2-1.4 2.3l-1.5.4 1.7 6.7 1.5-.4c1-.3 2 .4 2.3 1.3.2 1-.4 2-1.3 2.3l-1.5.4 1.7 6.7 1.5-.4c1-.3 2 .3 2.3 1.3.3 1-.4 2-1.3 2.3l-1.5.4 1.7 6.7 1.5-.4c1-.2 2 .3 2.3 1.3.3 1-.4 2-1.3 2.3l-1.5.4 1.8 7.2 1.5-.4c1-.2 2 .4 2.3 1.3.3 1-.4 2-1.3 2.3l-1.5.4.7 2.7c.8 3.3 3 7.8 7.5 4.5 2.6-1.9 5.5-4.9 23.1-9.7 13.8-3.8 20.1-2.9 24.9-2.5 6 .8 5.5-3.9 4.7-7.3zM96.9 75.9c-1-.4-.4-1.9.6-1.5 1.5.6 2.3-2.8 4-2.9.5 0 .9.2 1.3.4 1.5.6 2.4-.9 3.2-1.7.7-.8 1.4-1.4 2.3-1.8.3-.2.8 0 1 .2.8 1 3.7.4 4.9.4 2.4.1 2.8-1.1 4.4-2.4 2.3-1.9 5.3-.8 7.9-2 .3-.1.6-.1.8.1 1.3 1.1 2.3-.7 3.4-1.5.9-.6 1.9-.8 2.9-1.2.7-.2 1.9-.8 2.7-.6.8.2 2.1 1 3 .8 1-.2 1.3 1.4.2 1.6-.8.2-.9.2-1.7-.1-1.9-.6-2.7-.6-4.3 0-1.9.6-3 1.7-4.4 2.9-.5.4-1.1.4-1.7.1-1.3-.6-2.1 0-3.5 0-2.3.1-3.8.3-5.4 2.1-.6.7-1.6 1.4-2.6 1.5-1.9.1-3.7.1-5.6.2-.8 0-1.3-.2-1.8-.7-1.4.9-2.3 2.6-3.9 3.4-.9.4-3.1-.8-3.6 0-1.1 2.1-1.7 3.7-4.1 2.7z"/><path d="M165.6 62.9l-13.4 14.9-16.7 18.6-14.2 4.6.4-1.5h-.1l2.2-10.5.6-2.6 11.9-13.3 2.9-3.2 8.5-9.5 6.8-7.6 11.1 10.1z"/><path opacity=".6" d="M103.6 145.8l-.7-2.7-1.9.5c-.1 0-.3.1-.5.1-.8 0-1.6-.6-1.8-1.4-.2-1 .4-2 1.4-2.3l1.9-.5-1.8-7.2-1.9.5c-.1 0-.3.1-.5.1-.8 0-1.6-.6-1.8-1.4-.3-1 .4-2 1.3-2.3l1.9-.5-1.7-6.7-1.9.5c-.1 0-.3.1-.5.1-.8 0-1.6-.6-1.8-1.4-.3-1 .4-2 1.3-2.3l1.9-.5-1.7-6.7-1.9.5c-.2 0-.3.1-.5.1-.8 0-1.6-.6-1.8-1.4-.3-1 .4-2 1.3-2.3l2.1-.6-1.7-6.7-1.9.5h-.5c-.8 0-1.6-.6-1.8-1.4-.3-1 .4-2 1.3-2.3l1.9-.5-1.6-6.6-1.9.5c-.2 0-.3.1-.5.1-.8 0-1.6-.6-1.8-1.4-.3-1 .3-2 1.3-2.3l1.9-.5-1.7-7.2-1.9.5c-.2 0-.3.1-.5.1-.8 0-1.6-.6-1.8-1.4-.2-1 .4-2 1.4-2.3l1.9-.5-.7-2.9c-.9-3.3-3.9-4.3-7.5-4.5-3.6-.2-8.3-1.8-23.7 2.2-15.5 3.9-21 7.8-24.3 10-3.3 2.2-5.3 4.2-4.5 7.5L43.6 161c.8 3.3 2.7 7.7 7.5 4.5 4.1-2.7 7.5-5.7 23.1-9.7 17.7-4.6 21.8-2.9 24.9-2.5 5.6.7 5.4-4.2 4.5-7.5zM32 90.2c.8-.8 1.6-1.5 2.8-.8.9.5 1.7 1.2 2.7 1.6 1 .4.8-.2 1.2-.9.7-1.2 1.5-.8 2.7-1 2-.2 5.1-.5 6-2.7.2-.4.6-.6 1-.4.7.3 1.7-.3 2.3.2.4.3.6.7.9 1.1.6-1 .8-2.1 1.1-3.4.1-.5.6-.8 1.1-.6.3.1 2.5 1.4 2.5 1.5.1-.3.5-.6.8-.6.5-.1 1.3.2 1.7.5 2.2 1.8 2.3-1.1 2.2-2.5-.1-.6.7-1.3 1.3-.8 1.4 1.3 3.5 1.7 4.8-.1.2-.3.6-.4.9-.2 1.9.5 3.2-1.8 4.9-2.2 1.1-.3 2.9 1.6 2.7-.6-.1-.8.9-1.2 1.4-.6.9 1 1.3 2.2 1.9 3.4.4.9-1 1.5-1.5.6-.1-.3-.3-.6-.4-.9-.3.7-.9 1-2.2.4-2.1-1.1-2.5.2-4.3 1-.9.4-1.6.6-2.5.5-1.5 1.6-3.6 1.8-5.4.9-.2 2-1 4.7-3.1 3.6-.5-.3-1.8-1.3-1.8-1.3-.2.2-.6.5-.8.5-1.3 0-1.8-.6-2.7-1.1-.3 1.4-.8 2.7-1.7 4-.4.4-.9.4-1.3 0-.5-.5-.8-1.5-1.7-1.5h-.8c-1.6 2.5-5.5 3.1-8.1 3-.7 0-.6 2.4-2.2 2.1-1.1-.2-4-2.4-4.8-1.6-1 .6-2.3-.3-1.6-1.1zm4.2 11.1c-.4.6-.9 1-1.6 1.3-1 .3-1.6-1.2-.6-1.5.7-.3 1.1-.8 1.2-1.4-.1-.3-.1-.6 0-1 .1-.9 1.4-.9 1.6 0v.2c.4.1.7.3 1.1.5.2-.6 1-.7 1.4-.2.3.4 2.6-.3 2.9-.4.9-.4 1.6-1 2.2-1.8.9-1.2 1.6-2.4 2.9-3.3.4-.2.8-.2 1.1.1.8.9 1.1 2 1.7 3 .1-.1.3-.1.4-.1 1.8.2 4.2-1.5 5-3.1.2-.3.5-.6.8-.5-.1 0 2.8.5 3 .5.6-.1.8-1.1 1.1-1.6.8-1.1 2.1-1.8 3.4-.8 1.6 1.2 2.7 1.6 4.4.7.7-.3 1.3-.6 2-.8.9-.2 1.5.3 1.9.9.4-.6.6-1.3.8-2.1.1-.5.9-.7 1.2-.3.8.7 2.1 1.6 3.2 1.6.4 0 .4-1.3.4-1.5.1-1.1-.1-2.2.2-3.2.4-1.8 1.7-2 3-.8.8.7-.2 1.9-1 1.3-.8-.7-.5 2-.6 2.6 0 .8-.1 1.8-.6 2.6-1 1.5-3.3.6-4.8-.5-.3.9-.8 1.8-1.7 2.4-.4.3-1 .2-1.2-.3-.6-1.8-3.8.4-4.9.6-1.2.1-3.9-2.7-4.7-1-.8 1.6-.9 1.8-2.6 2-.7.1-1.6-.2-2.4-.4-1.2 1.8-3.5 3.4-5.6 3.5 0 .1-.1.3-.1.4-.2.6-1 .7-1.4.2-.7-1.1-1.1-2.3-1.8-3.4-1.6 1.5-2.4 4.1-4.8 4.8-1.3.4-2.8 1.1-3.9.5-.8.7-1.9.7-2.6.3zm1.7 9.5c.6-.4 1.1-.9 1.7-1.3.2-.6 1-.6 1.4-.2 1.2 1.6 2.1-.2 2.6-.8.3-.4 1-.4 1.3 0 .2.7.7.9 1.5.8.4-.1.7 0 .9.2 1 1.1 2.5-.9 3.2-1.5.4-.4 1-.1 1.2.3.8 1.5 5.8-1.3 6.6-2 .8-.7 1.7-1.8 2.7-2.2 2.3-.9 2.8 1 3.3 2.8.5-.7.8-1.5 2.1-1.5 0 0 4.2-.8 4.2-1.5-.1-.8.9-1.2 1.4-.6.7.8 1.2.2 1.3-.6.1-.7.9-.9 1.4-.4.5.6 1.1 1.1 1.7 1.4.2-.6.2-1.2 0-1.9-.1-.8.7-1.1 1.3-.8 1 .6 2.5 1.5 3.1-.2.4-.9 1.9-.3 1.5.6-.5 1.3-.9 2.1-2.3 2.5-.7.2-1.3-.2-1.9-.7-.1.6-.2 1.1-.5 1.7-.2.4-.6.6-1 .4-.8-.3-1.5-.7-2.1-1.2-.2.6-.6 1.2-1.2 1.4-.7.3-1.3.1-1.7-.4-.5.5-1.4.7-2.2 1.2-.8.6-1.5.5-2.5.5-1.2-.1-1.7 1.5-2.7 1.9-.4.2-.9 0-1-.4-.3-1-.5-2-.9-3-.3-.7-2 1.1-2.1 1.2-1 .9-2.1 1.6-3.3 2.2-1.6.7-4.3 1.8-5.9.7-1.4 1.3-2.9 2.3-4.5 1.1-.9.2-1.6 0-2.2-.6-1.2 1.4-2.3 2.1-3.7.9-.6.7-1.4 1-2.4 1.2-1 .6-1.3-1-.3-1.2zm3.2 10.5c.5 2.4.6 0 .9-1 .2-.6 1-.6 1.4-.2.6.6 1.5-1 2.2-1.1.7-.1 1.7 0 2.4.1 2.9.4 4-3.1 6.4-4.4.3-.2.7 0 1 .2 1.5 1.5 4.9 1.2 7 .9 1.4-.2 1.9 1.3 3.5.6 1.2-.5 2.4-1.1 3-2.3.2-.4.5-.7.8-1 1.1-.9 3.6-.3 4.9-.4.6-.1 1.1.5.9 1.1.7.1 1.3-.1 1.6-.7.1-.2.3-.4.4-.6 0-.2.1-.3.2-.4-.1-.1-.2-.2-.3-.4-.4-.5 0-1.2.5-1.3 1-.2 1.4.2 1.5.9 1.5.9 2.3-1.2 3.5-.3 1.3 1 2.7-.4 3.9-.8 1-.3 1.6 1.1.6 1.5-1.5.5-3.9 2.7-5.4.9-.4.2-.8.3-1.3.4-.3.1-.8.2-1.1.1-.3-.1-.5-.1-.7-.2-.3.7-.8 1.4-1.1 1.7-1.4 1.2-3.9 1.4-4.1-.3-1.4-.1-3.2-.2-3.7.8-.4.7-.8 1.1-1.4 1.6-1.2.9-3.1 1.7-4.6 1.6-.8-.1-1.3-.8-2.2-.8-1.3 0-2.4 0-3.6.3-1.4.3-2.7-.5-3.7-1.4-1.6 1.1-2.6 3.1-4.3 4.1-1.4.8-2.1 0-3.5.2-.3.1-.7.1-1 0 .1.1 0 .2-.2.5-.2.2-.4.4-.7.5-.6.4-1.1.4-1.6.1-.1 1.3-.3 2.9-1.9 2.7-1.4-.2-1.7-2-1.9-3.1-.1-.9 1.5-1.1 1.7-.1zm-.2 9.7c-1-.3-.4-1.8.6-1.5.3.1 2.5.5 2.8 0v-.3c.2-.8 1.6-1 1.6 0v.3c.1-1 3.3-1.7 3.9-2.2.3-.3.9-.2 1.1.1.7.9 1.3-.6 1.5-.9.3-.5 1.2-.4 1.4.2.3.8.1 1.6 1 1.5.5 0 3-.2 2.5-1.2-.1-.2-.1-.6.1-.8 1-1.2 3.6-3.2 5.3-2.5 1.2.5 2.2 1.8 2.1 3 2.2.3 2.8-4.1 5-3.8 1.3.2 3 2.3 4.3 1.6 1-.5 1.5-1.4 2.3-2.1 1.4-1.2 3.1-1.4 4.6-.1 1.1 1 1.7 1.2 3.1.2.9-.7 1.6-1.4 2.4-2.1.7-.7 2 .2 1.3 1-1.2 1.2-3.7 4.1-5.7 3.7-1-.2-1.2-.9-2-1.4-2.1-1.4-3.3 1-4.6 2-.9.6-1.9.7-2.9.5-1.2-.3-2.5-2.2-3.5-.9-1.3 1.8-3 4-5.5 2.8-.5-.2-.6-.8-.3-1.2.3-.5-1.4-1.6-1.8-1.4-.3.1-2.6 1.2-2.4 1.5.5.9-.3 2-1.1 2.3-.9.4-2.6.9-3.6.8-.8-.1-1.2-.6-1.5-1.3-.8.8-1.7 1.1-2.6.4-1.2.8-3.8 2.1-5.1 1.9-1.3.5-3.2.3-4.3-.1zm2.7 9.8c.1-.6.7-1 1.2-.5.5.4.4.7.4 1.3 1 .3 1 .4 1.2.2v-.7c.1-.8 1.3-1.1 1.6-.3.1.2.1.4.1.6.4.3 3.2-1.4 3.6-1.8.4-.4 1.2-.4 1.4.2.4-.2.8-.4 1.3-.5.3-.6.9-.6 1.4-.2 1.7 1.7 4.1-2.1 5.2-3 1.8-1.5 4.4-.8 6.4-2 .9-.5 2.4-1.4 3.3-.6.7.6.9 1.7 1.7 2.3 1.9 1.5 2.3-1.1 2.8-1.9.6-1.1 1.6-2.4 3-2.3 1 0 1.5.8 2.1 1.5.1.2.5 1.1.4 1.3.3-.4.8-1.2 1.4-1.4.8-.2 2.3 0 2.8-.3.9-.5 1.7-1.1 2.5-1.8s1.7.6 1 1.3c-.8.7-1.8 1.7-2.8 2-.9.3-2.5-.1-3.2.7-.6.7-1.7 2-2.6.9-.8-.8-1.6-4.6-3.1-1.3-.7 1.5-1.2 3.3-3.1 3.5-1.7.2-3.2-2-4-3.2 0 .6-7.6 2.5-7.8 2.6-1.8 1.7-4.1 4.9-6.6 3.4-.9 1.1-2.2 1.6-3.1.7-1.3 1-3.6 2.2-4.9 1.7-1.3.7-3.9-.1-3.6-2.4zm46.3.5c-1.6 0-3.2-.3-4.4 1-.3.3-.7.6-1.1.7-1 .2-1.9.2-2.9-.1-1.1-.3-1 1-1.5 1.5-1.3 1.7-3.7 1.7-4.9.1-1.2.2-2.5.2-3.7.6-.9.3-1.6.4-2.6.2-1.6-.4-2.7-.3-3.9.9-.9.9-1.8 1.9-2.7 2.8-.3.3-.8.4-1.1.1-1.5-1.2-1.9-1-2.4.8-.1.4-.7.6-1.1.4-1.1-.4-3.1-.9-3.8-1.9-.8-1.2-1.6-.2-2.5.3-.9.5-1.7.8-2.4.5-.5.8-1.2 1.2-2.3.9-1-.2-.8-1.8.2-1.6.4-.3.7-.5 1-.8.3-.6 1-.6 1.4-.2.6.6 3.1-1.9 4.1-1.8.6 0 .8.2 1.2.6 1 1.1 1.8 1.5 2.9 2 .8-2.2 2-2.6 4-1.2 1.4-1.6 3-3.7 5-4.1 1.7-.3 3.3.5 5-.1 1.3-.4 2.5-.2 3.9-.5.3-.1.7.2.8.5 1.3 3.1 2.9-.9 3.2-1.3.1-.3.4-.4.6-.6.6-.6 2.1.1 2.7.2 1.9.2 2-1.2 3.5-1.5 1.2-.2 2.3-.2 3.5-.2 1 .2 1.3 1.8.3 1.8z"/><path d="M90.2 79.3l-1.5.4-1.7.5-1.9.5c-.2 0-.3.1-.5.1-.8 0-1.6-.6-1.8-1.4-.2-1 .4-2 1.4-2.3l1.9-.5 1.8-.5 1.5-.4c1-.2 2 .4 2.3 1.4.1 1-.5 2-1.5 2.2zM93 90.2l-1.5.4-1.8.4-1.9.5c-.2 0-.3.1-.5.1-.8 0-1.6-.6-1.8-1.4-.3-1 .3-2 1.3-2.3l1.9-.5 1.8-.5 1.5-.4c1-.3 2 .3 2.3 1.3.3 1.1-.3 2.1-1.3 2.4zM95.6 100.5l-1.5.4-1.8.5-1.9.5h-.5c-.8 0-1.6-.6-1.8-1.4-.3-1 .4-2 1.3-2.3l1.9-.5 1.8-.5 1.5-.4c1-.3 2 .3 2.3 1.3.3 1.1-.3 2.1-1.3 2.4zM98.2 110.8l-1.5.4-1.8.5-1.9.5c-.2 0-.3.1-.5.1-.8 0-1.6-.6-1.8-1.4-.3-1 .4-2 1.3-2.3l2-.6 1.8-.5 1.5-.4c1-.3 2 .4 2.3 1.3.2 1.1-.4 2.1-1.4 2.4zM100.9 121.1l-1.5.4-1.8.5-1.9.5c-.1 0-.3.1-.5.1-.8 0-1.6-.6-1.8-1.4-.3-1 .4-2 1.3-2.3l1.9-.5 1.8-.5 1.5-.4c1-.3 2 .3 2.3 1.3.3 1-.4 2-1.3 2.3zM103.5 131.4l-1.5.4-1.8.5-1.9.5c-.1 0-.3.1-.5.1-.8 0-1.6-.6-1.8-1.4-.3-1 .4-2 1.3-2.3l1.9-.5 1.8-.5 1.5-.4c1-.2 2 .3 2.3 1.3.3 1-.3 2.1-1.3 2.3zM106.2 142.2l-1.5.4-1.8.5-1.9.5c-.1 0-.3.1-.5.1-.8 0-1.6-.6-1.8-1.4-.2-1 .4-2 1.4-2.3l1.9-.5 1.8-.5 1.5-.4c1-.2 2 .4 2.3 1.3.2 1.1-.4 2.1-1.4 2.3z"/></svg>