<?xml version="1.0" encoding="utf-8"?>
<!-- Generator: Adobe Illustrator 18.1.1, SVG Export Plug-In . SVG Version: 6.00 Build 0)  -->
<svg version="1.0" xmlns="http://www.w3.org/2000/svg" xmlns:xlink="http://www.w3.org/1999/xlink" x="0px" y="0px"
	 viewBox="0 0 200 200" enable-background="new 0 0 200 200" xml:space="preserve">
<g id="Layer_1">
</g>
<g id="Layer_2">
	<g id="Add_Favorite">
	</g>
	<g id="New_Symbol_17">
	</g>
	<g>
		<polygon points="167.1,61.1 169.4,58.6 158.3,48.6 156,51.1 		"/>
		<path d="M171,56.3l1.3-1.4c2.8-3,4.7-5.3-0.5-10.5c-5.2-5.3-7.8-2.6-10.5,0.5l-1.3,1.4L171,56.3z"/>
		<path opacity="0.75" d="M121.7,99.5l-0.4,1.5l0,0L121.7,99.5C121.7,99.5,121.7,99.5,121.7,99.5C121.7,99.5,121.7,99.5,121.7,99.5z
			"/>
		<path d="M121.7,99.5l-0.4,1.5l0,0L121.7,99.5C121.7,99.5,121.7,99.5,121.7,99.5C121.7,99.5,121.7,99.5,121.7,99.5z"/>
		<path stroke="#000000" stroke-width="0" stroke-linecap="round" stroke-linejoin="round" d="M45.6,120.7c-0.1,0-0.1-0.1-0.2-0.1"
			/>
		<path opacity="0.6" d="M165.5,130l-13.3-52.2l-16.7,18.6l-14.2,4.6l0,0.2c-1,0.6-2,1.5-3,0.9c-0.5,0.2-1,0.2-1.4-0.4
			c-0.9-1.3-2.3,0.2-3.9-0.3c-1.2-0.4-0.4-0.6-1,0.6c-0.2,0.5-0.5,0.8-1,1.1c-0.6,0.4-1.4,0-2-0.4c-0.2,0.5-0.5,0.8-1.1,0.6
			c-0.5-0.2-0.9-0.4-1.2-0.8c-0.9-0.9-0.4,0.4-0.3,1.1c0,1-1.5,1-1.6,0c0-1.1-0.4-2.7,0.8-3.2c0.6-0.2,2.2,0.3,2.2,1
			c0.1-0.6,0.7-1,1.2-0.7c1.9,1.1,1.5-0.4,2.6-1.2c0.5-0.3,0.9-0.3,1.4,0.1c1.5,1,2.6-0.9,3.9-0.2c0.3,0.2,0.6,0.4,0.8,0.7
			c0.3,0.5,0.3,0.5,0.2,0.6c0.3-0.2,0.7-0.1,1,0.2c0,0,0.2-0.1,0.4-0.2c0.1,0,0.1-0.1,0.2-0.1c0.4-0.2,1-0.5,1.5-0.8
			c0.1-0.1,0.2-0.1,0.3-0.1c0.1,0,0.2-0.1,0.2-0.1c0,0,0.1,0,0.1,0l2.2-10.5c-0.2,0-0.4,0-0.6-0.1c-1.3-0.8-2.1-1.3-3.7-0.9
			c-1.3,0.3-1.9,1.8-3,2.4c-1.8,1.1-3,1-4.2,0c-1,1.5-2.1,3.3-3.7,3.8c-2,0.6-2.2-1-2.8-2.3c-0.2,0.5-0.3,1.1-0.7,1.4
			c-0.6,0.4-1,0.7-1.7,0.8c-1,0.2-1.6-0.6-1.8-1.5c-0.3-1,1.4-1.4,1.6-0.4c0.2,0.6,1.4-1.7,1.5-1.9c0.1-0.2,0.6-0.5,0.8-0.6
			c0.3-0.2,0.8-0.1,1,0.2c0.6,0.7,1.3,3.3,2.5,1.9c0.9-1,1.6-2.1,2.4-3.2c0.3-0.4,0.9-0.5,1.3-0.1c2.5,2.8,3.9-1.9,6.3-2.2
			c2-0.3,2.9-0.1,4.4,0.7c0.3-0.3,0.6-0.5,0.9-0.8l11.9-13.3c-0.3,0.1-0.7,0.1-1.1,0c-0.4,0.9-1.1,2-2.2,1.7
			c-1.5-0.5-2.9,0.1-4.3,0.6c-0.3,0.1-0.8,0.3-1.2,0.1c-1-0.4-1.9-0.7-3-0.4c-0.9,0.2-1.5,1.7-2.3,2.3c-1.4,1-2.6-0.2-3.9-0.5
			c-2.2-0.5-1,1.5-2.1,2.2c-0.3,0.2-0.6,0.2-0.9,0.1c-1.6-0.7-2.5,0.9-3.4,1.9c-0.7,0.8-1.2,1.6-2.4,1.5c-1.3,0-2.9-0.4-4.2-0.1
			c-1.1,0.3-1.9,0.9-2.9,1.6c-0.2,0.2-0.5,0.3-0.8,0.2c-1.2-0.6-2.3-1.5-3.8-1.5c-1.1,0-1-1.7,0.1-1.7c1.2,0,2.1,0.4,3.1,1
			c1.2,0.7,1.5-0.4,2.5-0.8c1-0.4,2.1-0.6,3.2-0.5c0.5,0,2.6,0.5,3,0.1c1.1-1.1,2.6-3.6,4.5-3.7c0.6,0,0.7,0,0.9,0.1
			c0.1-0.4,0.2-0.7,0.3-1.1c0.5-1,1.7-1.4,2.7-1.2c1.6,0.4,2.4,1.4,3.9-0.4c0.4-0.5,0.8-0.9,1.4-1.1c1.9-0.5,3.9,0.4,5.6-0.2
			c1-0.3,2-0.6,3.1-0.7c0.7,0,1,0.9,1.5-0.4c0.1-0.2,0.2-0.5,0.4-0.7c0.2-0.3,0.6-0.4,1-0.3c1.5,0.5,1.7-0.9,2-1.7
			c0.2-0.5,0.8-0.7,1.2-0.4c0.5,0.3,0.7,0.5,0.9,0.7l8.5-9.5l-0.6-2.5c-0.8-3.3-3.5-4.1-7.5-4.5c-4-0.3-10.7-1.1-26.2,2.8
			c-15.5,3.9-18.8,7.5-21.9,9.4c-3.1,1.9-5.3,4.2-4.5,7.5l0.7,2.9l1.5-0.4c1-0.2,2,0.4,2.3,1.4c0.2,1-0.4,2-1.4,2.3l-1.5,0.4
			l1.8,7.2l1.5-0.4c1-0.3,2,0.3,2.3,1.3c0.2,1-0.4,2-1.4,2.3l-1.5,0.4l1.7,6.7l1.5-0.4c1-0.3,2,0.3,2.3,1.3c0.2,1-0.4,2-1.4,2.3
			l-1.5,0.4l1.7,6.7l1.5-0.4c1-0.3,2,0.4,2.3,1.3c0.2,1-0.4,2-1.3,2.3l-1.5,0.4l1.7,6.7l1.5-0.4c1-0.3,2,0.3,2.3,1.3
			c0.3,1-0.4,2-1.3,2.3l-1.5,0.4l1.7,6.7l1.5-0.4c1-0.2,2,0.3,2.3,1.3c0.3,1-0.4,2-1.3,2.3l-1.5,0.4l1.8,7.2l1.5-0.4
			c1-0.2,2,0.4,2.3,1.3c0.3,1-0.4,2-1.3,2.3l-1.5,0.4l0.7,2.7c0.8,3.3,3,7.8,7.5,4.5c2.6-1.9,5.5-4.9,23.1-9.7
			c13.8-3.8,20.1-2.9,24.9-2.5C166.8,138.1,166.3,133.4,165.5,130z M96.9,75.9c-1-0.4-0.4-1.9,0.6-1.5c1.5,0.6,2.3-2.8,4-2.9
			c0.5,0,0.9,0.2,1.3,0.4c1.5,0.6,2.4-0.9,3.2-1.7c0.7-0.8,1.4-1.4,2.3-1.8c0.3-0.2,0.8,0,1,0.2c0.8,1,3.7,0.4,4.9,0.4
			c2.4,0.1,2.8-1.1,4.4-2.4c2.3-1.9,5.3-0.8,7.9-2c0.3-0.1,0.6-0.1,0.8,0.1c1.3,1.1,2.3-0.7,3.4-1.5c0.9-0.6,1.9-0.8,2.9-1.2
			c0.7-0.2,1.9-0.8,2.7-0.6c0.8,0.2,2.1,1,3,0.8c1-0.2,1.3,1.4,0.2,1.6c-0.8,0.2-0.9,0.2-1.7-0.1c-1.9-0.6-2.7-0.6-4.3,0
			c-1.9,0.6-3,1.7-4.4,2.9c-0.5,0.4-1.1,0.4-1.7,0.1c-1.3-0.6-2.1,0-3.5,0c-2.3,0.1-3.8,0.3-5.4,2.1c-0.6,0.7-1.6,1.4-2.6,1.5
			c-1.9,0.1-3.7,0.1-5.6,0.2c-0.8,0-1.3-0.2-1.8-0.7c-1.4,0.9-2.3,2.6-3.9,3.4c-0.9,0.4-3.1-0.8-3.6,0
			C99.9,75.3,99.3,76.9,96.9,75.9z"/>
		<path d="M165.6,62.9l-13.4,14.9l-16.7,18.6l-14.2,4.6l0.4-1.5c0,0,0,0,0,0c0,0,0,0-0.1,0l2.2-10.5l0.6-2.6l0,0l11.9-13.3l2.9-3.2
			l8.5-9.5l6.8-7.6L165.6,62.9z"/>
		<path opacity="0.6" d="M103.6,145.8l-0.7-2.7l-1.9,0.5c-0.1,0-0.3,0.1-0.5,0.1c-0.8,0-1.6-0.6-1.8-1.4c-0.2-1,0.4-2,1.4-2.3
			l1.9-0.5l-1.8-7.2l-1.9,0.5c-0.1,0-0.3,0.1-0.5,0.1c-0.8,0-1.6-0.6-1.8-1.4c-0.3-1,0.4-2,1.3-2.3l1.9-0.5l-1.7-6.7l-1.9,0.5
			c-0.1,0-0.3,0.1-0.5,0.1c-0.8,0-1.6-0.6-1.8-1.4c-0.3-1,0.4-2,1.3-2.3l1.9-0.5l-1.7-6.7l-1.9,0.5c-0.2,0-0.3,0.1-0.5,0.1
			c-0.8,0-1.6-0.6-1.8-1.4c-0.3-1,0.4-2,1.3-2.3L94,108l-1.7-6.7l-1.9,0.5c-0.1,0-0.3,0-0.5,0c-0.8,0-1.6-0.6-1.8-1.4
			c-0.3-1,0.4-2,1.3-2.3l1.9-0.5L89.7,91l-1.9,0.5c-0.2,0-0.3,0.1-0.5,0.1c-0.8,0-1.6-0.6-1.8-1.4c-0.3-1,0.3-2,1.3-2.3l1.9-0.5
			L87,80.2l-1.9,0.5c-0.2,0-0.3,0.1-0.5,0.1c-0.8,0-1.6-0.6-1.8-1.4c-0.2-1,0.4-2,1.4-2.3l1.9-0.5l-0.7-2.9
			c-0.9-3.3-3.9-4.3-7.5-4.5c-3.6-0.2-8.3-1.8-23.7,2.2c-15.5,3.9-21,7.8-24.3,10c-3.3,2.2-5.3,4.2-4.5,7.5L43.6,161
			c0.8,3.3,2.7,7.7,7.5,4.5c4.1-2.7,7.5-5.7,23.1-9.7c17.7-4.6,21.8-2.9,24.9-2.5C104.7,154,104.5,149.1,103.6,145.8z M32,90.2
			c0.8-0.8,1.6-1.5,2.8-0.8c0.9,0.5,1.7,1.2,2.7,1.6c1,0.4,0.8-0.2,1.2-0.9c0.7-1.2,1.5-0.8,2.7-1c2-0.2,5.1-0.5,6-2.7
			c0.2-0.4,0.6-0.6,1-0.4c0.7,0.3,1.7-0.3,2.3,0.2c0.4,0.3,0.6,0.7,0.9,1.1c0.6-1,0.8-2.1,1.1-3.4c0.1-0.5,0.6-0.8,1.1-0.6
			c0.3,0.1,2.5,1.4,2.5,1.5c0.1-0.3,0.5-0.6,0.8-0.6c0.5-0.1,1.3,0.2,1.7,0.5c2.2,1.8,2.3-1.1,2.2-2.5c-0.1-0.6,0.7-1.3,1.3-0.8
			c1.4,1.3,3.5,1.7,4.8-0.1c0.2-0.3,0.6-0.4,0.9-0.2c1.9,0.5,3.2-1.8,4.9-2.2c1.1-0.3,2.9,1.6,2.7-0.6c-0.1-0.8,0.9-1.2,1.4-0.6
			c0.9,1,1.3,2.2,1.9,3.4c0.4,0.9-1,1.5-1.5,0.6c-0.1-0.3-0.3-0.6-0.4-0.9c-0.3,0.7-0.9,1-2.2,0.4c-2.1-1.1-2.5,0.2-4.3,1
			c-0.9,0.4-1.6,0.6-2.5,0.5c-1.5,1.6-3.6,1.8-5.4,0.9c-0.2,2-1,4.7-3.1,3.6c-0.5-0.3-1.8-1.3-1.8-1.3c-0.2,0.2-0.6,0.5-0.8,0.5
			c-1.3,0-1.8-0.6-2.7-1.1c-0.3,1.4-0.8,2.7-1.7,4c-0.4,0.4-0.9,0.4-1.3,0c-0.5-0.5-0.8-1.5-1.7-1.5c-0.4,0-0.6,0-0.8,0
			c-1.6,2.5-5.5,3.1-8.1,3c-0.7,0-0.6,2.4-2.2,2.1c-1.1-0.2-4-2.4-4.8-1.6C32.6,91.9,31.3,91,32,90.2z M36.2,101.3
			c-0.4,0.6-0.9,1-1.6,1.3c-1,0.3-1.6-1.2-0.6-1.5c0.7-0.3,1.1-0.8,1.2-1.4c-0.1-0.3-0.1-0.6,0-1c0.1-0.9,1.4-0.9,1.6,0
			c0,0.1,0,0.2,0,0.2c0.4,0.1,0.7,0.3,1.1,0.5c0.2-0.6,1-0.7,1.4-0.2c0.3,0.4,2.6-0.3,2.9-0.4c0.9-0.4,1.6-1,2.2-1.8
			c0.9-1.2,1.6-2.4,2.9-3.3c0.4-0.2,0.8-0.2,1.1,0.1c0.8,0.9,1.1,2,1.7,3c0.1-0.1,0.3-0.1,0.4-0.1c1.8,0.2,4.2-1.5,5-3.1
			c0.2-0.3,0.5-0.6,0.8-0.5c-0.1,0,2.8,0.5,3,0.5c0.6-0.1,0.8-1.1,1.1-1.6c0.8-1.1,2.1-1.8,3.4-0.8c1.6,1.2,2.7,1.6,4.4,0.7
			c0.7-0.3,1.3-0.6,2-0.8c0.9-0.2,1.5,0.3,1.9,0.9c0.4-0.6,0.6-1.3,0.8-2.1c0.1-0.5,0.9-0.7,1.2-0.3c0.8,0.7,2.1,1.6,3.2,1.6
			c0.4,0,0.4-1.3,0.4-1.5c0.1-1.1-0.1-2.2,0.2-3.2c0.4-1.8,1.7-2,3-0.8c0.8,0.7-0.2,1.9-1,1.3c-0.8-0.7-0.5,2-0.6,2.6
			c0,0.8-0.1,1.8-0.6,2.6c-1,1.5-3.3,0.6-4.8-0.5c-0.3,0.9-0.8,1.8-1.7,2.4c-0.4,0.3-1,0.2-1.2-0.3c-0.6-1.8-3.8,0.4-4.9,0.6
			c-1.2,0.1-3.9-2.7-4.7-1c-0.8,1.6-0.9,1.8-2.6,2c-0.7,0.1-1.6-0.2-2.4-0.4c-1.2,1.8-3.5,3.4-5.6,3.5c0,0.1-0.1,0.3-0.1,0.4
			c-0.2,0.6-1,0.7-1.4,0.2c-0.7-1.1-1.1-2.3-1.8-3.4c-1.6,1.5-2.4,4.1-4.8,4.8c-1.3,0.4-2.8,1.1-3.9,0.5
			C38,101.7,36.9,101.7,36.2,101.3z M37.9,110.8c0.6-0.4,1.1-0.9,1.7-1.3c0.2-0.6,1-0.6,1.4-0.2c1.2,1.6,2.1-0.2,2.6-0.8
			c0.3-0.4,1-0.4,1.3,0c0.2,0.7,0.7,0.9,1.5,0.8c0.4-0.1,0.7,0,0.9,0.2c1,1.1,2.5-0.9,3.2-1.5c0.4-0.4,1-0.1,1.2,0.3
			c0.8,1.5,5.8-1.3,6.6-2c0.8-0.7,1.7-1.8,2.7-2.2c2.3-0.9,2.8,1,3.3,2.8c0.5-0.7,0.8-1.5,2.1-1.5c0,0,4.2-0.8,4.2-1.5
			c-0.1-0.8,0.9-1.2,1.4-0.6c0.7,0.8,1.2,0.2,1.3-0.6c0.1-0.7,0.9-0.9,1.4-0.4c0.5,0.6,1.1,1.1,1.7,1.4c0.2-0.6,0.2-1.2,0-1.9
			c-0.1-0.8,0.7-1.1,1.3-0.8c1,0.6,2.5,1.5,3.1-0.2c0.4-0.9,1.9-0.3,1.5,0.6c-0.5,1.3-0.9,2.1-2.3,2.5c-0.7,0.2-1.3-0.2-1.9-0.7
			c-0.1,0.6-0.2,1.1-0.5,1.7c-0.2,0.4-0.6,0.6-1,0.4c-0.8-0.3-1.5-0.7-2.1-1.2c-0.2,0.6-0.6,1.2-1.2,1.4c-0.7,0.3-1.3,0.1-1.7-0.4
			c-0.5,0.5-1.4,0.7-2.2,1.2c-0.8,0.6-1.5,0.5-2.5,0.5c-1.2-0.1-1.7,1.5-2.7,1.9c-0.4,0.2-0.9,0-1-0.4c-0.3-1-0.5-2-0.9-3
			c-0.3-0.7-2,1.1-2.1,1.2c-1,0.9-2.1,1.6-3.3,2.2c-1.6,0.7-4.3,1.8-5.9,0.7c-1.4,1.3-2.9,2.3-4.5,1.1c-0.9,0.2-1.6,0-2.2-0.6
			c-1.2,1.4-2.3,2.1-3.7,0.9c-0.6,0.7-1.4,1-2.4,1.2C37.2,112.6,36.9,111,37.9,110.8z M41.1,121.3c0.5,2.4,0.6,0,0.9-1
			c0.2-0.6,1-0.6,1.4-0.2c0.6,0.6,1.5-1,2.2-1.1c0.7-0.1,1.7,0,2.4,0.1c2.9,0.4,4-3.1,6.4-4.4c0.3-0.2,0.7,0,1,0.2
			c1.5,1.5,4.9,1.2,7,0.9c1.4-0.2,1.9,1.3,3.5,0.6c1.2-0.5,2.4-1.1,3-2.3c0.2-0.4,0.5-0.7,0.8-1c1.1-0.9,3.6-0.3,4.9-0.4
			c0.6-0.1,1.1,0.5,0.9,1.1c0.7,0.1,1.3-0.1,1.6-0.7c0.1-0.2,0.3-0.4,0.4-0.6c0-0.2,0.1-0.3,0.2-0.4c-0.1-0.1-0.2-0.2-0.3-0.4
			c-0.4-0.5,0-1.2,0.5-1.3c1-0.2,1.4,0.2,1.5,0.9c1.5,0.9,2.3-1.2,3.5-0.3c1.3,1,2.7-0.4,3.9-0.8c1-0.3,1.6,1.1,0.6,1.5
			c-1.5,0.5-3.9,2.7-5.4,0.9c-0.4,0.2-0.8,0.3-1.3,0.4c-0.3,0.1-0.8,0.2-1.1,0.1c-0.3-0.1-0.5-0.1-0.7-0.2c-0.3,0.7-0.8,1.4-1.1,1.7
			c-1.4,1.2-3.9,1.4-4.1-0.3c-1.4-0.1-3.2-0.2-3.7,0.8c-0.4,0.7-0.8,1.1-1.4,1.6c-1.2,0.9-3.1,1.7-4.6,1.6c-0.8-0.1-1.3-0.8-2.2-0.8
			c-1.3,0-2.4,0-3.6,0.3c-1.4,0.3-2.7-0.5-3.7-1.4c-1.6,1.1-2.6,3.1-4.3,4.1c-1.4,0.8-2.1,0-3.5,0.2c-0.3,0.1-0.7,0.1-1,0
			c0.1,0.1,0,0.2-0.2,0.5c-0.2,0.2-0.4,0.4-0.7,0.5c-0.6,0.4-1.1,0.4-1.6,0.1c-0.1,1.3-0.3,2.9-1.9,2.7c-1.4-0.2-1.7-2-1.9-3.1
			C39.3,120.5,40.9,120.3,41.1,121.3z M40.9,131c-1-0.3-0.4-1.8,0.6-1.5c0.3,0.1,2.5,0.5,2.8,0c0-0.1,0-0.2,0-0.3
			c0.2-0.8,1.6-1,1.6,0c0,0.1,0,0.3,0,0.3c0,0,0,0,0,0c0.1-1,3.3-1.7,3.9-2.2c0.3-0.3,0.9-0.2,1.1,0.1c0.7,0.9,1.3-0.6,1.5-0.9
			c0.3-0.5,1.2-0.4,1.4,0.2c0.3,0.8,0.1,1.6,1,1.5c0.5,0,3-0.2,2.5-1.2c-0.1-0.2-0.1-0.6,0.1-0.8c1-1.2,3.6-3.2,5.3-2.5
			c1.2,0.5,2.2,1.8,2.1,3c2.2,0.3,2.8-4.1,5-3.8c1.3,0.2,3,2.3,4.3,1.6c1-0.5,1.5-1.4,2.3-2.1c1.4-1.2,3.1-1.4,4.6-0.1
			c1.1,1,1.7,1.2,3.1,0.2c0.9-0.7,1.6-1.4,2.4-2.1c0.7-0.7,2,0.2,1.3,1c-1.2,1.2-3.7,4.1-5.7,3.7c-1-0.2-1.2-0.9-2-1.4
			c-2.1-1.4-3.3,1-4.6,2c-0.9,0.6-1.9,0.7-2.9,0.5c-1.2-0.3-2.5-2.2-3.5-0.9c-1.3,1.8-3,4-5.5,2.8c-0.5-0.2-0.6-0.8-0.3-1.2
			c0.3-0.5-1.4-1.6-1.8-1.4c-0.3,0.1-2.6,1.2-2.4,1.5c0.5,0.9-0.3,2-1.1,2.3c-0.9,0.4-2.6,0.9-3.6,0.8c-0.8-0.1-1.2-0.6-1.5-1.3
			c-0.8,0.8-1.7,1.1-2.6,0.4c-1.2,0.8-3.8,2.1-5.1,1.9C43.9,131.6,42,131.4,40.9,131z M43.6,140.8c0.1-0.6,0.7-1,1.2-0.5
			c0.5,0.4,0.4,0.7,0.4,1.3c0,0,0,0,0,0c1,0.3,1,0.4,1.2,0.2c0-0.2,0-0.4,0-0.7c0.1-0.8,1.3-1.1,1.6-0.3c0.1,0.2,0.1,0.4,0.1,0.6
			c0.4,0.3,3.2-1.4,3.6-1.8c0.4-0.4,1.2-0.4,1.4,0.2c0.4-0.2,0.8-0.4,1.3-0.5c0.3-0.6,0.9-0.6,1.4-0.2c1.7,1.7,4.1-2.1,5.2-3
			c1.8-1.5,4.4-0.8,6.4-2c0.9-0.5,2.4-1.4,3.3-0.6c0.7,0.6,0.9,1.7,1.7,2.3c1.9,1.5,2.3-1.1,2.8-1.9c0.6-1.1,1.6-2.4,3-2.3
			c1,0,1.5,0.8,2.1,1.5c0.1,0.2,0.5,1.1,0.4,1.3c0.3-0.4,0.8-1.2,1.4-1.4c0.8-0.2,2.3,0,2.8-0.3c0.9-0.5,1.7-1.1,2.5-1.8
			c0.8-0.7,1.7,0.6,1,1.3c-0.8,0.7-1.8,1.7-2.8,2c-0.9,0.3-2.5-0.1-3.2,0.7c-0.6,0.7-1.7,2-2.6,0.9c-0.8-0.8-1.6-4.6-3.1-1.3
			c-0.7,1.5-1.2,3.3-3.1,3.5c-1.7,0.2-3.2-2-4-3.2c0,0.6-7.6,2.5-7.8,2.6c-1.8,1.7-4.1,4.9-6.6,3.4c-0.9,1.1-2.2,1.6-3.1,0.7
			c-1.3,1-3.6,2.2-4.9,1.7C45.9,143.9,43.3,143.1,43.6,140.8z M89.9,141.3c-1.6,0-3.2-0.3-4.4,1c-0.3,0.3-0.7,0.6-1.1,0.7
			c-1,0.2-1.9,0.2-2.9-0.1c-1.1-0.3-1,1-1.5,1.5c-1.3,1.7-3.7,1.7-4.9,0.1c-1.2,0.2-2.5,0.2-3.7,0.6c-0.9,0.3-1.6,0.4-2.6,0.2
			c-1.6-0.4-2.7-0.3-3.9,0.9c-0.9,0.9-1.8,1.9-2.7,2.8c-0.3,0.3-0.8,0.4-1.1,0.1c-1.5-1.2-1.9-1-2.4,0.8c-0.1,0.4-0.7,0.6-1.1,0.4
			c-1.1-0.4-3.1-0.9-3.8-1.9c-0.8-1.2-1.6-0.2-2.5,0.3c-0.9,0.5-1.7,0.8-2.4,0.5c-0.5,0.8-1.2,1.2-2.3,0.9c-1-0.2-0.8-1.8,0.2-1.6
			c0.4-0.3,0.7-0.5,1-0.8c0.3-0.6,1-0.6,1.4-0.2c0.6,0.6,3.1-1.9,4.1-1.8c0.6,0,0.8,0.2,1.2,0.6c1,1.1,1.8,1.5,2.9,2
			c0.8-2.2,2-2.6,4-1.2c1.4-1.6,3-3.7,5-4.1c1.7-0.3,3.3,0.5,5-0.1c1.3-0.4,2.5-0.2,3.9-0.5c0.3-0.1,0.7,0.2,0.8,0.5
			c1.3,3.1,2.9-0.9,3.2-1.3c0.1-0.3,0.4-0.4,0.6-0.6c0.6-0.6,2.1,0.1,2.7,0.2c1.9,0.2,2-1.2,3.5-1.5c1.2-0.2,2.3-0.2,3.5-0.2
			C90.6,139.7,90.9,141.3,89.9,141.3z"/>
		<g>
			<path d="M90.2,79.3l-1.5,0.4L87,80.2l-1.9,0.5c-0.2,0-0.3,0.1-0.5,0.1c-0.8,0-1.6-0.6-1.8-1.4c-0.2-1,0.4-2,1.4-2.3l1.9-0.5
				l1.8-0.5l1.5-0.4c1-0.2,2,0.4,2.3,1.4C91.8,78.1,91.2,79.1,90.2,79.3z"/>
			<path d="M93,90.2l-1.5,0.4L89.7,91l-1.9,0.5c-0.2,0-0.3,0.1-0.5,0.1c-0.8,0-1.6-0.6-1.8-1.4c-0.3-1,0.3-2,1.3-2.3l1.9-0.5
				l1.8-0.5l1.5-0.4c1-0.3,2,0.3,2.3,1.3C94.6,88.9,94,89.9,93,90.2z"/>
			<path d="M95.6,100.5l-1.5,0.4l-1.8,0.5l-1.9,0.5c-0.1,0-0.3,0-0.5,0c-0.8,0-1.6-0.6-1.8-1.4c-0.3-1,0.4-2,1.3-2.3l1.9-0.5
				l1.8-0.5l1.5-0.4c1-0.3,2,0.3,2.3,1.3C97.2,99.2,96.6,100.2,95.6,100.5z"/>
			<path d="M98.2,110.8l-1.5,0.4l-1.8,0.5l-1.9,0.5c-0.2,0-0.3,0.1-0.5,0.1c-0.8,0-1.6-0.6-1.8-1.4c-0.3-1,0.4-2,1.3-2.3L94,108
				l1.8-0.5l1.5-0.4c1-0.3,2,0.4,2.3,1.3C99.8,109.5,99.2,110.5,98.2,110.8z"/>
			<path d="M100.9,121.1l-1.5,0.4l-1.8,0.5l-1.9,0.5c-0.1,0-0.3,0.1-0.5,0.1c-0.8,0-1.6-0.6-1.8-1.4c-0.3-1,0.4-2,1.3-2.3l1.9-0.5
				l1.8-0.5l1.5-0.4c1-0.3,2,0.3,2.3,1.3C102.5,119.8,101.8,120.8,100.9,121.1z"/>
			<path d="M103.5,131.4l-1.5,0.4l-1.8,0.5l-1.9,0.5c-0.1,0-0.3,0.1-0.5,0.1c-0.8,0-1.6-0.6-1.8-1.4c-0.3-1,0.4-2,1.3-2.3l1.9-0.5
				l1.8-0.5l1.5-0.4c1-0.2,2,0.3,2.3,1.3C105.1,130.1,104.5,131.2,103.5,131.4z"/>
			<path d="M106.2,142.2l-1.5,0.4l-1.8,0.5l-1.9,0.5c-0.1,0-0.3,0.1-0.5,0.1c-0.8,0-1.6-0.6-1.8-1.4c-0.2-1,0.4-2,1.4-2.3l1.9-0.5
				l1.8-0.5l1.5-0.4c1-0.2,2,0.4,2.3,1.3C107.8,141,107.2,142,106.2,142.2z"/>
		</g>
	</g>
</g>
</svg>
